<?xml version="1.0" standalone="no"?>
<!DOCTYPE svg PUBLIC "-//W3C//DTD SVG 20010904//EN"
 "http://www.w3.org/TR/2001/REC-SVG-20010904/DTD/svg10.dtd">
<svg version="1.0" xmlns="http://www.w3.org/2000/svg"
 width="512.000000pt" height="512.000000pt" viewBox="0 0 512.000000 512.000000"
 preserveAspectRatio="xMidYMid meet">

<g transform="translate(0.000000,512.000000) scale(0.100000,-0.100000)"
fill="#000000" stroke="none">
<path d="M1422 4944 c-29 -7 -73 -26 -97 -40 -65 -38 -149 -134 -177 -201
l-23 -58 -3 -2055 c-2 -1443 1 -2071 9 -2107 21 -103 101 -213 196 -269 96
-56 64 -55 1259 -52 l1099 3 58 23 c67 27 163 112 201 177 59 100 56 -26 56
2195 0 2216 3 2095 -55 2193 -31 54 -99 122 -150 152 -95 56 -67 55 -1240 54
-904 0 -1089 -3 -1133 -15z m2290 -177 c26 -15 59 -42 72 -60 60 -78 56 65 56
-2146 0 -2276 7 -2085 -75 -2166 -79 -80 -5 -76 -1221 -73 l-1080 3 -49 26
c-57 29 -110 92 -125 148 -7 26 -9 695 -8 2082 l3 2044 28 47 c31 53 79 94
134 114 31 11 235 13 1128 11 l1090 -2 47 -28z"/>
<path d="M1945 3285 l-25 -24 0 -701 0 -701 26 -24 c15 -14 38 -25 51 -25 30
0 1321 674 1346 702 9 11 17 33 17 48 0 15 -8 37 -17 48 -26 30 -1316 702
-1348 702 -14 0 -37 -11 -50 -25z m773 -520 c210 -110 382 -202 382 -205 0 -4
-245 -134 -892 -472 l-128 -67 0 539 0 539 128 -67 c70 -37 300 -157 510 -267z"/>
<path d="M586 4384 c-34 -11 -64 -31 -102 -68 -91 -92 -84 59 -84 -1756 0
-1815 -7 -1664 84 -1756 71 -71 118 -84 293 -84 129 0 135 1 158 25 33 32 33
78 0 110 -23 24 -29 25 -157 25 -144 0 -176 10 -204 62 -19 34 -19 3202 0
3236 28 52 60 62 204 62 128 0 134 1 157 25 16 15 25 36 25 55 0 19 -9 40 -25
55 -23 24 -28 25 -162 24 -92 0 -154 -5 -187 -15z"/>
<path d="M4185 4375 c-16 -15 -25 -36 -25 -55 0 -19 9 -40 25 -55 23 -24 29
-25 155 -25 98 0 138 -4 160 -15 64 -33 60 83 60 -1665 0 -1748 4 -1632 -60
-1665 -22 -11 -62 -15 -160 -15 -126 0 -132 -1 -155 -25 -33 -32 -33 -78 0
-110 23 -24 29 -25 158 -25 175 0 222 13 293 84 91 92 84 -59 84 1756 0 1815
7 1664 -84 1756 -71 71 -118 84 -293 84 -129 0 -135 -1 -158 -25z"/>
<path d="M100 3901 c-19 -10 -48 -35 -65 -55 l-30 -38 -3 -1234 c-2 -1197 -2
-1235 17 -1272 23 -46 46 -67 94 -87 51 -21 81 -19 113 8 37 33 37 81 0 114
-15 12 -36 23 -47 23 -19 0 -19 18 -19 1200 0 1182 0 1200 19 1200 35 0 74 43
74 80 0 69 -80 101 -153 61z"/>
<path d="M4894 3897 c-20 -17 -27 -33 -27 -57 0 -37 39 -80 74 -80 19 0 19
-18 19 -1200 0 -1182 0 -1200 -19 -1200 -35 0 -74 -43 -74 -80 0 -40 40 -80
81 -80 34 0 102 31 124 56 50 56 48 6 48 1304 0 1067 -2 1215 -15 1247 -20 48
-41 71 -87 94 -50 26 -91 24 -124 -4z"/>
</g>
</svg>
