<?xml version="1.0" encoding="UTF-8"?>
<svg version="1.1" xmlns="http://www.w3.org/2000/svg" width="32" height="32">
<path d="M0 0 C1.32 0 2.64 0 4 0 C4 1.65 4 3.3 4 5 C5.32 5 6.64 5 8 5 C8 3.35 8 1.7 8 0 C9.32 0 10.64 0 12 0 C12 1.65 12 3.3 12 5 C13.32 5 14.64 5 16 5 C16 3.35 16 1.7 16 0 C17.32 0 18.64 0 20 0 C20 1.65 20 3.3 20 5 C20.66 5 21.32 5 22 5 C23.40774555 10.01509351 23.40774555 10.01509351 23 13 C21.14292408 15.15507183 19.19093672 16.7026726 16.8828125 18.359375 C14.76007837 20.20906034 14.36971063 21.25698562 14 24 C14.7425 23.62875 15.485 23.2575 16.25 22.875 C19 22 19 22 21.1875 22.875 C22.0846875 23.431875 22.0846875 23.431875 23 24 C23.66 24 24.32 24 25 24 C26.125 27.75 26.125 27.75 25 30 C21.71045229 32.19303181 18.89522224 32.42339372 15 32 C14.34 31.01 13.68 30.02 13 29 C10 28.5 10 28.5 7 29 C6.34 29.99 5.68 30.98 5 32 C1.17387952 32.41588266 -1.84876885 32.33424529 -5 30 C-5.8125 28 -5.8125 28 -6 26 C-5.67 25.34 -5.34 24.68 -5 24 C-3.1875 23.4375 -3.1875 23.4375 -1 23 C0.0209375 22.6596875 0.0209375 22.6596875 1.0625 22.3125 C3 22 3 22 6 24 C5.63028937 21.25698562 5.23992163 20.20906034 3.1171875 18.359375 C2.37726562 17.82828125 1.63734375 17.2971875 0.875 16.75 C-2.91209589 13.6435032 -2.91209589 13.6435032 -3.3046875 10.76953125 C-3 8.5625 -3 8.5625 -2 5 C-1.34 5 -0.68 5 0 5 C0 3.35 0 1.7 0 0 Z " fill="#000000" transform="translate(6,0)"/>
</svg>
