<?xml version="1.0" encoding="UTF-8"?>
<svg version="1.1" xmlns="http://www.w3.org/2000/svg" width="64" height="64">
<path d="M0 0 C2.375 0.6875 2.375 0.6875 3.375 1.6875 C3.41592937 4.02047433 3.41741723 6.35455225 3.375 8.6875 C5.85 9.1825 5.85 9.1825 8.375 9.6875 C8.313125 8.594375 8.25125 7.50125 8.1875 6.375 C8.375 2.6875 8.375 2.6875 9.5 0.6875 C12.35901472 -0.83730785 14.34229714 -0.1695682 17.375 0.6875 C18.8533226 3.64414519 18.43532783 6.42979737 18.375 9.6875 C20.025 9.3575 21.675 9.0275 23.375 8.6875 C23.313125 7.57375 23.25125 6.46 23.1875 5.3125 C23.2803125 3.518125 23.2803125 3.518125 23.375 1.6875 C26.375 -0.3125 26.375 -0.3125 29 0 C31.375 0.6875 31.375 0.6875 32.375 1.6875 C32.56816713 3.71575491 32.75825788 5.74473921 32.8984375 7.77734375 C33.24745461 10.0885461 33.24745461 10.0885461 36.375 11.6875 C36.5625 15.3125 36.5625 15.3125 36.375 18.6875 C37.035 18.6875 37.695 18.6875 38.375 18.6875 C38.6875 22 38.6875 22 38.375 25.6875 C36.75142041 26.75603502 35.07329077 27.74220309 33.375 28.6875 C23.51245569 36.51996808 23.51245569 36.51996808 18.375 47.6875 C17.715 47.6875 17.055 47.6875 16.375 47.6875 C16.375 49.3375 16.375 50.9875 16.375 52.6875 C17.695 52.6875 19.015 52.6875 20.375 52.6875 C20.601875 51.924375 20.82875 51.16125 21.0625 50.375 C22.71143345 46.99861246 23.89663182 46.07884727 27.375 44.6875 C31.59394271 44.6875 33.61099794 45.02144692 36.8125 47.8125 C38.79714753 51.46425146 38.96139648 53.58272467 38.375 57.6875 C36.8125 60.5625 36.8125 60.5625 34.375 62.6875 C30.48559061 63.81896455 28.34061354 64.07374541 24.5625 62.5625 C22.375 60.6875 22.375 60.6875 20.375 55.6875 C15.755 55.6875 11.135 55.6875 6.375 55.6875 C5.385 58.1625 5.385 58.1625 4.375 60.6875 C1.35779958 63.27367178 -0.18775589 63.6875 -4.1875 63.6875 C-7.625 62.6875 -7.625 62.6875 -10.0625 60.5625 C-12.04714753 56.91074854 -12.21139648 54.79227533 -11.625 50.6875 C-10.0625 47.8125 -10.0625 47.8125 -7.625 45.6875 C-3.73559061 44.55603545 -1.59061354 44.30125459 2.1875 45.8125 C4.67002729 47.94038053 5.45239356 49.58418743 6.375 52.6875 C7.61286343 51.66344345 7.61286343 51.66344345 7.5703125 49.5 C7.41942145 43.46435813 6.52400795 40.1417197 2.1875 35.8125 C0.60697884 34.41038425 -0.99592954 33.03290147 -2.625 31.6875 C-3.22699219 31.14867188 -3.82898438 30.60984375 -4.44921875 30.0546875 C-6.81559087 27.96846523 -8.60409687 26.69446771 -11.625 25.6875 C-11.625 23.3775 -11.625 21.0675 -11.625 18.6875 C-10.965 18.6875 -10.305 18.6875 -9.625 18.6875 C-9.686875 17.57375 -9.74875 16.46 -9.8125 15.3125 C-9.750625 14.11625 -9.68875 12.92 -9.625 11.6875 C-8.635 11.0275 -7.645 10.3675 -6.625 9.6875 C-6.15777402 7.78546826 -6.15777402 7.78546826 -6.125 5.6875 C-6.03125 3.5625 -6.03125 3.5625 -5.625 1.6875 C-2.625 -0.3125 -2.625 -0.3125 0 0 Z M-2.625 2.6875 C-2.955 4.3375 -3.285 5.9875 -3.625 7.6875 C-2.305 7.6875 -0.985 7.6875 0.375 7.6875 C0.705 6.3675 1.035 5.0475 1.375 3.6875 C0.055 3.3575 -1.265 3.0275 -2.625 2.6875 Z M11.375 2.6875 C11.375 4.3375 11.375 5.9875 11.375 7.6875 C12.695 7.6875 14.015 7.6875 15.375 7.6875 C15.375 6.0375 15.375 4.3875 15.375 2.6875 C14.055 2.6875 12.735 2.6875 11.375 2.6875 Z M26.375 2.6875 C25.36388907 5.73663228 25.36388907 5.73663228 26.375 8.6875 C27.695 8.3575 29.015 8.0275 30.375 7.6875 C30.045 6.0375 29.715 4.3875 29.375 2.6875 C28.385 2.6875 27.395 2.6875 26.375 2.6875 Z M-2.625 10.6875 C-1.965 11.3475 -1.305 12.0075 -0.625 12.6875 C-0.625 12.0275 -0.625 11.3675 -0.625 10.6875 C-1.285 10.6875 -1.945 10.6875 -2.625 10.6875 Z M12.375 10.6875 C12.375 11.3475 12.375 12.0075 12.375 12.6875 C13.035 12.6875 13.695 12.6875 14.375 12.6875 C14.375 12.0275 14.375 11.3675 14.375 10.6875 C13.715 10.6875 13.055 10.6875 12.375 10.6875 Z M27.375 10.6875 C27.705 11.3475 28.035 12.0075 28.375 12.6875 C28.705 12.0275 29.035 11.3675 29.375 10.6875 C28.715 10.6875 28.055 10.6875 27.375 10.6875 Z M-6.625 12.6875 C-7.92133621 13.75395115 -7.92133621 13.75395115 -7.6875 16.25 C-7.666875 17.054375 -7.64625 17.85875 -7.625 18.6875 C-6.965 18.6875 -6.305 18.6875 -5.625 18.6875 C-5.625 17.6975 -5.625 16.7075 -5.625 15.6875 C-4.965 15.6875 -4.305 15.6875 -3.625 15.6875 C-3.625 16.6775 -3.625 17.6675 -3.625 18.6875 C-1.975 18.6875 -0.325 18.6875 1.375 18.6875 C1.375 17.6975 1.375 16.7075 1.375 15.6875 C2.035 15.6875 2.695 15.6875 3.375 15.6875 C3.375 16.6775 3.375 17.6675 3.375 18.6875 C4.035 18.6875 4.695 18.6875 5.375 18.6875 C5.045 16.7075 4.715 14.7275 4.375 12.6875 C3.7975 13.038125 3.22 13.38875 2.625 13.75 C-0.03886776 14.8599449 -0.95928337 14.63339945 -3.625 13.6875 C-4.615 13.3575 -5.605 13.0275 -6.625 12.6875 Z M8.375 12.6875 C7.07866379 13.75395115 7.07866379 13.75395115 7.3125 16.25 C7.333125 17.054375 7.35375 17.85875 7.375 18.6875 C7.705 17.6975 8.035 16.7075 8.375 15.6875 C8.7875 16.1825 9.2 16.6775 9.625 17.1875 C11.49702338 19.12136092 11.49702338 19.12136092 15.375 18.6875 C17.1261573 17.2708253 17.1261573 17.2708253 18.375 15.6875 C18.705 16.6775 19.035 17.6675 19.375 18.6875 C19.375 17.0375 19.375 15.3875 19.375 13.6875 C18.385 13.3575 17.395 13.0275 16.375 12.6875 C16.045 13.3475 15.715 14.0075 15.375 14.6875 C14.055 14.6875 12.735 14.6875 11.375 14.6875 C11.045 14.0275 10.715 13.3675 10.375 12.6875 C9.715 12.6875 9.055 12.6875 8.375 12.6875 Z M22.375 12.6875 C22.045 14.6675 21.715 16.6475 21.375 18.6875 C22.035 18.6875 22.695 18.6875 23.375 18.6875 C23.375 17.6975 23.375 16.7075 23.375 15.6875 C24.035 15.6875 24.695 15.6875 25.375 15.6875 C25.375 16.6775 25.375 17.6675 25.375 18.6875 C27.025 18.6875 28.675 18.6875 30.375 18.6875 C30.375 17.6975 30.375 16.7075 30.375 15.6875 C31.035 15.6875 31.695 15.6875 32.375 15.6875 C32.375 16.6775 32.375 17.6675 32.375 18.6875 C33.035 18.6875 33.695 18.6875 34.375 18.6875 C34.375 17.0375 34.375 15.3875 34.375 13.6875 C30.66208968 13.48865 30.66208968 13.48865 28.375 14.3125 C25.76725482 14.80145222 24.59479834 14.03523471 22.375 12.6875 Z M-9.625 21.6875 C-9.625 22.3475 -9.625 23.0075 -9.625 23.6875 C5.555 23.6875 20.735 23.6875 36.375 23.6875 C36.375 23.0275 36.375 22.3675 36.375 21.6875 C21.195 21.6875 6.015 21.6875 -9.625 21.6875 Z M-4.625 25.6875 C-3.965 26.3475 -3.305 27.0075 -2.625 27.6875 C-2.295 27.0275 -1.965 26.3675 -1.625 25.6875 C-2.615 25.6875 -3.605 25.6875 -4.625 25.6875 Z M-0.625 25.6875 C1.025 27.3375 2.675 28.9875 4.375 30.6875 C5.73055293 32.33614545 7.07131653 33.99753995 8.375 35.6875 C7.385 36.1825 7.385 36.1825 6.375 36.6875 C6.849375 37.0175 7.32375 37.3475 7.8125 37.6875 C10.23291615 40.78563267 10.05698917 43.80776792 10.375 47.6875 C13.36905579 47.21896378 13.36905579 47.21896378 16.375 45.6875 C16.83829888 44.03286113 17.28855123 42.37173102 17.62890625 40.6875 C19.20324019 36.46729594 23.1291005 33.67021846 26.375 30.6875 C28.025 29.0375 29.675 27.3875 31.375 25.6875 C20.815 25.6875 10.255 25.6875 -0.625 25.6875 Z M-5.625 47.6875 C-7.92752228 49.83592545 -7.92752228 49.83592545 -9.625 52.6875 C-9.5511179 55.79054831 -9.0866569 57.151978 -7.0625 59.5 C-6.588125 59.891875 -6.11375 60.28375 -5.625 60.6875 C-4.965 60.3575 -4.305 60.0275 -3.625 59.6875 C-4.285 58.3675 -4.945 57.0475 -5.625 55.6875 C-4.965 55.3575 -4.305 55.0275 -3.625 54.6875 C-4.285 54.6875 -4.945 54.6875 -5.625 54.6875 C-4.965 52.3775 -4.305 50.0675 -3.625 47.6875 C-4.285 47.6875 -4.945 47.6875 -5.625 47.6875 Z M-1.625 47.6875 C-1.295 48.3475 -0.965 49.0075 -0.625 49.6875 C-0.53000497 51.18506871 -0.49512802 52.68692932 -0.5 54.1875 C-0.49742188 54.9815625 -0.49484375 55.775625 -0.4921875 56.59375 C-0.625 58.6875 -0.625 58.6875 -1.625 60.6875 C1.53615776 59.31766497 2.3677092 58.6984362 4.375 55.6875 C4.15741359 52.7863479 3.75326195 51.16443899 1.9375 48.875 C0.43670257 47.48580558 0.43670257 47.48580558 -1.625 47.6875 Z M26.375 47.6875 C24.07247772 49.83592545 24.07247772 49.83592545 22.375 52.6875 C22.4488821 55.79054831 22.9133431 57.151978 24.9375 59.5 C25.411875 59.891875 25.88625 60.28375 26.375 60.6875 C27.035 60.3575 27.695 60.0275 28.375 59.6875 C27.715 58.3675 27.055 57.0475 26.375 55.6875 C27.035 55.3575 27.695 55.0275 28.375 54.6875 C27.715 54.6875 27.055 54.6875 26.375 54.6875 C27.035 52.3775 27.695 50.0675 28.375 47.6875 C27.715 47.6875 27.055 47.6875 26.375 47.6875 Z M30.375 47.6875 C30.705 48.3475 31.035 49.0075 31.375 49.6875 C31.46999503 51.18506871 31.50487198 52.68692932 31.5 54.1875 C31.50257812 54.9815625 31.50515625 55.775625 31.5078125 56.59375 C31.375 58.6875 31.375 58.6875 30.375 60.6875 C33.53615776 59.31766497 34.3677092 58.6984362 36.375 55.6875 C36.15741359 52.7863479 35.75326195 51.16443899 33.9375 48.875 C32.43670257 47.48580558 32.43670257 47.48580558 30.375 47.6875 Z " fill="#000000" transform="translate(18.625,0.3125)"/>
<path d="M0 0 C1.98 0.99 1.98 0.99 4 2 C4 2.66 4 3.32 4 4 C2.68 3.67 1.36 3.34 0 3 C0 2.01 0 1.02 0 0 Z " fill="#000000" transform="translate(58,56)"/>
<path d="M0 0 C0.66 0 1.32 0 2 0 C1.67 1.32 1.34 2.64 1 4 C0.01 4 -0.98 4 -2 4 C-1.34 2.68 -0.68 1.36 0 0 Z " fill="#000000" transform="translate(4,56)"/>
<path d="M0 0 C1.98 0 3.96 0 6 0 C6 0.66 6 1.32 6 2 C4.02 2 2.04 2 0 2 C0 1.34 0 0.68 0 0 Z " fill="#000000" transform="translate(58,53)"/>
<path d="M0 0 C1.98 0 3.96 0 6 0 C6 0.66 6 1.32 6 2 C4.02 2 2.04 2 0 2 C0 1.34 0 0.68 0 0 Z " fill="#000000" transform="translate(0,53)"/>
<path d="M0 0 C0.99 0 1.98 0 3 0 C2.67 0.99 2.34 1.98 2 3 C1.01 3 0.02 3 -1 3 C-0.67 2.01 -0.34 1.02 0 0 Z " fill="#000000" transform="translate(59,48)"/>
<path d="M0 0 C1.32 0.33 2.64 0.66 4 1 C4 1.66 4 2.32 4 3 C2.68 2.67 1.36 2.34 0 2 C0 1.34 0 0.68 0 0 Z " fill="#000000" transform="translate(2,48)"/>
</svg>
