<?xml version="1.0" encoding="UTF-8"?>
<svg version="1.1" xmlns="http://www.w3.org/2000/svg" width="512" height="512">
<path d="M0 0 C0.70235916 -0.00350607 1.40471831 -0.00701215 2.12836108 -0.01062447 C4.48765158 -0.01994653 6.84669569 -0.01501312 9.20599651 -0.01015663 C10.91227965 -0.01389249 12.61856107 -0.01849375 14.32483977 -0.02388728 C19.01836925 -0.03614069 23.71182757 -0.03585406 28.4053694 -0.03349853 C33.46547939 -0.03309095 38.52556638 -0.04412383 43.5856657 -0.05361366 C53.50114897 -0.07023743 63.41660845 -0.07572383 73.33210448 -0.07683842 C81.3906547 -0.07778823 89.44919706 -0.08189519 97.50774479 -0.08823967 C120.34741949 -0.10585576 143.18707538 -0.11507795 166.02675692 -0.11357872 C167.87428797 -0.11345885 167.87428797 -0.11345885 169.75914288 -0.11333656 C170.9923314 -0.1132548 172.22551992 -0.11317304 173.4960778 -0.1130888 C193.48488758 -0.11227578 213.47362202 -0.13141665 233.46241001 -0.1596133 C253.97911746 -0.18832663 274.49578815 -0.20215445 295.0125162 -0.20042574 C306.53417306 -0.19976131 318.05575094 -0.20527697 329.57738972 -0.22678185 C339.3867497 -0.24497322 349.19599492 -0.24935777 359.00536446 -0.235763 C364.01090429 -0.22922307 369.01622381 -0.22915316 374.02174282 -0.2464695 C378.60436107 -0.26215989 383.18658358 -0.25937791 387.76919194 -0.24190123 C389.42664532 -0.23882244 391.08412794 -0.24249677 392.74154685 -0.25362138 C402.26024629 -0.31327753 409.69688501 -0.33863588 417.18370342 6.22211266 C417.72253155 6.87308922 418.26135967 7.52406578 418.81651592 8.19476891 C419.3708128 8.84316734 419.92510967 9.49156578 420.49620342 10.15961266 C423.32417125 14.26398758 424.19152344 17.86969697 424.19878483 22.8164854 C424.20523372 23.92922685 424.21168261 25.04196829 424.21832693 26.18842918 C424.21368112 28.01437977 424.21368112 28.01437977 424.20894146 29.87721825 C424.21347257 31.17441549 424.21800369 32.47161274 424.2226721 33.808119 C424.2349079 37.40710341 424.23464097 41.0059949 424.23228335 44.60499537 C424.23187533 48.48718361 424.24291294 52.369342 424.25239849 56.25151634 C424.26901269 63.8569078 424.27450823 71.46226826 424.27562325 79.06767634 C424.27657353 85.24979709 424.28068285 91.43190761 424.2870245 97.61402512 C424.30463814 115.14129829 424.31386319 132.66854698 424.31236355 150.19582907 C424.31228364 151.14076486 424.31220373 152.08570065 424.31212139 153.05927086 C424.31203963 154.00536037 424.31195787 154.95144987 424.31187363 155.92620876 C424.31106072 171.25912933 424.33019933 186.59195167 424.35839812 201.92484383 C424.38712367 217.66838052 424.4009386 233.41186931 424.39921057 249.15543288 C424.39854655 257.99431454 424.40404412 266.83309323 424.42556667 275.67195129 C424.44377415 283.19761908 424.44812941 290.72313721 424.43454783 298.24881748 C424.42801591 302.08782825 424.42790876 305.92655187 424.44525433 309.76553535 C424.46387397 313.92936396 424.45143647 318.0925272 424.43599224 322.25636864 C424.44627937 323.46697686 424.45656649 324.67758509 424.46716535 325.92487842 C424.40186756 333.88026493 423.36722476 339.34801071 417.97667217 345.49945641 C417.32569561 346.03828453 416.67471905 346.57711266 416.00401592 347.13226891 C415.35561749 347.68656578 414.70721905 348.24086266 414.03917217 348.81195641 C408.70082899 352.49014444 403.76483935 352.58804307 397.48448467 352.67133141 C396.13004002 352.70038063 396.13004002 352.70038063 394.74823284 352.73001671 C391.87525545 352.78960973 389.00223755 352.8361166 386.12901592 352.88226891 C384.17652487 352.92046735 382.22405033 352.95952017 380.27159405 352.99945641 C375.49503609 353.0952946 370.71839926 353.17940042 365.94151592 353.25726891 C365.62988506 353.9182357 365.3182542 354.5792025 364.99717999 355.26019859 C358.48437765 368.73445202 349.14287884 377.17558934 335.20323467 382.49555016 C324.78006038 386.00594564 311.02135854 385.77581904 300.94151592 381.25726891 C300.20030499 380.92855797 299.45909405 380.59984703 298.69542217 380.26117516 C286.6914125 374.24876823 279.78676099 364.96775594 273.94151592 353.25726891 C273.34996621 353.25667182 272.7584165 353.25607473 272.14894104 353.25545955 C237.08484301 353.21956156 202.02083822 353.16291641 166.95682061 353.07934795 C162.74615299 353.06933056 158.53548498 353.05948642 154.3248167 353.04974937 C153.48655244 353.047808 152.64828817 353.04586663 151.78462195 353.04386643 C138.21355814 353.01284972 124.64251123 352.99586669 111.07141864 352.98407468 C97.14505895 352.97166142 83.21878797 352.94415605 69.29248428 352.90265584 C60.6999625 352.87752545 52.10758783 352.86415129 43.51502877 352.86583933 C37.62188832 352.8658691 31.72889768 352.8512324 25.83581561 352.82510462 C22.43633354 352.81046436 19.03715868 352.8022506 15.63765049 352.81146622 C11.94857101 352.81808939 8.26038796 352.80022356 4.57139874 352.77625084 C3.501345 352.78401126 2.43129126 352.79177167 1.32881165 352.79976726 C-6.16448682 352.71353542 -11.6047064 351.28383715 -17.30067158 346.29242516 C-17.8394997 345.64144859 -18.37832783 344.99047203 -18.93348408 344.31976891 C-19.48778095 343.67137047 -20.04207783 343.02297203 -20.61317158 342.35492516 C-23.4411394 338.25055023 -24.3084916 334.64484084 -24.31575298 329.69805241 C-24.32220188 328.58531096 -24.32865077 327.47256952 -24.33529508 326.32610863 C-24.33219788 325.10880824 -24.32910067 323.89150785 -24.32590961 322.63731956 C-24.33044073 321.34012232 -24.33497184 320.04292507 -24.33964026 318.70641881 C-24.35187606 315.1074344 -24.35160912 311.50854291 -24.34925151 307.90954244 C-24.34884349 304.0273542 -24.35988109 300.14519581 -24.36936665 296.26302147 C-24.38598085 288.65763001 -24.39147638 281.05226955 -24.3925914 273.44686147 C-24.39354169 267.26474072 -24.39765101 261.08263021 -24.40399265 254.9005127 C-24.42160629 237.37323952 -24.43083134 219.84599083 -24.4293317 202.31870874 C-24.42925179 201.37377295 -24.42917188 200.42883716 -24.42908955 199.45526695 C-24.42900778 198.50917745 -24.42892602 197.56308794 -24.42884178 196.58832905 C-24.42802887 181.25540848 -24.44716749 165.92258614 -24.47536628 150.58969399 C-24.50409183 134.84615729 -24.51790675 119.1026685 -24.51617873 103.35910493 C-24.51551471 94.52022327 -24.52101227 85.68144458 -24.54253483 76.84258652 C-24.56074231 69.31691873 -24.56509757 61.7914006 -24.55151598 54.26572033 C-24.54498406 50.42670956 -24.54487692 46.58798594 -24.56222248 42.74900246 C-24.58084212 38.58517385 -24.56840462 34.42201061 -24.5529604 30.25816917 C-24.56324752 29.04756095 -24.57353465 27.83695272 -24.58413351 26.58965939 C-24.51883572 18.63427288 -23.48419292 13.16652711 -18.09364033 7.01508141 C-17.44266376 6.47625328 -16.7916872 5.93742516 -16.12098408 5.38226891 C-15.47258564 4.82797203 -14.8241872 4.27367516 -14.15614033 3.70258141 C-9.5246885 0.51145072 -5.571784 0.00627283 0 0 Z M-6.05848408 19.25726891 C-11.63484359 33.19816769 -8.05848408 49.2424614 -8.05848408 64.25726891 C129.22151592 64.25726891 266.50151592 64.25726891 407.94151592 64.25726891 C409.87743728 40.4461579 409.87743728 40.4461579 404.94151592 18.25726891 C401.11516056 15.95586971 397.49060633 16.00594142 393.09608841 16.00279331 C392.41676729 15.99958683 391.73744618 15.99638036 391.03753957 15.99307671 C388.75663106 15.98476201 386.47598413 15.99070606 384.19507122 15.99657249 C382.54511019 15.99355248 380.89515056 15.98966376 379.24519342 15.98497993 C374.70742028 15.97467187 370.16972589 15.97688888 365.63194621 15.98116052 C360.73956768 15.98362264 355.84720838 15.97462001 350.95483685 15.96712303 C341.36888882 15.95435988 331.78296878 15.95258434 322.19701368 15.95492329 C314.40732531 15.95670474 306.61764546 15.95496055 298.82795811 15.95069885 C297.7202234 15.95010366 296.61248869 15.94950847 295.47118626 15.94889525 C293.22098832 15.94768353 290.97079037 15.94646939 288.72059243 15.94525287 C267.60833023 15.93437119 246.49608399 15.93654285 225.38382088 15.94263772 C206.05972445 15.94780796 186.73567842 15.93654972 167.41159195 15.9175395 C147.57968228 15.89817893 127.74779647 15.88990193 107.91587728 15.89366275 C96.77771435 15.89557744 85.63959433 15.89306121 74.50143909 15.87894821 C65.0199505 15.86705615 55.53853122 15.86560507 46.05704171 15.87773838 C41.21785683 15.88364225 36.37879886 15.88468494 31.53962231 15.87273598 C27.11136423 15.86192855 22.68333982 15.86491893 18.25509291 15.87899766 C16.65151244 15.88165881 15.04791395 15.87923384 13.44435108 15.8712618 C11.26687889 15.86118636 9.09022377 15.86955067 6.91278458 15.8825388 C5.7026682 15.88248378 4.49255183 15.88242876 3.24576527 15.88237208 C-0.53948067 16.3118423 -2.88736251 17.14765034 -6.05848408 19.25726891 Z M-8.05848408 80.25726891 C-8.05848408 117.21726891 -8.05848408 154.17726891 -8.05848408 192.25726891 C34.18151592 192.25726891 76.42151592 192.25726891 119.94151592 192.25726891 C119.94151592 155.29726891 119.94151592 118.33726891 119.94151592 80.25726891 C77.70151592 80.25726891 35.46151592 80.25726891 -8.05848408 80.25726891 Z M135.94151592 80.25726891 C135.94151592 164.73726891 135.94151592 249.21726891 135.94151592 336.25726891 C180.82151592 336.25726891 225.70151592 336.25726891 271.94151592 336.25726891 C272.60151592 331.63726891 273.26151592 327.01726891 273.94151592 322.25726891 C274.88138728 318.85927244 275.79583115 315.57211685 276.94151592 312.25726891 C276.39228718 312.25580235 275.84305843 312.25433578 275.27718639 312.25282478 C261.88852443 312.21570851 248.50011778 312.15637943 235.11165905 312.07336617 C228.63696573 312.03388749 222.16240851 312.00170068 215.68760967 311.98627281 C209.43695639 311.97110918 203.18667724 311.93666782 196.93619061 311.88895988 C194.55366553 311.87414325 192.17108704 311.86622773 189.78851604 311.86538506 C186.44653395 311.86301463 183.10558512 311.83592668 179.76378155 311.80316734 C178.78266399 311.80819771 177.80154644 311.81322807 176.79069805 311.81841087 C169.71162951 311.7113249 164.33917397 310.18922479 158.91807842 305.51117516 C158.4720628 304.95301109 158.02604717 304.39484703 157.56651592 303.81976891 C157.10503155 303.26418297 156.64354717 302.70859703 156.16807842 302.13617516 C153.65565039 298.28751948 152.6920027 294.80036536 152.67409039 290.230093 C152.66556042 289.24191078 152.65703045 288.25372856 152.648242 287.23560143 C152.64914837 286.16275902 152.65005474 285.08991661 152.65098858 283.98456383 C152.64427135 282.84576271 152.63755413 281.70696159 152.63063335 280.53365135 C152.61163291 276.76830242 152.60772803 273.00313155 152.60557842 269.23773766 C152.59915175 266.61845896 152.59242349 263.99918098 152.5854063 261.37990379 C152.57262557 255.88808598 152.56964032 250.39631638 152.57091045 244.9044857 C152.57211103 238.57021489 152.55102277 232.23628526 152.51942313 225.90210074 C152.49004648 219.79439222 152.48293633 213.68684652 152.48412991 207.57907104 C152.48177194 204.98716718 152.47293749 202.39526071 152.45746517 199.80340195 C152.43783243 196.17470069 152.44363376 192.54687342 152.45567608 188.91815758 C152.44443707 187.85138786 152.43319805 186.78461815 152.42161846 185.68552208 C152.48387846 178.2888027 153.7205286 172.98986719 158.68760967 167.23383141 C159.52485577 166.56480797 159.52485577 166.56480797 160.37901592 165.88226891 C161.21239483 165.19004234 161.21239483 165.19004234 162.06260967 164.48383141 C166.98642731 161.2695305 171.55476503 160.96703684 177.30951214 160.98984337 C178.14935152 160.98531226 178.98919091 160.98078114 179.85447997 160.97611272 C182.667158 160.96345786 185.47964266 160.9650898 188.292346 160.96674156 C190.30963674 160.96075698 192.32692519 160.95395159 194.34421062 160.94638634 C199.82362803 160.92871164 205.30298297 160.92403032 210.78242612 160.92275476 C215.35741895 160.9208555 219.93239724 160.91349761 224.50738448 160.90641057 C235.30224894 160.89012329 246.09708004 160.88524192 256.89195538 160.88666344 C268.02494321 160.88786485 279.15773717 160.86676373 290.29067594 160.83517611 C299.85091686 160.809018 309.41109444 160.79829596 318.97137088 160.79957426 C324.68036378 160.80008404 330.38918443 160.79439161 336.09814167 160.77321815 C341.46867739 160.75384384 346.83887638 160.75370596 352.20942402 160.76825142 C354.17823052 160.77034163 356.14705806 160.76562601 358.11582851 160.7535305 C360.80846965 160.73806195 363.49995206 160.74739662 366.19256878 160.76279259 C366.9673908 160.75250546 367.74221282 160.74221833 368.54051429 160.73161948 C374.94308882 160.81224146 380.09548288 162.80132919 384.96495342 167.00336266 C385.41096905 167.56152672 385.85698467 168.11969078 386.31651592 168.69476891 C387.00874249 169.52814781 387.00874249 169.52814781 387.71495342 170.37836266 C390.22738145 174.22701833 391.19102915 177.71417245 391.20894146 182.28444481 C391.22173641 183.76671814 391.22173641 183.76671814 391.23478985 185.27893639 C391.23343029 186.8882 391.23343029 186.8882 391.23204327 188.52997398 C391.23876049 189.6687751 391.24547771 190.80757622 391.25239849 191.98088646 C391.27139893 195.74623539 391.27530381 199.51140626 391.27745342 203.27680016 C391.28388009 205.89607886 391.29060836 208.51535683 391.29762554 211.13463402 C391.31040628 216.62645183 391.31339152 222.11822144 391.31212139 227.61005211 C391.31092081 233.94432292 391.33200908 240.27825255 391.36360872 246.61243707 C391.39298537 252.72014559 391.40009551 258.8276913 391.39890194 264.93546677 C391.4012599 267.52737063 391.41009435 270.11927711 391.42556667 272.71113586 C391.44519941 276.33983712 391.43939809 279.96766439 391.42735577 283.59638023 C391.43859478 284.66314995 391.44983379 285.72991966 391.46141338 286.82901573 C391.39915339 294.22573511 390.16250325 299.52467062 385.19542217 305.28070641 C384.63725811 305.72672203 384.07909405 306.17273766 383.50401592 306.63226891 C382.94842999 307.09375328 382.39284405 307.55523766 381.82042217 308.03070641 C377.5655406 310.8083214 373.65453319 311.55091612 368.62901592 311.88226891 C367.0260667 311.99441734 367.0260667 311.99441734 365.39073467 312.10883141 C364.17837139 312.18230797 364.17837139 312.18230797 362.94151592 312.25726891 C363.23155499 313.09644859 363.23155499 313.09644859 363.52745342 313.95258141 C365.21501392 319.14893106 366.30909797 324.20576595 367.04307842 329.62445641 C367.21404034 330.87081871 367.38500225 332.11718102 367.56114483 333.40131187 C367.68666729 334.34377769 367.81218975 335.28624352 367.94151592 336.25726891 C372.38891006 336.33176142 376.83596782 336.38603148 381.28380108 336.42206383 C382.7949332 336.43709434 384.3060221 336.45752454 385.8170042 336.48358727 C387.99663779 336.5202258 390.17569167 336.53705229 392.35557842 336.55023766 C393.66478252 336.5659481 394.97398663 336.58165855 396.32286358 336.59784508 C400.29805381 336.22371268 402.63915597 335.49239906 405.94151592 333.25726891 C408.66410902 328.55783965 408.21429236 323.50381219 408.18202496 318.24095726 C408.18373699 317.22641472 408.18544903 316.21187218 408.18721294 315.16658592 C408.19052641 311.75232507 408.17947116 308.33825991 408.1685667 304.92401695 C408.16795413 302.44035568 408.16822085 299.95669406 408.16929722 297.47303295 C408.16970337 291.49001407 408.16112889 285.50707107 408.14829456 279.52407118 C408.13389246 272.60297861 408.13230495 265.68191614 408.13072491 258.76080894 C408.12022497 240.48878608 408.09230273 222.21677659 408.06651592 203.94476891 C408.02526592 163.12789391 407.98401592 122.31101891 407.94151592 80.25726891 C318.18151592 80.25726891 228.42151592 80.25726891 135.94151592 80.25726891 Z M169.94151592 179.25726891 C167.03341639 183.67198407 167.65347221 189.17031143 167.66685772 194.27655602 C167.66174679 195.28201973 167.65663586 196.28748344 167.65137005 197.32341576 C167.63748102 200.64387543 167.63843027 203.9641274 167.64073467 207.28461266 C167.63684749 209.59479919 167.63251278 211.90498501 167.62774944 214.21516991 C167.6202888 219.05629354 167.62057751 223.89734423 167.62584209 228.73847008 C167.63163778 234.94036032 167.61470234 241.14195203 167.59149742 247.34379292 C167.57676187 252.11446946 167.57588813 256.88507407 167.57900715 261.65576935 C167.57849389 263.94229855 167.57325536 266.22883177 167.56319523 268.5153389 C167.55085134 271.71328546 167.55761051 274.91064993 167.56920147 278.10858727 C167.56155773 279.05163719 167.55391399 279.99468712 167.54603863 280.96631432 C167.58699466 286.08176149 167.85103208 289.95514481 170.94151592 294.25726891 C174.35067868 295.94423789 177.13584448 296.51061722 180.91726971 296.53142357 C182.38258633 296.54638626 182.38258633 296.54638626 183.8775053 296.56165123 C185.46802967 296.56264824 185.46802967 296.56264824 187.09068584 296.56366539 C188.21652081 296.57198891 189.34235577 296.58031242 190.50230694 296.58888817 C194.22556803 296.61298961 197.94865384 296.62176138 201.67198467 296.62836266 C204.26405165 296.6373301 206.8561181 296.64645196 209.44818401 296.65572166 C214.8845356 296.6722155 220.3208168 296.67994519 225.75718975 296.68280602 C232.0210556 296.68643542 238.28442972 296.71629117 244.54814547 296.7582106 C250.59285413 296.79723202 256.63729253 296.80840148 262.6821413 296.80953217 C265.24449418 296.81372922 267.80684767 296.82614262 270.36911869 296.84704971 C273.96163349 296.87402529 277.55280762 296.86911829 281.14537334 296.85663414 C282.19560177 296.87146843 283.24583019 296.88630272 284.32788372 296.90158653 C290.75942495 296.8382195 295.2187417 295.64133903 300.8242569 292.45545101 C309.51890034 287.53504871 322.57347828 287.72172622 332.18370342 289.72455406 C337.49011588 291.22011135 342.35754225 293.20128645 346.94151592 296.25726891 C350.36417388 296.68985965 353.80695323 296.58146973 357.25401592 296.56976891 C358.19180889 296.58588219 359.12960186 296.60199547 360.0958128 296.61859703 C365.38295663 296.622323 369.51505826 296.48738666 373.94151592 293.25726891 C376.64126611 288.53945772 376.2299967 283.51095595 376.21617413 278.2379818 C376.22128506 277.23251808 376.22639599 276.22705437 376.2316618 275.19112206 C376.24555083 271.87066238 376.24460157 268.55041041 376.24229717 265.22992516 C376.24618435 262.91973862 376.25051907 260.6095528 376.2552824 258.2993679 C376.26274305 253.45824427 376.26245434 248.61719358 376.25718975 243.77606773 C376.25139407 237.57417749 376.26832951 231.37258578 376.29153442 225.1707449 C376.30626997 220.40006835 376.30714371 215.62946374 376.3040247 210.85876846 C376.30453795 208.57223926 376.30977649 206.28570604 376.31983662 203.99919891 C376.33218051 200.80125235 376.32542133 197.60388788 376.31383038 194.40595055 C376.32147411 193.46290062 376.32911785 192.51985069 376.33699322 191.5482235 C376.29603718 186.43277632 376.03199977 182.559393 372.94151592 178.25726891 C368.76068868 176.01159519 364.72715089 175.97252075 360.0915556 175.99657249 C359.30747481 175.99274695 358.52339403 175.9889214 357.71555322 175.98497993 C355.0916683 175.97467192 352.4680031 175.97863787 349.84410381 175.9826107 C347.96149779 175.97826303 346.07889354 175.97307969 344.19629192 175.96712303 C339.08475798 175.95372816 333.97329796 175.95315489 328.86174989 175.95568633 C324.59474989 175.95675566 320.32776486 175.95187368 316.06076807 175.94708091 C305.99472016 175.93598415 295.92870957 175.93554935 285.8626585 175.94159508 C275.47719601 175.9476367 265.09186893 175.93531941 254.70642954 175.91402501 C245.78995177 175.89641462 236.87351713 175.89040674 227.95702261 175.89366275 C222.63154 175.89547656 217.30615401 175.89282957 211.98068714 175.87894821 C206.97297732 175.86638359 201.96547879 175.86830108 196.95777225 175.8813591 C195.12035965 175.88372736 193.28293224 175.88098127 191.44553661 175.87273598 C188.93626534 175.86228793 186.42770557 175.87035331 183.91845989 175.8830471 C183.19228547 175.87567282 182.46611104 175.86829853 181.71793133 175.86070079 C177.0722272 175.91010423 173.88813764 176.80741441 169.94151592 179.25726891 Z M-8.05848408 208.25726891 C-8.12035908 227.93351891 -8.18223408 247.60976891 -8.24598408 267.88226891 C-8.27329609 274.09248863 -8.3006081 280.30270836 -8.32874775 286.70111656 C-8.33878176 292.27342547 -8.33878176 292.27342547 -8.34481525 297.84573936 C-8.34941856 300.32549212 -8.35996267 302.8052382 -8.37521076 305.28494835 C-8.3971655 309.04358124 -8.40020222 312.80180417 -8.39906025 316.56049156 C-8.40985457 317.6631064 -8.4206489 318.76572124 -8.43177032 319.90174866 C-8.42550726 327.53398421 -8.42550726 327.53398421 -5.05848408 334.25726891 C-1.57664953 335.98262798 1.23614471 336.50586654 5.09845257 336.49777794 C6.11292367 336.50053293 7.12739477 336.50328793 8.17260742 336.5061264 C9.83192685 336.49533208 9.83192685 336.49533208 11.52476788 336.48431969 C12.71483283 336.48456076 13.90489779 336.48480183 15.13102531 336.4850502 C18.98069216 336.48355822 22.830165 336.46833042 26.67979717 336.45258141 C29.05752246 336.44964062 31.43524904 336.4476004 33.81297588 336.44647789 C42.62667565 336.43599467 51.44034769 336.40807225 60.25401592 336.38226891 C79.95089092 336.34101891 99.64776592 336.29976891 119.94151592 336.25726891 C119.94151592 294.01726891 119.94151592 251.77726891 119.94151592 208.25726891 C77.70151592 208.25726891 35.46151592 208.25726891 -8.05848408 208.25726891 Z M295.56651592 315.56976891 C294.65211827 316.76991582 293.77603844 318.00026936 292.94151592 319.25726891 C292.52901592 319.87859703 292.11651592 320.49992516 291.69151592 321.14008141 C287.85748002 328.14252197 287.70321781 336.5034396 288.94151592 344.25726891 C292.01035196 354.15818517 297.99758978 360.80218027 307.00401592 365.69476891 C314.89435617 368.84817478 324.52092288 368.51028592 332.44151592 365.63226891 C340.9518588 361.57435707 345.8033477 355.67247005 349.94151592 347.25726891 C352.69265607 339.18725781 351.86032851 329.1196415 348.25010967 321.49945641 C343.0051679 312.51260095 335.6058764 307.34642523 325.51964092 304.59711266 C314.22656797 302.85509608 303.26536831 307.25191331 295.56651592 315.56976891 Z " fill="#000000" transform="translate(56.05848407745361,15.742731094360352)"/>
<path d="M0 0 C0.90471542 -0.00671722 1.80943085 -0.01343445 2.74156189 -0.02035522 C5.72774778 -0.03932819 8.71370879 -0.04325918 11.69995117 -0.04541016 C13.78114412 -0.05183893 15.86233617 -0.05856735 17.94352722 -0.06558228 C22.30547175 -0.07755354 26.66733708 -0.08126328 31.02929688 -0.08007812 C36.60780665 -0.07987503 42.18580645 -0.10716837 47.76419544 -0.14162254 C52.06314915 -0.16390444 56.36198042 -0.16791525 60.66098595 -0.16685867 C62.71700484 -0.16921302 64.77302719 -0.17802712 66.82898903 -0.19352341 C69.71057033 -0.21320773 72.59105578 -0.20733545 75.47265625 -0.1953125 C76.73618423 -0.21217102 76.73618423 -0.21217102 78.02523804 -0.22937012 C84.82620696 -0.15757821 90.03077487 1.74954919 95.17260742 6.25537109 C95.71143555 6.90634766 96.25026367 7.55732422 96.80541992 8.22802734 C97.3597168 8.87642578 97.91401367 9.52482422 98.48510742 10.19287109 C101.57548295 14.67809179 102.18569694 18.54867262 102.22094727 23.94506836 C102.22766449 24.59286255 102.23438171 25.24065674 102.24130249 25.90808105 C102.26021101 28.03694442 102.26420228 30.16549164 102.26635742 32.29443359 C102.27278785 33.77986275 102.27951639 35.26529064 102.28652954 36.75071716 C102.29848257 39.85833678 102.30221216 42.96584536 102.30102539 46.07348633 C102.30082174 50.05392283 102.32817971 54.03364907 102.36256981 58.01391697 C102.38480733 61.07915009 102.388864 64.14421099 102.38780594 67.20951653 C102.3901645 68.67713823 102.39900253 70.14476451 102.41447067 71.61230659 C102.43407885 73.66383929 102.42831647 75.71382298 102.41625977 77.76538086 C102.4191098 78.93166519 102.42195984 80.09794952 102.42489624 81.29957581 C101.81319379 84.99959603 100.81216414 85.96108133 97.93041992 88.29052734 C95.57531738 88.79389191 95.57531738 88.79389191 92.9206543 88.79846191 C91.91123779 88.80974121 90.90182129 88.82102051 89.86181641 88.8326416 C88.76039307 88.82454468 87.65896973 88.81644775 86.52416992 88.80810547 C85.35958252 88.81511475 84.19499512 88.82212402 82.99511719 88.8293457 C79.13997659 88.84697167 75.28556818 88.83528575 71.43041992 88.82177734 C68.75528039 88.82447092 66.08016323 88.82834587 63.4050293 88.83337402 C57.79622442 88.84064931 52.18763029 88.83106606 46.57885742 88.81201172 C40.09624086 88.79024291 33.6141275 88.79729439 27.13152313 88.81931734 C21.56365403 88.83747493 15.99593633 88.840028 10.42804718 88.82956266 C7.10346322 88.82332957 3.77916741 88.82405933 0.45458984 88.83570862 C-3.25173165 88.84584482 -6.95708115 88.83041219 -10.66333008 88.80810547 C-11.76475342 88.81620239 -12.86617676 88.82429932 -14.00097656 88.8326416 C-15.51510132 88.81572266 -15.51510132 88.81572266 -17.05981445 88.79846191 C-17.93585327 88.79695381 -18.81189209 88.79544571 -19.71447754 88.79389191 C-22.87164754 88.11909857 -24.08117316 86.78255249 -26.06958008 84.29052734 C-26.57751465 81.31976318 -26.57751465 81.31976318 -26.5871582 77.81298828 C-26.59976685 76.49772156 -26.61237549 75.18245483 -26.62536621 73.82733154 C-26.61820343 72.39318304 -26.60999871 70.95903942 -26.60083008 69.52490234 C-26.60352656 68.04762517 -26.60741028 66.57034973 -26.61242676 65.09307861 C-26.61832194 61.99612539 -26.60976381 58.89963386 -26.59106445 55.80273438 C-26.56835397 51.85060405 -26.58134628 47.89956509 -26.60535431 43.94747543 C-26.61988063 40.89489683 -26.61517395 37.84257235 -26.60484314 34.78998566 C-26.60219049 33.33406696 -26.60539376 31.87812456 -26.61476135 30.42223358 C-26.66068803 21.27261517 -26.40118255 14.23354886 -20.10473633 7.04833984 C-19.45375977 6.50951172 -18.8027832 5.97068359 -18.13208008 5.41552734 C-17.48368164 4.86123047 -16.8352832 4.30693359 -16.16723633 3.73583984 C-10.90567868 0.11055804 -6.18389625 -0.00660626 0 0 Z M-8.06958008 19.29052734 C-14.63548528 35.70529035 -10.06958008 54.61128654 -10.06958008 72.29052734 C21.61041992 72.29052734 53.29041992 72.29052734 85.93041992 72.29052734 C88.4615488 44.3389069 88.4615488 44.3389069 82.93041992 18.29052734 C79.30058078 16.13224461 76.0886166 15.73603864 71.93041992 16.29052734 C69.37306182 18.07887229 67.35480599 20.3106216 65.24682617 22.59912109 C64.62823227 23.24043472 64.00963837 23.88174835 63.37229919 24.54249573 C60.73124161 27.28146971 58.12695907 30.05446368 55.51904297 32.82495117 C53.60739609 34.84530374 51.67783747 36.8472971 49.74682617 38.84912109 C49.1674379 39.47829941 48.58804962 40.10747772 47.99110413 40.75572205 C45.10456177 43.74429515 43.37870763 45.15529293 39.31689453 46.38061523 C32.60302722 46.20201117 29.09728734 41.67400835 24.74682617 37.09130859 C23.56056529 35.87003398 22.37369791 34.64934823 21.1862793 33.42919922 C19.33203436 31.51292458 17.48286246 29.59246522 15.64404297 27.66137695 C13.85844423 25.79110082 12.05446108 23.94026088 10.24682617 22.09130859 C9.70288712 21.51012772 9.15894806 20.92894684 8.598526 20.33015442 C6.0013237 17.69870779 4.45464483 16.36226592 0.73876953 15.85375977 C-2.76048905 16.39798072 -5.10888194 17.33915812 -8.06958008 19.29052734 Z M28.93041992 16.29052734 C30.29166992 17.96115234 30.29166992 17.96115234 31.68041992 19.66552734 C32.44612305 20.60525391 32.44612305 20.60525391 33.22729492 21.56396484 C35.01241473 23.37365052 36.60991636 24.2917019 38.93041992 25.29052734 C40.26673228 23.98106054 41.59939917 22.6678725 42.93041992 21.35302734 C43.67291992 20.62212891 44.41541992 19.89123047 45.18041992 19.13818359 C47.04502984 17.59366581 47.04502984 17.59366581 46.93041992 16.29052734 C40.99041992 16.29052734 35.05041992 16.29052734 28.93041992 16.29052734 Z " fill="#000000" transform="translate(338.069580078125,407.70947265625)"/>
<path d="M0 0 C2.39860853 2.31614219 2.96317066 3.70652181 3.38095093 7.03564453 C3.3845311 8.81624268 3.3845311 8.81624268 3.38818359 10.6328125 C3.39344055 11.29021423 3.39869751 11.94761597 3.40411377 12.62493896 C3.41728708 14.7918697 3.40858585 16.95806216 3.3984375 19.125 C3.40045902 20.63427877 3.40337111 22.1435566 3.40713501 23.65283203 C3.41155472 26.81357131 3.4051389 29.97405598 3.39111328 33.13476562 C3.37402132 37.18352526 3.38386443 41.23168827 3.40183067 45.28042603 C3.41267821 48.39628585 3.40921778 51.51200454 3.4014473 54.62786865 C3.39944796 56.12058584 3.40189523 57.61331591 3.40888596 59.10601807 C3.41651674 61.19341915 3.40487507 63.27985797 3.38818359 65.3671875 C3.38579681 66.55425293 3.38341003 67.74131836 3.38095093 68.96435547 C2.96316336 72.29353635 2.38606369 73.67424735 0 76 C-3.76004362 77.04445656 -5.94216233 77.53762382 -9.47729492 75.7409668 C-11.92229871 74.05362314 -13.90777199 72.32136993 -15.98828125 70.20703125 C-17.04692383 69.1387207 -17.04692383 69.1387207 -18.12695312 68.04882812 C-18.84818359 67.31083984 -19.56941406 66.57285156 -20.3125 65.8125 C-21.42334961 64.68811523 -21.42334961 64.68811523 -22.55664062 63.54101562 C-24.37571712 61.69846718 -26.18994389 59.85140338 -28 58 C-28.10957031 58.69867188 -28.21914062 59.39734375 -28.33203125 60.1171875 C-28.56986328 61.48230469 -28.56986328 61.48230469 -28.8125 62.875 C-28.96332031 63.77992188 -29.11414063 64.68484375 -29.26953125 65.6171875 C-30 68 -30 68 -33 70 C-35.45982361 70.26742554 -35.45982361 70.26742554 -38.41772461 70.29052734 C-39.52574936 70.30328705 -40.63377411 70.31604675 -41.77537537 70.32919312 C-43.57072472 70.33253159 -43.57072472 70.33253159 -45.40234375 70.3359375 C-47.24621422 70.3459227 -47.24621422 70.3459227 -49.12733459 70.35610962 C-51.72899883 70.36624242 -54.3306891 70.37092645 -56.93237305 70.37060547 C-60.91811109 70.37036219 -64.9031155 70.41129625 -68.88867188 70.44921875 C-71.4140587 70.4550866 -73.9394508 70.4590562 -76.46484375 70.4609375 C-77.65971909 70.47530853 -78.85459442 70.48967957 -80.0856781 70.50448608 C-81.75244347 70.4952562 -81.75244347 70.4952562 -83.45288086 70.48583984 C-84.42978378 70.48868988 -85.40668671 70.49153992 -86.41319275 70.49447632 C-89.81640709 69.84394122 -90.97287982 68.78436116 -93 66 C-93.50793457 63.41992188 -93.50793457 63.41992188 -93.51757812 60.46875 C-93.53018677 59.36080078 -93.54279541 58.25285156 -93.55578613 57.11132812 C-93.54768921 55.91958984 -93.53959229 54.72785156 -93.53125 53.5 C-93.5350769 52.27216797 -93.53890381 51.04433594 -93.54284668 49.77929688 C-93.54556842 47.18358541 -93.53818911 44.58784664 -93.52148438 41.9921875 C-93.50008075 38.01500401 -93.52127963 34.03962718 -93.546875 30.0625 C-93.54423177 27.54166267 -93.53910691 25.02082647 -93.53125 22.5 C-93.53934692 21.30826172 -93.54744385 20.11652344 -93.55578613 18.88867188 C-93.54317749 17.78072266 -93.53056885 16.67277344 -93.51757812 15.53125 C-93.51439575 14.55736328 -93.51121338 13.58347656 -93.50793457 12.58007812 C-92.84032524 9.18892434 -91.77664824 8.02442872 -89 6 C-86.41992188 5.49206543 -86.41992188 5.49206543 -83.46875 5.48242188 C-82.36080078 5.46981323 -81.25285156 5.45720459 -80.11132812 5.44421387 C-78.91958984 5.45231079 -77.72785156 5.46040771 -76.5 5.46875 C-75.27216797 5.4649231 -74.04433594 5.46109619 -72.77929688 5.45715332 C-70.18358541 5.45443158 -67.58784664 5.46181089 -64.9921875 5.47851562 C-61.01500401 5.49991925 -57.03962718 5.47872037 -53.0625 5.453125 C-50.54166267 5.45576823 -48.02082647 5.46089309 -45.5 5.46875 C-44.30826172 5.46065308 -43.11652344 5.45255615 -41.88867188 5.44421387 C-40.22674805 5.46312683 -40.22674805 5.46312683 -38.53125 5.48242188 C-37.55736328 5.48560425 -36.58347656 5.48878662 -35.58007812 5.49206543 C-32.27557306 6.14261641 -31.08484526 7.41123693 -29 10 C-28.22870644 12.70941582 -28.18916678 15.16249831 -28 18 C-27.47043701 17.45996338 -26.94087402 16.91992676 -26.39526367 16.36352539 C-23.99790384 13.92464601 -21.59283095 11.49351717 -19.1875 9.0625 C-18.35412109 8.21236328 -17.52074219 7.36222656 -16.66210938 6.48632812 C-15.85966797 5.67744141 -15.05722656 4.86855469 -14.23046875 4.03515625 C-13.49207764 3.2862915 -12.75368652 2.53742676 -11.99291992 1.76586914 C-8.10598532 -1.67823205 -4.83285641 -1.12191309 0 0 Z M-77 22 C-77 32.56 -77 43.12 -77 54 C-66.44 54 -55.88 54 -45 54 C-45 43.44 -45 32.88 -45 22 C-55.56 22 -66.12 22 -77 22 Z M-15.84765625 30.75 C-16.94400391 31.86375 -16.94400391 31.86375 -18.0625 33 C-19.16271484 34.11375 -19.16271484 34.11375 -20.28515625 35.25 C-21.13400391 36.11625 -21.13400391 36.11625 -22 37 C-20.61811547 40.21043882 -19.07578097 42.04936365 -16.375 44.25 C-15.26125 45.1575 -14.1475 46.065 -13 47 C-13 41.06 -13 35.12 -13 29 C-14.30313847 28.88539008 -14.30313847 28.88539008 -15.84765625 30.75 Z " fill="#000000" transform="translate(157,114)"/>
<path d="M0 0 C8.80288754 6.34043826 15.4186507 14.72648904 17.58203125 25.4921875 C18.92007691 37.90936834 17.85729499 48.88109459 10.39453125 59.2421875 C3.58210875 67.3274193 -4.72289951 73.55522767 -15.48876953 74.71533203 C-28.52206028 75.61935894 -39.16865327 73.99127491 -49.421875 65.328125 C-57.65993029 57.7510487 -62.20930726 49.1688729 -63.35546875 37.8671875 C-63.78734086 26.51704856 -60.75834499 16.52999383 -53.8203125 7.38671875 C-40.17029307 -7.23138717 -17.02517031 -10.61666517 0 0 Z M-14.41796875 12.4921875 C-15.98499034 22.86755155 -15.98499034 22.86755155 -13.14208984 32.62060547 C-9.70549871 36.78494531 -5.66894919 40.18716699 -1.41796875 43.4921875 C1.71842365 38.78759889 1.12835639 33.99746387 0.58203125 28.4921875 C-1.19438019 21.81377995 -5.89885992 17.40202846 -11.41796875 13.4921875 C-12.40796875 13.1621875 -13.39796875 12.8321875 -14.41796875 12.4921875 Z M-39.078125 18.140625 C-44.53988007 24.28677689 -45.90398018 29.27216927 -45.72265625 37.4921875 C-44.95739937 45.02702445 -41.11890035 49.25679866 -35.515625 54.046875 C-31.17917982 57.03474226 -27.52270047 57.76840169 -22.29296875 57.7421875 C-21.25914062 57.74734375 -20.2253125 57.7525 -19.16015625 57.7578125 C-16.20189598 57.68895132 -16.20189598 57.68895132 -13.41796875 55.4921875 C-13.86712646 55.0482666 -14.31628418 54.6043457 -14.77905273 54.14697266 C-16.80712482 52.13965147 -18.83133291 50.12847751 -20.85546875 48.1171875 C-21.56251953 47.41851562 -22.26957031 46.71984375 -22.99804688 46 C-23.67158203 45.3296875 -24.34511719 44.659375 -25.0390625 43.96875 C-25.66224365 43.35080566 -26.2854248 42.73286133 -26.92749023 42.09619141 C-29.73855028 39.07102114 -29.59748825 36.63775658 -29.734375 32.609375 C-29.7972168 30.85947266 -29.7972168 30.85947266 -29.86132812 29.07421875 C-29.90064453 27.85089844 -29.93996094 26.62757813 -29.98046875 25.3671875 C-30.02365234 24.13613281 -30.06683594 22.90507812 -30.11132812 21.63671875 C-30.21765579 18.58865897 -30.31968656 15.5405156 -30.41796875 12.4921875 C-33.5063834 12.4921875 -36.99070155 16.06793631 -39.078125 18.140625 Z " fill="#000000" transform="translate(310.41796875,213.5078125)"/>
<path d="M0 0 C5.82485779 3.51996782 10.54466582 8.98962934 12.5625 15.5 C13.36764105 23.33608208 13.68710392 31.11922577 8.5625 37.5 C3.75801361 42.54521222 -0.59927055 46.10562995 -7.70703125 46.8359375 C-16.22326573 46.92983204 -22.11345494 46.6177288 -28.40234375 40.62890625 C-34.7841668 33.72505269 -35.91792252 28.29832071 -35.7421875 18.9453125 C-35.04689797 11.08319245 -31.38995981 6.95041296 -25.53515625 1.9453125 C-18.47077988 -2.92213491 -7.84396301 -3.47595223 0 0 Z M-16.8125 17.125 C-18.92456506 20.21186432 -19.04945145 21.8282913 -18.4375 25.5 C-16.9375 28 -16.9375 28 -14.4375 29.5 C-10.7657913 30.11195145 -9.14936432 29.98706506 -6.0625 27.875 C-3.95043494 24.78813568 -3.82554855 23.1717087 -4.4375 19.5 C-5.9375 17 -5.9375 17 -8.4375 15.5 C-12.1092087 14.88804855 -13.72563568 15.01293494 -16.8125 17.125 Z " fill="#000000" transform="translate(123.4375,241.5)"/>
<path d="M0 0 C7.50545645 4.47547589 11.69754597 10.20445643 15.421875 18.0078125 C16.48217571 23.02014314 16.94309879 28.18481518 16.109375 33.2578125 C14.26839697 35.68271308 13.07521511 37.00126122 10.109375 37.7890625 C9.449375 37.77875 8.789375 37.7684375 8.109375 37.7578125 C7.449375 37.768125 6.789375 37.7784375 6.109375 37.7890625 C3.17639118 37.00998867 1.98653495 35.60823947 0.109375 33.2578125 C-0.796875 30.63671875 -0.796875 30.63671875 -1.390625 27.8203125 C-2.47630872 23.41889202 -3.5003182 20.44264616 -6.890625 17.2578125 C-11.3804419 14.55623102 -15.78796531 14.60486553 -20.890625 15.2578125 C-25.39134723 17.46725796 -27.85204143 19.69526832 -29.890625 24.2578125 C-30.67057809 27.1052603 -31.3923841 29.95305044 -32.046875 32.83203125 C-32.890625 35.2578125 -32.890625 35.2578125 -35.890625 37.2578125 C-42.9915533 37.93409139 -42.9915533 37.93409139 -46.11328125 35.5859375 C-49.38937669 31.29461248 -48.51258026 26.4048096 -47.890625 21.2578125 C-45.49284905 11.73406195 -40.29430405 5.35422492 -32.015625 0.30078125 C-22.41645541 -4.41057588 -9.7074404 -4.65826838 0 0 Z " fill="#000000" transform="translate(127.890625,298.7421875)"/>
<path d="M0 0 C3.09687487 1.89849152 5.46385871 4.41928681 8 7 C9.42505859 8.32064453 9.42505859 8.32064453 10.87890625 9.66796875 C11.87881655 10.6106949 12.87752069 11.55470205 13.875 12.5 C14.80054688 13.3765625 15.72609375 14.253125 16.6796875 15.15625 C19.39389681 18.48275569 20.40751849 20.7491803 21 25 C19.19656651 30.91652741 14.53271206 34.98291828 10.25 39.25 C9.5590625 39.96929687 8.868125 40.68859375 8.15625 41.4296875 C3.96892829 45.63275102 0.94377795 48.14881026 -5 49 C-8.3125 48.0625 -8.3125 48.0625 -11 46 C-12.79376029 42.19722819 -13.3328822 40.11753308 -12.125 36.0625 C-9.21825662 31.87336983 -5.71355992 28.47539812 -2 25 C-3.37683815 21.84015644 -4.93446617 19.96495482 -7.5 17.6875 C-10.88159121 14.37665337 -12.4723939 11.83638924 -13 7 C-10.52937217 0.32930486 -7.03874947 -1.46275966 0 0 Z " fill="#000000" transform="translate(428,112)"/>
<path d="M0 0 C2.75171298 1.90503206 3.71801879 3.2856476 4.9375 6.375 C5.0476533 11.00143879 3.09048853 13.81291308 0.015625 17.16015625 C-1.95765337 19.14393078 -3.95714947 21.08816364 -6 23 C-4.62316185 26.15984356 -3.06553383 28.03504518 -0.5 30.3125 C2.88159121 33.62334663 4.4723939 36.16361076 5 41 C2.95454545 46.52272727 2.95454545 46.52272727 0 48 C-6.53062751 48.90077621 -6.53062751 48.90077621 -9.91796875 46.82421875 C-12.05636565 44.97682019 -14.01907468 43.01573948 -16 41 C-16.95003906 40.11957031 -17.90007812 39.23914063 -18.87890625 38.33203125 C-19.87881655 37.3893051 -20.87752069 36.44529795 -21.875 35.5 C-22.80054688 34.6234375 -23.72609375 33.746875 -24.6796875 32.84375 C-27.39389681 29.51724431 -28.40751849 27.2508197 -29 23 C-27.20249988 16.97877763 -22.33087765 12.95657342 -17.9375 8.6875 C-17.20466797 7.95982422 -16.47183594 7.23214844 -15.71679688 6.48242188 C-10.5917989 1.43272231 -7.59267175 -1.08251954 0 0 Z " fill="#000000" transform="translate(236,112)"/>
<path d="M0 0 C1.10794922 -0.01260864 2.21589844 -0.02521729 3.35742188 -0.03820801 C4.54916016 -0.03011108 5.74089844 -0.02201416 6.96875 -0.01367188 C8.19658203 -0.01749878 9.42441406 -0.02132568 10.68945312 -0.02526855 C13.28516459 -0.02799029 15.88090336 -0.02061099 18.4765625 -0.00390625 C22.45374599 0.01749738 26.42912282 -0.0037015 30.40625 -0.02929688 C32.92708733 -0.02665365 35.44792353 -0.02152878 37.96875 -0.01367188 C39.16048828 -0.0217688 40.35222656 -0.02986572 41.58007812 -0.03820801 C43.24200195 -0.01929504 43.24200195 -0.01929504 44.9375 0 C45.91138672 0.00318237 46.88527344 0.00636475 47.88867188 0.00964355 C51.19021681 0.65961178 52.38452655 1.93295409 54.46875 4.51757812 C55 6.51757812 55 6.51757812 54.96875 8.51757812 C54.98421875 9.50757813 54.98421875 9.50757813 55 10.51757812 C54.2245785 13.43681202 52.78007479 14.6111988 50.46875 16.51757812 C47.88867188 17.0255127 47.88867188 17.0255127 44.9375 17.03515625 C43.82955078 17.04776489 42.72160156 17.06037354 41.58007812 17.07336426 C40.38833984 17.06526733 39.19660156 17.05717041 37.96875 17.04882812 C36.12700195 17.05456848 36.12700195 17.05456848 34.24804688 17.0604248 C31.65233541 17.06314654 29.05659664 17.05576724 26.4609375 17.0390625 C22.48375401 17.01765887 18.50837718 17.03885775 14.53125 17.06445312 C12.01041267 17.0618099 9.48957647 17.05668503 6.96875 17.04882812 C5.77701172 17.05692505 4.58527344 17.06502197 3.35742188 17.07336426 C1.69549805 17.05445129 1.69549805 17.05445129 0 17.03515625 C-0.97388672 17.03197388 -1.94777344 17.0287915 -2.95117188 17.0255127 C-6.25271681 16.37554447 -7.44702655 15.10220216 -9.53125 12.51757812 C-10.0625 10.51757812 -10.0625 10.51757812 -10.03125 8.51757812 C-10.04671875 7.52757812 -10.04671875 7.52757812 -10.0625 6.51757812 C-8.67664018 1.3002235 -4.95665502 0.01619688 0 0 Z " fill="#000000" transform="translate(353.53125,255.482421875)"/>
<path d="M0 0 C1.10794922 -0.01260864 2.21589844 -0.02521729 3.35742188 -0.03820801 C4.54916016 -0.03011108 5.74089844 -0.02201416 6.96875 -0.01367188 C8.19658203 -0.01749878 9.42441406 -0.02132568 10.68945312 -0.02526855 C13.28516459 -0.02799029 15.88090336 -0.02061099 18.4765625 -0.00390625 C22.45374599 0.01749738 26.42912282 -0.0037015 30.40625 -0.02929688 C32.92708733 -0.02665365 35.44792353 -0.02152878 37.96875 -0.01367188 C39.16048828 -0.0217688 40.35222656 -0.02986572 41.58007812 -0.03820801 C43.24200195 -0.01929504 43.24200195 -0.01929504 44.9375 0 C45.91138672 0.00318237 46.88527344 0.00636475 47.88867188 0.00964355 C51.19021681 0.65961178 52.38452655 1.93295409 54.46875 4.51757812 C55 6.51757812 55 6.51757812 54.96875 8.51757812 C54.98421875 9.50757813 54.98421875 9.50757813 55 10.51757812 C54.2245785 13.43681202 52.78007479 14.6111988 50.46875 16.51757812 C47.88867188 17.0255127 47.88867188 17.0255127 44.9375 17.03515625 C43.82955078 17.04776489 42.72160156 17.06037354 41.58007812 17.07336426 C40.38833984 17.06526733 39.19660156 17.05717041 37.96875 17.04882812 C36.12700195 17.05456848 36.12700195 17.05456848 34.24804688 17.0604248 C31.65233541 17.06314654 29.05659664 17.05576724 26.4609375 17.0390625 C22.48375401 17.01765887 18.50837718 17.03885775 14.53125 17.06445312 C12.01041267 17.0618099 9.48957647 17.05668503 6.96875 17.04882812 C5.77701172 17.05692505 4.58527344 17.06502197 3.35742188 17.07336426 C1.69549805 17.05445129 1.69549805 17.05445129 0 17.03515625 C-0.97388672 17.03197388 -1.94777344 17.0287915 -2.95117188 17.0255127 C-6.25271681 16.37554447 -7.44702655 15.10220216 -9.53125 12.51757812 C-10.0625 10.51757812 -10.0625 10.51757812 -10.03125 8.51757812 C-10.04671875 7.52757812 -10.04671875 7.52757812 -10.0625 6.51757812 C-8.67664018 1.3002235 -4.95665502 0.01619688 0 0 Z " fill="#000000" transform="translate(353.53125,223.482421875)"/>
<path d="M0 0 C2.5 1.5 2.5 1.5 4 4 C4.791013 8.02098277 4.62153384 10.96411027 2.5 14.5 C-1.03588973 16.62153384 -3.97901723 16.791013 -8 16 C-10.5 14.5 -10.5 14.5 -12 12 C-12.791013 7.97901723 -12.62153384 5.03588973 -10.5 1.5 C-6.96411027 -0.62153384 -4.02098277 -0.791013 0 0 Z " fill="#000000" transform="translate(444,48)"/>
<path d="M0 0 C2.5 1.5 2.5 1.5 4 4 C4.791013 8.02098277 4.62153384 10.96411027 2.5 14.5 C-1.03588973 16.62153384 -3.97901723 16.791013 -8 16 C-10.5 14.5 -10.5 14.5 -12 12 C-12.791013 7.97901723 -12.62153384 5.03588973 -10.5 1.5 C-6.96411027 -0.62153384 -4.02098277 -0.791013 0 0 Z " fill="#000000" transform="translate(412,48)"/>
<path d="M0 0 C2.5 1.5 2.5 1.5 4 4 C4.791013 8.02098277 4.62153384 10.96411027 2.5 14.5 C-1.03588973 16.62153384 -3.97901723 16.791013 -8 16 C-10.5 14.5 -10.5 14.5 -12 12 C-12.791013 7.97901723 -12.62153384 5.03588973 -10.5 1.5 C-6.96411027 -0.62153384 -4.02098277 -0.791013 0 0 Z " fill="#000000" transform="translate(380,48)"/>
</svg>
