<?xml version="1.0" encoding="UTF-8"?>
<svg version="1.1" xmlns="http://www.w3.org/2000/svg" width="512" height="512">
<path d="M0 0 C1.70932673 -0.0046148 3.41864949 -0.0109716 5.12796402 -0.01890898 C9.80223508 -0.03554585 14.4761778 -0.02738168 19.15044975 -0.0149641 C24.2002976 -0.00589277 29.25009002 -0.01989366 34.29992676 -0.03088379 C44.18354498 -0.04865136 54.06704157 -0.04483686 63.95066452 -0.03323323 C71.98473863 -0.02419226 80.0187787 -0.02297778 88.05285645 -0.02732849 C89.76935626 -0.02824789 89.76935626 -0.02824789 91.52053285 -0.02918586 C93.84537094 -0.03046479 96.17020902 -0.03176164 98.49504709 -0.03307623 C120.28469649 -0.04447687 142.07427853 -0.0313764 163.86391687 -0.00987476 C182.55221529 0.00799573 201.24041431 0.00489148 219.92871094 -0.0135498 C241.64146943 -0.03496561 263.35416891 -0.04337828 285.06693649 -0.03110075 C287.3831253 -0.02982658 289.69931411 -0.0285691 292.01550293 -0.02732849 C293.72482636 -0.02640284 293.72482636 -0.02640284 295.46868157 -0.02545848 C303.49122044 -0.02200772 311.51372182 -0.02782804 319.53625488 -0.0372467 C329.31575203 -0.04847593 339.09512079 -0.04540714 348.87460327 -0.02412373 C353.8623206 -0.01362583 358.84982402 -0.00947007 363.83753967 -0.02272034 C368.40713684 -0.03467606 372.97632263 -0.02802935 377.5458827 -0.00681013 C379.19512894 -0.00235753 380.84441022 -0.00458003 382.49363375 -0.01431328 C395.32659745 -0.08421517 405.70890043 1.5549718 415.74121094 10.18371582 C425.01304513 19.58191232 428.3397272 31.01902915 428.42142361 44.01895881 C428.41268509 45.01899696 428.40394657 46.01903511 428.39494324 47.04937744 C428.39750651 48.14585547 428.40006979 49.24233349 428.40271074 50.37203813 C428.40761433 54.01091565 428.39121222 57.64936933 428.37475586 61.28820801 C428.37390885 63.91063426 428.37438617 66.53306122 428.37608337 69.15548706 C428.37764964 74.78330545 428.36830858 80.41101877 428.35136986 86.03881073 C428.326896 94.17544251 428.31916605 102.31202394 428.31540588 110.44868854 C428.30885449 123.65271074 428.28892911 136.85667705 428.26049805 150.06066895 C428.2329234 162.88032758 428.21170653 175.69997098 428.19897461 188.51965332 C428.19818644 189.31104146 428.19739827 190.1024296 428.19658621 190.9177992 C428.19267085 194.88831445 428.18887978 198.8588298 428.1851505 202.82934523 C428.15409549 235.72224901 428.10129564 268.61508429 428.03417969 301.50793457 C428.94997803 301.47856812 428.94997803 301.47856812 429.88427734 301.4486084 C430.68913574 301.43338135 431.49399414 301.4181543 432.32324219 301.40246582 C433.51747803 301.37309937 433.51747803 301.37309937 434.73583984 301.34313965 C438.36978007 301.60369942 440.35142048 303.14455146 443.03417969 305.50793457 C446.33115907 309.77507656 446.48760043 313.71549004 446.46777344 318.92199707 C446.47301529 319.73228363 446.47825714 320.54257019 446.48365784 321.37741089 C446.49006695 323.09034077 446.48875541 324.80331472 446.48022461 326.51623535 C446.47177373 329.10413727 446.50039261 331.68978504 446.53222656 334.27746582 C446.59634242 349.05594904 443.88212795 359.34696927 433.37792969 370.22277832 C426.29591297 376.78700608 417.84813294 380.58035488 408.22753906 380.70080566 C406.47552185 380.72490005 406.47552185 380.72490005 404.68811035 380.7494812 C399.37361246 380.79396307 394.05925948 380.83539047 388.74462891 380.85803223 C385.93733339 380.87139991 383.13075991 380.8993122 380.32373047 380.94006348 C376.27917191 380.99876814 372.23539176 381.01667536 368.19042969 381.03137207 C366.93307007 381.05404144 365.67571045 381.07671082 364.38024902 381.10006714 C362.62823181 381.09579208 362.62823181 381.09579208 360.84082031 381.09143066 C359.81363892 381.09951752 358.78645752 381.10760437 357.72814941 381.11593628 C355.03417969 380.50793457 355.03417969 380.50793457 352.6673584 378.19802856 C351.03417969 375.50793457 351.03417969 375.50793457 351.09667969 371.88293457 C352.03135946 368.51808741 352.35024844 367.53418808 355.03417969 365.50793457 C357.23257446 365.12266541 357.23257446 365.12266541 359.82177734 365.1072998 C360.79353912 365.09396103 361.7653009 365.08062225 362.76651001 365.06687927 C363.81648163 365.06676346 364.86645325 365.06664764 365.94824219 365.06652832 C367.5745607 365.04671654 367.5745607 365.04671654 369.23373413 365.02650452 C372.70890814 364.98554173 376.18381873 364.96393843 379.65917969 364.94543457 C383.11303447 364.92157333 386.5666437 364.89326876 390.02035522 364.85365295 C392.16954027 364.82949599 394.31885393 364.81447532 396.46817017 364.81004333 C406.15287696 364.71046032 414.26566844 363.59915361 422.03417969 357.50793457 C432.3722148 346.89049311 430.38050684 331.23506431 431.03417969 317.50793457 C386.48417969 317.50793457 341.93417969 317.50793457 296.03417969 317.50793457 C296.03417969 321.46793457 296.03417969 325.42793457 296.03417969 329.50793457 C293.32503438 336.7041018 289.83788547 342.57991454 283.03417969 346.50793457 C274.15597639 350.3481104 264.90794059 349.93282062 255.44238281 349.89611816 C253.67390113 349.9001891 251.905422 349.90553391 250.13694763 349.91204834 C245.3580311 349.92566561 240.57930997 349.92044647 235.80039024 349.91091108 C230.78558218 349.90328543 225.77079021 349.91036814 220.75598145 349.91506958 C212.33647679 349.92051869 203.91705123 349.91335772 195.49755859 349.89904785 C185.78063954 349.88272299 176.06390936 349.88801209 166.34699488 349.90452707 C157.9857556 349.91816603 149.62457299 349.92004982 141.26332617 349.91221106 C136.27761587 349.90754779 131.29199419 349.90687254 126.30628967 349.91682053 C121.61776504 349.92552305 116.92948259 349.91940853 112.24098396 349.90213776 C110.52619388 349.89819041 108.81138322 349.89927673 107.09660149 349.90592575 C94.83388672 349.94906956 84.20104789 349.77542355 74.95214844 340.80480957 C68.88952789 333.54448191 69.03417969 327.07355605 69.03417969 317.50793457 C29.43417969 317.50793457 -10.16582031 317.50793457 -50.96582031 317.50793457 C-51.0901637 340.16576541 -51.0901637 340.16576541 -40.59082031 358.82043457 C-33.55540398 363.34320221 -26.88504995 364.63170169 -18.64768791 364.63542652 C-17.3911528 364.63843417 -16.13461769 364.64144182 -14.84000576 364.64454061 C-13.45338549 364.64285326 -12.06676533 364.64108222 -10.68014526 364.63923645 C-9.20113861 364.64093943 -7.72213241 364.64308949 -6.24312699 364.6456477 C-3.03008693 364.65023871 0.18293388 364.65166674 3.39597702 364.65068245 C8.62381496 364.64908788 13.85163383 364.6542955 19.07946777 364.66030884 C26.66845824 364.66841716 34.25744536 364.67336395 41.84643936 364.6765995 C53.8365953 364.68209717 65.82672282 364.69899455 77.81686401 364.71794128 C81.91863437 364.72429768 86.02040479 364.73060612 90.12217522 364.73691845 C91.14718159 364.73850221 92.17218796 364.74008597 93.22825513 364.74171773 C104.89256519 364.75964973 116.55687724 364.77587971 128.22119141 364.79089355 C129.28738924 364.79226943 130.35358708 364.7936453 131.45209394 364.79506286 C148.74696712 364.81701372 166.04183297 364.8277546 183.33671762 364.8352643 C201.08719461 364.84332727 218.83760869 364.86658853 236.58804977 364.90321797 C247.54100343 364.92527245 258.49382785 364.93489865 269.4468026 364.92871764 C276.94659624 364.92554995 284.44627922 364.93682731 291.94603862 364.95961205 C296.2766746 364.97231425 300.60706414 364.97840831 304.93770981 364.96719551 C308.89899723 364.95707041 312.85980493 364.96518534 316.82103537 364.98805847 C318.25698028 364.99307655 319.69296782 364.99127984 321.12889232 364.9821258 C323.07515015 364.97069002 325.02151105 364.98607356 326.96772957 365.0029192 C328.59185113 365.00438441 328.59185113 365.00438441 330.24878323 365.00587922 C333.73589078 365.63441488 334.91903083 366.70772036 337.03417969 369.50793457 C337.53417969 373.00793457 337.53417969 373.00793457 337.03417969 376.50793457 C334.90401277 379.341735 333.72140343 380.38649325 330.19682831 381.00933123 C328.53576249 381.01030534 328.53576249 381.01030534 326.84113979 381.01129913 C325.56155311 381.02173012 324.28196643 381.03216111 322.96360439 381.04290819 C321.54054825 381.03425955 320.11749436 381.02523291 318.69444275 381.01586914 C317.18502229 381.02047648 315.6756063 381.02682827 314.16619974 381.03477812 C310.01197476 381.05151907 305.85811602 381.04320348 301.70388949 381.03083324 C297.22583604 381.02180392 292.74784673 381.0357423 288.26980591 381.04675293 C279.49281139 381.06456849 270.71595345 381.06068379 261.93895351 381.04910237 C254.8033569 381.04007621 247.66779863 381.03884051 240.53219795 381.04319763 C239.51735829 381.04381056 238.50251863 381.0444235 237.45692625 381.045055 C235.39533641 381.0463339 233.33374659 381.04763075 231.27215678 381.04894537 C211.92375036 381.0603611 192.57541964 381.04722401 173.22702564 381.0257439 C156.63251358 381.0078909 140.03811352 381.01096027 123.44360352 381.02941895 C104.17623903 381.05084069 84.90894107 381.05924247 65.64156634 381.04696989 C63.58533483 381.0456957 61.52910331 381.04443822 59.47287178 381.04319763 C57.95532075 381.04227198 57.95532075 381.04227198 56.40711213 381.04132763 C49.28534281 381.03787723 42.16361573 381.04369679 35.04185295 381.05311584 C26.35462453 381.06435251 17.66754061 381.06126152 8.98032867 381.03999287 C4.54959929 381.02950198 0.11911054 381.02532678 -4.3116169 381.03858948 C-8.37264555 381.05056121 -12.4332119 381.04387261 -16.49419897 381.02267927 C-17.95859459 381.01823311 -19.42302975 381.02043453 -20.88739968 381.03018242 C-35.32417882 381.1188653 -45.25347919 377.9225875 -55.68066406 367.85168457 C-63.18739583 359.75281875 -66.10311328 350.83973621 -66.20410156 340.01574707 C-66.21217331 339.19218719 -66.22024506 338.36862732 -66.2285614 337.52011108 C-66.24236799 335.78023361 -66.25310541 334.04032944 -66.26098633 332.30041504 C-66.27251958 330.52559444 -66.29299268 328.75080889 -66.32250977 326.97619629 C-66.36524611 324.40580787 -66.38136167 321.83644693 -66.39160156 319.26574707 C-66.40910965 318.47805939 -66.42661774 317.6903717 -66.44465637 316.8788147 C-66.42407431 311.62050556 -65.40884687 308.70107325 -61.96582031 304.50793457 C-58.73013821 301.73449277 -56.41752334 301.3705085 -52.29003906 301.43762207 C-51.48010498 301.44777344 -50.6701709 301.4579248 -49.83569336 301.46838379 C-49.21863525 301.48143555 -48.60157715 301.4944873 -47.96582031 301.50793457 C-47.96752905 300.67049764 -47.96752905 300.67049764 -47.96927232 299.8161428 C-48.0364656 266.69751867 -48.0879098 233.57891169 -48.1190163 200.46023463 C-48.12276824 196.48004074 -48.12665122 192.499847 -48.13061523 188.51965332 C-48.13140217 187.72729752 -48.1321891 186.93494171 -48.13299987 186.11857513 C-48.14603939 173.30353843 -48.1696852 160.48854227 -48.1972787 147.6735296 C-48.22537341 134.51560979 -48.24200516 121.35771115 -48.2480858 108.19976258 C-48.25219382 100.08630672 -48.26514966 91.97296547 -48.28956971 83.8595449 C-48.30736272 77.62901194 -48.30917569 71.39856561 -48.30514336 65.16801071 C-48.30596673 62.61875327 -48.31190804 60.06949137 -48.32343674 57.52025986 C-48.33844395 54.02980855 -48.33474364 50.53984081 -48.32658386 47.04937744 C-48.33532239 46.04933929 -48.34406091 45.04930114 -48.35306424 44.01895881 C-48.27136782 31.01902915 -44.94468576 19.58191232 -35.67285156 10.18371582 C-24.87599631 0.8973904 -13.66069188 -0.08062152 0 0 Z M-25.96582031 23.50793457 C-29.97717514 29.01877204 -32.09208997 34.32134691 -32.08886814 41.1387291 C-32.09085901 42.0700843 -32.09284988 43.00143951 -32.09490108 43.96101761 C-32.09198842 44.98017635 -32.08907576 45.9993351 -32.08607483 47.04937744 C-32.08693085 48.13231583 -32.08778687 49.21525421 -32.08866882 50.33100891 C-32.09032844 53.98342517 -32.08479317 57.63579592 -32.0793457 61.28820801 C-32.07903948 63.94195786 -32.07912823 66.59570497 -32.07971096 69.2494545 C-32.0802429 75.64727195 -32.07562286 82.04507538 -32.06920963 88.44288923 C-32.06201416 95.84233933 -32.06121513 103.24178098 -32.0604248 110.64123535 C-32.05517287 130.18013732 -32.04121178 149.71903615 -32.02832031 169.25793457 C-32.00769531 212.90043457 -31.98707031 256.54293457 -31.96582031 301.50793457 C114.55417969 301.50793457 261.07417969 301.50793457 412.03417969 301.50793457 C412.11667969 257.98918457 412.19917969 214.47043457 412.28417969 169.63293457 C412.3205957 155.88911133 412.35701172 142.14528809 412.39453125 127.98498535 C412.40790855 115.67076311 412.40790855 115.67076311 412.41595459 103.35653687 C412.41968289 97.86940585 412.43434761 92.38243293 412.45648193 86.89535522 C412.48198542 80.56367902 412.49351367 74.23215914 412.48795949 67.90043121 C412.48555492 64.66301465 412.49155204 61.42601692 412.51104021 58.18864846 C412.53097363 54.71578411 412.52612661 51.24378941 412.51519775 47.77090454 C412.52684841 46.76922178 412.53849907 45.76753902 412.55050278 44.73550224 C412.48376851 36.83061359 410.79000109 29.95271132 405.78417969 23.69543457 C397.62465536 17.20490385 391.60017536 15.38553854 381.01350594 15.37930012 C380.33952941 15.37754708 379.66555289 15.37579404 378.97115284 15.37398788 C376.72050397 15.36934868 374.4699203 15.37178799 372.2192688 15.3742218 C370.58622017 15.37235279 368.95317198 15.37005172 367.32012451 15.36735648 C362.83828713 15.36124337 358.35646842 15.3613715 353.87462783 15.36255085 C349.03881146 15.36275498 344.20300108 15.35723499 339.3671875 15.35249329 C329.89548281 15.34418911 320.42378435 15.34143856 310.95207633 15.34088091 C303.25352031 15.34040569 295.55496635 15.33835062 287.85641098 15.33518028 C266.0296967 15.32637473 244.20298733 15.32176081 222.37627126 15.32251076 C220.61147939 15.32257069 220.61147939 15.32257069 218.81103516 15.32263184 C217.63307101 15.32267272 216.45510687 15.3227136 215.24144684 15.32275572 C196.14584433 15.32316227 177.05026153 15.31359011 157.95466472 15.29949347 C138.34755309 15.2851334 118.74045107 15.27822307 99.13333404 15.27908725 C88.1253405 15.27941932 77.11736762 15.27666764 66.10937881 15.26590919 C56.73819749 15.25680911 47.36704621 15.25462494 37.99586238 15.26141862 C33.21504866 15.26468616 28.4342926 15.26473201 23.65348434 15.25606537 C19.27515676 15.24820997 14.89693264 15.249622 10.5186076 15.2583495 C8.93656712 15.25988659 7.35451895 15.25806047 5.77248754 15.25248943 C-11.40303069 15.18165205 -11.40303069 15.18165205 -25.96582031 23.50793457 Z M85.03417969 317.50793457 C84.286993 325.77189418 84.286993 325.77189418 86.72167969 329.44543457 C91.25222957 333.48619527 95.41898459 333.75926136 101.359375 333.76863098 C102.08699162 333.77245653 102.81460823 333.77628208 103.56427383 333.78022355 C105.99702474 333.79052425 108.42953834 333.78656704 110.86230469 333.78259277 C112.60860411 333.78694082 114.35490162 333.79212428 116.10119629 333.79808044 C120.8407757 333.81147038 125.58027536 333.81204921 130.31987 333.80951715 C134.2762987 333.80844763 138.23271126 333.81333021 142.18913651 333.81812257 C151.5216111 333.82921732 160.85404544 333.82965506 170.18652344 333.8236084 C179.81652043 333.81756499 189.44637145 333.82988901 199.07634354 333.85117847 C207.34397946 333.86878454 215.61156888 333.87479747 223.87922287 333.87154073 C228.81734944 333.86972645 233.75537184 333.87237864 238.69348145 333.88625526 C243.33594856 333.89881314 247.9781877 333.89690889 252.62065125 333.88384438 C254.32464169 333.88147475 256.02864808 333.88422709 257.73262024 333.8924675 C260.0583407 333.90290403 262.38329176 333.89485983 264.70898438 333.88215637 C266.01051453 333.88232411 267.31204468 333.88249186 268.65301514 333.88266468 C273.07489811 333.39259309 275.58809142 331.8044275 278.84667969 328.88293457 C280.70500008 325.6088489 280.70500008 325.6088489 280.03417969 317.50793457 C215.68417969 317.50793457 151.33417969 317.50793457 85.03417969 317.50793457 Z " fill="#000000" transform="translate(65.9658203125,65.4920654296875)"/>
<path d="M0 0 C0.8814418 -0.00817749 1.76288361 -0.01635498 2.67103577 -0.02478027 C5.59529943 -0.04964492 8.51951458 -0.06615147 11.44384766 -0.08056641 C12.44098408 -0.08589008 13.4381205 -0.09121376 14.46547318 -0.09669876 C19.74145998 -0.12343277 25.01742308 -0.14280839 30.29345703 -0.15722656 C35.75032434 -0.17389092 41.20658964 -0.21868304 46.66322899 -0.26959801 C50.85306516 -0.30320419 55.04275714 -0.31479662 59.23271561 -0.32045364 C61.24462113 -0.32718261 63.25651663 -0.34244714 65.26829147 -0.36634445 C68.08170875 -0.39786198 70.89348477 -0.39805329 73.70703125 -0.390625 C74.54042526 -0.40703033 75.37381927 -0.42343567 76.23246765 -0.44033813 C80.1772881 -0.39762686 82.06230161 -0.1877772 85.03530884 2.5027771 C87.010018 6.1724016 86.58253779 8.2342116 85.48291016 12.19287109 C64.48423295 33.1915483 26.17751684 15.84758497 -3.51708984 16.19287109 C-3.02208984 121.62787109 -3.02208984 121.62787109 -2.51708984 229.19287109 C120.24291016 229.19287109 243.00291016 229.19287109 369.48291016 229.19287109 C369.81291016 158.90287109 370.14291016 88.61287109 370.48291016 16.19287109 C351.32744141 16.16708984 332.17197266 16.14130859 312.43603516 16.11474609 C300.33185883 16.08959258 288.22769666 16.06345973 276.12353516 16.03271484 C269.7674161 16.01662198 263.41129649 16.00077842 257.05517578 15.98535156 C255.86018322 15.98243565 255.86018322 15.98243565 254.64104939 15.97946084 C241.77113137 15.9484205 228.90123121 15.93146014 216.03128281 15.91967687 C202.82814762 15.90727604 189.62510621 15.87979888 176.42203021 15.83825803 C168.27171103 15.8130919 160.12154734 15.79975607 151.97118875 15.80144152 C145.72673334 15.80147473 139.48250988 15.7805558 133.23812485 15.75170326 C130.67262755 15.74315827 128.1070971 15.74148523 125.54159164 15.74706841 C122.04814841 15.75366048 118.55566354 15.73590171 115.06231689 15.71185303 C113.52730557 15.72349365 113.52730557 15.72349365 111.96128392 15.73536944 C105.14855802 15.65191805 105.14855802 15.65191805 101.85294724 13.37918472 C99.82604053 10.14463449 99.94967939 7.92548648 100.48291016 4.19287109 C101.84444809 2.00670815 101.84444809 2.00670815 104.48291016 0.19287109 C108.048822 -0.41872721 111.5879096 -0.35482914 115.19830322 -0.32852173 C116.85492702 -0.33999837 116.85492702 -0.33999837 118.54501796 -0.35170686 C122.25920753 -0.37240434 125.97278088 -0.36437582 129.68701172 -0.35644531 C132.34455937 -0.36513641 135.00206126 -0.37537216 137.65959167 -0.38742065 C144.13751587 -0.41294013 150.61527436 -0.41649874 157.09324035 -0.41182013 C162.35959062 -0.40825545 167.62589055 -0.41174944 172.8922348 -0.42026901 C173.64150596 -0.42145939 174.39077711 -0.42264977 175.16275345 -0.42387622 C176.68488847 -0.42629971 178.20702348 -0.42872798 179.72915849 -0.43116097 C194.01000926 -0.45292293 208.29076564 -0.44858248 222.57162175 -0.43639128 C235.63169885 -0.42605814 248.69147735 -0.44854779 261.75149539 -0.48658772 C275.1626761 -0.52535072 288.57371559 -0.54185507 301.98495269 -0.53434122 C309.51381357 -0.53051722 317.04242048 -0.53549091 324.57123566 -0.56377029 C330.98261371 -0.58760849 337.3935816 -0.59039711 343.80496535 -0.56618996 C347.07507325 -0.5544173 350.34427695 -0.55545555 353.61436272 -0.57619476 C357.16346507 -0.59708013 360.71055288 -0.58097243 364.25958252 -0.55557251 C365.2879983 -0.57032108 366.31641407 -0.58506965 367.37599397 -0.60026515 C373.35605985 -0.51024463 377.31357584 0.41395933 381.89852589 4.38787234 C386.7207996 9.88161413 386.92194821 16.37455597 386.87059021 23.37719727 C386.87866852 24.7143052 386.87866852 24.7143052 386.88691002 26.07842541 C386.90114989 29.04770642 386.89409571 32.01653912 386.88696289 34.98583984 C386.89266847 37.12179928 386.89963346 39.25775568 386.90776062 41.39370728 C386.92568479 47.18288633 386.92452517 52.97191375 386.91881824 58.76111221 C386.91572579 63.59721942 386.92181936 68.43329753 386.92785698 73.2694006 C386.94189773 84.67848575 386.9403442 96.08749601 386.92895508 107.49658203 C386.91746984 119.26186288 386.93155751 131.02691588 386.95835155 142.79216671 C386.98050859 152.90024132 386.98714604 163.00824442 386.98127514 173.11634159 C386.97790494 179.15056376 386.98032524 185.18463983 386.99752617 191.21884155 C387.0129935 196.89229205 387.0090418 202.56540486 386.99022102 208.23884201 C386.98653482 210.31891185 386.98964449 212.3990067 387.00010681 214.4790535 C387.01331582 217.32260593 387.00176984 220.1650402 386.9841156 223.00854492 C386.99372061 223.82801196 387.00332561 224.647479 387.01322168 225.49177837 C386.92614575 232.32682412 384.98682548 237.68895577 380.10791016 242.56787109 C375.16053132 245.63053418 370.65940411 246.44294666 364.89483833 246.44734669 C363.5780689 246.45317888 362.26129946 246.45901107 360.90462792 246.46502 C359.45001881 246.46138708 357.99541016 246.45756272 356.540802 246.4535675 C354.9903984 246.45658861 353.43999629 246.46047789 351.88959682 246.46516007 C347.63158039 246.47545407 343.37364803 246.47325468 339.11562467 246.46897948 C334.52247789 246.4665148 329.9293515 246.47552322 325.33621216 246.48301697 C316.33861613 246.49577323 307.34104994 246.4975565 298.34344639 246.4952167 C291.03053431 246.4934344 283.7176313 246.49518131 276.40472031 246.49944115 C275.3643072 246.50003634 274.3238941 246.50063152 273.25195333 246.50124475 C271.13841638 246.50245649 269.02487943 246.50367062 266.91134249 246.50488713 C247.08567226 246.51576627 227.26001904 246.51359842 207.43434785 246.50750228 C189.29503915 246.50233296 171.15578414 246.51358832 153.01648606 246.5326005 C134.39364803 246.55196994 115.77083542 246.56023646 97.14798725 246.55647725 C86.69164887 246.55456382 76.2353562 246.5570665 65.77902603 246.57119179 C56.87732657 246.58309517 47.97570095 246.58452219 39.07400049 246.57240162 C34.53227209 246.56650558 29.99067882 246.56543353 25.44895935 246.57740402 C21.29017635 246.58823783 17.13164172 246.58518934 12.97287045 246.57114234 C11.4695528 246.5684885 9.96621584 246.57088349 8.4629171 246.5788782 C-8.63165218 246.66346856 -8.63165218 246.66346856 -14.02364814 241.84716493 C-19.22206993 236.03769976 -19.81166155 230.79278208 -19.77778625 223.36930847 C-19.7816118 222.48046646 -19.78543735 221.59162445 -19.78937882 220.67584783 C-19.79969794 217.69733124 -19.7957187 214.71900781 -19.79174805 211.74047852 C-19.79609517 209.60496339 -19.80127831 207.46944983 -19.80723572 205.3339386 C-19.82063816 199.53221212 -19.8212029 193.73055073 -19.81867242 187.92881179 C-19.81760337 183.08540487 -19.82248447 178.24201116 -19.82727784 173.39860708 C-19.83837772 161.97088753 -19.83880797 150.54320085 -19.83276367 139.11547852 C-19.82672497 127.32814618 -19.83903123 115.54093324 -19.86033374 103.75362128 C-19.87795154 93.63287698 -19.88395074 83.51217067 -19.880696 73.3914116 C-19.878883 67.34710687 -19.88152087 61.30288727 -19.89541054 55.25859642 C-19.90798677 49.57292811 -19.90604655 43.88744578 -19.89299965 38.20178032 C-19.89063374 36.11687406 -19.89336904 34.03195471 -19.90162277 31.94706345 C-19.91209077 29.09695512 -19.90398889 26.24747075 -19.89131165 23.39738464 C-19.89868593 22.57587125 -19.90606022 21.75435785 -19.91365796 20.9079501 C-19.85959192 15.1144437 -19.18812378 9.07262671 -15.06518251 4.62750787 C-9.9772512 0.29286895 -6.46143031 0.03286836 0 0 Z " fill="#000000" transform="translate(72.51708984375,100.80712890625)"/>
<path d="M0 0 C0.75925781 -0.06058594 1.51851563 -0.12117187 2.30078125 -0.18359375 C5.22139488 0.576435 6.65344502 1.88046849 8.46704102 4.2644043 C11.21819849 9.16299454 12.5011507 14.68143193 14 20.0625 C14.35900391 21.2896875 14.71800781 22.516875 15.08789062 23.78125 C17.6875 32.83284226 17.6875 32.83284226 17.6875 37.4375 C18.3475 37.4375 19.0075 37.4375 19.6875 37.4375 C19.79779541 36.84106689 19.90809082 36.24463379 20.02172852 35.63012695 C21.25416234 29.19713439 22.82545849 22.92112887 24.625 16.625 C24.87701172 15.71041016 25.12902344 14.79582031 25.38867188 13.85351562 C26.66963052 9.34886566 27.85103617 5.24779065 30.6875 1.4375 C32.98736731 0.28756634 34.50219088 0.2058071 37.0625 0.125 C38.21878906 0.06892578 38.21878906 0.06892578 39.3984375 0.01171875 C42.76206331 0.63737611 43.68430828 1.6473401 45.6875 4.4375 C46.7949741 7.62593453 47.42296635 10.87760797 48.0625 14.1875 C48.26383545 15.17379395 48.4651709 16.16008789 48.67260742 17.17626953 C49.36204129 20.59337254 50.02479473 24.01511688 50.6875 27.4375 C50.95614333 28.79343814 51.22553761 30.14922768 51.49560547 31.50488281 C52.204187 35.06558987 52.90130496 38.62836885 53.58990479 42.19299316 C53.86086172 43.59338764 54.13389523 44.99338211 54.40911865 46.39294434 C57.28289041 61.08404186 57.28289041 61.08404186 56.6875 68.4375 C54.11256202 71.54257227 52.60052153 72.30706835 48.625 72.875 C45.28563124 72.37764721 44.11589002 71.73732819 41.6875 69.4375 C40.77441406 66.97314453 40.77441406 66.97314453 40.203125 64.0703125 C39.99042969 63.01972656 39.77773438 61.96914062 39.55859375 60.88671875 C39.35363281 59.78972656 39.14867187 58.69273437 38.9375 57.5625 C38.71707031 56.47324219 38.49664062 55.38398438 38.26953125 54.26171875 C37.34729199 49.58178414 36.55481132 45.22190565 36.6875 40.4375 C36.0275 40.4375 35.3675 40.4375 34.6875 40.4375 C34.58050781 41.37207031 34.47351563 42.30664062 34.36328125 43.26953125 C33.63532467 48.3346302 32.25658785 53.20545022 30.875 58.125 C30.62685547 59.06150391 30.37871094 59.99800781 30.12304688 60.96289062 C27.64762314 69.78749278 27.64762314 69.78749278 23.6875 72.4375 C21.50390625 73.00390625 21.50390625 73.00390625 19.25 73 C18.50878906 73.02191406 17.76757812 73.04382813 17.00390625 73.06640625 C13.50101633 72.11536868 11.59979324 70.4231272 9.6875 67.4375 C8.11995976 63.45670956 7.02407472 59.38434372 5.9375 55.25 C5.3397068 53.06869077 4.74080493 50.88768498 4.140625 48.70703125 C3.88442383 47.74385986 3.62822266 46.78068848 3.36425781 45.78833008 C2.76673722 43.44404028 2.76673722 43.44404028 1.6875 41.4375 C1.56221924 42.19893311 1.43693848 42.96036621 1.30786133 43.74487305 C0.72592835 47.20875983 0.11333183 50.66654082 -0.5 54.125 C-0.69658203 55.32318359 -0.89316406 56.52136719 -1.09570312 57.75585938 C-2.89192958 67.67655623 -2.89192958 67.67655623 -5.80078125 70.73046875 C-8.3125 72.4375 -8.3125 72.4375 -11.3125 73.0625 C-14.3125 72.4375 -14.3125 72.4375 -17.25 70.625 C-21.73960125 63.68652534 -17.74392453 52.40182058 -16.3515625 44.6015625 C-16.06471085 42.97799332 -16.06471085 42.97799332 -15.77206421 41.32162476 C-15.36942242 39.0539778 -14.9642497 36.78677888 -14.55664062 34.52001953 C-13.93578618 31.05292938 -13.33093448 27.58327761 -12.7265625 24.11328125 C-12.33170373 21.90086751 -11.9359035 19.68862155 -11.5390625 17.4765625 C-11.3608194 16.44318756 -11.18257629 15.40981262 -10.99893188 14.34512329 C-9.3322516 5.24320075 -9.3322516 5.24320075 -6.3125 1.4375 C-4.05265891 0.30757945 -2.51523513 0.13950044 0 0 Z " fill="#000000" transform="translate(262.3125,186.5625)"/>
<path d="M0 0 C7.47352568 5.99391858 12.1746811 13.79808658 13.75 23.25 C14.68223853 35.92485854 12.1173262 45.53852501 3.75 55.25 C-4.5040622 63.23006844 -13.76574214 65.86838127 -24.99194336 65.72045898 C-35.15951358 65.29648046 -42.95329874 61.32304758 -50.25 54.25 C-57.26941867 46.004482 -59.86097032 36.92886738 -59.53125 26.19921875 C-58.57588136 16.18111706 -54.33179754 7.73033611 -46.875 0.9375 C-33.14074758 -10.02553962 -14.21755858 -9.76290139 0 0 Z M-37.484375 14.41796875 C-41.58644942 18.67432473 -42.99170573 23.44194013 -43.8125 29.1875 C-43.45920892 35.0756847 -40.71046625 40.89182885 -36.46484375 44.9609375 C-30.28796798 49.49851503 -24.6779621 49.97145733 -17.25 49.25 C-11.32600715 47.50764916 -7.675584 44.28762353 -4.25 39.25 C-1.80093142 33.88537359 -1.34727641 28.61521642 -2.8671875 22.94921875 C-5.16621332 16.89647377 -8.52407005 13.25991362 -14.25 10.25 C-23.02517625 6.80425016 -30.26504409 8.57713213 -37.484375 14.41796875 Z " fill="#000000" transform="translate(389.25,193.75)"/>
<path d="M0 0 C0.90878906 -0.020625 1.81757813 -0.04125 2.75390625 -0.0625 C12.4972376 -0.11793859 21.28537832 1.87997862 28.5546875 8.7109375 C36.64355375 17.28272114 38.39268574 28.09226195 38.2734375 39.48046875 C37.47404128 50.50071663 33.5094257 59.52789145 25.19140625 66.83984375 C15.81981536 73.56167089 2.05874624 73.07365251 -9 72.25 C-13.47812252 71.04600547 -13.47812252 71.04600547 -15.11636353 68.54724121 C-16.22214052 65.67248836 -16.26842647 63.34057445 -16.29052734 60.25976562 C-16.30328705 59.05171265 -16.31604675 57.84365967 -16.32919312 56.59899902 C-16.33141876 55.29789185 -16.33364441 53.99678467 -16.3359375 52.65625 C-16.34236702 51.30391296 -16.3490955 49.9515773 -16.35610962 48.59924316 C-16.36807 45.76811497 -16.37179158 42.9371087 -16.37060547 40.10595703 C-16.37040199 36.48082042 -16.39773838 32.85646521 -16.43214989 29.23151398 C-16.45439852 26.43992529 -16.45844371 23.64852557 -16.45738602 20.8568573 C-16.46088852 18.87151287 -16.48255879 16.8862274 -16.50448608 14.90100098 C-16.49833282 13.692948 -16.49217957 12.48489502 -16.48583984 11.24023438 C-16.48868988 10.17752319 -16.49153992 9.11481201 -16.49447632 8.01989746 C-15.87813183 4.56733364 -14.69298624 3.42033418 -12 1.25 C-8.3397338 -0.5801331 -4.02922607 0.02210824 0 0 Z M0 16.25 C0 29.45 0 42.65 0 56.25 C8.56364084 56.45684424 8.56364084 56.45684424 16 53.25 C21.06897132 47.34038245 22.3232274 41.5273174 22.2109375 33.9140625 C21.75429041 28.14677882 20.47654438 23.1363532 16 19.25 C10.07649205 15.3009947 8.23647911 16.25 0 16.25 Z " fill="#000000" transform="translate(132,186.75)"/>
<path d="M0 0 C2.18423185 -0.01721586 4.3669505 -0.06110433 6.55078125 -0.10522461 C7.94139513 -0.11535175 9.33202186 -0.12386779 10.72265625 -0.13061523 C12.62023682 -0.15248901 12.62023682 -0.15248901 14.55615234 -0.17480469 C17.82421875 0.29516602 17.82421875 0.29516602 20.24072266 2.10302734 C22.5351186 5.27931183 22.30205561 7.47247113 21.82421875 11.29516602 C20.06406744 14.48020171 19.32530959 15.12813574 15.82421875 16.29516602 C14.41596982 16.375386 13.00424644 16.40282579 11.59375 16.39282227 C10.79130859 16.38959961 9.98886719 16.38637695 9.16210938 16.38305664 C7.91204102 16.37048828 7.91204102 16.37048828 6.63671875 16.35766602 C5.79173828 16.3531543 4.94675781 16.34864258 4.07617188 16.34399414 C1.9921572 16.33222005 -0.09182102 16.31428492 -2.17578125 16.29516602 C-2.17578125 20.25516602 -2.17578125 24.21516602 -2.17578125 28.29516602 C-0.42201172 28.22555664 -0.42201172 28.22555664 1.3671875 28.15454102 C2.91533895 28.11701007 4.46351814 28.08061133 6.01171875 28.04516602 C6.78064453 28.01165039 7.54957031 27.97813477 8.34179688 27.94360352 C12.28945419 27.87583257 14.35375069 28.01935335 17.8359375 30.06079102 C19.91303531 32.39497559 20.50908332 33.23009978 20.44921875 36.29516602 C20.46210938 36.95516602 20.475 37.61516602 20.48828125 38.29516602 C19.40326484 41.56298013 17.76536807 42.57091246 14.82421875 44.29516602 C11.8648786 44.7595459 8.99769348 44.67531747 6.01171875 44.54516602 C5.22345703 44.52711914 4.43519531 44.50907227 3.62304688 44.49047852 C1.68957614 44.4436065 -0.2432641 44.37187011 -2.17578125 44.29516602 C-2.17578125 48.25516602 -2.17578125 52.21516602 -2.17578125 56.29516602 C-0.31373047 56.24295898 -0.31373047 56.24295898 1.5859375 56.18969727 C3.22785101 56.16155018 4.86977921 56.134251 6.51171875 56.10766602 C7.73665039 56.06996094 7.73665039 56.06996094 8.98632812 56.03149414 C13.76437697 55.97346116 16.95844968 56.14612731 20.82421875 59.29516602 C22.37008751 62.38690353 22.11781396 64.88946154 21.82421875 68.29516602 C20.24414062 70.49072266 20.24414062 70.49072266 17.82421875 72.29516602 C14.58789063 72.796875 14.58789063 72.796875 10.79296875 72.79125977 C9.78357239 72.79344261 9.78357239 72.79344261 8.75378418 72.79566956 C7.33499815 72.79401402 5.91619352 72.78249104 4.49755859 72.76171875 C2.33092658 72.73275568 0.16674251 72.7411155 -2 72.75415039 C-3.38152226 72.74791243 -4.76303682 72.73952103 -6.14453125 72.72875977 C-7.39685547 72.71901123 -8.64917969 72.7092627 -9.93945312 72.69921875 C-13.37607101 72.27016001 -14.77820799 71.74791808 -17.17578125 69.29516602 C-18.23150447 66.12799635 -18.31515639 63.85334599 -18.33691406 60.52612305 C-18.34652161 59.34124298 -18.35612915 58.15636292 -18.36602783 56.93557739 C-18.37027771 55.65431976 -18.37452759 54.37306213 -18.37890625 53.05297852 C-18.38460632 51.73731903 -18.3903064 50.42165955 -18.3961792 49.06613159 C-18.40667844 46.28033055 -18.41252817 43.49455827 -18.41601562 40.70874023 C-18.42149881 37.14548343 -18.44552707 33.58260905 -18.47398758 30.01947212 C-18.49713168 26.6139816 -18.49906462 23.20854361 -18.50390625 19.80297852 C-18.51625305 18.52576935 -18.52859985 17.24856018 -18.5413208 15.93264771 C-18.5383197 14.74146332 -18.5353186 13.55027893 -18.53222656 12.32299805 C-18.53587219 11.27725616 -18.53951782 10.23151428 -18.54327393 9.15408325 C-18.11837572 5.84857842 -17.13555826 3.96787078 -15.17578125 1.29516602 C-10.7816926 -0.90187831 -4.88252006 0.02684509 0 0 Z " fill="#000000" transform="translate(203.17578125,186.704833984375)"/>
</svg>
