<?xml version="1.0" encoding="UTF-8"?>
<svg version="1.1" xmlns="http://www.w3.org/2000/svg" width="512" height="512">
<path d="M0 0 C1.79991947 -0.00345979 3.59983681 -0.0082265 5.39974976 -0.01418173 C10.32899434 -0.02667725 15.25806414 -0.0205279 20.18730927 -0.01122308 C25.50981313 -0.00442702 30.83228723 -0.01491659 36.15478516 -0.02316284 C46.57493571 -0.03649639 56.9950214 -0.0336241 67.41517448 -0.02492492 C75.8845358 -0.01814731 84.35387894 -0.01723199 92.82324219 -0.02049637 C94.02905756 -0.02095607 95.23487293 -0.02141577 96.47722816 -0.0218894 C98.92688752 -0.02284858 101.37654687 -0.02382122 103.82620621 -0.02480717 C126.79182684 -0.03335996 149.75741154 -0.02352866 172.72302628 -0.00740607 C192.42474385 0.005997 212.12640839 0.00366888 231.828125 -0.01016235 C254.71207553 -0.02622011 277.59599457 -0.032536 300.47994995 -0.02332556 C302.92055257 -0.02236992 305.36115519 -0.02142681 307.80175781 -0.02049637 C309.00255289 -0.02003354 310.20334797 -0.01957072 311.44053078 -0.01909386 C319.89883811 -0.01650457 328.35712545 -0.02087368 336.81542969 -0.02793503 C347.12452764 -0.03635238 357.43355706 -0.03406488 367.74264717 -0.0180928 C373.00158586 -0.01021331 378.26041033 -0.00711307 383.51934814 -0.01704025 C388.33558635 -0.0259942 393.1516047 -0.02104264 397.96782303 -0.0051076 C399.70793059 -0.00176278 401.4480568 -0.00344712 403.18815231 -0.01073496 C417.99193286 -0.0679689 429.33464606 1.71701999 440.5 12.06845093 C453.9393675 26.22071218 451.60402921 46.22965201 451.57128906 64.33407593 C451.57400242 66.85674134 451.57756528 69.37940596 451.58190918 71.90206909 C451.59005313 78.01746011 451.58890129 84.13278669 451.5830839 90.24817848 C451.57854966 95.22249376 451.57796209 100.1967953 451.58013153 105.17111206 C451.580438 105.88164049 451.58074446 106.59216893 451.58106022 107.32422853 C451.58169973 108.76808008 451.58234816 110.21193163 451.5830054 111.65578318 C451.58869557 125.16471632 451.58217148 138.67362223 451.57140467 152.18255091 C451.56247035 163.74999996 451.56402276 175.31740885 451.57324219 186.88485718 C451.58396809 200.3485823 451.58814637 213.81228362 451.58201766 227.27601242 C451.58138063 228.71427154 451.58075188 230.15253067 451.58013153 231.59078979 C451.57982298 232.29826615 451.57951443 233.0057425 451.57919653 233.73465753 C451.57747654 238.69753104 451.58036961 243.66038934 451.58509064 248.6232605 C451.59131645 255.31446801 451.58682405 262.00558848 451.57530212 268.6967926 C451.57266815 271.14565404 451.57339892 273.59452189 451.57782745 276.04338074 C451.63806859 312.7526155 451.63806859 312.7526155 440.25 325.13095093 C431.76312452 333.14870264 422.4004259 336.50151027 410.91602039 336.51237869 C410.17711621 336.51443133 409.43821203 336.51648396 408.67691681 336.51859879 C406.19335201 336.52426703 403.70984271 336.52281176 401.22627258 336.52139282 C399.43067063 336.52397656 397.63506924 336.52698974 395.83946866 336.53039622 C390.89898248 336.53846847 385.95851083 336.54025592 381.01801884 336.54099369 C375.6920267 336.54284385 370.3660421 336.55039099 365.04005432 336.55712891 C353.39129116 336.57071426 341.74253145 336.57673724 330.09376168 336.58113956 C322.82122172 336.58390159 315.54868309 336.58813887 308.27614403 336.59264374 C288.1434109 336.60483657 268.01067883 336.61513592 247.87794209 336.61851883 C246.5892548 336.6187384 245.30056752 336.61895796 243.97282911 336.61918418 C242.03515577 336.6195116 242.03515577 336.6195116 240.05833751 336.61984563 C237.44066576 336.6202891 234.82299401 336.62073566 232.20532227 336.6211853 C230.25763612 336.62151745 230.25763612 336.62151745 228.27060279 336.6218563 C207.2291167 336.62580464 186.18766524 336.64325971 165.14619253 336.66654482 C143.54692754 336.69025442 121.94767994 336.7027205 100.34840173 336.70388675 C88.21971418 336.70480372 76.09107175 336.7105616 63.96239662 336.72870636 C53.63488743 336.74410202 43.3074373 336.74923094 32.97991882 336.74096826 C27.71088239 336.73705991 22.44196492 336.73800047 17.17294312 336.7520256 C12.3472636 336.76475316 7.52179256 336.76357698 2.69611337 336.75143489 C0.95248746 336.74947592 -0.79115317 336.75256555 -2.53475841 336.76127926 C-17.82185393 336.83282592 -28.8805445 334.71442637 -40.4375 324.13095093 C-46.87069097 317.41350269 -49.80333242 309.33707137 -49.82794189 300.18757629 C-49.83365204 298.91587585 -49.83936218 297.64417542 -49.84524536 296.3339386 C-49.84649061 294.92700205 -49.84761573 293.52006539 -49.84863281 292.11312866 C-49.85326262 290.62973914 -49.8582875 289.14635082 -49.86367798 287.66296387 C-49.8767835 283.63626866 -49.88324267 279.60959011 -49.88768864 275.58287692 C-49.89062077 273.06817383 -49.89472572 270.55347529 -49.89919281 268.03877449 C-49.91285939 260.17337135 -49.92253163 252.30797861 -49.9263947 244.44256443 C-49.93088139 235.35735772 -49.94846102 226.27230101 -49.9773953 217.18713993 C-49.99898128 210.16626056 -50.00909723 203.14542351 -50.01043582 196.1245113 C-50.01148555 191.92977032 -50.01742952 187.73517051 -50.03525543 183.5404644 C-50.05168419 179.59814035 -50.05391715 175.65606441 -50.04511642 171.71371841 C-50.0443434 170.26527939 -50.04872359 168.81682729 -50.05857468 167.36842155 C-50.07121357 165.39476845 -50.06365519 163.42101648 -50.05499268 161.44734192 C-50.05645924 160.34177665 -50.0579258 159.23621138 -50.0594368 158.09714413 C-49.6875 155.38095093 -49.6875 155.38095093 -48.35203171 153.52523899 C-45.7533409 151.73876003 -43.7479579 151.99839369 -40.6875 152.38095093 C-37.87951886 154.31748965 -37.31277862 156.12087526 -36.6875 159.38095093 C-36.59742042 161.35215993 -36.56284937 163.32617234 -36.56292725 165.29943848 C-36.55908272 167.11608757 -36.55908272 167.11608757 -36.55516052 168.96943665 C-36.55723039 170.30859383 -36.55935313 171.64775093 -36.56152344 172.98690796 C-36.56012814 174.39982662 -36.55822848 175.81274486 -36.55586243 177.22566223 C-36.55136866 180.26765402 -36.54950941 183.30963233 -36.54940033 186.35162735 C-36.54825827 191.16863662 -36.5354063 195.98556954 -36.51983643 200.80255127 C-36.51597715 202.023198 -36.51597715 202.023198 -36.5120399 203.26850426 C-36.5067733 204.93258037 -36.50148782 206.59665642 -36.49618387 208.26073241 C-36.46111464 219.47236651 -36.43451844 230.68390584 -36.43701172 241.89559937 C-36.43860378 249.46150387 -36.42248287 257.02714778 -36.38630509 264.59296882 C-36.36789867 268.59294734 -36.35845518 272.59249107 -36.37078094 276.59250259 C-36.38227822 280.36024081 -36.37037444 284.12720286 -36.34114647 287.89483833 C-36.33141757 289.92297869 -36.34621104 291.95119123 -36.36195374 293.97929382 C-36.26271745 302.78302132 -34.90676183 310.21305402 -28.44140625 316.59970093 C-27.71824219 317.02251343 -26.99507812 317.44532593 -26.25 317.88095093 C-25.52941406 318.32438843 -24.80882813 318.76782593 -24.06640625 319.22470093 C-18.53490851 321.91324498 -13.62552219 322.66915431 -7.52505493 322.62145996 C-6.71955212 322.62316881 -5.91404931 322.62487766 -5.08413732 322.62663829 C-2.39405347 322.62992379 0.2957791 322.61894504 2.98583984 322.60800171 C4.91773472 322.60743739 6.84963003 322.60775456 8.78152466 322.60888672 C14.02070932 322.60946043 19.25980236 322.59770306 24.49896574 322.5837388 C29.97624465 322.57123458 35.45352567 322.57006119 40.93081665 322.56768799 C51.30043231 322.56147232 61.67000579 322.5450603 72.03960288 322.52498901 C83.84604111 322.50263273 95.65248136 322.49163726 107.4589355 322.48159814 C131.74348038 322.46069418 156.02798783 322.42551648 180.3125 322.38095093 C179.69761719 321.98263062 179.08273438 321.5843103 178.44921875 321.17391968 C177.64097656 320.64411499 176.83273438 320.1143103 176 319.56845093 C175.19949219 319.04638062 174.39898437 318.5243103 173.57421875 317.98641968 C171.3125 316.38095093 171.3125 316.38095093 169.97292614 314.70497036 C167.30503832 312.57760364 164.3245569 312.97367923 161.05818176 313.00914001 C160.31397293 313.00531545 159.5697641 313.00149089 158.80300349 312.99755043 C156.30182951 312.98824274 153.80120582 313.00027096 151.30004883 313.01205444 C149.50965138 313.00958725 147.71925538 313.00574967 145.92886353 313.00064087 C142.06885287 312.99229154 138.20898967 312.99312018 134.34897804 313.00082588 C128.24297365 313.01239296 122.13715954 313.00025861 116.03117371 312.98420715 C100.86039383 312.9479816 85.689618 312.94178082 70.51879883 312.94430542 C58.73787568 312.94601703 46.95710755 312.93887442 35.17622775 312.90432686 C29.10937533 312.88754049 23.04290088 312.8893218 16.97605002 312.90514958 C13.19527835 312.91095455 9.41468508 312.90019143 5.63394547 312.88490295 C3.88445432 312.88118252 2.134933 312.88426803 0.38546944 312.89477348 C-17.45851872 312.99475794 -17.45851872 312.99475794 -24.74609375 306.56454468 C-25.20113281 305.98833374 -25.65617187 305.4121228 -26.125 304.81845093 C-26.83462891 303.95026733 -26.83462891 303.95026733 -27.55859375 303.06454468 C-30.97503822 297.96943199 -30.18909136 291.23049528 -29.6875 285.38095093 C-28.02616857 279.95077047 -24.17111206 276.58353097 -19.6875 273.38095093 C-15.53557225 271.28487455 -11.75519687 271.1053455 -7.19267273 271.14958191 C-6.07379621 271.14830175 -6.07379621 271.14830175 -4.93231612 271.14699572 C-2.43743907 271.14638267 0.05716327 271.15988731 2.55200195 271.17318726 C4.34269116 271.17534902 6.13338177 271.17653516 7.92407227 271.17681885 C11.77857012 271.17887345 15.6330016 271.1865714 19.48748207 271.19825172 C25.5852109 271.21541181 31.68282117 271.21215976 37.78056335 271.2046051 C55.11964299 271.18542074 72.45856902 271.17874329 89.79760742 271.22640991 C99.37522067 271.25257235 108.95249678 271.25387114 118.53011292 271.22726268 C123.59655022 271.21427597 128.66225644 271.2142944 133.72863197 271.24512672 C138.49534349 271.27407771 143.26093508 271.27059878 148.0276413 271.24251938 C149.77392143 271.23802934 151.52028033 271.2454479 153.26644707 271.26584816 C163.9960432 271.67232213 163.9960432 271.67232213 173.24137878 266.92494202 C174.27651548 265.75361387 175.30222387 264.57378777 176.3125 263.38095093 C184.3767737 258.83625431 193.27935227 258.01784669 202.234375 260.04110718 C209.46566011 262.3483266 209.46566011 262.3483266 211.66934967 265.03547382 C214.83904317 268.69802619 217.33815995 270.21799654 222.16404724 271.02510643 C227.1662582 271.34938927 232.16839242 271.26706902 237.17773438 271.20394897 C239.1068008 271.20528958 241.03586721 271.20976584 242.96492004 271.21713257 C247.10940242 271.22636266 251.25303073 271.21371888 255.39741516 271.1839962 C261.95337727 271.13732576 268.50873447 271.14082488 275.06481934 271.15116882 C286.61578358 271.16297927 298.16633995 271.13210254 309.71722412 271.0920105 C327.10666391 271.03215205 344.49612689 271.0077675 361.88566256 271.02025634 C368.40001346 271.02336253 374.91384328 271.00493993 381.42809296 270.96926343 C385.48305109 270.95069329 389.537906 270.94838971 393.59290123 270.95017242 C395.46981289 270.94751855 397.34672968 270.93798026 399.22356606 270.92096138 C401.79120497 270.89855325 404.35771712 270.90090657 406.92541504 270.90907288 C407.66317216 270.89653762 408.40092929 270.88400236 409.16104269 270.87108725 C415.4683816 270.93559413 420.62553663 273.0101009 425.37109375 277.19735718 C425.82613281 277.77356812 426.28117187 278.34977905 426.75 278.94345093 C427.22308594 279.52223999 427.69617188 280.10102905 428.18359375 280.69735718 C431.60680332 285.80255899 430.69627315 292.51573869 430.3125 298.38095093 C428.63314097 303.81417132 424.94716559 307.24072853 420.3125 310.38095093 C416.00122705 312.55206213 412.01453255 312.65481883 407.28617859 312.61231995 C406.48309118 312.61317339 405.68000376 312.61402683 404.85258037 312.61490613 C402.16423752 312.61551959 399.47614908 312.60201007 396.7878418 312.5887146 C394.85922324 312.58655303 392.93060339 312.58536672 391.00198364 312.58508301 C386.84955487 312.58302788 382.69718766 312.57532772 378.54477501 312.56365013 C371.97657951 312.54649605 365.40849414 312.54974047 358.84028625 312.55729675 C340.1630765 312.57648505 321.48600938 312.58315179 302.80883789 312.53549194 C292.49290463 312.50933526 282.17728438 312.50802488 271.86134845 312.53463918 C266.40369062 312.54763002 260.94671152 312.54759421 255.48911095 312.51677513 C250.35471857 312.48783902 245.22136624 312.49129048 240.08697891 312.51938248 C238.2052448 312.52387509 236.32343772 312.51644204 234.4418087 312.4960537 C223.14029154 311.9872067 223.14029154 311.9872067 213.38044739 316.80937195 C212.85501248 317.42814366 212.32957758 318.04691538 211.78822041 318.68443775 C210.13429621 320.58581702 208.60916949 321.39436433 206.3125 322.38095093 C233.520358 322.47444011 260.72819188 322.5449527 287.93617821 322.58819962 C300.56964872 322.60881466 313.20301937 322.63691522 325.83642578 322.68270874 C336.8491827 322.72260866 347.86186727 322.74839142 358.87469447 322.75730491 C364.70457263 322.76251425 370.53424386 322.77473645 376.36405563 322.80387115 C381.85515393 322.8310899 387.3459607 322.83938277 392.83712006 322.83338165 C394.84863241 322.83447899 396.86015487 322.84239415 398.87160873 322.85777283 C415.08004044 323.20358931 415.08004044 323.20358931 429.1875 316.00595093 C429.88875 315.13970093 430.59 314.27345093 431.3125 313.38095093 C432.034375 312.49407593 432.75625 311.60720093 433.5 310.69345093 C437.58680143 303.22446901 437.60490898 294.79098635 437.56646729 286.45101929 C437.56958727 285.39597419 437.57270725 284.34092909 437.57592177 283.25391293 C437.5838554 279.74281552 437.57759621 276.23189317 437.57128906 272.72079468 C437.57400098 270.19370422 437.57756304 267.66661455 437.58190918 265.13952637 C437.59006747 259.0026728 437.58889364 252.86588332 437.5830839 246.72902894 C437.57855641 241.73888387 437.5779592 236.7487525 437.58013153 231.75860596 C437.58059123 230.69090435 437.58059123 230.69090435 437.58106022 229.60163301 C437.5816997 228.15535966 437.58234813 226.70908631 437.5830054 225.26281297 C437.58870053 211.71964773 437.58216364 198.17650962 437.57140467 184.63334882 C437.5624699 173.02739272 437.56402217 161.42147663 437.57324219 149.81552124 C437.58395927 136.31888578 437.58815128 122.82227407 437.58201766 109.32563496 C437.5813806 107.88485527 437.58075186 106.44407559 437.58013153 105.0032959 C437.57982298 104.29451245 437.57951443 103.585729 437.57919653 102.85546726 C437.5774739 97.874688 437.58037535 92.89392388 437.58509064 87.91314697 C437.59130449 81.20228997 437.5868436 74.49151993 437.57530212 67.78066635 C437.57266243 65.32087199 437.57340882 62.86107126 437.57782745 60.40127945 C437.58331151 57.03772875 437.57641394 53.67441808 437.56646729 50.31088257 C437.57092873 49.34296752 437.57539017 48.37505247 437.57998681 47.37780666 C437.52200669 37.23408737 436.44163505 28.0269825 429.3125 20.38095093 C419.98309143 13.63437956 410.46347327 13.52614885 399.47387695 13.61904907 C397.68189768 13.61212606 395.88992693 13.60259033 394.09797382 13.59068561 C389.1997359 13.56574039 384.30220334 13.57797117 379.40396357 13.59660292 C374.11141443 13.6102144 368.81898405 13.58920643 363.52645874 13.57272339 C353.16868066 13.54607662 342.8111638 13.55179161 332.45337558 13.56919923 C324.03364342 13.58276256 315.61398434 13.58458161 307.19424438 13.57805634 C305.99482816 13.57713694 304.79541194 13.57621754 303.55964977 13.57527028 C301.12287893 13.57335188 298.68610811 13.5714066 296.24933732 13.56943473 C273.41236618 13.55233513 250.57553968 13.57198229 227.73859227 13.60423693 C208.15345524 13.6310426 188.56853161 13.62638618 168.98339844 13.59872437 C146.22683672 13.5665982 123.47040169 13.553983 100.71382046 13.57239795 C98.2861322 13.57430919 95.85844392 13.57619542 93.43075562 13.57805634 C91.63916243 13.57944482 91.63916243 13.57944482 89.81137544 13.58086134 C81.40405532 13.58603677 72.99681571 13.5773086 64.58950806 13.56317902 C54.34045926 13.54633239 44.09168609 13.55094393 33.84266877 13.58286348 C28.61575674 13.59860693 23.38930387 13.6048505 18.16239548 13.58496857 C13.3730311 13.56702679 8.58454943 13.57701659 3.7952646 13.60883388 C2.06730084 13.61550957 0.33926176 13.61218603 -1.38865316 13.59757915 C-11.47863098 13.5188587 -20.23991191 14.13481763 -28.6875 20.38095093 C-34.06704762 26.59952161 -35.83187493 31.83339842 -35.86108398 39.9859314 C-35.867771 40.75862366 -35.87445801 41.53131592 -35.88134766 42.3274231 C-35.89539394 44.00526226 -35.90728934 45.68312049 -35.91729546 47.36098862 C-35.93371318 50.01746285 -35.95695155 52.67379603 -35.98219299 55.3302002 C-36.05294642 62.88301559 -36.11307274 70.43588852 -36.16430664 77.98886108 C-36.19612435 82.60894536 -36.23740675 87.22886717 -36.28450203 91.84881973 C-36.30050491 93.60862426 -36.31283439 95.3684662 -36.32140923 97.1283226 C-36.33358353 99.59144304 -36.35774212 102.05418256 -36.38452148 104.5171814 C-36.38511063 105.24255096 -36.38569977 105.96792053 -36.38630676 106.715271 C-36.44337486 110.68295254 -36.80449694 113.85518116 -38.6875 117.38095093 C-41.48620027 118.78030106 -43.59248792 118.63360497 -46.6875 118.38095093 C-48.35365295 117.3633728 -48.35365295 117.3633728 -49.6875 115.38095093 C-49.98887174 112.6495197 -50.10759739 110.14501481 -50.09155273 107.41220093 C-50.09841599 106.60037857 -50.10527924 105.78855621 -50.11235046 104.95213318 C-50.13068507 102.26156215 -50.12676825 99.57157121 -50.12109375 96.88095093 C-50.12565561 95.00586762 -50.13096119 93.13078599 -50.13697815 91.25570679 C-50.14592473 87.31805655 -50.14347237 83.38060888 -50.13354492 79.44296265 C-50.12211149 74.4206514 -50.14217188 69.39904915 -50.17146206 64.37683105 C-50.1899101 60.49892798 -50.18951355 56.62119161 -50.18382454 52.74325562 C-50.18367206 50.89347344 -50.18965512 49.04367942 -50.20211601 47.19393921 C-50.28385044 33.05859472 -49.42459683 22.22612413 -39.109375 11.60751343 C-27.34981492 0.79630497 -15.33477323 -0.06422489 0 0 Z M176.44140625 281.69735718 C173.31786777 286.35564467 173.90382087 292.01414574 174.3125 297.38095093 C176.33401519 303.68332183 181.11608087 307.5778427 186.75 310.75595093 C193.03305665 312.28840377 197.81009791 311.82174991 203.41796875 308.72470093 C207.56006549 305.78680138 210.70518066 302.20290894 212.3125 297.38095093 C212.81998917 291.16420864 213.0844833 285.6130568 209.3125 280.38095093 C204.51991376 275.47002923 200.43567032 272.68814801 193.5 272.00595093 C186.00304627 272.2459664 181.04328162 276.06726988 176.44140625 281.69735718 Z M-16.6875 288.38095093 C-17.52083333 291.88095093 -17.52083333 291.88095093 -16.6875 295.38095093 C-13.9622721 298.23349661 -12.29889394 299.29023077 -8.37045574 299.87314224 C-7.09930322 299.86945507 -5.82815069 299.8657679 -4.51847839 299.86196899 C-3.80775171 299.86538669 -3.09702503 299.86880439 -2.36476117 299.87232566 C0.01090154 299.87890146 2.38542816 299.856935 4.76098633 299.83505249 C6.46613539 299.83392394 8.1712864 299.83455802 9.87643433 299.83682251 C14.50219417 299.8379703 19.12753924 299.81445056 23.75320268 299.78652668 C28.58851409 299.7615238 33.42383497 299.7591719 38.25920105 299.75442505 C47.4141538 299.74199201 56.56891552 299.70916591 65.72378415 299.66902709 C76.14689125 299.62431964 86.57000748 299.60232491 96.99318659 299.58224535 C118.43306724 299.5404336 139.87276486 299.4692695 161.3125 299.38095093 C161.3125 294.43095093 161.3125 289.48095093 161.3125 284.38095093 C138.84249004 284.28838825 116.37252595 284.21698952 93.90236378 284.17370224 C83.46926703 284.15306972 73.03629085 284.12493589 62.60327148 284.07919312 C53.51072809 284.03934653 44.418272 284.01352313 35.32564372 284.00459695 C30.51033419 283.99937852 25.69527447 283.98709894 20.88004494 283.9580307 C16.34843288 283.93089603 11.81717371 283.92250198 7.28548813 283.9285202 C5.62179713 283.92741909 3.95809443 283.91945351 2.29447365 283.90412903 C0.0230556 283.88423082 -2.2470296 283.88901006 -4.51847839 283.89993286 C-5.78963092 283.89624569 -7.06078344 283.89255852 -8.37045574 283.88875961 C-12.29889394 284.47167109 -13.9622721 285.52840525 -16.6875 288.38095093 Z M225.3125 284.38095093 C225.3125 289.33095093 225.3125 294.28095093 225.3125 299.38095093 C249.7555407 299.47348177 274.19853934 299.54489599 298.64171982 299.58819962 C309.99069932 299.6088392 321.33956811 299.63698651 332.68847656 299.68270874 C342.57830193 299.72253371 352.46804713 299.74837358 362.35795045 299.75730491 C367.59631664 299.762527 372.83445348 299.77482986 378.07274628 299.80387115 C383.00078247 299.83097165 387.92849427 299.83940678 392.8565979 299.83338165 C394.66745007 299.8344843 396.47831281 299.84247006 398.28910065 299.85777283 C400.75789347 299.87761718 403.22545476 299.87291103 405.6942749 299.86196899 C406.77404527 299.87944604 406.77404527 299.87944604 407.87562919 299.89727616 C411.22982626 299.85697477 413.03077068 299.58967212 415.75738907 297.5696373 C418.03304852 294.36684016 417.85966744 292.211123 417.3125 288.38095093 C415.82321868 286.04524718 415.82321868 286.04524718 413.3125 284.38095093 C410.63390535 283.99638786 408.36947444 283.85663237 405.6942749 283.89993286 C404.92314936 283.89651516 404.15202382 283.89309746 403.35753083 283.8895762 C400.77150533 283.88298322 398.18651593 283.90499596 395.60058594 283.92684937 C393.74780298 283.92797754 391.89501824 283.92734457 390.04223633 283.92507935 C385.00941965 283.9239301 379.97698309 283.94747354 374.94425488 283.97537518 C369.68585822 284.00035373 364.42745318 284.00272803 359.16900635 284.00747681 C349.21008537 284.01991701 339.2513397 284.0527528 329.29249597 284.09287477 C317.95527968 284.13755994 306.61805509 284.15957134 295.28077269 284.17965651 C271.95791458 284.22148447 248.63522449 284.29266112 225.3125 284.38095093 Z " fill="#000000" transform="translate(55.6875,87.61904907226563)"/>
<path d="M0 0 C5.52566977 5.41901886 9.02911269 13.02288481 12.77880859 19.71716309 C14.52509151 22.83461217 16.28894676 25.94210355 18.05078125 29.05078125 C18.3933194 29.65626801 18.73585754 30.26175476 19.08877563 30.8855896 C22.93178611 37.66788442 26.92990328 44.35217535 31 51 C35.71959799 44.21959662 39.77806984 37.17544855 43.75 29.9375 C47.93058801 22.41166555 52.12304916 14.9019237 56.625 7.5625 C57.01397461 6.91337646 57.40294922 6.26425293 57.80371094 5.59545898 C59.79715681 2.40147479 61.30402196 0.10360867 65 -1 C71.25720113 -0.78044908 71.25720113 -0.78044908 73.69103432 1.7767477 C75.15385273 4.26131581 75.37673684 5.59043302 75.38095093 8.44703674 C75.3894104 9.3316861 75.39786987 10.21633545 75.40658569 11.12779236 C75.400513 12.09052567 75.39444031 13.05325897 75.38818359 14.04516602 C75.39344055 15.06505615 75.39869751 16.08494629 75.40411377 17.13574219 C75.41732316 20.50861908 75.40857276 23.88102452 75.3984375 27.25390625 C75.4004578 29.5951293 75.40336887 31.93635174 75.40713501 34.27757263 C75.41155952 39.18437694 75.40512248 44.09101745 75.39111328 48.99780273 C75.37401208 55.29531912 75.38386797 61.59245222 75.40183067 67.88995457 C75.41265693 72.72400312 75.40922763 77.55796038 75.4014473 82.39201164 C75.39944258 84.71450788 75.40191404 87.03701234 75.40888596 89.35949898 C75.41648226 92.60129982 75.40492176 95.84247446 75.38818359 99.08422852 C75.39425629 100.04898605 75.40032898 101.01374359 75.40658569 102.00773621 C75.39812622 102.88956573 75.38966675 103.77139526 75.38095093 104.6799469 C75.37981985 105.44629235 75.37868877 106.21263781 75.37752342 107.00220585 C74.89160307 109.57361941 74.08588798 110.45264705 72 112 C68.5 112.4375 68.5 112.4375 65 112 C62.3486004 109.58643216 62.00803962 108.0709367 61.60127258 104.48187256 C61.57491937 103.05549719 61.56483646 101.6287645 61.56762695 100.20214844 C61.55233948 99.03084381 61.55233948 99.03084381 61.53674316 97.83587646 C61.50660018 95.26030312 61.49734539 92.68510161 61.48828125 90.109375 C61.4714355 88.32145958 61.4532854 86.53355601 61.43388367 84.7456665 C61.38636613 80.04394229 61.35656814 75.34226613 61.33044434 70.64038086 C61.30064766 65.84088654 61.25411426 61.0415578 61.20898438 56.2421875 C61.12293132 46.82821158 61.05559493 37.41420161 61 28 C60.73045502 28.48799576 60.46091003 28.97599152 60.18319702 29.47877502 C49.86861045 48.13829069 49.86861045 48.13829069 44.625 56.9375 C44.13128906 57.78505859 43.63757813 58.63261719 43.12890625 59.50585938 C42.64550781 60.31732422 42.16210938 61.12878906 41.6640625 61.96484375 C41.24592285 62.6724585 40.8277832 63.38007324 40.39697266 64.10913086 C38.79523813 66.27715496 37.29515909 67.5883613 35 69 C29.47750865 69.70126874 29.47750865 69.70126874 27 69 C23.35890257 65.71504072 20.84455328 62.43389279 18.44140625 58.17578125 C17.80783203 57.06396484 17.17425781 55.95214844 16.52148438 54.80664062 C15.86817548 53.64210324 15.21518203 52.47738883 14.5625 51.3125 C13.2729253 49.03731253 11.98257116 46.76256665 10.69140625 44.48828125 C9.84364624 42.98068237 9.84364624 42.98068237 8.97875977 41.44262695 C6.38150434 36.92394729 3.69329044 32.46192306 1 28 C0.99413376 29.00811234 0.98826752 30.01622467 0.98222351 31.05488586 C0.92506075 40.54602207 0.85233317 50.03692774 0.76428509 59.52782917 C0.71951878 64.40745207 0.6802766 69.28699027 0.65356445 74.16674805 C0.62759376 78.87421576 0.58723598 83.58135861 0.53681374 88.28862572 C0.52010271 90.08635613 0.50861488 91.88414279 0.50238609 93.68194008 C0.49279082 96.19626717 0.4647877 98.70975514 0.43237305 101.22387695 C0.43380814 101.97050095 0.43524323 102.71712494 0.4367218 103.4863739 C0.34510025 108.49685831 0.34510025 108.49685831 -1.34342957 110.95866394 C-4.00554325 112.63209413 -5.93886739 112.43730466 -9 112 C-11.15905762 110.58702087 -11.15905762 110.58702087 -13 108 C-13.60325172 104.72767799 -13.54614505 101.48973879 -13.51757812 98.17016602 C-13.5245874 97.17299561 -13.53159668 96.1758252 -13.53881836 95.1484375 C-13.55643287 91.84997768 -13.544762 88.55237491 -13.53125 85.25390625 C-13.53394412 82.9623142 -13.53782587 80.67072326 -13.54284668 78.37913513 C-13.54874661 73.57483036 -13.54016332 68.77082296 -13.52148438 63.96655273 C-13.49870779 57.80812913 -13.51180716 51.65040328 -13.53577423 45.49200535 C-13.55022957 40.75907639 -13.54562711 36.02631278 -13.53526306 31.29337883 C-13.5325944 29.02277481 -13.5358704 26.75215579 -13.54518127 24.48156929 C-13.55534068 21.30705142 -13.53985261 18.13366233 -13.51757812 14.95922852 C-13.52567505 14.02036301 -13.53377197 13.0814975 -13.54211426 12.11418152 C-13.48708352 7.88050007 -13.37611858 5.60340553 -11.09265137 1.94004822 C-7.28715707 -1.58793668 -4.98660865 -1.41287245 0 0 Z " fill="#000000" transform="translate(251,165)"/>
<path d="M0 0 C11.2632219 9.63234814 19.81559181 23.01931496 21.40234375 38.02734375 C22.45616213 56.71380181 19.05061877 73.03191124 6.6640625 87.70703125 C-3.32522968 97.95511338 -14.96430041 103.0761866 -29.16015625 103.33984375 C-42.28398144 103.35332252 -53.24869334 98.60025617 -63.0390625 89.84375 C-75.31479008 77.19414239 -80.11032526 61.33763116 -79.94946289 44.03222656 C-79.47596347 27.61539543 -73.25719055 14.52236963 -61.59765625 3.02734375 C-61.02144531 2.44082031 -60.44523437 1.85429687 -59.8515625 1.25 C-43.48962104 -14.17024699 -17.26232334 -13.10898239 0 0 Z M-56.703125 16.421875 C-65.38650683 28.17869262 -67.81843889 40.63029259 -66.59765625 55.02734375 C-64.33909094 67.51748201 -57.91914883 77.63518906 -47.59765625 85.02734375 C-38.95976336 90.18805207 -29.74729582 91.77725553 -19.8046875 89.34375 C-9.14222283 85.35979033 -1.1224946 78.18631776 3.9140625 67.95703125 C9.93687052 53.90956499 9.81928596 40.75199115 4.44140625 26.4765625 C-0.05676354 16.22009733 -7.78768404 9.12867638 -18.0546875 4.8671875 C-32.65579678 0.04500855 -46.71113408 5.05807085 -56.703125 16.421875 Z " fill="#000000" transform="translate(420.59765625,173.97265625)"/>
<path d="M0 0 C12.85552697 8.55714584 22.83070462 20.20380317 26.47265625 35.5 C29.85340633 52.45136662 26.91272035 68.04656853 17.47265625 82.5 C8.20334989 94.70642899 -4.20048036 103.1335146 -19.52734375 105.5 C-22.34088651 105.70937993 -25.14430739 105.77574236 -27.96484375 105.8125 C-29.07182617 105.85600586 -29.07182617 105.85600586 -30.20117188 105.90039062 C-35.43984907 105.96092645 -38.43029026 105.0419299 -42.52734375 101.5 C-46.09908427 96.98128132 -45.96058601 92.92608084 -45.93139648 87.41455078 C-45.93825974 86.50822906 -45.94512299 85.60190735 -45.95219421 84.66812134 C-45.9704704 81.67702492 -45.96662306 78.68645269 -45.9609375 75.6953125 C-45.96549933 73.61172312 -45.97080491 71.52813525 -45.9768219 69.44454956 C-45.98575495 65.07836799 -45.98332811 60.7123693 -45.97338867 56.34619141 C-45.9619066 50.75858671 -45.98209812 45.17161468 -46.01130581 39.58409309 C-46.02967841 35.28087369 -46.02937307 30.97780553 -46.02366829 26.67455673 C-46.02351516 24.61492908 -46.02955225 22.55529112 -46.04195976 20.49570084 C-46.05688543 17.61148007 -46.04618041 14.72842335 -46.02905273 11.84423828 C-46.0387207 10.99829102 -46.04838867 10.15234375 -46.05834961 9.28076172 C-45.98743145 3.5597399 -44.8658296 0.18551406 -41.52734375 -4.5 C-29.61339851 -11.88664605 -11.22777371 -6.66377914 0 0 Z M-32.52734375 5.5 C-32.52734375 34.21 -32.52734375 62.92 -32.52734375 92.5 C-17.98294121 92.5 -8.18030789 89.6290542 2.47265625 79.62109375 C11.56931539 69.91668367 14.97478955 58.79629825 14.71875 45.73828125 C14.03775592 36.77726395 10.40511888 29.87885831 5.47265625 22.5 C4.89515625 21.613125 4.31765625 20.72625 3.72265625 19.8125 C-3.89256771 11.98574204 -13.73497644 7.10703864 -24.52734375 5.5 C-27.16734375 5.5 -29.80734375 5.5 -32.52734375 5.5 Z " fill="#000000" transform="translate(115.52734375,171.5)"/>
<path d="M0 0 C1.57327309 -0.00430527 1.57327309 -0.00430527 3.17832947 -0.00869751 C5.39143413 -0.01073562 7.60455692 -0.00522354 9.81762695 0.00732422 C13.20630079 0.02339698 16.5937848 0.00745804 19.98242188 -0.01171875 C22.13411722 -0.00973659 24.28581182 -0.00589348 26.4375 0 C27.45111099 -0.00607269 28.46472198 -0.01214539 29.50904846 -0.0184021 C30.92588173 -0.00421738 30.92588173 -0.00421738 32.37133789 0.01025391 C33.20008926 0.01264069 34.02884064 0.01502747 34.88270569 0.01748657 C37.69800623 0.49002507 39.07356451 1.47095158 41.15234375 3.3984375 C42.19074074 6.29111484 42.38763377 7.74686515 41.33984375 10.6484375 C40.15234375 12.3984375 40.15234375 12.3984375 38.15234375 13.3984375 C36.73261102 13.48778156 35.30876584 13.51602728 33.88623047 13.51196289 C32.56508743 13.51184959 32.56508743 13.51184959 31.21725464 13.51173401 C30.26513092 13.50657272 29.3130072 13.50141144 28.33203125 13.49609375 C27.35823517 13.4946788 26.38443909 13.49326385 25.38113403 13.49180603 C22.26317302 13.48619723 19.14528315 13.47364323 16.02734375 13.4609375 C13.9166677 13.45592363 11.80599053 13.45136053 9.6953125 13.44726562 C4.51427328 13.43707475 -0.6666116 13.41750103 -5.84765625 13.3984375 C-5.84765625 25.6084375 -5.84765625 37.8184375 -5.84765625 50.3984375 C-1.26117188 50.34623047 -1.26117188 50.34623047 3.41796875 50.29296875 C6.38003607 50.26957114 9.3420931 50.2513557 12.30419922 50.23364258 C14.36251434 50.218558 16.42079733 50.19808763 18.47900391 50.17211914 C21.43790619 50.13572165 24.39638342 50.11870784 27.35546875 50.10546875 C28.27539612 50.08998489 29.19532349 50.07450104 30.14312744 50.05854797 C36.5127991 50.05687084 36.5127991 50.05687084 39.70996094 51.7644043 C41.65327122 53.96592355 42.00991459 55.47863977 42.15234375 58.3984375 C41.17504156 61.10481279 40.7472193 62.10099972 38.15234375 63.3984375 C36.73261102 63.48778156 35.30876584 63.51602728 33.88623047 63.51196289 C32.56508743 63.51184959 32.56508743 63.51184959 31.21725464 63.51173401 C30.26513092 63.50657272 29.3130072 63.50141144 28.33203125 63.49609375 C27.35823517 63.4946788 26.38443909 63.49326385 25.38113403 63.49180603 C22.26317302 63.48619723 19.14528315 63.47364323 16.02734375 63.4609375 C13.9166677 63.45592363 11.80599053 63.45136053 9.6953125 63.44726562 C4.51427328 63.43707475 -0.6666116 63.41750103 -5.84765625 63.3984375 C-5.84765625 75.6084375 -5.84765625 87.8184375 -5.84765625 100.3984375 C-1.26117188 100.34623047 -1.26117188 100.34623047 3.41796875 100.29296875 C6.38003607 100.26957114 9.3420931 100.2513557 12.30419922 100.23364258 C14.36251434 100.218558 16.42079733 100.19808763 18.47900391 100.17211914 C21.43790619 100.13572165 24.39638342 100.11870784 27.35546875 100.10546875 C28.27539612 100.08998489 29.19532349 100.07450104 30.14312744 100.05854797 C36.5127991 100.05687084 36.5127991 100.05687084 39.70996094 101.7644043 C41.65327122 103.96592355 42.00991459 105.47863977 42.15234375 108.3984375 C41.17504156 111.10481279 40.7472193 112.10099972 38.15234375 113.3984375 C36.54541697 113.51383829 34.93389372 113.56793907 33.32299805 113.59130859 C32.31822922 113.60737152 31.31346039 113.62343445 30.27824402 113.63998413 C25.68102652 113.68438855 21.083954 113.72549688 16.48657227 113.74853516 C14.06069347 113.76510071 11.6348636 113.79239825 9.20922852 113.83056641 C5.71474847 113.88528289 2.22141302 113.90720191 -1.2734375 113.921875 C-2.35691971 113.94454437 -3.44040192 113.96721375 -4.55671692 113.99057007 C-12.07806437 113.96943461 -12.07806437 113.96943461 -16.00854492 111.05322266 C-18.30080155 107.74431537 -18.97152649 105.32219422 -18.98809814 101.38882446 C-18.99380829 100.57575333 -18.99951843 99.76268219 -19.00540161 98.92497253 C-19.00651947 98.03659195 -19.00763733 97.14821136 -19.00878906 96.23291016 C-19.01375397 95.2944072 -19.01871887 94.35590424 -19.02383423 93.38896179 C-19.03845535 90.28013377 -19.04525748 87.17135677 -19.05078125 84.0625 C-19.05653236 81.90400185 -19.0622901 79.74550373 -19.0680542 77.58700562 C-19.07856378 73.0593034 -19.08440686 68.53161895 -19.08789062 64.00390625 C-19.09337786 58.20095036 -19.1174111 52.39822881 -19.14586258 46.59534645 C-19.16448077 42.13611158 -19.16969411 37.67693327 -19.1712265 33.21766281 C-19.17425497 31.07822767 -19.18229 28.93879356 -19.19541168 26.79939651 C-19.21245621 23.80700051 -19.21059581 20.81517869 -19.20410156 17.82275391 C-19.21331635 16.93842178 -19.22253113 16.05408966 -19.23202515 15.14295959 C-19.19968246 10.38832125 -18.91675407 7.27033478 -15.84765625 3.3984375 C-11.25629421 -0.68587216 -5.81032012 -0.03488014 0 0 Z " fill="#000000" transform="translate(178.84765625,163.6015625)"/>
<path d="M0 0 C3.0805726 3.0805726 3.15082622 6.20534616 3.1875 10.4375 C3.14605669 14.03122721 2.795927 16.80724088 1 20 C-1.79870027 21.39935013 -3.90498792 21.25265405 -7 21 C-8.6640625 19.984375 -8.6640625 19.984375 -10 18 C-10.32513009 15.23492967 -10.46451381 12.7603202 -10.4375 10 C-10.45748047 9.27554688 -10.47746094 8.55109375 -10.49804688 7.8046875 C-10.49495531 4.45342852 -10.47199668 2.51829059 -8.16796875 -0.01171875 C-5.10952649 -1.40592757 -3.1822507 -0.89933172 0 0 Z " fill="#000000" transform="translate(16,213)"/>
</svg>
