<?xml version="1.0" encoding="UTF-8"?>
<svg version="1.1" xmlns="http://www.w3.org/2000/svg" width="512" height="512">
<path d="M0 0 C0.88559601 0.00531738 1.77119202 0.01063477 2.68362427 0.01611328 C15.83135789 0.09616472 28.97880824 0.19758028 42.1262207 0.31939697 C46.1605432 0.35675848 50.19486959 0.39061658 54.22924805 0.42132568 C105.26417149 0.82012817 105.26417149 0.82012817 128.03125 6.09765625 C133.87325279 7.44359103 139.4372485 8.10101077 145.4375 8.3125 C160.70351138 9.10046897 176.40638231 13.39327126 187 25 C197.06881339 37.66323157 199.1980857 52.71464933 199.09765625 68.41015625 C199.09553383 69.68952309 199.09553383 69.68952309 199.09336853 70.99473572 C199.08782939 73.68402816 199.0752888 76.37323328 199.0625 79.0625 C199.05747712 80.90038941 199.0529156 82.73828015 199.04882812 84.57617188 C199.03788 89.05081422 199.02065839 93.52539238 199 98 C199.93859863 98.29712891 200.87719727 98.59425781 201.84423828 98.90039062 C212.50665402 102.61565602 220.89634622 113.28491772 225.75 123.125 C231.04996756 135.73032826 233.19338536 149.12730663 233.0957489 162.73271179 C233.09393091 163.56356838 233.09211291 164.39442496 233.09023982 165.25045902 C233.08291357 168.00905434 233.06821957 170.76755822 233.0534668 173.52612305 C233.04658968 175.51456057 233.04014145 177.50299962 233.03408813 179.49143982 C233.01622318 184.8760014 232.99165375 190.26051222 232.96532798 195.64503837 C232.94377189 200.15006284 232.9251452 204.65509773 232.90639621 209.16013461 C232.8619382 219.79615495 232.81166311 230.43213741 232.75805664 241.06811523 C232.70301216 252.01464499 232.65898317 262.96118099 232.62020558 273.9077794 C232.58637492 283.32724654 232.54502936 292.74666139 232.49788028 302.16607124 C232.46988053 307.78234118 232.44479942 313.39858523 232.4272213 319.0148983 C232.41039815 324.30174669 232.38415107 329.58846857 232.35091019 334.87523842 C232.3403175 336.80603125 232.33296397 338.73684527 232.32924461 340.66766357 C232.25579157 375.21667337 232.25579157 375.21667337 222.625 386.875 C221.75875 387.57625 220.8925 388.2775 220 389 C219.5565625 389.45375 219.113125 389.9075 218.65625 390.375 C195.50671804 413.05209253 150.39805802 410.02588871 120.5 410.31640625 C118.68440348 410.33704188 116.86881104 410.35803972 115.05322266 410.37937927 C110.33194338 410.43391913 105.61062583 410.48362125 100.88928223 410.53222656 C96.04855036 410.58294698 91.20787237 410.63836603 86.3671875 410.69335938 C76.91150462 410.80010481 67.45577446 410.90172639 58 411 C59.23808762 412.11783897 60.48129642 413.23000713 61.7265625 414.33984375 C62.41830566 414.95980225 63.11004883 415.57976074 63.82275391 416.21850586 C70.62611876 421.78524205 79.11055158 424.20030486 87.40380859 426.68188477 C97.4801663 429.81515744 104.64621055 434.98630857 109.8125 444.25 C112.58093899 452.99243892 112.60436929 460.52001083 109 469 C104.86403166 476.68108407 98.09089541 481.92820242 90 485 C79.07343786 488.26339989 69.05350602 489.14458126 57.70629883 489.09765625 C56.36155249 489.09573429 55.01680542 489.09427181 53.67205811 489.0932312 C50.78238907 489.0900786 47.89274954 489.0838212 45.00309181 489.07516479 C40.40356807 489.06154079 35.80405387 489.05572466 31.20451355 489.05102539 C20.58310565 489.03900788 9.9617224 489.01715192 -0.65966797 488.99479675 C-10.34529873 488.97445938 -20.03091992 488.95639366 -29.71656781 488.94658184 C-33.52468997 488.94248298 -37.33278253 488.93632505 -41.14089012 488.92483521 C-57.1215714 488.87700591 -73.06527483 488.96359662 -89.03345776 489.70787048 C-96.93356266 490.05736236 -104.28086001 489.95110859 -112 488 C-112.97453125 487.75378906 -113.9490625 487.50757813 -114.953125 487.25390625 C-122.74127069 484.86000901 -128.84076411 480.66200756 -133.4453125 473.8671875 C-137.09578935 466.74492847 -137.03466445 459.0083163 -135 451.375 C-131.50568377 442.37351258 -124.83126469 437.47615665 -116.40405273 433.4074707 C-110.68559461 431.04306483 -104.78180815 429.75087758 -98.75 428.4375 C-87.60301668 426.00575364 -78.7512718 423.644674 -72 414 C-71.42329517 412.78249405 -70.87703625 411.55006495 -70.36328125 410.3046875 C-69.91339844 409.21414063 -69.46351563 408.12359375 -69 407 C-70.00708008 406.98541748 -71.01416016 406.97083496 -72.05175781 406.95581055 C-97.99181764 406.55920625 -123.89707 405.65840988 -149.8125 404.5 C-150.55456192 404.46701687 -151.29662384 404.43403374 -152.06117249 404.40005112 C-157.08912617 404.17655384 -162.1168803 403.94894957 -167.14453125 403.71875 C-169.03782921 403.63280327 -169.03782921 403.63280327 -170.96937561 403.54512024 C-177.47599509 403.24138373 -183.98059708 402.90606882 -190.4831543 402.52539062 C-192.38559151 402.41547791 -192.38559151 402.41547791 -194.32646179 402.30334473 C-208.12311624 401.16407731 -223.47304885 396.73320595 -233 386 C-248.39525653 367.61960658 -249.191033 343.52387825 -249.12109375 320.69921875 C-249.1197537 319.78515448 -249.11841366 318.8710902 -249.117033 317.92932701 C-249.07449014 291.55628249 -248.58943273 265.18729647 -248.13116455 238.81890869 C-248.04996913 234.1118194 -247.97349741 229.40465599 -247.89716727 224.69748574 C-247.80065494 218.75312199 -247.70066582 212.80882031 -247.59924126 206.86453819 C-247.55734948 204.39194836 -247.51627518 201.91934452 -247.4761219 199.44672585 C-247.27661489 187.26596575 -247.01899275 175.09041151 -246.54858398 162.91674805 C-246.51399362 161.95786336 -246.47940325 160.99897867 -246.44376469 160.01103687 C-245.69742593 142.19394602 -242.51553268 125.7409522 -232 111 C-231.236875 109.9275 -230.47375 108.855 -229.6875 107.75 C-223.33585824 101.25064564 -215.73138545 96.57936341 -207 94 C-206.01 94 -205.02 94 -204 94 C-204.01571045 92.83654053 -204.0314209 91.67308105 -204.04760742 90.47436523 C-204.10262802 86.0852778 -204.13660757 81.69621963 -204.16479492 77.30688477 C-204.17971955 75.42076461 -204.20006664 73.53467815 -204.22631836 71.64868164 C-204.51801928 50.1257294 -202.28369241 31.42462305 -187.08984375 14.92578125 C-172.43017461 1.04876385 -151.2373929 0.88506668 -132.28515625 0.68359375 C-130.6197828 0.66281176 -128.95441318 0.64172169 -127.28904724 0.62034607 C-122.81334143 0.56442764 -118.33758835 0.51485839 -113.86178589 0.46736908 C-111.04326278 0.43729473 -108.22475611 0.40595371 -105.40625 0.37432861 C-70.26999989 -0.01683315 -35.13826539 -0.21333194 0 0 Z M-120.29615402 15.27200699 C-122.68739864 15.30352598 -125.07870393 15.33080979 -127.47005081 15.35326767 C-154.46531917 15.20625561 -154.46531917 15.20625561 -177.8125 27.1875 C-188.54403487 38.95431235 -189.19731835 53.90750986 -189.07421875 69.00390625 C-189.06886108 70.25530396 -189.06350342 71.50670166 -189.0579834 72.79602051 C-189.04407426 75.86408458 -189.02459621 78.93200611 -189 82 C-188.01237167 81.94695457 -188.01237167 81.94695457 -187.00479126 81.89283752 C-180.57251809 81.54850148 -174.13994144 81.21047968 -167.70702553 80.87835789 C-164.40557841 80.70771771 -161.10431968 80.53452682 -157.80322266 80.35717773 C-112.47266645 77.92656138 -67.15116341 77.83763563 -21.76919973 77.8714301 C-16.11679767 77.8752041 -10.46441314 77.87383933 -4.81201172 77.86962891 C37.79114529 77.83875779 80.37657418 77.82066266 122.9375 80 C124.65687835 80.08380026 126.37627977 80.16712842 128.09570312 80.25 C139.39886699 80.79912206 150.6995053 81.39879929 162 82 C163.1044714 55.55476342 163.1044714 55.55476342 152.47265625 32.14453125 C133.82859362 14.41215872 101.60821753 14.83866736 77.57568359 14.87060547 C75.84538232 14.86924725 74.11508133 14.86746497 72.38478088 14.86529541 C67.70198715 14.86075537 63.01921559 14.86250068 58.33642149 14.8656745 C53.3654446 14.86823445 48.39446941 14.86584885 43.42349243 14.86428833 C35.0290697 14.86246936 26.63465576 14.86485768 18.24023438 14.86962891 C9.74576234 14.87440305 1.25130791 14.87450111 -7.24316406 14.86962891 C-63.77093995 14.80534987 -63.77093995 14.80534987 -120.29615402 15.27200699 Z M156 18 C157.0828125 19.0209375 157.0828125 19.0209375 158.1875 20.0625 C161.23455693 23.09214518 163.57207954 26.46217304 166 30 C166.61875 29.690625 167.2375 29.38125 167.875 29.0625 C169.25 28.375 170.625 27.6875 172 27 C172 26.34 172 25.68 172 25 C169.71070947 23.82845707 167.41881638 22.66261926 165.125 21.5 C164.47402344 21.16613281 163.82304687 20.83226562 163.15234375 20.48828125 C159.7475529 18.63156283 159.7475529 18.63156283 156 18 Z M178.625 39.4375 C176 41 176 41 172 42 C172.66 48.27 173.32 54.54 174 61 C178.29 60.34 182.58 59.68 187 59 C186.71583399 56.62388845 186.42291099 54.24939504 186.125 51.875 C186.04636719 51.20984375 185.96773438 50.5446875 185.88671875 49.859375 C185.35611974 45.69621356 184.45813446 41.93328708 183 38 C180.82247435 37.82739911 180.82247435 37.82739911 178.625 39.4375 Z M180.5 73.5 C178.31010819 73.75596138 176.20469728 74 174 74 C174 79.94 174 85.88 174 92 C177.96 91.34 181.92 90.68 186 90 C186.71070856 85.73574865 187.11400687 82.34856356 187.0625 78.125 C187.05347656 77.15820312 187.04445313 76.19140625 187.03515625 75.1953125 C187.02355469 74.47085938 187.01195312 73.74640625 187 73 C184.79530272 73 182.68989181 73.24403862 180.5 73.5 Z M155.99316406 86.40014648 C143.86777239 87.64573071 131.77870497 88.47527332 119.59960938 88.95043945 C116.84725793 89.05867534 114.09557186 89.17796438 111.34375 89.29882812 C71.84425661 90.9579958 32.29920756 91.16811677 -7.22875977 91.13037109 C-13.23176929 91.12467776 -19.23473441 91.12807188 -25.23774242 91.13380814 C-65.60060036 91.16651129 -105.98833156 90.92862907 -146.3125 89 C-148.17119856 88.91610212 -150.02992303 88.83277633 -151.88867188 88.75 C-157.25954293 88.50865817 -162.62980344 88.25585915 -168 88 C-169.72347081 87.917924 -171.44694184 87.83585247 -173.17041302 87.75378418 C-174.5630596 87.68746796 -174.5630596 87.68746796 -175.98384047 87.61981201 C-176.93596434 87.57447327 -177.88808822 87.52913452 -178.86906433 87.48242188 C-179.84402406 87.43599548 -180.81898379 87.38956909 -181.82348776 87.34173584 C-184.21565849 87.22782363 -186.60782924 87.11391169 -189 87 C-189.0685226 115.58678446 -189.12157273 144.17355854 -189.15319599 172.76040913 C-189.15694785 176.13975206 -189.16083084 179.51909482 -189.16479492 182.8984375 C-189.16558185 183.57116871 -189.16636878 184.24389993 -189.16717956 184.93701693 C-189.18021304 195.81209957 -189.20385547 206.68713435 -189.23145839 217.56218866 C-189.25956998 228.73128268 -189.27596402 239.9003604 -189.28226548 251.06949019 C-189.28617048 257.33869475 -189.2953245 263.60779097 -189.31719017 269.87696075 C-189.3376227 275.7833412 -189.34382009 281.68956916 -189.33932304 287.5959816 C-189.34014522 289.75822657 -189.34607031 291.92047689 -189.35761642 294.08269119 C-189.45489043 313.24647705 -187.5581823 329.25386351 -173.62890625 343.7109375 C-150.21604654 364.09717196 -105.52649463 359.32060149 -76.70703125 359.23046875 C-74.12627689 359.22927219 -71.54552208 359.22882479 -68.96476746 359.2290802 C-63.62809195 359.22753586 -58.29149033 359.21964921 -52.95483398 359.20581055 C-46.78877895 359.1898803 -40.62278665 359.18482062 -34.45671254 359.1855461 C-28.47442956 359.18615469 -22.49217193 359.18096671 -16.50989342 359.17275429 C-13.97920542 359.16956966 -11.44851559 359.16760069 -8.9178257 359.16686058 C-5.41499241 359.16470803 -1.91223992 359.15599449 1.59057617 359.14526367 C3.16025398 359.14594345 3.16025398 359.14594345 4.76164246 359.14663696 C5.70700867 359.14237198 6.65237488 359.13810699 7.62638855 359.13371277 C8.45189807 359.13203692 9.27740759 359.13036108 10.12793255 359.12863445 C12.01400232 359.20498789 12.01400232 359.20498789 13 358 C13.35591913 355.89124599 13.65162829 353.77230883 13.92382812 351.65112305 C14.01014999 350.98750259 14.09647186 350.32388214 14.18540955 349.64015198 C14.47158936 347.43119707 14.75152801 345.22150001 15.03125 343.01171875 C15.22890982 341.47243999 15.42687149 339.93319997 15.62512207 338.39399719 C16.04134378 335.15517329 16.45461836 331.91599102 16.86572266 328.67651367 C17.38886631 324.55518214 17.9180246 320.43465239 18.44931793 316.31436443 C18.85977642 313.12728542 19.26751511 309.93986295 19.67442322 306.75232887 C19.86827543 305.23543331 20.0628078 303.71862448 20.2580719 302.20191002 C21.81844368 290.05812275 23.19001628 278.01118109 23.0625 265.75 C23.05573242 264.47189453 23.05573242 264.47189453 23.04882812 263.16796875 C23.03727744 261.11194719 23.0193553 259.0559629 23 257 C22.3709375 257.40992188 21.741875 257.81984375 21.09375 258.2421875 C7.58945412 266.74338581 -5.1674779 266.04972576 -20.44238281 262.63818359 C-62.46928674 252.15151627 -62.46928674 252.15151627 -72.5 236.6875 C-73.53268155 231.13683664 -73.57130242 225.44299159 -72 220 C-72.84820312 219.61070312 -73.69640625 219.22140625 -74.5703125 218.8203125 C-83.80693977 214.4151518 -91.87891928 209.20410687 -100 203 C-100.5775 202.56139648 -101.155 202.12279297 -101.75 201.67089844 C-110.24075105 195.19385788 -118.41067907 188.36431618 -126.45605469 181.34423828 C-127.84199457 180.13756767 -129.2368492 178.94115432 -130.6328125 177.74609375 C-137.69007718 171.63378485 -143.98471804 164.90286854 -149 157 C-149 155.68 -149 154.36 -149 153 C-134.6370963 156.59072592 -122.33758323 166.85962282 -111 176 C-110.04351562 176.763125 -109.08703125 177.52625 -108.1015625 178.3125 C-102.74027667 182.63757092 -97.54745247 187.1126975 -92.46484375 191.76171875 C-90.83130589 193.24510575 -89.17758226 194.70658426 -87.50390625 196.14453125 C-81.69806641 201.17142846 -76.83928709 206.53930097 -72.03125 212.49609375 C-70.08299205 214.98611398 -70.08299205 214.98611398 -68 217 C-67.46890625 216.72285156 -66.9378125 216.44570312 -66.390625 216.16015625 C-65.68421875 215.79792969 -64.9778125 215.43570313 -64.25 215.0625 C-63.20585937 214.52302734 -63.20585937 214.52302734 -62.140625 213.97265625 C-49.83841953 208.38278551 -34.91066947 212.73670351 -22.83642578 216.71240234 C-12.18460349 220.80093209 -12.18460349 220.80093209 -1.23046875 220.32421875 C3.19309878 217.69796763 6.97648085 214.24184873 10.796875 210.82421875 C23.09370308 199.83968594 36.64371014 193.8586693 53 192 C52.319375 191.46375 51.63875 190.9275 50.9375 190.375 C49.968125 189.59125 48.99875 188.8075 48 188 C47.44570313 187.61070312 46.89140625 187.22140625 46.3203125 186.8203125 C38.66744792 181.07216089 34.62952099 171.75013524 33.18359375 162.43359375 C32.44271252 152.61297665 35.00761154 144.45444679 41.125 136.75 C46.83155291 130.5750907 54.45791275 127.28801177 62.7578125 126.76171875 C73.78106822 126.48140228 83.12033258 127.30010764 91.52734375 135.25 C97.11448835 141.88936547 97.51965161 148.65240501 97 157 C96.99097656 158.04542969 96.98195313 159.09085937 96.97265625 160.16796875 C96.69768393 169.37404204 94.33260703 177.31812331 87.96484375 184.19921875 C86.03706552 185.9180042 84.08825075 187.48242507 82 189 C81.26007813 189.55558594 80.52015625 190.11117187 79.7578125 190.68359375 C78.88769531 191.33521484 78.88769531 191.33521484 78 192 C79.06476563 192.20753906 80.12953125 192.41507812 81.2265625 192.62890625 C98.45216488 196.19736611 113.30577584 203.10668244 124.33203125 217.3359375 C129.92513909 226.26919171 133.19065967 235.84940166 136.44921875 245.80566406 C137.2538055 248.26161607 138.0713184 250.71298654 138.890625 253.1640625 C139.41221998 254.73933135 139.93307958 256.31484392 140.453125 257.890625 C140.81558319 258.9783017 140.81558319 258.9783017 141.18536377 260.08795166 C144.11744512 269.09244386 145.18258115 278.2841911 143.25 287.625 C141.27671766 291.37423645 138.86358272 291.71213909 135 293 C129.01497885 293.58676678 124.80412468 292.5059687 120 289 C113.20545621 282.21952359 109.68642969 273.7458016 106.5 264.84765625 C106.24033447 264.12908447 105.98066895 263.4105127 105.71313477 262.67016602 C105.20541231 261.24959789 104.7105593 259.82434811 104.23022461 258.39428711 C102.8398735 254.46180046 101.68402208 252.09157383 98 250 C91.27512087 267.38164325 97.85734945 289.41244521 100.7580719 307.15188599 C102.43165482 317.49280349 103.78569455 327.87631627 105.12973022 338.26437378 C105.3307071 339.81733715 105.53291592 341.37014175 105.73654175 342.92276001 C106.00177489 344.94654639 106.26240539 346.97093449 106.52270508 348.99536133 C106.83170723 351.91454191 106.83170723 351.91454191 108 354 C135.96351516 349.57038033 135.96351516 349.57038033 158.03515625 333.61328125 C159.32755012 331.45231499 160.23788415 329.40359615 161 327 C161.51970782 325.68705393 162.04064447 324.37459391 162.5625 323.0625 C168.86773715 307.15239381 165.12492722 283.98256004 164.62400627 267.1227417 C164.00606905 245.8150337 163.73868188 224.50173647 163.46484375 203.1875 C163.45394526 202.33989027 163.44304676 201.49228053 163.43181801 200.61898565 C163.29701769 190.10759394 163.16635029 179.59615256 163.03720903 169.08468997 C162.92553107 160.00297608 162.81093595 150.92129961 162.69616115 141.8396244 C162.46098877 123.22645462 162.22927519 104.61324332 162 86 C159.96218735 86 158.0197508 86.18563254 155.99316406 86.40014648 Z M-222.16015625 108.015625 C-231.72809914 118.33518973 -235.82597656 131.45578804 -237.13598633 145.19262695 C-237.21979207 146.05984281 -237.30359781 146.92705866 -237.38994312 147.82055378 C-238.24841002 157.54800819 -238.16759144 167.22580599 -238.01171875 176.98046875 C-237.9883177 178.97389626 -237.96592103 180.96733576 -237.94444275 182.96078491 C-237.88445026 188.27184885 -237.81090099 193.58263831 -237.73407745 198.89348221 C-237.65554074 204.4477002 -237.58779969 210.00205031 -237.51904297 215.55639648 C-237.4341548 222.35915668 -237.34785007 229.16188804 -237.25567627 235.96455383 C-237.07097762 249.66775672 -236.92838345 263.37051293 -236.82982063 277.07459831 C-236.78858285 282.62122244 -236.73951508 288.16778284 -236.69029522 293.71434116 C-236.65258971 298.02816628 -236.61941388 302.34191817 -236.59725952 306.65585327 C-237.73807867 345.0448823 -237.73807867 345.0448823 -221 378 C-207.14643849 390.7923156 -184.76812498 388.93605318 -167.18621826 389.53827143 C-164.12505739 389.6456992 -161.0644251 389.76553106 -158.00371361 389.88498342 C-123.52600569 391.22670156 -89.03177274 392.10647482 -54.53872108 392.94107032 C-48.66226779 393.083577 -42.78594075 393.23061386 -36.90966797 393.38037109 C-2.92113022 394.24639031 31.06738563 395.0568956 65.0625 395.6171875 C66.29050323 395.63797489 67.51850647 395.65876228 68.78372192 395.6801796 C81.99267788 395.9001447 95.19927046 396.03428976 108.41015625 396.04345703 C109.57362076 396.04464476 110.73708527 396.04583248 111.93580627 396.0470562 C129.08140823 396.0315063 146.16325509 395.40244164 163.24200439 393.86758423 C165.17166892 393.69452501 167.10218301 393.53101958 169.03271484 393.36791992 C184.23727195 391.89236792 200.27422478 388.43175928 212 378 C220.01075244 366.48000556 219.14275808 350.88355091 219.35717773 337.53955078 C219.38326627 336.10568576 219.40973592 334.67182763 219.43655396 333.23797607 C219.49333898 330.16506549 219.54769446 327.0921252 219.6001873 324.01913834 C219.68397375 319.12943186 219.77477832 314.23987042 219.86671448 309.35031128 C220.12698568 295.45032494 220.37741895 281.55016757 220.62231445 267.64990234 C220.75784521 259.96073417 220.89889117 252.27168484 221.04539448 244.58271778 C221.12228037 240.53326455 221.1964586 236.48380624 221.26351738 232.4341774 C221.55680817 214.79300841 222.14146992 197.268814 223.56182861 179.67654419 C224.09785083 173.03130744 224.35102159 166.41857563 224.3125 159.75 C224.30613525 158.63923096 224.29977051 157.52846191 224.29321289 156.3840332 C224.01429801 138.07840914 220.08944329 122.82828214 207.30859375 109.0859375 C204.71038817 106.73832028 201.92623149 104.91579728 199 103 C199.00368717 104.10361122 199.00737434 105.20722244 199.01117325 106.34427643 C199.100127 133.24644033 199.16577671 160.14858507 199.20724869 187.05086517 C199.22783932 200.06081889 199.25589292 213.07067521 199.30175781 226.08056641 C199.34173279 237.42518924 199.36745822 248.7697415 199.37635398 260.11443281 C199.38155067 266.11664539 199.39369162 272.11865618 199.42292023 278.12080383 C199.45025788 283.78099831 199.45840814 289.44090963 199.45243073 295.10116386 C199.4535228 297.16820761 199.46136643 299.23526175 199.4768219 301.302248 C199.61146079 320.25302851 197.85824607 337.9624305 184.1875 352.375 C164.17727295 371.25031865 135.07900412 369.20536157 109.5 369.1875 C108.43784271 369.1882251 107.37568542 369.1889502 106.28134155 369.18969727 C92.7176515 369.18867385 79.3213591 368.97448409 65.83203125 367.4375 C55.40142808 366.33205346 44.76556404 367.0464466 34.3046875 367.40234375 C32.33298621 367.46635321 30.36128468 367.53035587 28.38957405 367.59407711 C26.31145435 367.66143814 24.23336278 367.72962173 22.15527344 367.7979126 C-7.89141631 368.78168909 -37.93878269 369.61823168 -68 370 C-69.41058685 370.0180368 -69.41058685 370.0180368 -70.84967041 370.03643799 C-162.8260278 371.15691163 -162.8260278 371.15691163 -184.75 350.75 C-195.58248988 339.08822859 -200.82592977 324.64770167 -201.54966736 308.98834229 C-201.59167705 308.10679167 -201.63368675 307.22524106 -201.67696947 306.31697679 C-202.10786108 296.60781747 -202.17498088 286.90372527 -202.20532227 277.18652344 C-202.21493399 275.19344902 -202.2249458 273.2003765 -202.23532104 271.20730591 C-202.26202014 265.86569775 -202.28321585 260.52408107 -202.30332303 255.18244457 C-202.32540226 249.57443434 -202.35268215 243.96644928 -202.37937927 238.35845947 C-202.429013 227.76976518 -202.47405882 217.18105669 -202.51740164 206.59233499 C-202.56702692 194.52436947 -202.62185009 182.45642925 -202.67708123 170.38848829 C-202.79045034 145.5923492 -202.897385 120.79618577 -203 96 C-209.38242234 96 -217.58380571 103.78554229 -222.16015625 108.015625 Z M174 105 C173.67 111.6 173.34 118.2 173 125 C177.29 125 181.58 125 186 125 C186 118.4 186 111.8 186 105 C182.04 105 178.08 105 174 105 Z M173 138 C173 144.27 173 150.54 173 157 C179.435 156.505 179.435 156.505 186 156 C186 150.39 186 144.78 186 139 C181.71 138.67 177.42 138.34 173 138 Z M51.5 146.625 C47.19676882 152.09966633 47.28321678 157.16172332 48 164 C50.13177424 170.86373949 53.93705005 176.10649422 60 180 C65.27946128 181.75982043 70.40319509 182.04411592 75.6328125 179.94140625 C81.58744359 176.58168321 85.93879186 172.46125621 90 167 C90.46921875 166.43410156 90.9384375 165.86820313 91.421875 165.28515625 C93.22899412 162.79156655 94.05405598 160.70042747 93.81640625 157.62109375 C91.89898231 149.82039386 87.59042261 144.29787047 80.875 140 C70.52824891 136.4345655 58.78304632 138.37776788 51.5 146.625 Z M182 170 C180.43881572 170.06740865 178.8749748 170.08514456 177.3125 170.0625 C175.889375 170.041875 174.46625 170.02125 173 170 C173 174.29 173 178.58 173 183 C179.435 182.505 179.435 182.505 186 182 C186 177.71 186 173.42 186 169 C184.63106761 168.94729537 184.63106761 168.94729537 182 170 Z M173 196 C172.67 202.6 172.34 209.2 172 216 C176.29 216 180.58 216 185 216 C185 209.73 185 203.46 185 197 C181.04 196.67 177.08 196.34 173 196 Z M17.68945312 221.66357422 C9.57962957 229.32258416 2.15944543 233.28717475 -9.23583984 233.20288086 C-13.89767972 232.86071614 -18.18368092 231.52102866 -22.625 230.125 C-24.40850376 229.5847793 -26.1923534 229.04569907 -27.9765625 228.5078125 C-29.25442627 228.1209729 -29.25442627 228.1209729 -30.55810547 227.72631836 C-38.99426911 225.21706153 -49.46997186 222.31882794 -57.8125 226.5 C-58.534375 226.995 -59.25625 227.49 -60 228 C-59.06922265 231.65979119 -58.22460127 232.84868343 -55.04296875 234.9921875 C-53.76841308 235.64104913 -52.48217071 236.26726541 -51.1875 236.875 C-50.48826416 237.21233154 -49.78902832 237.54966309 -49.06860352 237.8972168 C-35.51487871 244.2140176 -20.82610092 248.95258606 -6 251 C-5.0409375 251.14953125 -4.081875 251.2990625 -3.09375 251.453125 C4.35350575 252.09512981 9.11704115 249.01559096 15.0546875 244.9453125 C20.23943376 241.52090449 23.81554749 240.54503401 29.91015625 241.38671875 C33.15215485 242.33810899 34.36553284 244.13968247 36 247 C44.62758374 272.88275123 33.5084305 312.88999876 29.57543945 339.22265625 C29.47034561 339.92771805 29.36525177 340.63277985 29.25697327 341.35920715 C28.97265214 343.2564185 28.68423087 345.15301411 28.39550781 347.04956055 C27.93356897 349.99942886 27.93356897 349.99942886 28 353 C32.62 353 37.24 353 42 353 C42.10957031 351.81664062 42.21914063 350.63328125 42.33203125 349.4140625 C44.63700456 325.86097302 44.63700456 325.86097302 52 319 C56.74266714 316.36518492 60.59241379 315.21344201 66 316 C71.04780286 319.00926709 72.90998527 321.95437371 74.4765625 327.56640625 C76.42397099 336.62040242 76.08374739 345.7877867 76 355 C82.27 355 88.54 355 95 355 C94.32645298 342.98967274 93.03275944 331.12386809 91.5625 319.1875 C90.70150578 312.12582011 89.84774274 305.06328217 89 298 C88.90003723 297.17453674 88.80007446 296.34907349 88.69708252 295.49859619 C87.63412098 286.66483675 86.66444074 277.91242278 86.75 269 C86.74226562 268.16339844 86.73453125 267.32679688 86.7265625 266.46484375 C86.75273866 257.99685571 87.54676217 247.89674196 93 241 C95.875 239.75 95.875 239.75 99 240 C104.91989352 242.34329118 106.93310646 246.78790541 109.56640625 252.3828125 C111.15509037 256.39131794 112.35401355 260.41100192 113.5 264.5625 C116.03476237 273.71563952 119.24441295 282.97750027 126.98828125 289.05078125 C130.83703283 290.86679413 134.8583599 290.44999711 139 290 C143.21845529 281.29943597 139.9676231 272.60851798 137 264 C135.18316167 259.06924329 133.167298 254.2247976 131.10131836 249.39404297 C130.18488753 247.24387051 129.2902094 245.08547424 128.39648438 242.92578125 C122.15313017 228.07349051 114.04844468 215.08506539 99 208 C70.46714351 196.97577377 40.13454272 200.34333992 17.68945312 221.66357422 Z M172 229 C172 233.95 172 238.9 172 244 C176.29 244 180.58 244 185 244 C185 239.05 185 234.1 185 229 C180.71 229 176.42 229 172 229 Z M172 257 C172 261.95 172 266.9 172 272 C176.29 272 180.58 272 185 272 C185 267.38 185 262.76 185 258 C181.6796875 258.04882812 181.6796875 258.04882812 178.359375 258.09765625 C176 258 176 258 172 257 Z M172 285 C171.67 289.62 171.34 294.24 171 299 C175.95 299 180.9 299 186 299 C186 294.71 186 290.42 186 286 C179.07 285.505 179.07 285.505 172 285 Z M182.5 311.0625 C177.93353788 312.2856595 174.65784818 311.70573457 170 311 C168.515 317.435 168.515 317.435 167 324 C169.70182292 324.42317708 172.40364583 324.84635417 175.10546875 325.26953125 C178.18644418 326.04705137 180.36930001 327.2445969 183 329 C185.61117533 319.63433194 185.61117533 319.63433194 186 310 C184.70065278 309.93480989 184.70065278 309.93480989 182.5 311.0625 Z M60 330 C56.08587496 339.35986424 55.83062347 347.93150655 56 358 C58.31 358 60.62 358 63 358 C63.05859857 354.64590806 63.09379582 351.29194983 63.125 347.9375 C63.14175781 346.99455078 63.15851563 346.05160156 63.17578125 345.08007812 C63.21372771 339.63476062 62.81252643 335.14500612 61 330 C60.67 330 60.34 330 60 330 Z M161 334 C159.8944811 334.93590504 158.79064547 335.87379858 157.6875 336.8125 C157.07261719 337.33457031 156.45773437 337.85664063 155.82421875 338.39453125 C154.14575321 339.87172469 152.56117966 341.40039131 151 343 C154.25397508 345.25885324 154.25397508 345.25885324 158 346 C158.66 347.98 159.32 349.96 160 352 C163.39829621 351.36523852 165.71539816 350.06160734 168.5625 348.125 C169.32691406 347.61195313 170.09132813 347.09890625 170.87890625 346.5703125 C172.79501817 345.1517545 174.45142801 343.81079025 176 342 C176 341.34 176 340.68 176 340 C175.25234375 339.73445313 174.5046875 339.46890625 173.734375 339.1953125 C172.74953125 338.84210938 171.7646875 338.48890625 170.75 338.125 C169.77546875 337.77695312 168.8009375 337.42890625 167.796875 337.0703125 C165.43705673 336.16725355 163.23094884 335.17921582 161 334 Z M133.5625 351.8125 C127.81449329 354.3240231 122.07667226 356.40382341 116 358 C116 358.33 116 358.66 116 359 C130.52377027 358.31945745 130.52377027 358.31945745 145 357 C144.69320313 356.38640625 144.38640625 355.7728125 144.0703125 355.140625 C143.046875 353.09375 142.0234375 351.046875 141 349 C138.60140691 349 135.66909864 350.88051718 133.5625 351.8125 Z M-63 407 C-63.24492187 407.91579834 -63.48984375 408.83159668 -63.7421875 409.77514648 C-66.71717134 420.64255842 -70.22563713 426.77678647 -79.97705078 432.47680664 C-86.20397439 435.61440771 -92.91796322 437.52622369 -99.55566406 439.60449219 C-108.41987582 442.40300541 -116.51403972 444.9889321 -122 452.875 C-123.56258488 457.75807774 -123.86954241 461.87445188 -121.875 466.75 C-117.77536261 471.66956487 -113.10135116 473.53800383 -107 475 C-104.49845035 475.17451409 -101.98902863 475.25250216 -99.48139954 475.25396729 C-98.75701303 475.25708727 -98.03262653 475.26020725 -97.28628892 475.26342177 C-94.87607749 475.27135388 -92.46612119 475.26509684 -90.0559082 475.25878906 C-88.32067213 475.26150117 -86.58543722 475.26506334 -84.85020447 475.26940918 C-80.14745509 475.27851265 -75.44479366 475.27499643 -70.74204278 475.26865101 C-65.80956812 475.26357641 -60.87710082 475.26828689 -55.94462585 475.27142334 C-47.65683649 475.27506044 -39.36908278 475.27027239 -31.08129883 475.26074219 C-21.52186378 475.2498761 -11.96251418 475.25337082 -2.40308124 475.264395 C5.82054137 475.27349665 14.04413837 475.27473857 22.26776439 475.26951766 C27.17196444 475.26641144 32.07612446 475.265951 36.98032188 475.27259064 C41.59735635 475.27840477 46.21428176 475.27429337 50.83130455 475.26280212 C52.51784078 475.26017639 54.20438631 475.26088455 55.89091873 475.26532745 C77.66098195 475.51312781 77.66098195 475.51312781 96.125 465.1875 C96.74375 464.465625 97.3625 463.74375 98 463 C97.67 462.34 97.34 461.68 97 461 C96.525625 461.474375 96.05125 461.94875 95.5625 462.4375 C91.93956612 464.64660603 88.2267431 465.15627043 84 465 C81.71875 464.01171875 81.71875 464.01171875 80 463 C80.06670159 459.66492068 80.18533879 457.00648551 82.34375 454.33984375 C86.48253044 450.66197295 90.98344133 448.28825483 96 446 C94.61220551 442.65927822 93.18411804 441.09800579 90.125 439.1875 C89.44695312 438.74792969 88.76890625 438.30835938 88.0703125 437.85546875 C86.04152628 436.83084244 86.04152628 436.83084244 83.86328125 437.1875 C80.84948235 438.50169323 79.75159277 441.29299299 78 444 C73.89752243 447.70223586 70.94641438 449.14315128 65.4375 449.125 C64.25994141 449.12886719 64.25994141 449.12886719 63.05859375 449.1328125 C61 449 61 449 59 448 C58.9138209 443.86340306 59.14432132 441.93088482 62 438.82421875 C64.28797305 436.81857571 66.62232667 434.89777596 69 433 C69.66 432.34 70.32 431.68 71 431 C69.9275 430.29875 68.855 429.5975 67.75 428.875 C67.14671875 428.48054688 66.5434375 428.08609375 65.921875 427.6796875 C63.99283005 426.76182576 63.99283005 426.76182576 62.08203125 427.75 C61.39496094 428.1625 60.70789063 428.575 60 429 C51.99048326 432.55690046 43.75231995 435.08740696 35.1796875 431.9765625 C34.10074219 431.49316406 34.10074219 431.49316406 33 431 C33 428.69 33 426.38 33 424 C39.86688349 421.12033918 46.57872637 418.78949719 54 418 C52.02 414.04 52.02 414.04 50 410 C38.38965497 409.24917652 26.79447255 408.75587434 15.1640625 408.46484375 C13.50751301 408.42160418 11.85096809 408.37818887 10.19442749 408.33460999 C6.75075544 408.24463898 3.30704107 408.15661291 -0.13671875 408.07006836 C-4.49179534 407.96048816 -8.8467336 407.84622005 -13.20165062 407.73049068 C-16.61481123 407.64028611 -20.0280313 407.5525133 -23.44127274 407.46542549 C-25.04441763 407.42426864 -26.64754531 407.38243396 -28.25065231 407.33982658 C-39.83603352 407.03390933 -51.41073463 406.95342751 -63 407 Z " fill="#000000" transform="translate(264,11)"/>
<path d="M0 0 C3.9012812 0.01140368 7.80228982 0.00460424 11.70356178 -0.00687408 C68.54130266 -0.1490622 68.54130266 -0.1490622 76.8059082 6.38574219 C77.2390332 7.00449219 77.6721582 7.62324219 78.1184082 8.26074219 C64.14013192 15.76128068 43.81395654 14.34180706 28.3684082 14.82324219 C27.70800537 14.84408875 27.04760254 14.8649353 26.3671875 14.88641357 C16.2794847 15.2018444 6.21076742 15.48069631 -3.8815918 15.26074219 C-4.95844238 15.23753906 -6.03529297 15.21433594 -7.14477539 15.19042969 C-52.51493031 14.12360975 -52.51493031 14.12360975 -67.8815918 9.26074219 C-67.8815918 7.94074219 -67.8815918 6.62074219 -67.8815918 5.26074219 C-46.08678751 -1.12445438 -22.50109041 -0.06635721 0 0 Z " fill="#000000" transform="translate(168.881591796875,135.7392578125)"/>
<path d="M0 0 C3.09549599 0.0107119 6.1904103 0.00005236 9.28588867 -0.01269531 C39.11357643 -0.03446147 39.11357643 -0.03446147 50.66674805 5.26074219 C50.66674805 6.58074219 50.66674805 7.90074219 50.66674805 9.26074219 C39.8037637 15.08966062 25.5025004 14.62294021 13.47924805 14.94824219 C12.47385483 14.97718567 12.47385483 14.97718567 11.44815063 15.00671387 C-32.72291157 16.24508758 -32.72291157 16.24508758 -44.33325195 9.26074219 C-44.33325195 7.94074219 -44.33325195 6.62074219 -44.33325195 5.26074219 C-30.04443052 -0.25424152 -15.10175303 -0.06206363 0 0 Z " fill="#000000" transform="translate(157.333251953125,283.7392578125)"/>
<path d="M0 0 C2.36272864 0.01610619 4.72374778 0.00003061 7.08642578 -0.01904297 C32.38293849 -0.05648328 32.38293849 -0.05648328 41.86376953 6.39111328 C41.60205078 8.28955078 41.60205078 8.28955078 40.86376953 10.39111328 C23.85952053 20.88756328 -10.97331686 16.28990559 -29.58935547 12.73095703 C-34.37061554 11.48099904 -34.37061554 11.48099904 -36.13623047 10.39111328 C-36.87451172 8.28955078 -36.87451172 8.28955078 -37.13623047 6.39111328 C-26.79994047 -0.63825235 -12.07885767 -0.09751096 0 0 Z " fill="#000000" transform="translate(140.13623046875,242.60888671875)"/>
<path d="M0 0 C4.42595577 2.51048688 7.02939016 5.10821335 8.55859375 10.078125 C9.269644 15.72589558 8.91459008 20.28384453 5.55859375 25.078125 C3.37109375 25.953125 3.37109375 25.953125 1.55859375 26.078125 C1.51734375 26.985625 1.47609375 27.893125 1.43359375 28.828125 C0.55859375 32.078125 0.55859375 32.078125 -2.00390625 34.453125 C-5.98725902 36.33616449 -9.15096597 36.89297606 -13.44140625 36.078125 C-18.83674973 34.09388711 -22.12490436 30.66270115 -25.44140625 26.078125 C-27.40586622 20.18474509 -27.42767585 13.45330799 -24.94140625 7.703125 C-19.66634422 -1.19854218 -9.50811355 -3.59026368 0 0 Z M-11.44140625 15.078125 C-12.45603015 16.8845905 -12.45603015 16.8845905 -12.44140625 19.078125 C-11.04218435 21.87656881 -9.65349242 23.86603883 -7.44140625 26.078125 C-3.84461559 25.75485947 -3.84461559 25.75485947 -0.44140625 25.078125 C-0.69664499 23.45060269 -0.97115119 21.82609304 -1.25390625 20.203125 C-1.40472656 19.29820313 -1.55554688 18.39328125 -1.7109375 17.4609375 C-2.27191926 14.73400022 -2.27191926 14.73400022 -5.44140625 13.078125 C-8.62630632 12.8007749 -8.62630632 12.8007749 -11.44140625 15.078125 Z " fill="#000000" transform="translate(114.44140625,43.921875)"/>
<path d="M0 0 C4.39219876 3.13728483 7.63332034 6.32241995 8.625 11.75 C8.95300481 16.35979738 7.55723532 19.72427229 5.625 23.875 C4.965 24.535 4.305 25.195 3.625 25.875 C2.635 25.875 1.645 25.875 0.625 25.875 C0.74875 26.98875 0.74875 26.98875 0.875 28.125 C0.625 30.875 0.625 30.875 -1.1875 33.125 C-5.07727578 36.23682062 -8.53279416 36.27190212 -13.375 35.875 C-18.88733076 34.13866811 -22.2695887 31.42205414 -25.46484375 26.65625 C-28.18368448 21.33525698 -28.06645404 15.44021757 -26.3125 9.8125 C-24.48673574 5.32234292 -21.38079101 2.50607637 -17.375 -0.125 C-11.73816637 -2.00394454 -5.61662826 -1.87220942 0 0 Z M-11.1875 13.9375 C-12.68663865 15.9937475 -12.68663865 15.9937475 -12.3125 19.375 C-11.65159221 22.83472908 -11.65159221 22.83472908 -9.6875 24.875 C-6.59520156 26.21221014 -4.58723855 25.67805964 -1.375 24.875 C-1.46246284 23.43638706 -1.57065348 21.99902492 -1.6875 20.5625 C-1.74550781 19.76199219 -1.80351562 18.96148437 -1.86328125 18.13671875 C-2.47355752 15.4393908 -3.12535012 14.46571353 -5.375 12.875 C-9.15002919 12.53785367 -9.15002919 12.53785367 -11.1875 13.9375 Z " fill="#000000" transform="translate(156.375,44.125)"/>
<path d="M0 0 C3.94710939 2.30991001 6.15917836 5.08632034 7.5625 9.4375 C8.45070835 14.71570362 7.54039267 18.970661 4.5625 23.4375 C3.22916667 24.10416667 1.89583333 24.77083333 0.5625 25.4375 C0.21234951 27.10071482 -0.11947057 28.76784549 -0.4375 30.4375 C-2.33217925 32.63777268 -3.84145221 34.13947611 -6.4375 35.4375 C-12.04193405 35.81112894 -15.6416279 35.66950076 -20.4375 32.4375 C-25.40481132 27.51672087 -27.57555664 23.86741397 -27.8125 16.75 C-27.74688406 10.72062394 -26.59865195 6.84217993 -22.4375 2.4375 C-16.31316746 -3.16188975 -7.38121808 -3.18108466 0 0 Z M-11.8125 14.0625 C-13.67278496 16.30175867 -13.67278496 16.30175867 -13.4375 18.9375 C-12.20704009 22.01364978 -11.15911289 23.52501527 -8.4375 25.4375 C-5.23795046 25.29400653 -5.23795046 25.29400653 -2.4375 24.4375 C-2.02839072 18.55198706 -2.02839072 18.55198706 -4.4375 13.4375 C-7.749941 12.042788 -8.81574922 12.01209157 -11.8125 14.0625 Z " fill="#000000" transform="translate(198.4375,44.5625)"/>
<path d="M0 0 C1.08990234 -0.01224609 2.17980469 -0.02449219 3.30273438 -0.03710938 C11.68175571 -0.05222487 19.64517533 0.1897212 26.6875 5.1875 C26.5625 7.5 26.5625 7.5 25.6875 10.1875 C13.18255117 17.74604685 -5.56353187 16.26661023 -19.3125 13.1875 C-22.67578125 11.78125 -22.67578125 11.78125 -25.3125 10.1875 C-26.1875 7.5 -26.1875 7.5 -26.3125 5.1875 C-25.10981319 4.53121151 -23.89997446 3.88802495 -22.6875 3.25 C-22.01460937 2.89035156 -21.34171875 2.53070313 -20.6484375 2.16015625 C-14.14592886 -0.54741006 -6.9108533 0.0040438 0 0 Z " fill="#000000" transform="translate(194.3125,170.8125)"/>
<path d="M0 0 C1.29067383 -0.0309375 1.29067383 -0.0309375 2.60742188 -0.0625 C8.59027061 -0.09856842 13.85155954 0.69529523 19.3125 3.25 C21.3125 5.25 21.3125 5.25 21.4375 7.875 C21.39625 8.65875 21.355 9.4425 21.3125 10.25 C11.12951872 16.18317338 -0.8054112 16.2149499 -12.14453125 13.99609375 C-15.62127289 12.97603591 -17.91562537 11.55989552 -20.6875 9.25 C-20.5625 6.9375 -20.5625 6.9375 -19.6875 4.25 C-13.23269864 0.23367915 -7.37673296 0.0432336 0 0 Z " fill="#000000" transform="translate(124.6875,208.75)"/>
</svg>
