<?xml version="1.0" encoding="UTF-8"?>
<svg version="1.1" xmlns="http://www.w3.org/2000/svg" width="512" height="512">
<path d="M0 0 C2.48245774 -0.00135776 4.96491528 -0.00313979 7.44737244 -0.00531006 C13.45292937 -0.00937291 19.45846891 -0.00881056 25.46402513 -0.00589742 C30.35660823 -0.0036241 35.24918784 -0.00333915 40.14177132 -0.00442123 C41.19279485 -0.00465108 41.19279485 -0.00465108 42.26505117 -0.00488558 C43.68930808 -0.00520536 45.11356499 -0.00552958 46.5378219 -0.00585817 C59.8525864 -0.00870062 73.16734398 -0.00544637 86.48210735 -0.0000578 C97.84810108 0.00440026 109.21408458 0.00364014 120.58007812 -0.00097656 C133.83849523 -0.00635957 147.09690628 -0.00841682 160.35532433 -0.0053643 C161.77662249 -0.00504582 163.19792066 -0.00473145 164.61921883 -0.00442123 C165.31815775 -0.00426696 166.01709667 -0.00411268 166.73721556 -0.00395373 C171.60585779 -0.00309903 176.47449611 -0.00452878 181.34313774 -0.00690079 C187.93345884 -0.01004149 194.52376394 -0.00772309 201.11408424 -0.00200653 C203.51072534 -0.00070213 205.90736808 -0.00103266 208.30400848 -0.0032692 C251.13279797 -0.03950075 251.13279797 -0.03950075 269.98266602 2.44189453 C271.00263672 2.56798096 272.02260742 2.69406738 273.07348633 2.82397461 C280.14574668 3.74878305 287.00973206 5.16236463 293.93286133 6.85473633 C299.32331029 8.12384688 304.30800147 8.33026013 309.85375977 8.15673828 C327.28080349 8.00444202 347.92648263 14.20488085 360.79516602 26.12939453 C373.61082859 39.77724299 376.9258323 57.57724863 377.27929688 75.69604492 C377.29856546 76.54244726 377.31783405 77.3888496 377.33768654 78.2609005 C377.40068549 81.14536447 377.45597874 84.02990542 377.51000977 86.91455078 C377.54063664 88.46678187 377.54063664 88.46678187 377.57188225 90.05037117 C378.22499664 123.75645738 378.32292851 157.47148057 378.5000757 191.18262064 C378.53427442 197.64707266 378.57140285 204.11150269 378.61035156 210.57592773 C378.74714073 233.32095538 378.8640604 256.06596846 378.95038593 278.81124699 C378.96821717 283.49617251 378.98697673 288.18109104 379.00765228 292.86600494 C379.05387188 303.35272061 379.09371015 313.83939385 379.11565131 324.32619172 C379.12507689 328.7975136 379.13751571 333.26876632 379.15869331 337.74004936 C379.17815138 341.89218693 379.18758811 346.04423416 379.18971181 350.19641566 C379.19207845 351.69912319 379.19778403 353.20183058 379.20742869 354.70450902 C379.25690799 362.7742509 378.95180573 370.70721404 378.07887268 378.73435974 C377.95925231 379.83879491 377.95925231 379.83879491 377.83721536 380.9655419 C375.81466815 397.98017492 368.39852521 411.52687371 355.98266602 423.12939453 C335.43082143 439.18919309 309.94698098 439.16571374 285.10766602 439.75439453 C283.72821304 439.78758286 283.72821304 439.78758286 282.32089233 439.82144165 C270.30211147 440.09842719 258.31191465 440.19845218 246.29516602 439.81689453 C245.17319824 439.78225098 244.05123047 439.74760742 242.89526367 439.71191406 C237.61454185 439.50252596 232.39055046 439.1910996 227.13867188 438.61108398 C210.75386743 436.8514018 194.61674593 437.24848358 178.19199753 437.85968781 C174.29717217 438.00062292 170.40177549 438.12313748 166.50634766 438.24609375 C164.92289687 438.29624983 163.33944655 438.34642073 161.7559967 438.39660645 C160.58152827 438.43379036 160.58152827 438.43379036 159.38333321 438.47172546 C157.01869041 438.54721087 154.65410654 438.62432682 152.28953552 438.70202637 C117.16054896 439.85513182 82.02687143 440.25170004 46.88064575 440.35955811 C43.18126163 440.37115291 39.48200694 440.38919907 35.78268433 440.41339111 C-55.07315538 440.97829119 -55.07315538 440.97829119 -79.64233398 418.06689453 C-95.81095563 401.02899215 -101.16159962 380.40769073 -101.16882324 357.47676086 C-101.17305565 356.45130588 -101.17728806 355.4258509 -101.18164873 354.36932153 C-101.19458977 350.95771992 -101.20067995 347.54614163 -101.20678711 344.13452148 C-101.2147369 341.67778382 -101.22312544 339.22104754 -101.23191833 336.76431274 C-101.24993596 331.48305435 -101.2650763 326.20179968 -101.2776947 320.9205265 C-101.29608607 313.25980354 -101.3207516 305.59911017 -101.34706861 297.93841078 C-101.38980531 285.47400553 -101.42892044 273.00959198 -101.46508789 260.54516602 C-101.46833209 259.42775994 -101.46833209 259.42775994 -101.47164184 258.28778001 C-101.48476712 253.76056512 -101.49780832 249.23335 -101.51082325 244.7061348 C-101.53027832 237.94023857 -101.54983193 231.17434264 -101.56958008 224.40844727 C-101.57281838 223.29832971 -101.57281838 223.29832971 -101.57612211 222.16578553 C-101.61242265 209.76120043 -101.65239778 197.35662963 -101.69488287 184.95206422 C-101.72082359 177.32631281 -101.74353297 169.70056537 -101.76186645 162.07479181 C-101.77621131 156.2056819 -101.79535096 150.33659348 -101.81611824 144.46750259 C-101.82378088 142.08251214 -101.82989002 139.69751602 -101.83421135 137.31251717 C-101.85942095 123.90551472 -102.11952566 110.5464085 -102.7869339 97.15515423 C-104.07372445 70.79500318 -103.75533795 41.68773532 -85.57983398 20.69189453 C-63.12499803 -2.62948711 -29.9346311 -0.0277022 0 0 Z M102.6395731 14.13844776 C81.54735248 14.22004264 60.45538249 14.32568087 39.36345512 14.46384472 C34.43383649 14.49587699 29.50420541 14.52391475 24.57455444 14.55044556 C17.92629852 14.58652285 11.27819549 14.63340554 4.63005638 14.68726921 C2.21354473 14.70554849 -0.20299168 14.72087148 -2.61954308 14.73278999 C-14.34641425 14.79312371 -25.99608935 15.05536267 -37.68530273 16.04980469 C-38.62197281 16.12931051 -39.55864288 16.20881634 -40.5236969 16.29073143 C-53.1998576 17.4837077 -65.5353516 20.91627945 -74.33764648 30.71142578 C-86.09885662 46.22667531 -88.03846365 64.02870996 -88.14233398 83.00439453 C-88.1470874 83.71829346 -88.15184082 84.43219238 -88.15673828 85.16772461 C-88.14373567 89.26836204 -87.73589349 93.09989551 -87.01733398 97.12939453 C-86.25452118 97.07437271 -85.49170837 97.01935089 -84.70578003 96.96266174 C-66.19094952 95.64145706 -47.69774933 94.6414649 -29.14233398 94.06689453 C-27.85777313 94.02614807 -26.57321228 93.98540161 -25.24972534 93.94342041 C56.11410298 91.38080705 137.62561892 91.34328011 334.98266602 97.12939453 C335.03305378 93.25573789 335.06883853 89.38221463 335.0925293 85.50830078 C335.10723377 83.56161773 335.13267804 81.61502506 335.15844727 79.66845703 C335.23630125 64.40907703 334.31427392 48.33519693 324.07250977 36.18798828 C291.93874791 4.53473128 226.13735246 13.82271801 185.20615733 13.92629218 C180.0809621 13.93920758 174.95577393 13.94792585 169.83056641 13.9541626 C147.43342713 13.9821801 125.03655523 14.05191042 102.6395731 14.13844776 Z M320.98266602 17.12939453 C323.4784156 19.72913368 326.09846303 22.06948705 328.85766602 24.37939453 C332.89677632 27.86634182 335.97394017 31.74166933 338.98266602 36.12939453 C342.53492306 34.41504439 345.72288236 32.3519743 348.98266602 30.12939453 C342.75954713 23.28544193 332.89898116 19.28748355 323.98266602 17.12939453 C322.99266602 17.12939453 322.00266602 17.12939453 320.98266602 17.12939453 Z M356.98266602 41.12939453 C356.32266602 41.74814453 355.66266602 42.36689453 354.98266602 43.00439453 C351.27855568 45.62813936 348.40342087 46.23025795 343.98266602 47.12939453 C344.11543945 47.91701172 344.24821289 48.70462891 344.38500977 49.51611328 C345.66105222 57.38659414 346.45809694 65.17343028 346.98266602 73.12939453 C355.89266602 71.14939453 355.89266602 71.14939453 364.98266602 69.12939453 C364.58422075 60.0647648 363.66505077 51.52269219 359.98266602 43.12939453 C358.99266602 42.46939453 358.00266602 41.80939453 356.98266602 41.12939453 Z M361.60766602 84.12939453 C357.98266602 85.12939453 357.98266602 85.12939453 346.98266602 85.12939453 C346.98266602 93.04939453 346.98266602 100.96939453 346.98266602 109.12939453 C355.89266602 108.13939453 355.89266602 108.13939453 364.98266602 107.12939453 C364.98266602 99.20939453 364.98266602 91.28939453 364.98266602 83.12939453 C363.70678174 83.06471836 363.70678174 83.06471836 361.60766602 84.12939453 Z M-87.01733398 101.12939453 C-87.10901319 135.52523776 -87.17943537 169.92105296 -87.2215953 204.31699211 C-87.22659776 208.38344741 -87.23177508 212.44990248 -87.23706055 216.51635742 C-87.23810979 217.32586998 -87.23915903 218.13538254 -87.24024007 218.96942579 C-87.25761598 232.05404592 -87.28913805 245.13859531 -87.32594517 258.22317357 C-87.3634331 271.66247906 -87.38558638 285.10174767 -87.39368796 298.5411033 C-87.39915951 306.82502522 -87.41640181 315.10874713 -87.44899985 323.39260744 C-87.47024485 329.0834459 -87.47651161 334.7741819 -87.47133949 340.46505708 C-87.46879309 343.74192648 -87.47475478 347.01837765 -87.49415588 350.29520035 C-87.62217671 373.04336345 -85.54978681 392.40183793 -68.85717773 409.62158203 C-45.88254234 429.9100496 -6.79258782 427.92875703 21.92016602 428.69189453 C22.69556732 428.71274109 23.47096863 428.73358765 24.26986694 428.75506592 C68.48395414 429.89192285 112.77753861 429.29464466 156.98266602 428.12939453 C162.00247492 394.04906407 162.00247492 394.04906407 166.35766602 359.87939453 C166.43666138 359.20853821 166.51565674 358.53768188 166.5970459 357.84649658 C168.16267309 344.4664823 169.14095033 331.29301085 169.04516602 317.81689453 C169.03839844 315.97321289 169.03839844 315.97321289 169.03149414 314.09228516 C169.01986891 311.10460097 169.00353161 308.11702598 168.98266602 305.12939453 C164.48207569 306.87548681 160.6507912 309.11156557 156.58032227 311.69189453 C143.16631862 319.11498226 124.37784597 314.80043363 110.31860352 310.87548828 C64.10203383 297.17564513 64.10203383 297.17564513 55.54516602 282.37939453 C53.19951184 277.09156207 52.94284132 271.4627754 54.66625977 265.93798828 C55.35829863 264.29894887 56.15969258 262.70676028 56.98266602 261.12939453 C56.17829102 260.87029297 56.17829102 260.87029297 55.35766602 260.60595703 C39.38940385 254.88049461 26.02407274 243.64644976 12.98266602 233.12939453 C12.43739258 232.69208008 11.89211914 232.25476563 11.33032227 231.80419922 C8.18613782 229.27926065 5.07784151 226.71407302 1.98266602 224.12939453 C1.48492676 223.71657227 0.9871875 223.30375 0.47436523 222.87841797 C-36.75985128 191.97001458 -36.75985128 191.97001458 -39.01733398 181.12939453 C-17.77497946 186.71948783 0.5575132 204.2976869 16.98266602 218.12939453 C18.01108447 218.98383495 19.03974396 219.83798531 20.06860352 220.69189453 C48.67701944 244.54508154 48.67701944 244.54508154 56.98266602 257.12939453 C57.64266602 258.11939453 58.30266602 259.10939453 58.98266602 260.12939453 C59.70969727 259.62279297 59.70969727 259.62279297 60.45141602 259.10595703 C70.72643798 252.26911549 82.09784215 251.59030274 94.09985352 253.81689453 C103.36169582 255.78333149 112.319092 258.75577351 121.25219727 261.85986328 C128.0948051 264.18849945 133.72051032 265.39811537 140.60766602 262.37939453 C145.87855384 259.5757308 149.88546229 255.73263662 154.16699219 251.6472168 C169.63714316 236.91276653 187.08607437 230.72240225 207.98266602 228.12939453 C206.34207178 227.03566504 204.69178066 225.95440433 203.00219727 224.93798828 C192.45244362 218.38407053 186.30486327 210.05339403 182.37329102 198.30908203 C180.33909948 186.95829327 181.20561408 175.05763477 187.83032227 165.44970703 C194.88402955 156.82139722 204.10177411 151.85287873 215.13500977 150.31298828 C226.77661585 149.56243206 237.7705966 151.28211748 246.92016602 158.87939453 C251.84719453 163.59488693 255.7375778 169.58805404 256.11547852 176.59033203 C256.07136257 193.04558065 255.37581923 206.56505997 243.32250977 218.81689453 C239.25223188 222.52557598 234.98050477 224.84967861 229.98266602 227.12939453 C229.98266602 227.45939453 229.98266602 227.78939453 229.98266602 228.12939453 C231.18020508 228.34853516 232.37774414 228.56767578 233.61157227 228.79345703 C249.54609056 231.83988295 262.75249103 236.34071366 275.98266602 246.12939453 C277.56047852 247.24314453 277.56047852 247.24314453 279.17016602 248.37939453 C291.58613281 260.51945096 297.12076402 275.69988337 302.39746094 291.83178711 C303.17124802 294.19519934 303.95787239 296.55404675 304.74633789 298.91259766 C312.5307267 322.35036531 312.5307267 322.35036531 312.42016602 333.00439453 C312.44014648 333.71080078 312.46012695 334.41720703 312.48071289 335.14501953 C312.47509886 341.18571212 310.33889276 344.68901684 306.23266602 348.94189453 C301.32036155 351.53449967 296.6506157 351.57535502 291.42016602 350.12939453 C282.92768577 346.8518507 277.89106611 339.27451788 273.96557617 331.35205078 C271.32135668 325.37267316 269.26365936 319.13023112 267.1784668 312.93847656 C264.01159451 303.20435518 264.01159451 303.20435518 256.98266602 296.12939453 C247.00194832 318.08697346 256.76033895 349.97826207 260.31335449 372.63687134 C262.89245364 389.09435219 265.04202673 405.58518334 266.98266602 422.12939453 C273.57144297 421.62814019 279.79334713 420.66977637 286.17016602 418.94189453 C286.98751221 418.72267334 287.8048584 418.50345215 288.64697266 418.27758789 C296.36882369 416.1371819 303.65865328 413.3798928 310.98266602 410.12939453 C312.08739258 409.65630859 313.19211914 409.18322266 314.33032227 408.69580078 C323.8951725 404.3222819 329.28543634 398.92705317 332.98266602 389.12939453 C333.49829102 388.36626953 334.01391602 387.60314453 334.54516602 386.81689453 C341.02469715 374.70298849 339.25600233 357.43365901 338.68232727 344.16317749 C338.08219383 329.7953594 337.77250671 315.42470684 337.51391602 301.04736328 C337.48260936 299.32798207 337.48260936 299.32798207 337.45067024 297.57386589 C336.80732479 261.83294807 336.43067488 226.08789243 336.01987463 190.34371912 C335.90764329 180.58456764 335.79329368 170.82544126 335.67882717 161.06631577 C335.44453491 141.08736778 335.21271113 121.10839185 334.98266602 101.12939453 C334.40262534 101.15706909 333.82258467 101.18474365 333.224967 101.21325684 C305.99202377 102.51224862 305.99202377 102.51224862 294.84472656 103.00439453 C293.02302183 103.0857334 291.20140037 103.16896658 289.37988281 103.25439453 C252.5857679 104.9752849 215.73803386 105.29166215 178.90958643 105.2966516 C175.85373295 105.297381 172.79788353 105.29954908 169.7420311 105.30214882 C158.92803425 105.31130653 148.11404942 105.31549663 137.30004883 105.31469727 C128.55165764 105.31416707 119.80331141 105.32118414 111.05493164 105.33520508 C68.74934203 105.40138603 26.4541177 105.44773062 -15.83764648 104.24267578 C-16.89121598 104.21316476 -16.89121598 104.21316476 -17.9660697 104.18305755 C-41.00225955 103.53445491 -64.00707224 102.37328734 -87.01733398 101.12939453 Z M358.98266602 122.12939453 C355.02266602 122.12939453 351.06266602 122.12939453 346.98266602 122.12939453 C346.98266602 130.70939453 346.98266602 139.28939453 346.98266602 148.12939453 C352.59266602 148.45939453 358.20266602 148.78939453 363.98266602 149.12939453 C363.98266602 139.88939453 363.98266602 130.64939453 363.98266602 121.12939453 C361.7718475 121.02398528 361.7718475 121.02398528 358.98266602 122.12939453 Z M346.98266602 162.12939453 C346.12180193 167.98920231 346.12180193 167.98920231 345.88500977 173.75048828 C345.88823242 174.54003906 345.89145508 175.32958984 345.89477539 176.14306641 C345.9031543 176.94292969 345.9115332 177.74279297 345.92016602 178.56689453 C345.92467773 179.39382812 345.92918945 180.22076172 345.93383789 181.07275391 C345.9455079 183.09166599 345.96343883 185.11054027 345.98266602 187.12939453 C348.2329493 186.98799973 350.48288808 186.8411145 352.73266602 186.69189453 C353.98563477 186.61068359 355.23860352 186.52947266 356.52954102 186.44580078 C360.10630739 186.20686027 360.10630739 186.20686027 363.98266602 185.12939453 C363.98266602 177.86939453 363.98266602 170.60939453 363.98266602 163.12939453 C358.37266602 162.79939453 352.76266602 162.46939453 346.98266602 162.12939453 Z M202.15844727 170.83642578 C196.78750167 176.80558807 195.50779527 182.02897366 195.67407227 190.00048828 C196.53375411 198.71700931 200.68884267 205.21784246 206.98266602 211.12939453 C211.95105216 215.20087487 216.28278979 216.53800289 222.71704102 216.39501953 C232.00162796 215.30648175 238.87709386 209.89815814 244.98266602 203.12939453 C247.25778509 199.91884427 249.19277055 196.6305752 250.98266602 193.12939453 C251.37454102 192.45779297 251.76641602 191.78619141 252.17016602 191.09423828 C253.72862143 187.32547351 252.29184493 183.83200626 250.98266602 180.12939453 C247.29283999 172.23433822 243.08855302 167.3493454 235.10766602 163.87939453 C223.19218771 161.01967974 211.48537493 162.10865835 202.15844727 170.83642578 Z M360.81469727 199.12158203 C357.58366282 200.27138464 355.08781082 200.3295076 351.67016602 200.25439453 C348.85485352 200.19251953 348.85485352 200.19251953 345.98266602 200.12939453 C345.98266602 206.06939453 345.98266602 212.00939453 345.98266602 218.12939453 C348.39579102 217.98501953 350.80891602 217.84064453 353.29516602 217.69189453 C354.05095947 217.6487915 354.80675293 217.60568848 355.58544922 217.5612793 C358.58861474 217.37104262 361.11467647 217.08539105 363.98266602 216.12939453 C363.98266602 210.18939453 363.98266602 204.24939453 363.98266602 198.12939453 C362.7368449 198.06003671 362.7368449 198.06003671 360.81469727 199.12158203 Z M345.98266602 231.12939453 C345.98266602 239.70939453 345.98266602 248.28939453 345.98266602 257.12939453 C348.95266602 257.12939453 351.92266602 257.12939453 354.98266602 257.12939453 C359.43766602 258.11939453 359.43766602 258.11939453 363.98266602 259.12939453 C363.98266602 249.88939453 363.98266602 240.64939453 363.98266602 231.12939453 C358.04266602 231.12939453 352.10266602 231.12939453 345.98266602 231.12939453 Z M161.2565918 262.18676758 C151.65916974 271.11252666 143.04083867 276.9773155 129.45922852 276.51611328 C123.0972513 275.80843267 117.07324856 274.03829405 110.98266602 272.12939453 C110.28077148 271.91025391 109.57887695 271.69111328 108.85571289 271.46533203 C102.96346753 269.61969622 102.96346753 269.61969622 100.43652344 268.79272461 C90.14141568 265.46534791 79.66896493 264.30426422 69.62719727 268.86376953 C67.88816561 270.04103804 67.88816561 270.04103804 66.93188477 271.89501953 C67.00094613 274.93371972 68.38985888 276.49707991 70.39135742 278.68847656 C73.01470633 281.06389928 75.99334562 282.5856608 79.17016602 284.06689453 C79.86722656 284.40116455 80.56428711 284.73543457 81.2824707 285.07983398 C100.48549812 294.11994304 124.37235914 303.9770864 145.98266602 301.12939453 C150.33791867 299.27088109 154.10909372 296.83566843 157.98266602 294.12939453 C163.38138644 290.47254583 168.40796106 288.67447261 174.98266602 289.12939453 C178.50496916 290.76474956 180.33843997 291.8744699 182.11791992 295.34082031 C183.16129469 298.70542409 183.27579931 301.59736925 183.31860352 305.12158203 C183.33123985 306.14865265 183.33123985 306.14865265 183.34413147 307.19647217 C183.36401889 309.46601475 183.36377015 311.73477803 183.35766602 314.00439453 C183.35678986 314.79803406 183.3559137 315.59167358 183.35501099 316.40936279 C183.24561299 346.87197389 178.6157391 376.97798138 174.26953125 407.06933594 C174.11852463 408.11600433 173.96751801 409.16267273 173.81193542 410.24105835 C173.52607077 412.21503298 173.23809856 414.1887039 172.94770813 416.16201782 C172.82034775 417.0384494 172.69298737 417.91488098 172.56176758 418.81787109 C172.44947815 419.5818219 172.33718872 420.34577271 172.22149658 421.13287354 C171.92327774 423.29072918 171.92327774 423.29072918 171.98266602 426.12939453 C181.88266602 425.63439453 181.88266602 425.63439453 191.98266602 425.12939453 C192.08063477 423.69208984 192.17860352 422.25478516 192.27954102 420.77392578 C194.4439426 391.85490619 194.4439426 391.85490619 202.98266602 384.12939453 C207.20886104 381.46505419 210.98469668 380.30476188 215.98266602 380.12939453 C220.58756468 381.37818061 222.47910448 382.4352962 225.29516602 386.31689453 C231.50229222 399.0494611 230.08688864 414.3720087 229.98266602 428.12939453 C238.23266602 428.12939453 246.48266602 428.12939453 254.98266602 428.12939453 C255.0425577 421.22411206 255.0425577 421.22411206 254.5871582 414.45288086 C254.49982422 413.64841522 254.41249023 412.84394958 254.32250977 412.0151062 C254.22583008 411.17239166 254.12915039 410.32967712 254.02954102 409.46142578 C253.92931641 408.55586945 253.8290918 407.65031311 253.72583008 406.71731567 C253.40010999 403.79154876 253.06672014 400.86672064 252.73266602 397.94189453 C252.50504386 395.91724567 252.27750539 393.8925874 252.05004883 391.86791992 C250.60242081 379.07945113 249.03586354 366.31250033 247.23950195 353.56811523 C240.45350425 305.08280998 240.45350425 305.08280998 251.73266602 288.56689453 C253.98266602 287.12939453 253.98266602 287.12939453 257.42016602 287.12939453 C262.09332859 288.44115946 264.63190628 289.87340633 267.16992188 294.11230469 C271.17528929 301.9202361 273.49736587 309.98461677 275.85571289 318.40869141 C278.90510075 328.85053469 283.09611324 339.94088582 292.23266602 346.44189453 C296.33146169 348.60147505 299.39859301 348.73058443 303.98266602 348.12939453 C306.41386224 346.25924359 307.62335774 344.84801108 308.98266602 342.12939453 C310.51600966 328.55553278 304.62457713 315.5930817 299.67016602 303.25439453 C298.94168457 301.42630249 298.94168457 301.42630249 298.19848633 299.5612793 C296.8041699 296.07942566 295.39704107 292.60314166 293.98266602 289.12939453 C293.44923584 287.81382568 293.44923584 287.81382568 292.9050293 286.47167969 C285.4132172 268.14851767 275.90508501 253.39756177 257.00219727 245.35986328 C245.08156142 240.631582 234.1692928 238.75687326 221.29516602 238.81689453 C220.05508789 238.82180908 218.81500977 238.82672363 217.53735352 238.83178711 C194.37963165 239.12794108 178.06687383 246.53682713 161.2565918 262.18676758 Z M344.98266602 270.12939453 C344.98266602 277.38939453 344.98266602 284.64939453 344.98266602 292.12939453 C350.92266602 291.79939453 356.86266602 291.46939453 362.98266602 291.12939453 C362.98266602 284.19939453 362.98266602 277.26939453 362.98266602 270.12939453 C357.04266602 270.12939453 351.10266602 270.12939453 344.98266602 270.12939453 Z M344.98266602 304.12939453 C344.98266602 310.72939453 344.98266602 317.32939453 344.98266602 324.12939453 C349.73876935 324.41759069 349.73876935 324.41759069 354.49536133 324.69750977 C357.75938983 324.90513288 360.84811786 325.16802538 363.98266602 326.12939453 C364.07999693 319.03505221 364.08353795 312.1474531 362.98266602 305.12939453 C362.10223633 305.14099609 361.22180664 305.15259766 360.31469727 305.16455078 C358.5725293 305.17808594 358.5725293 305.17808594 356.79516602 305.19189453 C355.64661133 305.20349609 354.49805664 305.21509766 353.31469727 305.22705078 C349.98266602 305.12939453 349.98266602 305.12939453 344.98266602 304.12939453 Z M361.37329102 337.62548828 C356.06740753 338.74388529 350.36426844 338.17922418 344.98266602 338.12939453 C344.98266602 344.06939453 344.98266602 350.00939453 344.98266602 356.12939453 C347.00391602 356.10876953 349.02516602 356.08814453 351.10766602 356.06689453 C355.66693148 356.02037141 359.4162769 356.36832968 363.98266602 357.12939453 C363.98266602 350.52939453 363.98266602 343.92939453 363.98266602 337.12939453 C362.86125389 337.08029873 362.86125389 337.08029873 361.37329102 337.62548828 Z M361.40454102 368.12158203 C358.03488592 369.52379335 354.81545517 369.34244039 351.23266602 369.25439453 C350.5352832 369.24537109 349.83790039 369.23634766 349.11938477 369.22705078 C347.40699644 369.20359341 345.69478598 369.16772558 343.98266602 369.12939453 C342.76886167 373.25530931 341.6677395 377.34293992 340.85766602 381.56689453 C340.69008789 382.43185547 340.52250977 383.29681641 340.34985352 384.18798828 C340.22868164 384.82865234 340.10750977 385.46931641 339.98266602 386.12939453 C340.77930664 386.29955078 341.57594727 386.46970703 342.39672852 386.64501953 C348.43202227 388.02535436 353.10938156 389.2820647 357.98266602 393.12939453 C358.64266602 393.45939453 359.30266602 393.78939453 359.98266602 394.12939453 C362.53980312 385.03100939 364.71109615 376.679923 363.98266602 367.12939453 C362.81307774 367.04068497 362.81307774 367.04068497 361.40454102 368.12158203 Z M212.98266602 394.12939453 C207.60945014 398.78217922 206.70902007 406.89406042 206.09985352 413.68017578 C205.86930341 418.49867295 205.92722993 423.30645492 205.98266602 428.12939453 C211.42766602 427.63439453 211.42766602 427.63439453 216.98266602 427.12939453 C217.8396336 410.91071802 217.8396336 410.91071802 214.98266602 395.12939453 C214.32266602 394.79939453 213.66266602 394.46939453 212.98266602 394.12939453 Z M331.01782227 398.38720703 C330.04135742 399.31146484 330.04135742 399.31146484 329.04516602 400.25439453 C328.35551758 400.89763672 327.66586914 401.54087891 326.95532227 402.20361328 C325.97885742 403.156875 325.97885742 403.156875 324.98266602 404.12939453 C324.44512695 404.65146484 323.90758789 405.17353516 323.35375977 405.71142578 C322.21575661 406.83646024 321.09666331 407.98058482 319.98266602 409.12939453 C320.59754883 409.49291016 321.21243164 409.85642578 321.84594727 410.23095703 C322.65418945 410.73369141 323.46243164 411.23642578 324.29516602 411.75439453 C325.09567383 412.24166016 325.89618164 412.72892578 326.72094727 413.23095703 C329.46931858 415.53788011 330.56996542 417.86509606 331.98266602 421.12939453 C340.59065082 417.41528941 346.78111652 413.17660987 352.98266602 406.12939453 C351.35916671 402.88239593 347.90578491 402.31089768 344.67016602 401.06689453 C343.99276367 400.798125 343.31536133 400.52935547 342.61743164 400.25244141 C340.74871791 399.51993485 338.86606274 398.82327754 336.98266602 398.12939453 C336.24532227 397.83935547 335.50797852 397.54931641 334.74829102 397.25048828 C332.84317079 396.94376127 332.84317079 396.94376127 331.01782227 398.38720703 Z M302.17016602 417.75439453 C291.34854921 422.58716561 279.61328358 425.89564879 267.98266602 428.12939453 C267.98266602 428.45939453 267.98266602 428.78939453 267.98266602 429.12939453 C276.69253686 429.32392972 285.28100345 428.6791122 293.953125 427.95751953 C296.43823332 427.75290695 298.92417351 427.56206008 301.41040039 427.37158203 C302.9957553 427.24220979 304.58104463 427.11203088 306.16625977 426.98095703 C306.90686142 426.92565826 307.64746307 426.8703595 308.4105072 426.81338501 C312.02508578 426.49873809 313.90052407 426.18415583 316.98266602 424.12939453 C316.19891602 423.57251953 315.41516602 423.01564453 314.60766602 422.44189453 C311.89561744 420.05270888 311.02133059 418.5286604 309.98266602 415.12939453 C307.00249624 415.12939453 304.87133944 416.50474135 302.17016602 417.75439453 Z " fill="#000000" transform="translate(118.017333984375,35.87060546875)"/>
<path d="M0 0 C0 1.32 0 2.64 0 4 C-26.37030749 10.22920649 -54.18455401 9.32891117 -81.11108398 9.26074219 C-85.6542161 9.24934007 -90.19711402 9.25613426 -94.74023819 9.26762295 C-161.17974823 9.41012588 -161.17974823 9.41012588 -174 3 C-173.67 2.01 -173.34 1.02 -173 0 C-131.43664653 -16.26392092 -42.75931012 -12.98359619 0 0 Z " fill="#000000" transform="translate(236,190)"/>
<path d="M0 0 C0.84965332 0.01788574 1.69930664 0.03577148 2.57470703 0.05419922 C13.68665565 0.31349695 24.67516831 0.8762605 35.6875 2.4375 C36.55383057 2.55971924 37.42016113 2.68193848 38.31274414 2.80786133 C42.46108631 3.44431817 46.16759623 4.19697501 50 6 C50 7.32 50 8.64 50 10 C32.80019541 15.68275482 14.66601981 15.32252392 -3.23999023 15.26074219 C-6.92773923 15.25002836 -10.61500015 15.26069159 -14.30273438 15.2734375 C-50.26709037 15.29546644 -50.26709037 15.29546644 -64 10 C-64 8.68 -64 7.36 -64 6 C-44.75054151 -1.69978339 -20.38388467 -0.48382802 0 0 Z " fill="#000000" transform="translate(142,361)"/>
<path d="M0 0 C3.17890493 0.01072308 6.35724493 0.00004769 9.53613281 -0.01269531 C38.39343881 -0.03323522 38.39343881 -0.03323522 50.18457031 5.26074219 C50.18457031 6.58074219 50.18457031 7.90074219 50.18457031 9.26074219 C35.94675894 14.66129133 21.46594961 14.58146374 6.44458008 14.52148438 C3.25680469 14.51077489 0.06959415 14.52142571 -3.11816406 14.53417969 C-32.02431572 14.55471172 -32.02431572 14.55471172 -43.81542969 9.26074219 C-43.81542969 7.94074219 -43.81542969 6.62074219 -43.81542969 5.26074219 C-30.17411331 -0.86393047 -14.64112392 -0.05869091 0 0 Z " fill="#000000" transform="translate(109.8154296875,312.7392578125)"/>
<path d="M0 0 C3.76689551 3.77547614 5.83143415 7.85078547 6.25 13.1875 C5.96218227 17.57672036 5.08879815 21.12333224 3 25 C1 26.625 1 26.625 -1 28 C-1.474375 28.969375 -1.94875 29.93875 -2.4375 30.9375 C-4.29430972 34.57684706 -5.39224045 36.04579691 -9 38 C-14.82130647 39.07527317 -19.73490707 38.65060654 -24.875 35.625 C-30.33096164 31.45221785 -33.21054286 26.20173885 -34.47265625 19.484375 C-34.87779814 12.87744571 -32.92187942 7.30441246 -29 2 C-20.27932133 -5.5291404 -9.86210997 -5.74038211 0 0 Z M-17.375 12.5625 C-19.63326454 15.94989681 -19.56116268 18.0017159 -19 22 C-17.59121904 24.9901643 -17.59121904 24.9901643 -15 27 C-11.06492751 27.98376812 -7.85810114 28.38891641 -4 27 C-3.68635252 21.04069781 -4.19132674 17.29326883 -7 12 C-10.72779653 10.13610173 -13.90961399 10.28264079 -17.375 12.5625 Z " fill="#000000" transform="translate(182,77)"/>
<path d="M0 0 C4.27075804 3.41660643 6.45161947 6.75271044 8 12 C8.25537062 18.4353396 7.16600374 23.07654103 3 28 C2.01 28.495 2.01 28.495 1 29 C0.566875 29.928125 0.13375 30.85625 -0.3125 31.8125 C-2.25596913 35.48349725 -3.33837611 37.01662039 -7 39 C-12.97727789 40.10408318 -17.75416987 39.63064537 -22.9375 36.375 C-27.7325228 32.73798807 -30.77757722 29.00098455 -32 23 C-32.93579665 15.37994159 -31.60513678 9.22853032 -27 3 C-19.02437592 -3.88588535 -9.34960168 -4.90115962 0 0 Z M-15.375 13.5625 C-17.63326454 16.94989681 -17.56116268 19.0017159 -17 23 C-15.59121904 25.9901643 -15.59121904 25.9901643 -13 28 C-9.06492751 28.98376812 -5.85810114 29.38891641 -2 28 C-1.68635252 22.04069781 -2.19132674 18.29326883 -5 13 C-8.72779653 11.13610173 -11.90961399 11.28264079 -15.375 13.5625 Z " fill="#000000" transform="translate(81,76)"/>
<path d="M0 0 C4.24321515 4.20862372 6.1396176 7.82425483 6.25 13.8125 C6.19523732 19.17924232 4.89992158 22.72009411 1.4375 26.875 C0 28 0 28 -2 28 C-2.04125 28.9075 -2.0825 29.815 -2.125 30.75 C-3 34 -3 34 -5.4375 36.375 C-10.60723863 38.73312639 -15.53023603 39.15204344 -20.98828125 37.33984375 C-26.4622506 34.53610335 -30.89781183 30.25315452 -32.88671875 24.3828125 C-34.51967524 16.87329283 -33.93807529 11.66080888 -30.3125 4.8125 C-27.04778926 0.84190586 -23.52207409 -2.04570169 -18.6875 -3.875 C-12.03885059 -4.18423951 -5.64102612 -3.80441296 0 0 Z M-17.5 13.0625 C-19.49261845 16.96471113 -19.26519127 18.83231112 -18 23 C-16.16666667 26.16666667 -16.16666667 26.16666667 -13 28 C-9.89468037 28.10923235 -7.02740793 27.66616166 -4 27 C-3.47256201 19.68587087 -3.47256201 19.68587087 -5.5625 12.8125 C-7.97713716 10.73541201 -7.97713716 10.73541201 -11.5 10.375 C-15.07466486 10.71785977 -15.07466486 10.71785977 -17.5 13.0625 Z " fill="#000000" transform="translate(132,77)"/>
<path d="M0 0 C0.9375 2.6875 0.9375 2.6875 1 5 C-8.63308823 10.72778219 -19.99149376 10.33990057 -30.875 10.3125 C-32.78345703 10.33666992 -32.78345703 10.33666992 -34.73046875 10.36132812 C-55.52574976 10.3719488 -55.52574976 10.3719488 -63 4 C-62.69140625 2.1015625 -62.69140625 2.1015625 -62 0 C-46.00334022 -8.48802356 -15.88229729 -8.19213312 0 0 Z " fill="#000000" transform="translate(206,231)"/>
<path d="M0 0 C0.98613281 -0.020625 1.97226563 -0.04125 2.98828125 -0.0625 C10.85210885 -0.1039431 18.09699433 0.81466288 24.75 5.25 C24.9375 7.875 24.9375 7.875 24.75 10.25 C18.80780767 12.86797408 13.30320246 14.9878719 6.75 15.25 C5.77160156 15.28996094 4.79320313 15.32992188 3.78515625 15.37109375 C-16.6657016 15.78448802 -16.6657016 15.78448802 -24.25 10.25 C-25.125 7.5625 -25.125 7.5625 -25.25 5.25 C-24.04731319 4.59371151 -22.83747446 3.95052495 -21.625 3.3125 C-20.95210938 2.95285156 -20.27921875 2.59320313 -19.5859375 2.22265625 C-13.38295888 -0.36018936 -6.60739983 0.03401493 0 0 Z " fill="#000000" transform="translate(92.25,271.75)"/>
</svg>
