<?xml version="1.0" encoding="UTF-8"?>
<svg version="1.1" xmlns="http://www.w3.org/2000/svg" width="512" height="512">
<path d="M0 0 C1.5399053 -0.00230681 3.07980949 -0.00548481 4.6197114 -0.00945449 C8.83481893 -0.01778086 13.04983556 -0.01368704 17.26494336 -0.00748205 C21.81715327 -0.00294973 26.36934774 -0.0099452 30.92155457 -0.01544189 C39.83285089 -0.02432919 48.74411349 -0.02241683 57.65541112 -0.01661661 C64.89863891 -0.01209753 72.14185726 -0.01148829 79.38508606 -0.01366425 C80.41647789 -0.01397071 81.44786971 -0.01427718 82.51051584 -0.01459293 C84.60585145 -0.01523239 86.70118707 -0.01588082 88.79652268 -0.01653811 C108.43863455 -0.02223947 128.08072774 -0.01568657 147.72283655 -0.00493738 C164.57202897 0.00399795 181.42119382 0.00244585 198.27038574 -0.0067749 C217.84282621 -0.01748097 237.41525032 -0.02169016 256.98769331 -0.01555037 C259.0752662 -0.01491329 261.16283909 -0.01428454 263.25041199 -0.01366425 C264.79104973 -0.01320142 264.79104973 -0.01320142 266.36281148 -0.01272924 C273.59627387 -0.01100331 280.82972586 -0.01391521 288.06318665 -0.01862335 C296.87986683 -0.02423591 305.69651141 -0.02270782 314.51318753 -0.01206186 C319.01047673 -0.00681023 323.5077066 -0.00473978 328.00499535 -0.01136017 C332.12419009 -0.0173322 336.24327064 -0.01402382 340.36245507 -0.00340506 C341.85022214 -0.00117636 343.33799891 -0.00229541 344.82575971 -0.00715664 C365.09056135 -0.06827718 365.09056135 -0.06827718 372.81774902 6.25396729 C380.13607919 13.73862314 380.1129725 20.9693172 380.07844543 30.89958191 C380.08227098 32.06781433 380.08609653 33.23604675 380.090038 34.43968016 C380.09855246 37.66931723 380.09814151 40.89880845 380.09385741 44.12844932 C380.09138644 47.61659489 380.10040891 51.10471393 380.1078949 54.59284973 C380.12063331 61.4212568 380.12243669 68.24962453 380.12009463 75.07804149 C380.11831047 80.6289167 380.12006322 86.17977998 380.12431908 91.73065376 C380.12491427 92.52114886 380.12550945 93.31164397 380.12612268 94.12609347 C380.12733445 95.73205888 380.12854858 97.33802429 380.12976506 98.9439897 C380.14063715 113.99882843 380.13847958 129.05364476 380.13238021 144.10848475 C380.12721052 157.8763648 380.13846846 171.64417411 380.15747843 185.41204017 C380.17685708 199.55554231 380.18511283 213.69901099 380.18135518 227.8425265 C380.17944328 235.78039126 380.18192964 243.7181958 380.19606972 251.65604973 C380.20798478 258.41310145 380.20938696 265.17005587 380.19727955 271.92710894 C380.19139191 275.37319037 380.19028811 278.81909385 380.20228195 282.26516342 C380.21271732 286.00406395 380.2046738 289.74248581 380.19197083 293.48136902 C380.19934511 294.56610266 380.20671939 295.6508363 380.21431714 296.76844066 C380.15167582 305.52906921 378.49376784 312.21311812 372.41931152 318.78131104 C366.44560094 324.27421076 358.88377838 324.37776548 351.1562748 324.38260174 C349.8485812 324.38582618 348.5408876 324.38905063 347.19356692 324.39237279 C345.75438021 324.39090186 344.31519359 324.38933415 342.87600708 324.38768005 C341.33782882 324.38954928 339.79965104 324.39185043 338.26147401 324.39454538 C334.04187251 324.40065584 329.82229084 324.40053067 325.60268593 324.399351 C321.04908061 324.39914681 316.49548163 324.4046675 311.94187927 324.40940857 C303.02363429 324.4177113 294.10539592 324.42046323 285.18714739 324.42102095 C277.9381528 324.42149624 270.68916038 324.42355164 263.44016647 324.42672157 C242.88621528 324.43552672 222.33226931 324.44014111 201.77831621 324.4393911 C200.6704892 324.43935114 199.56266218 324.43931119 198.42126465 324.43927002 C197.31208464 324.43922914 196.20290464 324.43918826 195.06011312 324.43914614 C177.0799859 324.43873959 159.09987961 324.44831163 141.11975844 324.46240839 C122.65621927 324.47676992 104.19269031 324.48367871 85.72914541 324.48281461 C75.36390192 324.48248259 64.99868038 324.48523203 54.63344193 324.49599266 C45.80939717 324.50509466 36.98538433 324.50727533 28.16133691 324.50048324 C23.66000866 324.49721667 19.15874164 324.49716634 14.6574192 324.50583649 C10.5344478 324.51369618 6.41158624 324.51227547 2.28861754 324.50355235 C0.79944317 324.50201622 -0.68973937 324.50383783 -2.1789041 324.50941243 C-22.60573032 324.58079698 -22.60573032 324.58079698 -29.05725098 318.56646729 C-29.77654785 317.9232251 -30.49584473 317.27998291 -31.23693848 316.61724854 C-36.00280386 310.82739199 -36.62149759 305.34645743 -36.5632019 298.12501526 C-36.56788188 297.22755858 -36.57256185 296.3301019 -36.57738364 295.40544957 C-36.58931269 292.40989782 -36.5798846 289.41480532 -36.57043457 286.41925049 C-36.57450111 284.26709731 -36.57984345 282.11494621 -36.58636475 279.96279907 C-36.60003185 274.12630214 -36.59474277 268.28996443 -36.58522749 262.45346475 C-36.57763075 256.34677467 -36.58467628 250.2400982 -36.58938599 244.13340759 C-36.59484224 233.88182121 -36.587654 223.63029968 -36.57336426 213.37872314 C-36.55702498 201.5196906 -36.56233611 189.66081268 -36.57884347 177.80178386 C-36.59244644 167.62245779 -36.59438421 157.44317832 -36.58652747 147.2638461 C-36.5818461 141.18281753 -36.58123914 135.10186171 -36.59113693 129.02083778 C-36.59978744 123.30723813 -36.59381971 117.59383846 -36.57645416 111.88026047 C-36.57247964 109.78077591 -36.57363979 107.68127458 -36.58024216 105.58179665 C-36.58840918 102.72162485 -36.57819482 99.86209875 -36.5632019 97.00196838 C-36.56989407 96.16627691 -36.57658623 95.33058544 -36.58348119 94.46956998 C-36.54989535 91.1788735 -36.41839655 88.70355091 -34.87328529 85.76190472 C-32.18678267 83.36628339 -29.69468116 83.37721045 -26.18225098 83.25396729 C-23.63729684 84.01057527 -22.61471896 84.64182536 -21.09208393 86.79705715 C-19.74252621 90.4413987 -19.91251362 94.04239189 -19.93742371 97.87702942 C-19.93515913 98.75629418 -19.93289456 99.63555894 -19.93056136 100.54146808 C-19.92525623 103.493315 -19.93410388 106.44495299 -19.94274902 109.39678955 C-19.94163641 111.51071236 -19.93957902 113.62463485 -19.93664551 115.73855591 C-19.93191949 120.29315979 -19.93304731 124.84771215 -19.93842125 129.40231514 C-19.94601568 136.59915527 -19.93539356 143.79589555 -19.92121887 150.99272156 C-19.88343294 171.45830675 -19.86530854 191.92384684 -19.87683105 212.38946533 C-19.88303706 223.69047628 -19.87152107 234.99132644 -19.84038574 246.29229778 C-19.82167548 253.45192528 -19.82510284 260.61109933 -19.84455335 267.77071965 C-19.85141281 272.21774734 -19.83752223 276.66452657 -19.81760406 281.11150742 C-19.81253739 283.17915883 -19.81609131 285.24685134 -19.82873726 287.31447029 C-19.84473589 290.12956151 -19.830302 292.94287919 -19.80802917 295.75788879 C-19.82006667 296.58297567 -19.83210417 297.40806255 -19.84450644 298.25815207 C-19.86040582 300.79137219 -19.86040582 300.79137219 -19.18225098 304.25396729 C-15.43717282 307.24693635 -12.47928868 307.62892756 -7.76852322 307.6286974 C-6.46521161 307.63590394 -5.16190001 307.64311048 -3.81909412 307.6505354 C-2.37450681 307.64335846 -0.92992087 307.63589956 0.5146637 307.62818909 C2.05055674 307.63092938 3.58644791 307.6349812 5.12233442 307.64023274 C9.34477414 307.65083283 13.56700257 307.64268206 17.78943312 307.63148224 C22.3423026 307.62265044 26.89514413 307.63108077 31.44801331 307.63734436 C40.3675562 307.64684012 49.28701829 307.64022583 58.2065552 307.62808142 C68.58824249 307.61447181 78.96991045 307.61609834 89.35160439 307.61821475 C107.87134175 307.62140573 126.39104065 307.60973035 144.9107666 307.59014893 C162.89222382 307.57114156 180.87363599 307.56406196 198.85510254 307.56964111 C218.42490465 307.5756951 237.99468694 307.57552903 257.5644874 307.56415528 C259.65006697 307.56294796 261.73564655 307.56174197 263.82122612 307.56053734 C264.84743735 307.5599338 265.87364858 307.55933026 266.93095713 307.55870843 C274.17223096 307.55482475 281.41349743 307.55522464 288.6547718 307.55712318 C297.47535537 307.55924245 306.29589942 307.55404136 315.11647183 307.53950963 C319.61918718 307.53225228 324.12184489 307.52820003 328.62456512 307.53275299 C332.74304528 307.53681623 336.8614062 307.53170166 340.97986823 307.51912691 C342.4730478 307.51618841 343.96623855 307.51664728 345.45941532 307.52076999 C347.48289548 307.52585141 349.50639621 307.51751585 351.5298624 307.50844288 C352.65568086 307.5075761 353.78149932 307.50670932 354.94143349 307.50581628 C357.7954816 307.25591701 359.44681705 306.82903664 361.81774902 305.25396729 C363.02734359 302.83477816 362.94415431 301.31548656 362.94638348 298.61215305 C362.94960792 297.6277035 362.95283237 296.64325395 362.95615453 295.62897259 C362.95460592 294.53959721 362.95305732 293.45022184 362.95146179 292.32783508 C362.95372735 291.17668117 362.9559929 290.02552725 362.95832711 288.83948988 C362.9635794 285.6345459 362.9643091 282.42963701 362.96313274 279.22469008 C362.96292926 275.77200707 362.96844246 272.31933254 362.97319031 268.86665344 C362.98150867 262.09873759 362.98424568 255.33083044 362.98480269 248.56290991 C362.98527727 243.06383949 362.9873291 237.56477195 362.99050331 232.06570244 C362.99931295 216.48753125 363.00392218 200.90936697 363.00317284 185.33119328 C363.00313288 184.4907795 363.00309292 183.65036572 363.00305176 182.78448486 C363.00301088 181.94304943 363.00297 181.101614 363.00292788 180.23468053 C363.00252127 166.5924517 363.01209368 152.95025045 363.02619012 139.3080296 C363.04053772 125.31274624 363.04746121 111.31747636 363.04659635 97.32218546 C363.04626383 89.45987086 363.04903493 81.59758517 363.0597744 73.73527718 C363.06885815 67.04202657 363.07107222 60.34881799 363.06426498 53.6555639 C363.06098902 50.2385243 363.06098157 46.82156542 363.06961823 43.40453339 C363.07727507 39.70530997 363.07273538 36.00630154 363.06498718 32.30708313 C363.07270253 30.67636615 363.07270253 30.67636615 363.08057374 29.01270539 C363.07367554 27.53211944 363.07367554 27.53211944 363.06663799 26.02162266 C363.06685536 25.1671969 363.06707273 24.31277114 363.06729668 23.43245369 C362.95207793 20.96102366 362.95207793 20.96102366 360.81774902 18.25396729 C357.52933264 17.15782849 355.11588632 17.12637241 351.65291023 17.12253952 C350.35419743 17.11869838 349.05548462 17.11485723 347.71741688 17.11089969 C346.26763537 17.11167998 344.81785391 17.11255877 343.36807251 17.11352539 C341.83462031 17.11094259 340.30116878 17.10792966 338.7677182 17.10452199 C334.54276048 17.09643893 330.31781975 17.09466169 326.09285522 17.09392452 C321.5406179 17.09207626 316.98838944 17.08453013 312.43615723 17.07778931 C302.47764028 17.06419674 292.51912735 17.05817998 282.56060266 17.05377865 C276.34576869 17.05101809 270.13093628 17.04678111 263.91610336 17.04227448 C246.71809804 17.03008118 229.52009398 17.01978161 212.32208443 17.01639938 C211.22099621 17.01617982 210.119908 17.01596025 208.98545348 17.01573403 C207.3298149 17.01540662 207.3298149 17.01540662 205.64072907 17.01507258 C203.40400004 17.01462911 201.16727102 17.01418255 198.93054199 17.01373291 C197.82104135 17.01351148 196.71154072 17.01329005 195.56841885 17.01306191 C177.58209209 17.00911213 159.59580581 16.99165287 141.6094947 16.96837339 C123.15514145 16.94468034 104.70080853 16.93219849 86.24643981 16.93103147 C75.88013307 16.93011361 65.51387907 16.92433353 55.14758682 16.90621185 C46.32222314 16.89083855 37.4969285 16.88567402 28.67155398 16.89394996 C24.16666891 16.89786616 19.661923 16.89687974 15.1570549 16.88289261 C11.03532264 16.87021177 6.91383492 16.87129963 2.79210328 16.88348332 C1.29884103 16.88545045 -0.1944382 16.88231532 -1.68767653 16.87363896 C-3.71366623 16.86260981 -5.73973606 16.87179144 -7.7657299 16.88203049 C-8.89225279 16.8814334 -10.01877567 16.88083631 -11.17943561 16.88022113 C-14.60702782 17.30683724 -16.49492381 18.093209 -19.18225098 20.25396729 C-19.6448809 23.31752756 -19.78652932 25.8428248 -19.71350098 28.90240479 C-19.71676392 29.75194733 -19.72002686 30.60148987 -19.72338867 31.47677612 C-19.73656536 35.11133111 -19.69182884 38.74466321 -19.65246582 42.37896729 C-19.63196954 45.03299669 -19.64083012 47.68584404 -19.65100098 50.33990479 C-19.63138306 51.15776459 -19.61176514 51.97562439 -19.59155273 52.81826782 C-19.61099481 57.09401534 -19.80886425 58.76561343 -22.49279785 62.27593994 C-25.18225098 64.25396729 -25.18225098 64.25396729 -28.74475098 64.81646729 C-32.18225098 64.25396729 -32.18225098 64.25396729 -34.3638916 62.8135376 C-37.11258252 58.94440822 -36.75547199 55.37676607 -36.71350098 50.73834229 C-36.71732788 49.80854553 -36.72115479 48.87874878 -36.72509766 47.92077637 C-36.72781774 45.95386676 -36.7204498 43.98692104 -36.70373535 42.02008057 C-36.68242357 39.02819742 -36.70348333 36.03874214 -36.72912598 33.04693604 C-36.72648083 31.1315662 -36.72135198 29.21619786 -36.71350098 27.30084229 C-36.7215979 26.41410828 -36.72969482 25.52737427 -36.73803711 24.61376953 C-36.63373133 17.60378826 -34.79285114 12.46271352 -30.35803223 7.01177979 C-29.43570801 6.2035376 -29.43570801 6.2035376 -28.49475098 5.37896729 C-27.89275879 4.82467041 -27.2907666 4.27037354 -26.67053223 3.69927979 C-18.6999281 -0.93042748 -8.89536504 -0.02906544 0 0 Z " fill="#000000" transform="translate(68.1822509765625,93.74603271484375)"/>
<path d="M0 0 C0.81870575 -0.01283524 1.6374115 -0.02567047 2.48092651 -0.03889465 C3.80738693 -0.04997505 3.80738693 -0.04997505 5.16064453 -0.0612793 C6.07999786 -0.06935104 6.9993512 -0.07742279 7.94656372 -0.08573914 C9.89843871 -0.09957834 11.85033788 -0.11030123 13.80224609 -0.11816406 C15.77855629 -0.12961673 17.75483723 -0.1499603 19.73095703 -0.1796875 C34.39988785 -0.40026366 48.60720209 -0.58072349 59.91845703 10.17700195 C60.60681641 10.82540039 61.29517578 11.47379883 62.00439453 12.1418457 C71.25268279 21.64798587 73.67124163 31.96699943 73.55337524 44.91552734 C73.55914994 46.26202728 73.56710005 47.60851931 73.57701147 48.95499516 C73.59772375 52.62184741 73.58764201 56.28804208 73.57208037 59.9548955 C73.56070602 63.92227477 73.57825953 67.88954575 73.59197998 71.85690308 C73.61415241 79.61582067 73.60943806 87.37449572 73.59491678 95.13342261 C73.58360084 101.44216884 73.58210379 107.75084735 73.58753586 114.05960083 C73.58830202 114.95927804 73.58906819 115.85895525 73.58985757 116.78589541 C73.59145628 118.61387024 73.59307735 120.44184506 73.59472053 122.26981986 C73.60896047 139.38979358 73.5926129 156.50963319 73.5657187 173.62958491 C73.54338151 188.30268428 73.54726213 202.97558584 73.5703125 217.64868164 C73.59710157 234.70956774 73.60758733 251.77033646 73.59225118 268.83124065 C73.59065852 270.65229478 73.58908667 272.47334892 73.58753586 274.29440308 C73.58676448 275.19027463 73.5859931 276.08614617 73.58519835 277.00916535 C73.58089066 283.30652354 73.58814777 289.60380695 73.59993362 295.90115356 C73.61399173 303.58102909 73.61008938 311.26064926 73.5835299 318.94049573 C73.57043601 322.85502367 73.56516295 326.76912667 73.58177567 330.68365097 C73.59678125 334.27391651 73.58831533 337.86336715 73.56188791 341.45355976 C73.55374231 343.3528864 73.56988564 345.25227056 73.58717406 347.15153599 C73.45151644 359.13799747 69.6538814 368.39866964 61.30126953 376.9855957 C50.04600032 387.33675313 38.4289053 388.63054738 23.54470825 388.57141113 C22.00847265 388.57630781 20.47224074 388.58250119 18.93601501 388.58986902 C14.74048099 388.60619149 10.54513582 388.60396649 6.34958124 388.59849405 C1.81518941 388.59581453 -2.71915312 388.61037236 -7.25352478 388.62258911 C-16.12443944 388.64360167 -24.99528868 388.64818654 -33.86622529 388.64640123 C-41.07416645 388.64509228 -48.28208724 388.64890447 -55.49002457 388.65632629 C-57.56814674 388.65842551 -59.64626892 388.66052311 -61.7243911 388.66261911 C-62.75875822 388.66366264 -63.79312533 388.66470617 -64.8588369 388.66578132 C-84.40069238 388.6846645 -103.94251027 388.68363847 -123.48437108 388.67681199 C-141.36999815 388.67122948 -159.2554823 388.69209551 -177.14107595 388.72517246 C-195.50981225 388.75887944 -213.87848 388.7740821 -232.24724782 388.76945543 C-242.55869252 388.76720881 -252.87000489 388.77248315 -263.18142319 388.79734802 C-271.95357229 388.81832167 -280.72551638 388.82199165 -289.49767379 388.80304843 C-293.97434609 388.79386888 -298.45063568 388.79281549 -302.92727852 388.81340408 C-307.0229458 388.83203292 -311.11791474 388.82770267 -315.21355475 388.80485827 C-316.69715533 388.80065213 -318.18080861 388.80493981 -319.66435359 388.81845421 C-321.6771672 388.83554544 -323.69018316 388.81896268 -325.70298576 388.80062103 C-326.8221343 388.80089342 -327.94128284 388.8011658 -329.09434497 388.80144644 C-333.07264785 387.96982119 -334.58199475 386.31671594 -337.08154297 383.17700195 C-337.64404297 379.61450195 -337.64404297 379.61450195 -337.08154297 376.17700195 C-334.94082072 373.33508658 -333.76341847 372.29597206 -330.22380483 371.67839861 C-329.10677226 371.67904802 -327.98973969 371.67969743 -326.83885765 371.68036652 C-325.54820408 371.67138572 -324.25755051 371.66240493 -322.92778623 371.65315199 C-321.49225006 371.66339893 -320.05671643 371.67400679 -318.6211853 371.68493652 C-317.09867951 371.68192674 -315.57617636 371.67715113 -314.05368102 371.67075777 C-309.8633063 371.65821964 -305.67331315 371.67057322 -301.48296475 371.68683267 C-296.96608707 371.69998006 -292.44925561 371.69004554 -287.93237305 371.682724 C-280.10213713 371.67303252 -272.27201239 371.67752308 -264.44178391 371.69114685 C-253.10964853 371.71049311 -241.77763844 371.70407833 -230.44549985 371.69057304 C-212.04634271 371.66897591 -193.64721507 371.66228142 -175.24804688 371.66772461 C-174.14640452 371.66804524 -173.04476216 371.66836588 -171.90973671 371.66869622 C-162.9741858 371.67140814 -154.0386352 371.67483824 -145.10308456 371.67830181 C-137.30114501 371.68129617 -129.49920543 371.68400479 -121.69726562 371.6862793 C-120.59878219 371.68660481 -119.50029875 371.68693032 -118.36852793 371.68726569 C-100.04631403 371.69220952 -81.72414109 371.68152268 -63.40193999 371.65970755 C-52.10056084 371.64701114 -40.79935055 371.64845741 -29.49798055 371.66815841 C-21.75051888 371.68077316 -14.00314276 371.6792972 -6.2556812 371.66678488 C-1.78658542 371.66007679 2.68226055 371.65994817 7.15133286 371.67736626 C11.24621379 371.69322341 15.34065896 371.69057803 19.43553118 371.67351621 C20.91337528 371.67060792 22.39125183 371.67441162 23.86905511 371.68577439 C33.28373306 371.75358976 41.7754627 371.32271694 49.35595703 365.2121582 C57.02767243 355.52661751 57.06816146 346.7996355 57.0521698 334.78556824 C57.05443536 333.5370759 57.05670091 332.28858356 57.05903512 331.00225812 C57.06513565 327.54849145 57.06502159 324.09474905 57.06384075 320.64097822 C57.0636363 316.91149168 57.0691597 313.18201284 57.07389832 309.45252991 C57.08219576 302.15021206 57.08495274 294.84790228 57.08551069 287.54558011 C57.08598627 281.6085697 57.08804309 275.67156195 57.09121132 269.73455238 C57.10001529 252.89328101 57.10463108 236.05201601 57.10388085 219.21074232 C57.10384089 218.30330673 57.10380093 217.39587114 57.10375977 216.4609375 C57.10371888 215.55239099 57.103678 214.64384449 57.10363588 213.70776627 C57.10322945 198.98420869 57.11279899 184.26067669 57.12689813 169.5371265 C57.14126869 154.41050879 57.14816795 139.28390355 57.14730436 124.15727884 C57.14697263 115.66827426 57.14970908 107.1792965 57.16048241 98.69029808 C57.16959633 91.46267589 57.17175531 84.23509268 57.16497298 77.00746723 C57.16171233 73.32219253 57.16163463 69.63699256 57.17032623 65.95172501 C57.1796648 61.95088922 57.17340338 57.95022583 57.16569519 53.9493866 C57.17341054 52.21429621 57.17341054 52.21429621 57.18128175 50.44415349 C57.14263563 41.35562968 56.98356347 32.42143464 50.91845703 25.17700195 C43.76680509 18.18788756 36.67730499 16.73726151 27.09033203 16.77075195 C26.17890442 16.75991577 25.26747681 16.74907959 24.32843018 16.73791504 C20.4607017 16.69231774 16.59304692 16.68052975 12.72509766 16.66577148 C9.88826586 16.65009576 7.05199544 16.61711993 4.21533203 16.58325195 C3.34237488 16.58627319 2.46941772 16.58929443 1.57000732 16.59240723 C-4.4271967 16.51798147 -4.4271967 16.51798147 -7.60400391 14.86254883 C-9.99849022 12.13096695 -10.02026274 9.73125551 -10.08154297 6.17700195 C-8.83154297 3.30200195 -8.83154297 3.30200195 -7.08154297 1.17700195 C-4.38924682 0.2795699 -2.76890346 0.03796237 0 0 Z " fill="#000000" transform="translate(439.08154296875,61.822998046875)"/>
<path d="M0 0 C1.5362356 -0.00489668 3.07246751 -0.01109006 4.60869324 -0.01845789 C8.80422726 -0.03478036 12.99957243 -0.03255535 17.19512701 -0.02708292 C21.72951884 -0.0244034 26.26386138 -0.03896122 30.79823303 -0.05117798 C39.66914769 -0.07219054 48.53999693 -0.07677541 57.41093354 -0.07499009 C64.6188747 -0.07368115 71.82679549 -0.07749334 79.03473282 -0.08491516 C81.112855 -0.08701437 83.19097717 -0.08911197 85.26909935 -0.09120798 C86.30346647 -0.09225151 87.33783358 -0.09329504 88.40354516 -0.09437019 C107.94540063 -0.11325337 127.48721852 -0.11222734 147.02907933 -0.10540086 C164.9147064 -0.09981835 182.80019055 -0.12068438 200.68578421 -0.15376133 C219.0545205 -0.1874683 237.42318825 -0.20267097 255.79195607 -0.1980443 C266.10340077 -0.19579767 276.41471314 -0.20107202 286.72613144 -0.22593689 C295.49828055 -0.24691054 304.27022463 -0.25058052 313.04238205 -0.2316373 C317.51905434 -0.22245775 321.99534393 -0.22140436 326.47198677 -0.24199295 C330.56765405 -0.26062179 334.66262299 -0.25629154 338.75826301 -0.23344713 C340.24186358 -0.229241 341.72551686 -0.23352868 343.20906185 -0.24704307 C345.22187545 -0.26413431 347.23489142 -0.24755155 349.24769402 -0.2292099 C350.92641682 -0.22961848 350.92641682 -0.22961848 352.63905323 -0.23003531 C356.60372882 0.5987413 358.11467918 2.28660221 360.62625122 5.39440918 C361.25125122 8.39440918 361.25125122 8.39440918 360.62625122 11.39440918 C358.1186434 14.49502399 356.60751123 16.18902337 352.65072662 17.01721102 C351.53711153 17.01618189 350.42349644 17.01515276 349.27613544 17.01409245 C347.98697422 17.02506429 346.697813 17.03603613 345.36958629 17.04734045 C343.94092108 17.03424121 342.51225998 17.02068777 341.08360291 17.00672913 C339.56435685 17.01017584 338.04511446 17.01582793 336.52588385 17.02349705 C332.34908714 17.03826015 328.17289771 17.02192557 323.99615037 17.00064409 C319.49223867 16.98317173 314.98839188 16.99457625 310.48446655 17.00265503 C302.67823019 17.01286717 294.87217489 17.00524408 287.06595802 16.98599434 C275.76857628 16.95851209 264.47136996 16.96233443 253.17396923 16.97458016 C234.83081506 16.99398296 216.48771862 16.99402657 198.14456177 16.97912598 C197.04647553 16.97823984 195.94838929 16.97735371 194.81702771 16.97644072 C190.36804583 16.97280692 185.91906403 16.96908954 181.4700823 16.96527416 C169.2333214 16.95481839 156.99655977 16.94656862 144.75979614 16.94006348 C143.66456242 16.93947524 142.5693287 16.93888701 141.44090609 16.93828095 C123.17290551 16.92899832 104.90493944 16.93548182 86.63694495 16.95237392 C75.37003808 16.9619617 64.1033167 16.9568122 52.83643075 16.93260621 C45.11327968 16.91684531 37.39020758 16.91503279 29.66704605 16.92413945 C25.21211484 16.92886342 20.75743835 16.92697329 16.30254173 16.90750313 C12.22066109 16.88975565 8.13920914 16.89051443 4.05732199 16.9056822 C2.58421506 16.90789867 1.11107863 16.90339312 -0.36198046 16.89131553 C-9.76488557 16.81878228 -18.24072795 17.25673373 -25.81124878 23.35925293 C-33.48296418 33.04479363 -33.52345321 41.77177563 -33.50746155 53.7858429 C-33.5097271 55.03433523 -33.51199266 56.28282757 -33.51432687 57.56915301 C-33.5204274 61.02291968 -33.52031334 64.47666209 -33.51913249 67.93043292 C-33.51892805 71.65991946 -33.52445144 75.38939829 -33.52919006 79.11888123 C-33.53748751 86.42119908 -33.54024449 93.72350885 -33.54080244 101.02583102 C-33.54127802 106.96284143 -33.54333484 112.89984918 -33.54650307 118.83685875 C-33.55530704 135.67813012 -33.55992283 152.51939513 -33.55917259 169.36066882 C-33.55913264 170.26810441 -33.55909268 171.17553999 -33.55905151 172.11047363 C-33.55901063 173.01902014 -33.55896975 173.92756664 -33.55892763 174.86364486 C-33.5585212 189.58720244 -33.56809074 204.31073445 -33.58218988 219.03428463 C-33.59656044 234.16090234 -33.60345969 249.28750759 -33.6025961 264.4141323 C-33.60226438 272.90313687 -33.60500083 281.39211463 -33.61577415 289.88111305 C-33.62488808 297.10873524 -33.62704706 304.33631845 -33.62026473 311.5639439 C-33.61700408 315.24921861 -33.61692638 318.93441857 -33.62561798 322.61968613 C-33.63495655 326.62052191 -33.62869513 330.6211853 -33.62098694 334.62202454 C-33.6261305 335.77875146 -33.63127406 336.93547839 -33.63657349 338.12725765 C-33.59792738 347.21578145 -33.43885521 356.14997649 -27.37374878 363.39440918 C-20.22209684 370.38352357 -13.13259674 371.83414962 -3.54562378 371.80065918 C-2.63419617 371.81149536 -1.72276855 371.82233154 -0.78372192 371.83349609 C3.08400656 371.87909339 6.95166134 371.89088138 10.8196106 371.90563965 C13.65644239 371.92131538 16.49271281 371.9542912 19.32937622 371.98815918 C20.63881195 371.98362732 20.63881195 371.98362732 21.97470093 371.97900391 C25.52163963 372.02302169 27.97069651 372.05434176 31.15261841 373.70495605 C33.50429213 376.40104322 33.50369509 378.90155945 33.62625122 382.39440918 C32.82022794 385.10557839 32.22882864 386.03438351 29.80641174 387.48171997 C27.49771655 388.44821816 25.91998389 388.65842956 23.43118286 388.68493652 C22.61255264 388.69769623 21.79392242 388.71045593 20.95048523 388.72360229 C19.63176674 388.72694077 19.63176674 388.72694077 18.28640747 388.73034668 C17.36846909 388.73700348 16.4505307 388.74366028 15.504776 388.7505188 C13.55887856 388.76064128 11.61294644 388.76533594 9.66702271 388.76501465 C6.73029849 388.76934788 3.79512748 388.80555958 0.8586731 388.84362793 C-12.89254602 388.92665212 -25.85489816 388.39850754 -36.37374878 378.39440918 C-37.06210815 377.74601074 -37.75046753 377.0976123 -38.45968628 376.42956543 C-47.70797454 366.92342526 -50.12653338 356.6044117 -50.00866699 343.65588379 C-50.01444169 342.30938385 -50.0223918 340.96289182 -50.03230321 339.61641598 C-50.0530155 335.94956372 -50.04293375 332.28336905 -50.02737212 328.61651564 C-50.01599777 324.64913637 -50.03355128 320.68186538 -50.04727173 316.71450806 C-50.06944416 308.95559046 -50.06472981 301.19691542 -50.05020852 293.43798852 C-50.03889259 287.12924229 -50.03739554 280.82056378 -50.04282761 274.5118103 C-50.04359377 273.61213309 -50.04435994 272.71245588 -50.04514932 271.78551573 C-50.04674803 269.95754089 -50.0483691 268.12956607 -50.05001228 266.30159128 C-50.06425221 249.18161756 -50.04790465 232.06177795 -50.02101044 214.94182622 C-49.99867326 200.26872685 -50.00255388 185.5958253 -50.02560425 170.92272949 C-50.05239331 153.86184339 -50.06287908 136.80107468 -50.04754293 119.74017048 C-50.04595027 117.91911636 -50.04437842 116.09806222 -50.04282761 114.27700806 C-50.04205623 113.38113651 -50.04128485 112.48526496 -50.0404901 111.56224579 C-50.03618241 105.26488759 -50.04343952 98.96760418 -50.05522537 92.67025757 C-50.06928348 84.99038204 -50.06538113 77.31076187 -50.03882165 69.6309154 C-50.02572775 65.71638746 -50.0204547 61.80228446 -50.03706741 57.88776016 C-50.05207299 54.29749463 -50.04360708 50.70804398 -50.01717965 47.11785138 C-50.00903406 45.21852473 -50.02517739 43.31914057 -50.04246581 41.41987514 C-49.90680819 29.43341366 -46.10917315 20.17274149 -37.75656128 11.58581543 C-26.50129207 1.234658 -14.88419705 -0.05913625 0 0 Z " fill="#000000" transform="translate(49.373748779296875,61.6055908203125)"/>
<path d="M0 0 C4.79641506 2.85083801 9.63044581 5.63395155 14.46923828 8.41210938 C18.92314771 10.97127608 23.36786695 13.54621342 27.81298828 16.12060547 C30.83894481 17.86523038 33.87550679 19.58994756 36.9140625 21.3125 C38.69712084 22.34157124 40.47970228 23.3714694 42.26171875 24.40234375 C43.06456299 24.8494873 43.86740723 25.29663086 44.69458008 25.75732422 C50.42317133 29.10983455 55.56247416 33.43457574 57.65332031 39.97045898 C59.0547694 47.76912221 57.56411191 53.28818218 53.04296875 59.80078125 C49.40272708 64.06082109 44.57436968 66.35238321 39.69921875 68.96484375 C37.61758904 70.1103442 35.5368881 71.25753375 33.45703125 72.40625 C32.3887207 72.99293457 31.32041016 73.57961914 30.21972656 74.18408203 C25.12532841 77.01197702 20.09988836 79.95454743 15.07421875 82.90234375 C14.09420898 83.47436523 13.11419922 84.04638672 12.10449219 84.63574219 C6.85990642 87.69893642 1.6292387 90.78417437 -3.58984375 93.890625 C-4.67144775 94.5307251 -5.75305176 95.1708252 -6.86743164 95.83032227 C-8.93563884 97.05468697 -11.00016201 98.28530398 -13.06030273 99.52319336 C-21.10348838 104.27299719 -27.58180898 107.24974925 -36.98828125 104.96484375 C-42.26078647 102.92965674 -45.80840973 99.59837082 -48.98828125 94.96484375 C-50.80803985 89.80158163 -51.28095506 85.02804538 -51.26293945 79.60205078 C-51.26805038 78.7961853 -51.27316132 77.99031982 -51.27842712 77.16003418 C-51.29224918 74.51416453 -51.29137186 71.86855756 -51.2890625 69.22265625 C-51.29295366 67.37091985 -51.29728919 65.51918433 -51.30204773 63.66744995 C-51.3094942 59.79243065 -51.30923021 55.91750249 -51.30395508 52.04248047 C-51.2981644 47.09419507 -51.31508942 42.14628447 -51.33829975 37.19806099 C-51.353083 33.37517136 -51.35390252 29.55237101 -51.35079002 25.72945786 C-51.35130099 23.90593601 -51.35649621 22.08240886 -51.36660194 20.25891495 C-51.37903769 17.70117596 -51.37213234 15.14415461 -51.3605957 12.58642578 C-51.36823944 11.84431854 -51.37588318 11.1022113 -51.38375854 10.33761597 C-51.32118223 4.01206274 -50.10676535 -2.27652152 -46.19140625 -7.375 C-29.91847393 -20.68625864 -15.30821472 -9.11968125 0 0 Z M-30.98828125 1.96484375 C-34.0782344 4.34647896 -34.92520262 5.53128236 -35.49621582 9.45605469 C-35.51992258 10.87024767 -35.52160258 12.2849147 -35.50585938 13.69921875 C-35.51286865 14.47366333 -35.51987793 15.24810791 -35.52709961 16.04602051 C-35.54468624 18.60266107 -35.53305514 21.15819219 -35.51953125 23.71484375 C-35.52222599 25.49316622 -35.52610826 27.27148726 -35.53112793 29.04980469 C-35.53702386 32.77553343 -35.52845712 36.50087839 -35.50976562 40.2265625 C-35.48697584 45.00183662 -35.50009844 49.77621151 -35.52405548 54.55145264 C-35.538511 58.22321343 -35.53390864 61.8947611 -35.52354431 65.56652832 C-35.52087633 67.32719021 -35.52414929 69.08787146 -35.53346252 70.84851074 C-35.54362433 73.30968462 -35.52813378 75.76940325 -35.50585938 78.23046875 C-35.5139563 78.95786255 -35.52205322 79.68525635 -35.53039551 80.43469238 C-35.47104419 83.97521045 -35.23284755 85.66599956 -32.95593262 88.44824219 C-32.30660767 88.9487207 -31.65728271 89.44919922 -30.98828125 89.96484375 C-19.00218557 84.35163697 -7.70763388 77.62851282 3.68554688 70.91455078 C7.13415466 68.89307531 10.59339919 66.89128467 14.05859375 64.8984375 C14.64151184 64.56313019 15.22442993 64.22782288 15.82501221 63.88235474 C18.64303738 62.26218905 21.46222463 60.64406626 24.28222656 59.02734375 C26.29342761 57.8708557 28.30115941 56.70830473 30.3046875 55.53857422 C32.02500679 54.53846797 33.75586709 53.55611706 35.5 52.59814453 C36.22574219 52.18419434 36.95148438 51.77024414 37.69921875 51.34375 C38.32183594 51.00029541 38.94445312 50.65684082 39.5859375 50.30297852 C41.59279558 48.41948722 41.67946296 46.63147338 42.01171875 43.96484375 C34.93763876 39.0537142 27.56846783 34.75890702 20.07421875 30.52734375 C17.58774944 29.11727943 15.10249995 27.70507083 12.6171875 26.29296875 C11.98802429 25.93592361 11.35886108 25.57887848 10.71063232 25.21101379 C6.37766539 22.74966768 2.05941524 20.2640468 -2.25 17.76171875 C-2.83174484 17.42426132 -3.41348969 17.08680389 -4.01286316 16.73912048 C-6.77217495 15.13809225 -9.529776 13.53423085 -12.28491211 11.92602539 C-18.41451184 8.37001618 -24.6057991 5.04516169 -30.98828125 1.96484375 Z " fill="#000000" transform="translate(239.98828125,154.03515625)"/>
<path d="M0 0 C5.5177016 3.17794035 6.50869937 7.34879552 8.11328125 13.140625 C8.37255905 14.02280701 8.63183685 14.90498901 8.89897156 15.81390381 C9.72002939 18.621437 10.51650021 21.43527164 11.3125 24.25 C11.86622917 26.15932164 12.42155015 28.06818241 12.97851562 29.9765625 C14.33751162 34.64590281 15.67450689 39.32104413 17 44 C18.96420992 40.24705593 20.11588574 36.41532034 21.2421875 32.34765625 C21.6727117 30.83385194 22.10371621 29.32018417 22.53515625 27.80664062 C23.20722541 25.43377992 23.87566867 23.06009243 24.53564453 20.68383789 C25.17718647 18.38111792 25.83356227 16.08303938 26.4921875 13.78515625 C26.68400604 13.0798024 26.87582458 12.37444855 27.07345581 11.64772034 C28.32896013 7.31613566 29.89327727 4.27666378 33 1 C35.3959626 -0.1979813 36.717047 -0.10969297 39.375 0.0625 C40.14585937 0.09472656 40.91671875 0.12695312 41.7109375 0.16015625 C45.21607013 1.44616908 46.1489959 3.83357574 48 7 C48.9433136 10.06614685 48.9433136 10.06614685 49.5715332 13.35327148 C49.81470779 14.59153183 50.05788239 15.82979218 50.3084259 17.10557556 C50.5565043 18.44396563 50.80394048 19.78247487 51.05078125 21.12109375 C51.31562395 22.50839257 51.58136067 23.89552099 51.84794617 25.28248596 C52.40200302 28.18161125 52.94636366 31.08233896 53.48364258 33.98461914 C54.1704073 37.69097164 54.87942285 41.39263841 55.59556293 45.09341335 C56.14699024 47.95470816 56.68738372 50.81800164 57.22444725 53.682024 C57.48163539 55.04727052 57.7419833 56.41192596 58.00564003 57.77593803 C58.37326337 59.68764977 58.72465474 61.60246094 59.07543945 63.51733398 C59.27877396 64.60288071 59.48210846 65.68842743 59.69160461 66.80686951 C60.03984313 70.41253635 59.72643086 73.45687808 59 77 C56.63506574 79.81972931 55.1719335 79.97850831 51.5 80.4375 C48 80 48 80 45.90136719 78.47558594 C43.38512184 75.19942674 42.78485748 71.92735348 42.078125 67.953125 C41.92841248 67.18192322 41.77869995 66.41072144 41.62445068 65.6161499 C41.15172534 63.16328518 40.70062044 60.70701154 40.25 58.25 C39.93240963 56.58176028 39.61341468 54.91378731 39.29296875 53.24609375 C38.51234073 49.16697334 37.75107108 45.08466145 37 41 C36.80889648 41.62865967 36.61779297 42.25731934 36.42089844 42.9050293 C36.1530957 43.78586182 35.88529297 44.66669434 35.609375 45.57421875 C35.31393799 46.54649414 35.01850098 47.51876953 34.71411133 48.52050781 C34.0700058 50.63631864 33.42400119 52.75155226 32.77612305 54.86621094 C30.72187838 61.57405314 30.72187838 61.57405314 28.78515625 68.31640625 C28.30369141 70.01603516 28.30369141 70.01603516 27.8125 71.75 C27.55082031 72.71421875 27.28914063 73.6784375 27.01953125 74.671875 C25.79897012 77.45905673 24.59458478 78.4599251 22 80 C18.50612275 81.06335394 16.43193565 81.10366456 12.875 80.25 C9.72062195 77.78135631 9.31263943 76.77566185 8.0546875 73.10546875 C7.71518066 72.1201416 7.37567383 71.13481445 7.02587891 70.11962891 C5.38041175 65.11587372 3.78379355 60.10163717 2.25 55.0625 C1.93417969 54.04865234 1.61835938 53.03480469 1.29296875 51.99023438 C0.99519531 51.01505859 0.69742188 50.03988281 0.390625 49.03515625 C0.12282227 48.1625415 -0.14498047 47.28992676 -0.42089844 46.39086914 C-1 44 -1 44 -1 40 C-1.66 40 -2.32 40 -3 40 C-3.04535889 40.64396729 -3.09071777 41.28793457 -3.13745117 41.95141602 C-3.7291379 49.38758638 -4.87871343 56.62039468 -6.3125 63.9375 C-6.51294922 65.04673828 -6.71339844 66.15597656 -6.91992188 67.29882812 C-7.12810547 68.36423828 -7.33628906 69.42964844 -7.55078125 70.52734375 C-7.73294189 71.48374756 -7.91510254 72.44015137 -8.1027832 73.42553711 C-9.18207739 76.52245065 -10.4429075 77.97034266 -13 80 C-16.84031465 80.54861638 -19.03897329 80.54211763 -22.4375 78.625 C-26.68681201 71.48615583 -23.31624957 60.71049622 -21.91796875 53.01953125 C-21.70312332 51.80730392 -21.48827789 50.5950766 -21.266922 49.34611511 C-20.81297249 46.79809844 -20.35470352 44.25084792 -19.89233398 41.7043457 C-19.18815937 37.81614083 -18.50237496 33.92499903 -17.81835938 30.03320312 C-17.37349401 27.54928224 -16.92756667 25.06555126 -16.48046875 22.58203125 C-16.27721481 21.42459915 -16.07396088 20.26716705 -15.86454773 19.07466125 C-13.39891426 5.65594079 -13.39891426 5.65594079 -9.25 1.0625 C-5.95390952 -0.49398717 -3.59996843 -0.44210139 0 0 Z " fill="#000000" transform="translate(245,291)"/>
<path d="M0 0 C7.6158561 6.7434944 12.81051844 16.06509041 13.59765625 26.2890625 C14.14063436 39.69709587 11.39072898 49.85380982 2.1484375 59.90234375 C-5.46901564 68.13894948 -15.72008868 71.53476194 -26.75390625 71.96875 C-38.32260504 71.72074511 -48.26687847 67.29140192 -56.73828125 59.421875 C-65.59031451 48.86815697 -67.58837706 37.27416349 -66.8515625 23.90234375 C-65.20454808 13.57360927 -59.00779424 4.35332783 -50.8515625 -2.09765625 C-34.60429531 -12.12256579 -15.42437166 -11.80538478 0 0 Z M-46.66796875 17.09765625 C-50.8576918 23.48594685 -51.93246169 29.40810935 -50.8515625 36.90234375 C-48.66053881 43.67991037 -45.04749522 49.2449388 -38.8515625 52.90234375 C-31.6649835 56.14405103 -25.23898208 56.67134719 -17.7578125 54.21484375 C-11.47090572 51.50663775 -6.71803719 46.66017946 -3.6796875 40.54296875 C-1.73649616 34.34675487 -1.67566025 26.60424892 -4.2890625 20.58984375 C-7.67053064 14.92197366 -12.95271869 10.38260442 -18.7890625 7.40234375 C-29.97955828 5.57532403 -39.51852969 7.65958656 -46.66796875 17.09765625 Z " fill="#000000" transform="translate(381.8515625,300.09765625)"/>
<path d="M0 0 C1.85141602 -0.04350586 1.85141602 -0.04350586 3.74023438 -0.08789062 C14.65421717 -0.16292065 23.79607161 1.64713646 31.84765625 9.40234375 C39.82821701 18.29185221 42.96595389 30.03476902 42.78125 41.87890625 C41.65818326 54.37302369 38.22159411 65.88685136 28.5625 74.3125 C21.11912274 79.2144956 14.39026168 81.24653914 5.5625 81.3125 C4.13146865 81.3607561 2.70048152 81.41033415 1.26953125 81.4609375 C-0.25774451 81.49773148 -1.78509395 81.53158414 -3.3125 81.5625 C-4.03848389 81.58425293 -4.76446777 81.60600586 -5.51245117 81.62841797 C-10.01302978 81.65452038 -12.92382638 81.19085994 -16.4375 78.3125 C-18.72627466 74.83397466 -18.69620139 71.79628213 -18.7121582 67.69555664 C-18.71726913 67.0397612 -18.72238007 66.38396576 -18.72764587 65.70829773 C-18.74151501 63.5463237 -18.7405872 61.38466941 -18.73828125 59.22265625 C-18.74216965 57.71577334 -18.74650462 56.20889151 -18.75126648 54.70201111 C-18.7587229 51.54552658 -18.75844163 48.38915392 -18.75317383 45.23266602 C-18.74737979 41.193001 -18.76431101 37.15379457 -18.7875185 33.11420536 C-18.80226935 30.00261266 -18.80312573 26.89113006 -18.80000877 23.77950859 C-18.8005213 22.29040048 -18.80574629 20.80128611 -18.81582069 19.31221199 C-18.82819459 17.22745313 -18.82138883 15.14358314 -18.80981445 13.05883789 C-18.81044388 11.87399307 -18.8110733 10.68914825 -18.8117218 9.46839905 C-18.39890013 5.98697833 -17.52474781 4.10229079 -15.4375 1.3125 C-10.9689337 -0.92178315 -4.90512963 0.03736767 0 0 Z M-2.4375 16.3125 C-2.4375 32.4825 -2.4375 48.6525 -2.4375 65.3125 C9.25705545 65.64430642 9.25705545 65.64430642 19.34765625 60.9765625 C24.90017996 55.3831111 26.37197664 47.87928717 26.69140625 40.22265625 C26.35697528 32.34832715 24.37647261 25.48432683 18.98046875 19.58203125 C12.24722783 14.34506609 6.65108861 16.3125 -2.4375 16.3125 Z " fill="#000000" transform="translate(102.4375,290.6875)"/>
<path d="M0 0 C0.71353638 -0.00241196 1.42707275 -0.00482391 2.16223145 -0.00730896 C3.66501444 -0.0063331 5.16783454 0.0069986 6.67041016 0.03198242 C8.96251287 0.06631283 11.25075972 0.05262863 13.54296875 0.03320312 C15.00782881 0.04010207 16.47267897 0.04977492 17.9375 0.0625 C18.61784302 0.05754013 19.29818604 0.05258026 19.99914551 0.04747009 C24.72128645 0.16355987 27.1559823 1.28606508 30.46875 4.62890625 C31.1328125 6.62890625 31.1328125 6.62890625 31.09375 8.62890625 C31.10664063 9.28890625 31.11953125 9.94890625 31.1328125 10.62890625 C30.01374718 13.99926768 28.57085661 14.89998863 25.46875 16.62890625 C21.68412808 17.11020493 17.96333441 17.00556549 14.15625 16.87890625 C12.61614258 16.85183594 12.61614258 16.85183594 11.04492188 16.82421875 C8.51912929 16.77722726 5.99381863 16.70548794 3.46875 16.62890625 C3.46875 21.90890625 3.46875 27.18890625 3.46875 32.62890625 C4.78230469 32.59410156 6.09585938 32.55929687 7.44921875 32.5234375 C9.18488301 32.49529159 10.92056115 32.46799229 12.65625 32.44140625 C13.95272461 32.40370117 13.95272461 32.40370117 15.27539062 32.36523438 C20.15710222 32.30912275 23.536072 32.37400442 27.46875 35.62890625 C29.01461876 38.72064377 28.76234521 41.22320177 28.46875 44.62890625 C27.12109375 46.83984375 27.12109375 46.83984375 24.46875 48.62890625 C20.87396809 49.12318399 17.33848869 49.00422343 13.71875 48.87890625 C12.73519531 48.86085938 11.75164062 48.8428125 10.73828125 48.82421875 C8.31468659 48.77715866 5.89159375 48.70541711 3.46875 48.62890625 C3.46875 54.23890625 3.46875 59.84890625 3.46875 65.62890625 C5.08265625 65.5825 6.6965625 65.53609375 8.359375 65.48828125 C10.47914817 65.45076314 12.59894134 65.41436303 14.71875 65.37890625 C15.78222656 65.34539062 16.84570312 65.311875 17.94140625 65.27734375 C18.96621094 65.26445312 19.99101562 65.2515625 21.046875 65.23828125 C22.46081543 65.20686035 22.46081543 65.20686035 23.90332031 65.17480469 C27.25685512 65.76840716 28.41538591 66.96036425 30.46875 69.62890625 C30.93793683 73.38240087 31.00011381 75.66739078 29.15625 79.00390625 C24.67982852 83.31453434 17.11144139 81.85328101 11.27246094 81.86914062 C9.10833215 81.87884089 6.94515581 81.90987392 4.78125 81.94140625 C3.39844312 81.94793752 2.01562947 81.95318751 0.6328125 81.95703125 C-1.24736572 81.9710498 -1.24736572 81.9710498 -3.16552734 81.98535156 C-6.78381125 81.60215887 -8.65392652 80.81197828 -11.53125 78.62890625 C-12.97816898 75.73506828 -12.69063654 73.19684877 -12.72412109 69.96362305 C-12.73229858 69.27885895 -12.74047607 68.59409485 -12.74890137 67.88858032 C-12.77374948 65.61843745 -12.79027 63.3483571 -12.8046875 61.078125 C-12.81001118 60.30288797 -12.81533485 59.52765095 -12.82081985 58.72892189 C-12.84754929 54.62536228 -12.86692454 50.52183307 -12.88134766 46.41821289 C-12.89799278 42.18101454 -12.94276891 37.94459441 -12.9937191 33.70769024 C-13.02738655 30.44856378 -13.03892444 27.18962214 -13.04457474 23.93033791 C-13.051289 22.3686103 -13.06651588 20.80689493 -13.09046555 19.24533653 C-13.12211174 17.05703841 -13.12215629 14.87084021 -13.11474609 12.68237305 C-13.12283295 11.43820114 -13.1309198 10.19402924 -13.13925171 8.91215515 C-11.77823885 1.5625969 -6.76971952 -0.13192515 0 0 Z " fill="#000000" transform="translate(173.53125,290.37109375)"/>
<path d="M0 0 C2.89389029 2.17325423 3.8855994 3.36501123 4.53344727 6.9609375 C4.56898301 10.64191449 4.5939152 14.31887722 4.5625 18 C4.58634766 19.28390625 4.61019531 20.5678125 4.63476562 21.890625 C4.63283203 23.12296875 4.63089844 24.3553125 4.62890625 25.625 C4.62963135 26.75164062 4.63035645 27.87828125 4.63110352 29.0390625 C4 32 4 32 1.64819336 34.36328125 C-1.63052266 36.38969521 -3.21183856 36.71028027 -7 36 C-9.5508093 34.34084528 -10.56957794 33.59222494 -12 31 C-12.75538304 26.65807975 -12.69731361 22.39666734 -12.625 18 C-12.64433594 16.824375 -12.66367187 15.64875 -12.68359375 14.4375 C-12.62921935 4.86760569 -12.62921935 4.86760569 -9.68359375 1.72265625 C-6.14990064 -0.54569697 -4.12282029 -0.67464332 0 0 Z " fill="#000000" transform="translate(476,238)"/>
</svg>
