<?xml version="1.0" encoding="UTF-8"?>
<svg version="1.1" xmlns="http://www.w3.org/2000/svg" width="512" height="512">
<path d="M0 0 C0.64717735 -0.00205263 1.29435471 -0.00410527 1.96114349 -0.0062201 C4.138682 -0.01189307 6.31615733 -0.01043249 8.49370193 -0.00901413 C10.06712709 -0.01159759 11.6405516 -0.0146107 13.21397519 -0.01801753 C17.54489737 -0.02609295 21.87580298 -0.0278774 26.2067318 -0.028615 C30.87489263 -0.0304646 35.54304485 -0.03801146 40.21120071 -0.04475021 C50.42191798 -0.05833778 60.63263133 -0.06435888 70.84335613 -0.06876087 C77.21752061 -0.0715225 83.59168357 -0.0757597 89.96584702 -0.08026505 C107.6099615 -0.09245812 125.25407476 -0.10275745 142.89819336 -0.10614014 C144.02766788 -0.1063597 145.1571424 -0.10657927 146.32084341 -0.10680549 C147.45303747 -0.10702377 148.58523153 -0.10724204 149.7517345 -0.10746694 C152.0460337 -0.1079104 154.34033291 -0.10835697 156.63463211 -0.10880661 C157.77268646 -0.10902804 158.91074082 -0.10924947 160.08328167 -0.10947761 C178.52664107 -0.11342619 196.96996099 -0.1308819 215.41330513 -0.15416613 C234.34343971 -0.17787227 253.27355446 -0.19034165 272.20370412 -0.19150805 C282.83445718 -0.19242522 293.46515878 -0.19818788 304.09589767 -0.21632767 C313.14769125 -0.23171866 322.19941746 -0.23685502 331.25122163 -0.22858956 C335.86989902 -0.22467956 340.4884407 -0.22562978 345.10710144 -0.23964691 C349.33627308 -0.25236466 353.56520674 -0.25120704 357.79437795 -0.2390562 C359.32332962 -0.23709552 360.85229802 -0.24019478 362.38122615 -0.24890056 C371.35897788 -0.29677874 378.53559306 -0.06867095 386.31431961 4.88142776 C391.06502362 9.63213177 393.35720842 14.9151704 393.68736744 21.63636875 C393.68644565 22.5240554 393.68552385 23.41174204 393.68457413 24.32632828 C393.68663612 25.86380722 393.68663612 25.86380722 393.68873978 27.43234634 C393.6851445 28.54580933 393.68154922 29.65927231 393.677845 30.80647659 C393.67799103 31.98738876 393.67813705 33.16830093 393.67828751 34.38499832 C393.67771114 37.61395552 393.6727035 40.84286911 393.66571355 44.07181764 C393.65945284 47.44973323 393.65887406 50.82764972 393.65768814 54.20557022 C393.65458283 60.59799403 393.64638024 66.9904007 393.63633865 73.38281697 C393.62515265 80.66211489 393.6196608 87.94141364 393.61464322 95.22071803 C393.60419696 110.19096415 393.58661302 125.16119424 393.56431961 140.13142776 C390.73431308 138.75900435 388.43642299 137.31183205 386.00181961 135.31892776 C378.02113354 129.26308249 370.41992698 127.10254924 360.56431961 125.13142776 C360.56431961 101.37142776 360.56431961 77.61142776 360.56431961 53.13142776 C244.40431961 53.13142776 128.24431961 53.13142776 8.56431961 53.13142776 C8.56431961 141.24142776 8.56431961 229.35142776 8.56431961 320.13142776 C85.31770331 319.93354004 85.31770331 319.93354004 162.07091141 319.68098831 C176.92918777 319.6584053 176.92918777 319.6584053 183.88910294 319.65420914 C188.74114838 319.6495584 193.59291918 319.6308512 198.44488907 319.60354996 C204.64278628 319.5691398 210.84028672 319.55899304 217.03827059 319.56606638 C219.30734309 319.56458829 221.5764301 319.55474112 223.84542024 319.53535211 C244.4209111 319.36776303 244.4209111 319.36776303 253.96322727 323.99659824 C262.28917421 327.62912226 270.93678123 324.76827994 279.04600906 321.91121292 C282.684423 320.63242078 285.69739906 319.83339921 289.56431961 320.13142776 C290.32202746 324.24623981 290.73587316 328.2248301 290.88072586 332.40486526 C290.92262039 333.5585762 290.96451492 334.71228714 291.00767899 335.90095901 C291.04699539 337.0907637 291.0863118 338.28056839 291.12681961 339.50642776 C291.1700032 340.71943558 291.2131868 341.93244339 291.25767899 343.18220901 C291.36337474 346.16517809 291.46547282 349.14822518 291.56431961 352.13142776 C253.48229053 352.22298581 215.40027804 352.29346777 177.31816116 352.33568908 C172.8220888 352.3406919 168.32601665 352.34586919 163.82994461 352.35115433 C162.93485866 352.35220357 162.03977271 352.35325281 161.11756295 352.35433385 C146.62498145 352.37173846 132.13246343 352.40327647 117.63991958 352.44003895 C102.76892172 352.47744678 87.8979571 352.49966329 73.02691412 352.50778174 C63.85087089 352.51326984 54.67500708 352.53060272 45.49901909 352.56309363 C39.20645722 352.58423957 32.91398808 352.59062763 26.62139326 352.58543327 C22.99100142 352.5828716 19.36092308 352.5867948 15.73058701 352.60824966 C11.7921143 352.63135526 7.85404897 352.62337262 3.9155159 352.61244583 C2.77153414 352.6240972 1.62755239 352.63574856 0.44890451 352.647753 C-6.69441088 352.59413039 -12.61576762 351.77431959 -17.9533515 346.68408799 C-23.37504695 340.4821638 -24.55822373 334.66852214 -24.56431484 326.56127834 C-24.56753929 325.47154632 -24.57076373 324.38181429 -24.57408589 323.25906008 C-24.57253729 322.07259129 -24.57098869 320.8861225 -24.56939316 319.6637001 C-24.57165871 318.39493886 -24.57392427 317.12617762 -24.57625848 315.81896907 C-24.58236769 312.30400469 -24.58224392 308.78906413 -24.58106411 305.27409565 C-24.58085988 301.48053377 -24.58638097 297.6869795 -24.59112167 293.89342117 C-24.59942396 286.46363178 -24.60217632 279.03385032 -24.60273405 271.60405668 C-24.60320941 265.56403893 -24.60526515 259.5240238 -24.60843468 253.48400688 C-24.61724008 236.35507408 -24.62185423 219.22614754 -24.6211042 202.09721246 C-24.62106425 201.17401376 -24.62102429 200.25081507 -24.62098312 199.29964066 C-24.62094224 198.37531326 -24.62090136 197.45098587 -24.62085924 196.49864856 C-24.6204528 181.51892423 -24.63002221 166.53922504 -24.64412149 151.55950799 C-24.65848817 136.17415395 -24.66539151 120.78881218 -24.66452771 105.40345126 C-24.66419585 96.76746961 -24.66693846 88.13151432 -24.67770576 79.49553871 C-24.6868146 72.14269941 -24.68898286 64.78989841 -24.68219634 57.43705591 C-24.67893308 53.687104 -24.67886744 49.93722556 -24.68754959 46.18728065 C-24.69687365 42.11816705 -24.6906335 38.0492233 -24.68291855 33.98010635 C-24.68806211 32.80032973 -24.69320567 31.6205531 -24.6985051 30.40502566 C-24.65937527 21.06624194 -24.35039718 12.10044861 -17.43568039 5.13142776 C-11.80197489 0.97562258 -6.85789282 0.00740392 0 0 Z M14.56431961 19.13142776 C12.23149333 23.04455571 11.45310233 25.20991313 12.00181961 29.75642776 C13.92278851 33.90572059 15.68622942 35.71676784 19.56431961 38.13142776 C23.41660085 38.67209882 25.72359449 38.47536077 29.31431961 37.00642776 C32.20878738 34.59437129 33.33080801 32.69490573 34.56431961 29.13142776 C34.47112139 23.81912897 33.2548349 20.93377685 29.56431961 17.13142776 C24.58549723 14.64201657 18.63422239 15.52665673 14.56431961 19.13142776 Z M50.56431961 21.13142776 C49.5061784 24.20965675 49.21684097 26.89588898 49.56431961 30.13142776 C51.58310533 34.24376904 53.32278585 36.46122674 57.56431961 38.13142776 C62.55671469 38.56011285 65.76863456 37.79720505 69.62681961 34.56892776 C71.91801106 30.50391068 72.72360882 27.68707208 71.56431961 23.13142776 C69.7943407 20.11855924 67.73974338 17.71913965 64.56431961 16.13142776 C58.16939067 15.49193487 54.92633239 15.91829054 50.56431961 21.13142776 Z M89.56431961 19.13142776 C87.23149333 23.04455571 86.45310233 25.20991313 87.00181961 29.75642776 C88.92278851 33.90572059 90.68622942 35.71676784 94.56431961 38.13142776 C98.93981402 38.83463222 100.95353718 38.45410528 104.87681961 36.38142776 C108.44549958 33.39369569 109.34411522 31.81966145 109.93931961 27.25642776 C109.46293459 23.28655263 108.03391535 21.23606241 105.56431961 18.13142776 C100.38144773 14.67617985 94.24574949 14.98501844 89.56431961 19.13142776 Z " fill="#000000" transform="translate(35.4356803894043,55.86857223510742)"/>
<path d="M0 0 C7.50258522 0 11.5837803 4.19907581 17 9 C18.27810547 10.13115234 18.27810547 10.13115234 19.58203125 11.28515625 C21.27006072 12.79686313 22.9511479 14.31635996 24.625 15.84375 C26.76386558 17.7856148 28.93419385 19.67977596 31.125 21.5625 C34.49785036 24.49511889 37.64614251 27.59779046 40.75 30.8125 C42.64860375 32.65836476 44.58453538 34.36143843 46.59863281 36.07666016 C51.23219939 40.12007925 55.43943543 44.5053115 59.671875 48.9609375 C61.32135981 50.6668713 62.97245094 52.37125314 64.625 54.07421875 C67.19790073 56.72727674 69.76121127 59.38687063 72.29882812 62.07373047 C74.77250565 64.68732836 77.28041967 67.26358674 79.796875 69.8359375 C80.54104675 70.64002045 81.28521851 71.44410339 82.05194092 72.27255249 C87.24750946 77.49684671 90.72513728 78.68478958 98.04171753 78.82272339 C102.7717446 79.10617271 106.58248882 80.93593119 110.82421875 82.9296875 C111.69593216 83.32068634 112.56764557 83.71168518 113.46577454 84.11453247 C116.21441127 85.35107176 118.95106079 86.61173009 121.6875 87.875 C124.4366535 89.12613204 127.18808735 90.37200533 129.94136047 91.61404419 C131.64280112 92.38347753 133.34157291 93.15885242 135.03703308 93.94137573 C138.91779493 95.71389931 142.81882103 97.38287701 146.82714844 98.84716797 C147.52878113 99.1035202 148.23041382 99.35987244 148.95330811 99.62399292 C152.99373703 100.3662785 156.14158438 98.19323538 159.5625 96.25 C161.23011965 95.38626538 162.90222997 94.53116005 164.578125 93.68359375 C165.45662109 93.23741699 166.33511719 92.79124023 167.24023438 92.33154297 C179.46424288 86.43365352 192.62722394 82.17250066 205.6875 78.5625 C206.53481689 78.32764893 207.38213379 78.09279785 208.25512695 77.85083008 C219.93390862 74.77842438 231.37957154 73.65541397 243.4375 73.6875 C244.64470703 73.67138672 245.85191406 73.65527344 247.09570312 73.63867188 C269.0964925 73.62690045 282.25626573 82.01090741 298.81787109 95.25878906 C300.77163031 96.81777438 302.73512409 98.36251637 304.70703125 99.8984375 C311.57583985 105.24881664 318.35221379 110.70444855 325.08789062 116.22143555 C328.81702175 119.26522514 332.59051886 122.22606786 336.44213867 125.11303711 C347.82415574 133.64831148 347.82415574 133.64831148 351 140 C352.39293785 150.60033823 349.36581528 157.85500478 344.25 166.9375 C343.5613027 168.20653579 342.87505528 169.47690394 342.19116211 170.74853516 C340.47736205 173.92138427 338.73414264 177.07687778 336.98138428 180.22833252 C335.50656718 182.89078143 334.06003594 185.56831707 332.61328125 188.24609375 C330.64246547 191.89092688 328.6522458 195.52381524 326.64453125 199.1484375 C324.94723352 202.22725663 323.31815908 205.32426047 321.76171875 208.4765625 C315.0102099 222.08549882 315.0102099 222.08549882 308 225 C302.38046643 226.53504831 297.1860435 226.5163107 291.8203125 224.1484375 C287.11259199 221.17833057 283.35408239 216.41632954 282 211 C280.63383834 199.38762592 289.12250762 187.80852331 294.4375 177.9375 C295.1964238 176.51782407 295.95489023 175.09790355 296.71289062 173.67773438 C300.13590168 167.27566914 303.57017121 160.88782125 307.20727539 154.60375977 C308.14770495 152.9993421 308.14770495 152.9993421 308 151 C306.48581041 149.58499741 306.48581041 149.58499741 304.5 148.1796875 C303.778125 147.64472656 303.05625 147.10976563 302.3125 146.55859375 C301.549375 146.00300781 300.78625 145.44742188 300 144.875 C299.236875 144.31167969 298.47375 143.74835938 297.6875 143.16796875 C295.79581434 141.77285057 293.89991415 140.38388029 292 139 C292.01796631 139.75692139 292.03593262 140.51384277 292.05444336 141.29370117 C292.28730616 162.66729416 287.4961206 177.22400667 276.45874023 195.35986328 C273.39102976 200.91203417 273.36072429 206.77547331 274 213 C274.82825054 215.48475163 275.81764247 217.70766566 277.02734375 220.02734375 C278 222 278 222 279 226 C250.62 226 222.24 226 193 226 C192.175 212.42875 191.35 198.8575 190.5 184.875 C190.23896484 180.61706543 189.97792969 176.35913086 189.70898438 171.97216797 C189.39160156 166.70336914 189.39160156 166.70336914 189.24328613 164.22341919 C189.14066295 162.52060737 189.03641044 160.81789319 188.93078613 159.11526489 C188.2875586 148.72498812 187.83091385 138.41476761 188 128 C187.06317383 128.33322266 186.12634766 128.66644531 185.16113281 129.00976562 C181.63391087 130.25872591 178.09839426 131.48262795 174.56005859 132.69970703 C173.03918716 133.22659528 171.52054326 133.75996512 170.00439453 134.30029297 C151.25644992 140.97035379 140.74849614 138.79470303 122.875 130.5 C121.10770641 129.6984548 119.33948064 128.89896165 117.5703125 128.1015625 C114.07630314 126.52464954 110.59207553 124.92836914 107.11230469 123.3203125 C103.73214464 121.76754896 100.33296891 120.28846615 96.89550781 118.8671875 C96.08236115 118.52530396 95.26921448 118.18342041 94.431427 117.83117676 C92.91578357 117.19732911 91.39404371 116.57776111 89.86520386 115.97644043 C83.46023219 113.27074836 79.42449206 109.15865631 76.5625 102.8125 C76.01390037 99.09421361 76.35950985 97.02745589 77.03125 93.40527344 C77.3610273 89.62313112 77.37066379 87.64752272 75.47045898 84.32800293 C73.09298192 81.60633028 70.59185048 79.15566752 67.9375 76.703125 C66.50201389 75.29937645 65.06652778 73.89562789 63.63104248 72.49187851 C61.62127897 70.5435147 59.58219272 68.62718571 57.54351807 66.70916748 C54.99060664 64.29576823 52.47055479 61.84864416 49.94921875 59.40234375 C47.1024786 56.64089823 44.25107668 53.8853195 41.37475586 51.15460205 C36.8570746 46.85682005 32.53902835 42.5166243 28.51708984 37.74847412 C26.92160142 35.90964418 25.23862081 34.20330109 23.5 32.5 C17.57926364 26.64475851 12.3550445 20.268344 7.1875 13.75 C6.70700195 13.14728271 6.22650391 12.54456543 5.73144531 11.92358398 C0 4.6270758 0 4.6270758 0 0 Z " fill="#000000" transform="translate(149,230)"/>
<path d="M0 0 C65.34 0 130.68 0 198 0 C198 34.98 198 69.96 198 106 C195.03 105.505 195.03 105.505 192 105 C191.13656982 104.94158936 190.27313965 104.88317871 189.38354492 104.82299805 C180.45227286 103.96530638 176.17477575 99.2112497 170.3125 92.8125 C168.53999969 90.94188605 166.76529638 89.07335682 164.98828125 87.20703125 C164.13766113 86.30484863 163.28704102 85.40266602 162.41064453 84.47314453 C159.75773748 81.75145642 156.96836372 79.29336976 154.07495117 76.8347168 C148.71120184 72.09197339 143.80156858 66.83458965 138.77734375 61.73828125 C134.23047497 57.15170182 129.64957426 52.69798268 124.74267578 48.49755859 C122.32649818 46.42123001 120.01464645 44.23764 117.6875 42.0625 C104.93053373 30.03911231 104.93053373 30.03911231 88.8125 24.5625 C84.95955715 25.00464098 83.11569083 25.80068883 80 28 C79.34 28 78.68 28 78 28 C75.03831468 35.76848883 75.03831468 35.76848883 76.01953125 43.87890625 C80.15164248 52.81809509 86.32565153 59.88069497 93 67 C94.0684491 68.22399897 95.13123382 69.45297227 96.1875 70.6875 C104.94798139 80.71966417 114.15692399 90.35307945 123.73266602 99.60791016 C125.19118551 101.03600448 126.60086147 102.5136811 128 104 C128 104.66 128 105.32 128 106 C85.76 106 43.52 106 0 106 C0 71.02 0 36.04 0 0 Z " fill="#000000" transform="translate(62,193)"/>
<path d="M0 0 C7.99226987 5.69038177 13.34079667 14.07290348 15.83203125 23.51953125 C18.49277269 41.29925206 15.16181764 58.11016508 4.47265625 72.74609375 C-2.06972499 80.67990168 -10.44789893 86.79251788 -20.75 88.3125 C-31.7970523 89.20339131 -40.33384143 85.3188452 -48.75 78.3125 C-53.88467455 73.79989074 -56.98400945 68.38913579 -60.0625 62.375 C-60.40039551 61.71894775 -60.73829102 61.06289551 -61.08642578 60.38696289 C-67.12139064 48.01604886 -68.13425855 31.80344699 -64.1875 18.625 C-60.14670073 8.59364517 -52.76307427 0.86103159 -43.140625 -4.0078125 C-28.68640463 -9.71762884 -13.12745873 -7.89406647 0 0 Z " fill="#000000" transform="translate(413.75,199.6875)"/>
<path d="M0 0 C65.34 0 130.68 0 198 0 C198 6.6 198 13.2 198 20 C132.66 20 67.32 20 0 20 C0 13.4 0 6.8 0 0 Z " fill="#000000" transform="translate(62,150)"/>
<path d="M0 0 C49.83 0 99.66 0 151 0 C151.33 3.96 151.66 7.92 152 12 C152.99 15.96 152.99 15.96 154 20 C103.18 20 52.36 20 0 20 C0 13.4 0 6.8 0 0 Z " fill="#000000" transform="translate(62,322)"/>
</svg>
