<?xml version="1.0" standalone="no"?>
<!DOCTYPE svg PUBLIC "-//W3C//DTD SVG 20010904//EN"
 "http://www.w3.org/TR/2001/REC-SVG-20010904/DTD/svg10.dtd">
<svg version="1.0" xmlns="http://www.w3.org/2000/svg"
 width="512.000000pt" height="512.000000pt" viewBox="0 0 512.000000 512.000000"
 preserveAspectRatio="xMidYMid meet">

<g transform="translate(0.000000,512.000000) scale(0.100000,-0.100000)"
fill="#000000" stroke="none">
<path d="M1210 5111 c-73 -23 -139 -81 -167 -150 -20 -47 -20 -147 -1 -192 21
-48 81 -114 118 -129 l30 -12 0 -648 0 -647 -89 -12 c-362 -46 -638 -286 -732
-636 -30 -113 -30 -307 0 -420 26 -99 78 -209 135 -289 45 -63 140 -159 189
-191 l28 -18 -68 -22 c-303 -97 -538 -345 -625 -660 -21 -76 -22 -99 -23 -455
0 -365 1 -376 22 -422 30 -66 105 -143 172 -175 l56 -28 732 -3 c647 -2 736
-1 763 13 16 9 31 17 32 18 1 1 5 138 8 305 l5 302 53 -39 c29 -22 78 -50 110
-63 56 -23 63 -23 527 -26 327 -2 488 0 530 8 203 39 343 239 306 437 -24 131
-99 230 -219 286 l-67 32 -390 3 -390 3 -83 82 -82 82 1302 5 1303 5 56 28
c67 32 141 108 172 174 l22 48 3 1460 2 1460 31 14 c82 36 134 123 133 226 0
104 -45 178 -139 229 l-40 21 -1850 2 c-1017 1 -1861 -2 -1875 -6z m3711 -190
c40 -40 36 -93 -10 -128 -12 -10 -422 -12 -1838 -13 l-1822 0 -25 23 c-38 34
-39 85 -1 122 l24 25 1821 0 1822 0 29 -29z m-141 -1731 c0 -1256 -2 -1425
-15 -1457 -21 -50 -42 -72 -90 -94 -38 -18 -102 -19 -1408 -19 l-1368 0 -77
44 c-42 24 -98 51 -124 61 -27 10 -48 21 -48 24 0 4 28 27 61 51 76 55 146
132 207 228 25 40 51 71 56 69 40 -15 1086 -307 1099 -307 36 0 1170 330 1202
350 20 12 44 39 55 61 19 37 20 61 20 603 l0 566 38 19 c86 44 138 139 130
238 -4 47 -22 95 -92 245 -49 103 -96 194 -105 202 -9 8 -280 92 -601 187
-467 137 -597 172 -645 172 -49 0 -169 -32 -630 -166 -313 -92 -584 -173 -601
-181 -23 -10 -39 -32 -63 -83 -104 -216 -152 -327 -157 -365 -12 -89 35 -187
117 -240 l49 -31 0 -140 0 -139 -50 42 c-73 61 -188 124 -285 155 l-85 28 0
648 0 649 1705 0 1705 0 0 -1420z m-1255 948 c233 -68 421 -126 417 -129 -4
-3 -201 -61 -438 -128 l-431 -123 -429 122 c-236 67 -432 125 -436 129 -10 9
852 261 875 256 10 -2 209 -59 442 -127z m-1077 -379 c266 -76 487 -141 491
-145 9 -9 -138 -286 -166 -311 -13 -13 -36 -23 -51 -23 -46 0 -880 252 -902
272 -39 36 -35 58 36 212 59 127 70 145 87 140 11 -3 238 -69 505 -145z m1841
2 c34 -73 61 -143 61 -155 0 -30 -24 -61 -57 -74 -74 -30 -844 -252 -872 -252
-20 0 -40 8 -54 23 -22 22 -172 305 -165 312 9 9 1014 291 1019 286 4 -3 34
-66 68 -140z m-1051 -574 c14 -15 48 -38 76 -52 86 -43 122 -38 503 75 186 56
344 103 351 105 10 4 12 -101 10 -517 l-3 -521 -551 -157 -551 -158 -489 139
c-269 76 -506 144 -527 150 -28 7 -37 14 -33 25 3 8 11 56 17 105 16 121 0
252 -43 369 l-32 85 -3 244 c-3 195 -1 242 9 238 7 -2 167 -50 355 -106 372
-110 412 -117 493 -80 71 32 106 74 182 217 l71 134 69 -134 c38 -73 81 -145
96 -161z m-1928 -41 c246 -45 442 -210 526 -442 74 -201 45 -426 -77 -609 -88
-131 -208 -220 -367 -273 -109 -35 -274 -37 -382 -3 -239 74 -398 233 -471
471 -33 106 -33 264 0 370 80 259 277 437 536 485 91 17 144 17 235 1z m198
-1542 c181 -37 272 -95 492 -311 91 -89 178 -167 193 -172 18 -7 165 -11 411
-11 l382 0 53 -26 c60 -30 105 -90 116 -154 10 -60 -17 -138 -63 -183 -67 -65
-81 -67 -572 -67 -542 0 -504 -8 -650 135 -142 139 -167 150 -221 96 l-29 -29
0 -356 0 -356 -470 0 -470 0 0 358 c0 346 -1 359 -20 380 -43 46 -109 37 -137
-18 -9 -19 -13 -115 -13 -372 l0 -348 -100 0 c-62 0 -113 5 -133 14 -43 18
-95 78 -102 119 -4 19 -5 180 -3 358 5 358 8 379 74 519 102 216 300 372 539
425 93 21 622 20 723 -1z"/>
<path d="M2938 2980 c-43 -13 -84 -47 -102 -84 -24 -51 -24 -452 1 -503 37
-79 144 -109 228 -65 88 46 301 199 322 231 32 47 32 125 0 172 -26 40 -303
231 -358 248 -41 12 -53 13 -91 1z m178 -251 c69 -45 123 -83 122 -84 -22 -20
-241 -165 -244 -162 -8 7 -17 327 -10 327 4 0 63 -37 132 -81z"/>
</g>
</svg>
