<?xml version="1.0" encoding="UTF-8"?>
<svg version="1.1" xmlns="http://www.w3.org/2000/svg" width="512" height="512">
<path d="M0 0 C1.44361001 -0.00302419 2.88721842 -0.00691501 4.33082402 -0.01159257 C8.2798318 -0.02184681 12.22874854 -0.01969734 16.1777637 -0.01541197 C20.44371433 -0.01294007 24.7096433 -0.02196466 28.97558594 -0.02944946 C37.32606971 -0.04218551 45.67652132 -0.04399153 54.02701317 -0.0416492 C60.81589577 -0.03986469 67.60476862 -0.04161854 74.39365005 -0.04587364 C75.84412166 -0.04676643 75.84412166 -0.04676643 77.32389573 -0.04767724 C79.28844888 -0.04888902 81.25300203 -0.05010316 83.21755518 -0.05131962 C101.63268047 -0.06219091 120.04778744 -0.06003459 138.46291377 -0.05393478 C155.30023489 -0.04876577 172.13749816 -0.06002136 188.97480784 -0.07903299 C206.2745112 -0.0984166 223.5741872 -0.10666649 240.87390149 -0.10290974 C250.58190701 -0.10099852 260.2898633 -0.10347761 269.99785995 -0.11762428 C278.26223504 -0.12954568 286.52653057 -0.13093443 294.79090677 -0.11883412 C299.00493828 -0.11295083 303.21882431 -0.11183075 307.43284607 -0.12383652 C311.295605 -0.13471338 315.15809732 -0.13157071 319.02084388 -0.11757483 C320.41308964 -0.11493286 321.80535642 -0.11727867 323.19758151 -0.1253107 C338.77043064 -0.20886891 350.92106992 3.01106745 362.37234497 13.77632141 C374.59851266 26.80118347 374.14746923 42.35760559 374.10842896 59.1410675 C374.11413768 61.35802554 374.12110387 63.57498064 374.12922668 65.79193115 C374.14711799 71.78993788 374.1459972 77.78779798 374.1402843 83.78582335 C374.13718651 88.8030383 374.1432915 93.82022534 374.14932305 98.83743632 C374.16415454 111.35474251 374.160566 123.87197819 374.14845974 136.38927932 C374.13853095 147.23392798 374.1514665 158.07840594 374.17539393 168.92302828 C374.19983803 180.08684221 374.20898095 191.25059441 374.20274121 202.41443884 C374.1993782 208.67066253 374.2017431 214.92674523 374.21899223 221.18294907 C374.23451152 227.06821051 374.23045037 232.95314722 374.21168709 238.83839607 C374.20801497 240.99054593 374.2110692 243.14272013 374.22157288 245.29484749 C374.29615482 261.84782603 373.33191387 275.37557047 361.70437622 288.26069641 C348.67422691 300.66706198 333.46230456 301.57881322 316.20535278 301.48774719 C314.68636075 301.48718171 313.16736818 301.48750231 311.64837646 301.4886322 C307.56239148 301.48920137 303.47652614 301.47751841 299.39056873 301.46348429 C295.10648533 301.45090354 290.82239859 301.44980068 286.53829956 301.44743347 C278.44258289 301.44124014 270.34692082 301.42485866 262.25122809 301.40473449 C253.02743288 301.38230832 243.80363493 301.37136523 234.5798192 301.36134362 C215.62130736 301.34049031 196.66284619 301.30535649 177.70437622 301.26069641 C180.28993506 305.62650763 182.87686875 309.99150028 185.46499634 314.35578918 C186.34247657 315.83587923 187.219602 317.31617969 188.09634399 318.79670715 C193.05399405 327.16796039 198.03781436 335.51594594 203.20437622 343.76069641 C209.03057056 353.08965591 214.6394978 362.53956547 220.23413086 372.00837708 C226.63903758 382.84415592 233.16144719 393.5997563 239.8052063 404.29072571 C240.42290894 405.28628479 241.04061157 406.28184387 241.67703247 407.30757141 C242.21594116 408.17221008 242.75484985 409.03684875 243.31008911 409.9276886 C245.90845098 414.2754291 247.34008129 417.06910499 246.70437622 422.26069641 C245.15454859 425.16662321 244.01281238 426.84778828 240.79812622 427.86225891 C236.72463391 428.51584163 234.27017183 428.50446945 230.70437622 426.26069641 C228.99124146 423.97114563 228.99124146 423.97114563 227.26296997 421.06538391 C226.60627319 419.97258118 225.94957642 418.87977844 225.27297974 417.75386047 C224.56243287 416.54791125 223.85207025 415.34185346 223.14187622 414.13569641 C222.3965998 412.88743804 221.65040647 411.63972671 220.90335083 410.39253235 C218.9054675 407.05077385 216.92065036 403.70144814 214.93960571 400.34968567 C212.86797353 396.84619307 210.78961783 393.34669114 208.71218872 389.84663391 C206.24405463 385.68737875 203.77670522 381.52766797 201.31277466 377.36592102 C196.75754221 369.67733973 192.14543325 362.03497448 187.35501099 354.4901886 C183.97686674 349.13111695 180.70002305 343.71012682 177.41140747 338.29585266 C176.76482178 337.23241638 176.11823608 336.1689801 175.45205688 335.07331848 C173.8689608 332.46943619 172.2864148 329.8652213 170.70437622 327.26069641 C170.70073059 328.43976059 170.69708496 329.61882477 170.69332886 330.83361816 C170.65639438 341.94291549 170.5986385 353.05193523 170.52047348 364.16102123 C170.48095728 369.8723993 170.44878903 375.58362222 170.43338013 381.29512024 C170.41824099 386.80662536 170.38384386 392.31770408 170.3360672 397.82901955 C170.32122514 399.93211983 170.31333359 402.03528097 170.31249237 404.13843346 C170.3101295 407.0835407 170.28310419 410.02746304 170.25027466 412.97236633 C170.25782021 414.277882 170.25782021 414.277882 170.26551819 415.60977173 C170.19515816 419.68698653 170.02423548 421.75504851 167.79525757 425.27871704 C165.29585574 427.64793941 164.31614451 428.19272216 160.89187622 428.57319641 C156.97361172 428.18905283 155.49144355 426.96813325 152.70437622 424.26069641 C151.01346053 420.87886503 151.52336515 417.03485174 151.49905396 413.3129425 C151.48915436 412.38606125 151.47925476 411.45917999 151.46905518 410.50421143 C151.43738802 407.43087852 151.41266214 404.35753013 151.38796997 401.28413391 C151.36740495 399.15706473 151.3464086 397.02999967 151.32499695 394.90293884 C151.26972964 389.29698525 151.22034092 383.69099449 151.17214966 378.0849762 C151.12196862 372.36747418 151.06626484 366.65002631 151.01101685 360.93257141 C150.90337829 349.70865931 150.801946 338.48470024 150.70437622 327.26069641 C150.23325409 328.03689331 149.76213196 328.81309021 149.2767334 329.61280823 C147.48498787 332.56468208 145.6931463 335.51649761 143.90124512 338.46827698 C143.13391489 339.73233334 142.36662013 340.99641122 141.59936523 342.26051331 C136.78569692 350.19127769 131.96576799 358.11818129 127.13873291 366.04081726 C119.39660346 378.74875317 111.76845682 391.52137139 104.21072388 404.33979797 C102.39352816 407.41895536 100.56604975 410.49169569 98.72622681 413.55738831 C97.72613255 415.22443109 96.7313073 416.89463125 95.73660278 418.56489563 C95.13042114 419.55634583 94.5242395 420.54779602 93.89968872 421.56929016 C93.37649048 422.43223694 92.85329224 423.29518372 92.3142395 424.1842804 C90.58013642 426.42094201 89.33418506 427.28227146 86.70437622 428.26069641 C83.89536106 428.47466436 81.38913517 428.10793592 78.70437622 427.26069641 C75.8534561 424.76614131 74.8341113 423.30913686 74.36843872 419.54585266 C74.7950405 415.3740841 76.46408725 412.41088774 78.57937622 408.88569641 C79.19546753 407.82608704 79.19546753 407.82608704 79.82400513 406.74507141 C82.86593488 401.55474269 86.05123254 396.45594422 89.27493286 391.37715149 C94.0122056 383.86947145 98.50041726 376.21474277 103.01687622 368.57319641 C108.79688467 358.7980978 114.61962948 349.06033228 120.64512634 339.43374634 C125.56307392 331.55147814 130.3347812 323.58332349 135.10671997 315.61225891 C135.9444962 314.21418415 136.78234565 312.81615325 137.62026978 311.41816711 C139.6491479 308.03284765 141.6770404 304.64693971 143.70437622 301.26069641 C142.46999424 301.25987926 142.46999424 301.25987926 141.21067524 301.2590456 C121.14413618 301.24404798 101.07781854 301.20148082 81.01140308 301.12860584 C71.30722884 301.09402119 61.60319568 301.0686089 51.8989563 301.06513977 C43.43614305 301.06209078 34.9735815 301.04147508 26.51086539 301.00017184 C22.03401031 300.97892471 17.5575123 300.96619831 13.08060646 300.97454262 C8.85739026 300.98213564 4.63489443 300.96604937 0.41180992 300.93263626 C-1.12915042 300.9244657 -2.67018327 300.92457808 -4.21113586 300.9340992 C-17.6217038 301.00868373 -28.79948481 298.37708735 -39.14328003 289.42475891 C-48.84768276 279.66751914 -52.44568482 267.58429318 -52.4427948 254.16706848 C-52.44647149 253.24908588 -52.45014818 252.33110328 -52.45393628 251.38530302 C-52.46495294 248.30795451 -52.46881357 245.2306398 -52.47262573 242.15327454 C-52.47889199 239.947056 -52.48553894 237.74083852 -52.49253845 235.53462219 C-52.513565 228.28707105 -52.52394075 221.03951974 -52.53390503 213.79194641 C-52.53795336 211.29442331 -52.5420703 208.79690032 -52.54625511 206.29937744 C-52.56312283 195.90737994 -52.57775648 185.51538401 -52.58500385 175.12337494 C-52.58691354 172.42891437 -52.5888339 169.73445382 -52.59078979 167.03999329 C-52.59127354 166.37035189 -52.59175728 165.7007105 -52.59225567 165.01077694 C-52.6005469 154.17545929 -52.62586958 143.34025236 -52.65837047 132.50498301 C-52.69151413 121.36397122 -52.70912703 110.22300541 -52.71264809 99.08194304 C-52.71499484 92.83343454 -52.72390646 86.58510106 -52.74910927 80.3366394 C-52.77245653 74.45312645 -52.77659634 68.56990294 -52.76634789 62.68635559 C-52.76585401 60.53420039 -52.77213044 58.38203062 -52.78590393 56.22991943 C-52.88907909 39.14426646 -51.70604981 25.32042137 -39.41671753 12.26460266 C-27.98940409 1.52985367 -15.06903493 -0.04488687 0 0 Z M-29.29562378 28.26069641 C-33.38408321 34.70061083 -34.44444061 40.40997448 -34.4427948 47.98214722 C-34.44647149 48.88420346 -34.45014818 49.7862597 -34.45393628 50.71565098 C-34.46498593 53.75093549 -34.46881917 56.78618579 -34.47262573 59.82148743 C-34.47888951 61.99287017 -34.48553623 64.16425184 -34.49253845 66.33563232 C-34.50995823 72.24502483 -34.52050331 78.15440925 -34.52874398 84.06382108 C-34.53389303 87.75599829 -34.53996887 91.44817299 -34.54625511 95.14034843 C-34.5653116 106.69259547 -34.57954067 118.2448361 -34.58786708 129.79709584 C-34.59763626 143.13112574 -34.62394559 156.46493946 -34.66436797 169.79891449 C-34.69453782 180.1047799 -34.70933687 190.41059771 -34.71264809 200.71650642 C-34.71499794 206.87161146 -34.72394992 213.0265391 -34.74910927 219.18159676 C-34.7724094 224.97561068 -34.77661521 230.76933064 -34.76634789 236.56337929 C-34.76585286 238.68615446 -34.77216335 240.8089442 -34.78590393 242.93167496 C-34.85713872 254.59214391 -34.86426968 263.91822979 -28.54562378 274.07319641 C-22.95315695 279.51031694 -17.2747069 282.38056627 -9.45709896 282.3977108 C-8.23113756 282.40278534 -7.00517616 282.40785989 -5.74206442 282.4130882 C-4.37433306 282.41368989 -3.00660166 282.41418897 -1.63887024 282.41459656 C-0.19147707 282.41861093 1.25591497 282.42304911 2.70330566 282.42787611 C6.69057466 282.43985055 10.67783154 282.44549209 14.665115 282.45005727 C18.96182527 282.45601014 23.25852105 282.46762085 27.55522156 282.47834778 C37.93749335 282.50288011 48.31976994 282.51750072 58.7020618 282.53040785 C61.63428181 282.53411935 64.56650135 282.53809263 67.49872088 282.54216051 C85.70512626 282.56739803 103.91153238 282.58945246 122.11795139 282.60188866 C126.33596868 282.60481839 130.55398594 282.60778004 134.77200317 282.61079407 C135.82037996 282.61154012 136.86875676 282.61228617 137.94890254 282.61305483 C154.9295724 282.62570671 171.91013751 282.6589269 188.8907584 282.7005959 C206.32247366 282.7430213 223.75413531 282.76658445 241.18590206 282.77180922 C250.97394173 282.77522279 260.76181774 282.78697149 270.54980659 282.81991196 C278.88647851 282.84792201 287.22295323 282.85890763 295.55966855 282.8477165 C299.81212042 282.84253216 304.0641594 282.84540168 308.31655121 282.87018204 C312.2135607 282.89270148 316.10986136 282.89191432 320.00688349 282.87297817 C321.41275954 282.87018187 322.81868393 282.8757562 324.22448236 282.8907911 C334.00021545 282.98890526 341.75781898 281.81882207 349.14187622 275.01460266 C349.65750122 274.2914386 350.17312622 273.56827454 350.70437622 272.82319641 C351.24062622 272.10261047 351.77687622 271.38202454 352.32937622 270.63960266 C355.66382802 264.87062214 355.99559144 259.6170711 355.97180176 253.13378906 C355.97859843 251.76967611 355.97859843 251.76967611 355.9855324 250.37800533 C355.99817563 247.33583939 355.99655607 244.29385249 355.99490356 241.25166321 C356.00088885 239.06836212 356.0076944 236.88506315 356.01525879 234.70176697 C356.03292585 228.77400975 356.03761447 222.84631027 356.03889036 216.91852927 C356.04031211 213.21411078 356.04458216 209.50970697 356.0498848 205.80529213 C356.0693433 192.21120747 356.07641504 178.61716831 356.07473393 165.02307073 C356.07397178 154.97730704 356.08956268 144.93166768 356.11599731 134.88594055 C356.14661643 123.2098838 356.16351353 111.53391892 356.16207087 99.85781986 C356.16156118 93.68100455 356.16724836 87.50434848 356.18842697 81.32756615 C356.20780577 75.51708643 356.20793601 69.70691791 356.19339371 63.89642715 C356.19130409 61.76678449 356.19601555 59.63712237 356.20811462 57.50751305 C356.22359124 54.59416284 356.2142427 51.68188248 356.19885254 48.76855469 C356.21428323 47.51249492 356.21428323 47.51249492 356.23002565 46.23106021 C356.13312667 37.89749918 353.0344417 30.91141525 347.41531372 24.76460266 C341.73458542 19.77126842 335.22876376 18.13809241 327.83371449 18.12926865 C326.02221132 18.12350693 326.02221132 18.12350693 324.17411214 18.11762881 C322.83221545 18.11840905 321.49031881 18.11928783 320.14842224 18.12025452 C318.72420251 18.11767075 317.2999835 18.11465756 315.8757655 18.11125112 C311.95723024 18.10317913 308.0387133 18.10139143 304.12017071 18.10065365 C299.8957572 18.09880343 295.6713532 18.09125622 291.44694519 18.08451843 C282.20720432 18.07093293 272.96746779 18.06490998 263.72771859 18.06050777 C257.95859132 18.05774558 252.18946572 18.05350826 246.42033958 18.0490036 C230.44814948 18.03681039 214.47596072 18.02651135 198.50376606 18.02312851 C197.48137711 18.02290894 196.45898816 18.02268938 195.40561773 18.02246316 C193.86835702 18.02213574 193.86835702 18.02213574 192.30004054 18.02180171 C190.22331194 18.02135824 188.14658334 18.02091168 186.06985474 18.02046204 C184.52465987 18.02012989 184.52465987 18.02012989 182.94824895 18.01979104 C166.25799184 18.01584338 149.56777841 17.99839056 132.87753818 17.97510251 C115.74298832 17.95138747 98.60846036 17.93892658 81.47389382 17.93776059 C71.85306336 17.93684389 62.23228978 17.93109283 52.61147499 17.91294098 C44.41865843 17.89753791 36.22591635 17.89242074 28.03308807 17.90067908 C23.85376425 17.90458492 19.67459039 17.90365927 15.49528503 17.88962173 C11.66636104 17.87687882 7.83769962 17.87808367 4.00877597 17.89021245 C1.97362593 17.89309281 -0.06152866 17.88123661 -2.09664267 17.86879039 C-13.27851759 17.92915441 -21.71322332 19.59754656 -29.29562378 28.26069641 Z " fill="#000000" transform="translate(95.29562377929688,41.73930358886719)"/>
<path d="M0 0 C2.78763345 2.034219 3.80977569 3.3542183 4.78588867 6.66796875 C5.05658361 10.88056228 3.80767347 13.86901564 2.11328125 17.625 C1.79531082 18.36153809 1.47734039 19.09807617 1.1497345 19.85693359 C0.114392 22.24461983 -0.94213447 24.6222184 -2 27 C-2.69204481 28.58284114 -3.38296012 30.16617658 -4.07275391 31.75 C-5.90546142 35.94465911 -7.7583843 40.1300675 -9.61798096 44.31286621 C-11.71231361 49.02417833 -13.79875185 53.73898917 -15.88671875 58.453125 C-16.31380127 59.41679993 -16.74088379 60.38047485 -17.1809082 61.37335205 C-21.51575847 71.15672578 -25.82473852 80.95138134 -30.125 90.75 C-30.49509186 91.59312744 -30.86518372 92.43625488 -31.24649048 93.30493164 C-36.33123153 104.89099883 -41.39630734 116.48554654 -46.44848633 128.08584595 C-48.89758499 133.70869385 -51.34868638 139.330669 -53.79980469 144.95263672 C-55.32741429 148.45646974 -56.8538976 151.96079128 -58.37988281 155.46533203 C-60.40009829 160.10380311 -62.42449904 164.74043024 -64.45141602 169.37597656 C-65.21983044 171.13500139 -65.98696982 172.89458389 -66.75268555 174.65478516 C-79.15245693 203.15245693 -79.15245693 203.15245693 -83 207 C-87.20690111 207.69844304 -90.85011473 207.71867829 -94.5 205.4375 C-96.51820775 202.1579124 -96.80408297 199.85886146 -97 196 C-96.21653589 192.99940018 -94.9619821 190.27746645 -93.65234375 187.47265625 C-93.28967911 186.66001816 -92.92701447 185.84738007 -92.55335999 185.01011658 C-91.36367996 182.35357232 -90.15063221 179.70840569 -88.9375 177.0625 C-88.10043155 175.20327523 -87.2651636 173.34323885 -86.43164062 171.48242188 C-84.75066782 167.73377818 -83.06193232 163.98879749 -81.36669922 160.24658203 C-78.45949272 153.81792953 -75.63228023 147.35560001 -72.81997681 140.88500977 C-71.42139606 137.66987205 -70.0151393 134.45809549 -68.609375 131.24609375 C-68.32326859 130.59208588 -68.03716217 129.938078 -67.74238586 129.26425171 C-63.91938195 120.52691755 -60.08430176 111.79488034 -56.25 103.0625 C-55.87232483 102.2022522 -55.49464966 101.34200439 -55.10552979 100.45568848 C-51.25821789 91.69251466 -47.40970546 82.92987357 -43.55575562 74.1696167 C-42.03753286 70.71825821 -40.5201787 67.26651813 -39.00286865 63.8147583 C-38.25416348 62.1122127 -37.50502171 60.40985903 -36.75543213 58.70770264 C-32.60119601 49.27403471 -28.48641533 39.82591851 -24.453125 30.33984375 C-23.71772948 28.61616025 -22.98221717 26.89252656 -22.24658203 25.16894531 C-20.86183928 21.92399814 -19.48970876 18.67410871 -18.12451172 15.42089844 C-17.50275701 13.96138467 -16.88054963 12.50206362 -16.2578125 11.04296875 C-15.98567932 10.38457504 -15.71354614 9.72618134 -15.4331665 9.0478363 C-13.81933803 5.30120127 -12.17123589 2.5932639 -9 0 C-5.41563853 -1.19478716 -3.63093708 -0.96330984 0 0 Z " fill="#000000" transform="translate(302,89)"/>
<path d="M0 0 C2.70897735 1.66706299 3.67139506 2.91408038 4.58984375 5.94921875 C4.93197076 8.63468145 4.80489244 10.4050603 4 13 C1.14201295 16.59162212 -2.36840733 19.22128137 -6 22 C-7.07456226 22.84948503 -8.14743846 23.70110654 -9.21875 24.5546875 C-11.52569086 26.38531135 -13.84465765 28.19914478 -16.171875 30.00390625 C-20.45533277 33.33811194 -24.66683887 36.75904498 -28.875 40.1875 C-29.58350098 40.76467773 -30.29200195 41.34185547 -31.02197266 41.93652344 C-32.68206054 43.29010191 -34.34114574 44.64490996 -36 46 C-32.10273439 50.05435309 -27.94481641 53.60600364 -23.5625 57.125 C-22.86600342 57.68832031 -22.16950684 58.25164062 -21.4519043 58.83203125 C-17.99418883 61.62108009 -14.51891756 64.38559925 -11.015625 67.1171875 C-10.07867798 67.84784424 -10.07867798 67.84784424 -9.12280273 68.59326172 C-7.95321457 69.50211769 -6.78102191 70.40763632 -5.60571289 71.30908203 C3.57121342 78.42068047 3.57121342 78.42068047 4.62890625 82.31640625 C4.52199244 85.93260854 4.3562502 88.3649453 2.5625 91.5625 C-1.26132825 93.70757438 -4.70730162 93.73304934 -9 93 C-11.94068735 91.4658061 -14.24505284 89.4137794 -16.6875 87.1875 C-18.08619713 85.98186247 -19.48595544 84.77745507 -20.88671875 83.57421875 C-21.57813965 82.96884277 -22.26956055 82.3634668 -22.98193359 81.73974609 C-25.90631526 79.21867862 -28.94397301 76.85815945 -32 74.5 C-39.19053709 68.89258607 -46.26081367 63.13899974 -53.31689453 57.36376953 C-54.82956381 56.1380993 -56.36465955 54.94023074 -57.90234375 53.74609375 C-60.70448564 51.41358458 -60.93716213 50.45781874 -61.4375 46.8125 C-60.63034345 39.77870723 -55.64864263 36.4313173 -50.38378906 32.24926758 C-48.56586379 30.82879266 -46.73749933 29.42277929 -44.90625 28.01953125 C-40.90832716 24.95170867 -37.01731698 21.76248877 -33.125 18.5625 C-27.54935444 14.00048383 -21.88823631 9.57275358 -16.125 5.25 C-15.44066895 4.73638916 -14.75633789 4.22277832 -14.05126953 3.69360352 C-8.64727198 -0.32879171 -6.7414483 -1.51101427 0 0 Z " fill="#000000" transform="translate(195,146)"/>
<path d="M0 0 C2.83203125 1.79296875 2.83203125 1.79296875 5.8125 4.1875 C6.63729858 4.84310913 6.63729858 4.84310913 7.47875977 5.51196289 C9.33156141 6.99333206 11.16722129 8.49393806 13 10 C13.67063477 10.54978516 14.34126953 11.09957031 15.03222656 11.66601562 C17.89582905 14.01707187 20.75581144 16.3723525 23.6081543 18.73706055 C28.22683233 22.56274291 32.89521061 26.31273663 37.625 30 C50.54166667 40.08333333 50.54166667 40.08333333 52 43 C52.50195601 47.35028539 52.49046273 49.32775109 49.87109375 52.91796875 C47.12210413 56.03122378 43.99865314 58.57251284 40.6875 61.0625 C39.44037899 62.02080003 38.19432755 62.98049322 36.94921875 63.94140625 C36.30259277 64.43914551 35.6559668 64.93688477 34.98974609 65.44970703 C31.6155414 68.0786886 28.31067223 70.79177935 25 73.5 C19.80765271 77.72826099 14.61209293 81.9522195 9.375 86.125 C8.81941406 86.57423828 8.26382812 87.02347656 7.69140625 87.48632812 C-0.59399019 94.0481202 -0.59399019 94.0481202 -6.125 93.9375 C-9.61652188 92.79896026 -10.98614124 92.09824425 -13 89 C-14.08310297 85.70359964 -14.08573482 83.30395859 -13 80 C-9.81899186 76.09460387 -5.95723405 73.07912912 -2 70 C-0.8924637 69.11554101 0.21430062 68.23011453 1.3203125 67.34375 C3.62471076 65.50968432 5.94332578 63.69579836 8.2734375 61.89453125 C12.34337302 58.74541045 16.3607455 55.53212718 20.375 52.3125 C21.0359668 51.78285645 21.69693359 51.25321289 22.37792969 50.70751953 C23.91906269 49.47223205 25.45960095 48.2362026 27 47 C23.50924189 43.4259761 19.88888739 40.08965997 16.0625 36.875 C15.50473877 36.40416992 14.94697754 35.93333984 14.37231445 35.44824219 C10.21196781 31.95977793 5.96781298 28.58948942 1.6875 25.25 C0.52204679 24.33084153 -0.64332063 23.41157427 -1.80859375 22.4921875 C-3.73551381 20.9746309 -5.67336061 19.51154164 -7.66015625 18.0703125 C-12.66530767 14.23920894 -12.66530767 14.23920894 -13.6171875 10.71484375 C-13.83242828 6.82151792 -13.49840616 4.68745678 -11.1875 1.5 C-7.18461659 -1.24483434 -4.59442491 -1.19240302 0 0 Z " fill="#000000" transform="translate(326,146)"/>
</svg>
