<?xml version="1.0" encoding="UTF-8"?>
<svg version="1.1" xmlns="http://www.w3.org/2000/svg" width="512" height="512">
<path d="M0 0 C1.50338816 -0.00461921 3.0067718 -0.01097893 4.51014614 -0.01890898 C8.60597471 -0.03548556 12.70142672 -0.02740968 16.79725599 -0.0149641 C21.22815367 -0.00586769 25.65898918 -0.01990598 30.08987427 -0.03088379 C38.75601621 -0.04862483 47.4220192 -0.04484876 56.08816648 -0.03323323 C63.13438124 -0.02418175 70.1805572 -0.02298231 77.22677612 -0.02732849 C78.23149285 -0.02794142 79.23620957 -0.02855436 80.27137226 -0.02918586 C82.31274582 -0.03046483 84.35411937 -0.03176168 86.39549291 -0.03307623 C105.51556839 -0.04446909 124.63556702 -0.03138863 143.7556299 -0.00987476 C160.14417259 0.00799503 176.53260193 0.00489056 192.92114258 -0.0135498 C211.97507752 -0.03497938 231.0289452 -0.04337058 250.08289051 -0.03110075 C252.1165498 -0.02982662 254.1502091 -0.02856913 256.18386841 -0.02732849 C257.18434045 -0.02671139 258.18481249 -0.02609429 259.21560186 -0.02545848 C266.2493724 -0.02201185 273.28310011 -0.02781911 280.31686401 -0.0372467 C288.89439032 -0.04849128 297.47177029 -0.04537507 306.04927993 -0.02412373 C310.42158796 -0.01364633 314.79365244 -0.00943466 319.1659584 -0.02272034 C323.17553931 -0.03471914 327.18465299 -0.02795977 331.19419205 -0.00681013 C332.63749298 -0.00237554 334.08083413 -0.00453881 335.52410877 -0.01431328 C349.85548864 -0.10385684 363.36489167 2.79470436 374.14672852 12.76574707 C384.60250299 23.75550673 388.00880752 35.0368594 387.99584961 49.90930176 C388.00256683 51.02570541 388.00928406 52.14210907 388.01620483 53.29234314 C388.03512318 56.96321114 388.03910497 60.63389594 388.04125977 64.30480957 C388.0476885 66.86212234 388.05441691 69.41943438 388.06143188 71.97674561 C388.0733867 77.32619226 388.0772001 82.67557096 388.07592773 88.02502441 C388.07472306 94.20550195 388.09590149 100.38563214 388.12741506 106.56602168 C388.15670751 112.52369204 388.16390443 118.48125595 388.16270828 124.43900299 C388.16507171 126.97001827 388.1739367 129.501036 388.18937302 132.03200531 C388.20890471 135.56301604 388.20324637 139.0931211 388.19116211 142.62414551 C388.20240112 143.67253098 388.21364014 144.72091644 388.22521973 145.80107117 C388.16381047 152.83995107 388.16381047 152.83995107 385.88980103 156.15301514 C382.609222 158.18778899 380.4840487 158.10457559 376.70532227 157.50793457 C373.78242189 155.47580042 371.98216459 153.86796746 371.2534771 150.28817177 C371.07618911 147.45313806 371.06759362 144.65812107 371.109375 141.81774902 C371.10531647 140.74068192 371.10125793 139.66361481 371.09707642 138.5539093 C371.0915594 136.2169373 371.09756697 133.87991612 371.11373711 131.54299355 C371.13913865 127.83874889 371.13436302 124.13561823 371.12184143 120.43132019 C371.10283869 113.22889184 371.11675033 106.02680481 371.13731384 98.82439423 C371.16417694 89.0516203 371.17033999 79.27917219 371.14232063 69.50639915 C371.13896963 65.86694894 371.1601542 62.22818996 371.182724 58.58882141 C371.18021107 56.34091036 371.17664938 54.09300016 371.171875 51.84509277 C371.18476059 50.84161804 371.19764618 49.83814331 371.21092224 48.80426025 C371.15484767 40.84711853 369.31858229 33.63742316 364.45532227 27.19543457 C354.84232511 17.80091462 345.18984746 17.20968792 332.27056885 17.24050903 C330.7874366 17.23677029 329.30430632 17.23216787 327.82117915 17.22677839 C323.75364209 17.21456064 319.68618735 17.21480741 315.61863613 17.21716714 C311.22858352 17.21757562 306.83855718 17.20653319 302.44851685 17.197052 C293.85044374 17.18044766 285.25239806 17.17494271 276.65431026 17.17382725 C269.66419715 17.17287649 262.67409309 17.16876479 255.68398285 17.16242599 C235.85954737 17.14481498 216.03513353 17.13558688 196.21069017 17.13708694 C195.14221954 17.13716686 194.07374892 17.13724677 192.97290039 17.1373291 C191.903123 17.13741086 190.83334561 17.13749262 189.73115072 17.13757686 C172.39576566 17.13838968 155.0604675 17.11925268 137.72510758 17.09105237 C119.91922126 17.06231553 102.11337732 17.04851252 84.30746722 17.05023992 C74.31325024 17.05090355 64.31912436 17.04542294 54.32492828 17.02388382 C45.81528515 17.0056615 37.30577441 17.00133332 28.7961202 17.01490267 C24.45649509 17.02142705 20.1171239 17.02156874 15.77752304 17.00419617 C11.7998959 16.9884368 7.82272342 16.99135799 3.84510717 17.00876443 C2.41107699 17.01182806 0.97701264 17.00822604 -0.45697722 16.99704428 C-11.259403 16.9184323 -21.60742937 17.99600282 -29.79467773 25.73059082 C-34.55134925 31.36675107 -37.41140554 37.50253875 -37.42889881 44.89215279 C-37.43335666 45.76828228 -37.4378145 46.64441178 -37.44240743 47.54709065 C-37.44222307 48.50524611 -37.4420387 49.46340157 -37.44184875 50.45059204 C-37.44552544 51.47192572 -37.44920213 52.49325941 -37.45299023 53.5455426 C-37.46403051 56.9784869 -37.46787152 60.41140094 -37.47167969 63.84436035 C-37.47794408 66.30160112 -37.48459086 68.75884094 -37.49159241 71.21607971 C-37.51082096 78.59754187 -37.52142091 85.97899599 -37.5303202 93.36047584 C-37.53470616 96.83889881 -37.54007218 100.31732026 -37.54530907 103.79574203 C-37.56231982 115.36294043 -37.57681309 126.93013789 -37.58405781 138.49734688 C-37.58596762 141.49794643 -37.58788796 144.49854598 -37.58984375 147.49914551 C-37.59056936 148.6177843 -37.59056936 148.6177843 -37.59130963 149.75902186 C-37.59960662 161.83476408 -37.62493859 173.91040712 -37.65742443 185.98610605 C-37.69052453 198.39155909 -37.70850924 210.79696179 -37.71170205 223.20245922 C-37.71386445 230.16460819 -37.72257344 237.12661256 -37.74816322 244.08871841 C-37.77218882 250.64028917 -37.77567739 257.19164691 -37.76540184 263.74326897 C-37.76490635 266.14501625 -37.77123071 268.54677632 -37.78495789 270.94848442 C-37.80268121 274.23375849 -37.79556759 277.5181 -37.78242493 280.80337524 C-37.79339417 281.74814637 -37.80436342 282.6929175 -37.81566507 283.66631806 C-37.73089997 292.475597 -35.14550453 300.43567062 -29.07202148 306.97277832 C-22.76470486 312.42063642 -16.39225517 314.62870889 -8.17693138 314.64215565 C-6.91414498 314.64661349 -5.65135857 314.65107134 -4.35030591 314.65566427 C-2.94621427 314.65557497 -1.54212263 314.65538512 -0.13803101 314.65510559 C1.351473 314.65840512 2.8409761 314.66213087 4.33047807 314.66624707 C8.42950561 314.67626509 12.52851851 314.67998354 16.62755656 314.68263638 C21.04626637 314.68654001 25.46496458 314.6961183 29.88366699 314.70484924 C40.55770355 314.72461184 51.23174106 314.73467954 61.90579134 314.74357703 C66.93230569 314.74796021 71.95881898 314.75332694 76.98533249 314.7585659 C93.69440047 314.77557787 110.40346779 314.79007213 127.11254311 314.79731464 C131.44864528 314.79922454 135.78474745 314.80114487 140.12084961 314.80310059 C141.19856705 314.80358433 142.27628448 314.80406807 143.38666002 314.80456647 C160.84577084 314.81286713 178.30481314 314.83820483 195.76389404 314.87068126 C213.68832704 314.90375153 231.61272522 314.92176337 249.53718889 314.92495888 C259.6012887 314.92712399 269.6652886 314.93587283 279.72935867 314.96142006 C288.30021428 314.98312657 296.87094572 314.9911777 305.4418257 314.98145328 C309.81371471 314.97690847 314.18534751 314.97880531 318.55720139 314.99821472 C322.56326 315.01584629 326.5688755 315.01484891 330.57493882 314.99931743 C332.02048426 314.99694134 333.46606038 315.00126505 334.91155894 315.01314608 C345.70642658 315.09634278 355.00178509 313.87434145 363.17016602 306.28527832 C368.06254759 300.62107064 370.81929418 294.39242041 370.84335327 286.92250061 C370.85153328 285.54937714 370.85153328 285.54937714 370.85987854 284.14851379 C370.86092087 283.15151962 370.8619632 282.15452545 370.86303711 281.12731934 C370.86811783 280.0716275 370.87319855 279.01593567 370.87843323 277.92825317 C370.88913208 275.63600557 370.89775416 273.34374755 370.90455246 271.05148506 C370.91634017 267.42460286 370.93579182 263.7978398 370.95767212 260.17100525 C371.01930013 249.85912018 371.07337816 239.54724801 371.10668945 229.23522949 C371.12761262 222.92817383 371.16289463 216.62133651 371.20744705 210.31440544 C371.22162314 207.9098562 371.2303331 205.50526834 371.23350143 203.1006794 C371.23839988 199.73953454 371.26153028 196.37897137 371.28881836 193.01794434 C371.28581223 192.0229744 371.28280609 191.02800446 371.27970886 190.00288391 C371.33936883 185.06445738 371.38751399 181.46740135 374.70532227 177.50793457 C376.57250977 176.62512207 376.57250977 176.62512207 378.58032227 176.38293457 C379.23774414 176.27723145 379.89516602 176.17152832 380.57250977 176.06262207 C384.20307348 176.82065186 385.47224243 178.59625982 387.70532227 181.50793457 C388.44925426 185.05162105 388.37826366 188.54045519 388.33642578 192.1505127 C388.34715874 193.75888504 388.34715874 193.75888504 388.35810852 195.39974976 C388.37502256 198.94666099 388.35556507 202.49231232 388.33422852 206.03918457 C388.33505744 208.51196395 388.33751772 210.98474328 388.34153748 213.45751953 C388.344398 218.64604234 388.32967723 223.83413414 388.30224609 229.02258301 C388.26830625 235.64541173 388.27413208 242.26746248 388.29290867 248.89032745 C388.30352876 254.00189586 388.29449299 259.11328634 388.27952385 264.22483826 C388.27436867 266.66466237 388.27479119 269.1045053 388.2810688 271.54432678 C388.30673166 287.524158 388.23766369 301.00378422 378.70532227 314.50793457 C379.66402222 314.52195312 379.66402222 314.52195312 380.64208984 314.53625488 C407.67041962 315.03339484 407.67041962 315.03339484 415.05688477 321.59777832 C422.64398902 329.6540498 423.25431144 336.29865599 423.01391602 346.92199707 C422.38982058 359.54374461 415.82941189 371.39728432 406.63891602 379.95324707 C396.47186771 388.1279647 384.51083702 392.62668995 371.50183773 392.63936234 C370.42477097 392.64244129 370.42477097 392.64244129 369.32594529 392.64558244 C366.91331947 392.65124912 364.50075081 392.64979559 362.08811951 392.64837646 C360.34344052 392.6509603 358.59876213 392.65397351 356.85408455 392.65737987 C352.0542784 392.66545112 347.25448721 392.66723951 342.45467508 392.66797733 C337.27997523 392.66982769 332.10528314 392.67737499 326.93058777 392.68411255 C315.61225833 392.69769776 304.29393243 392.70372102 292.97559619 392.70812321 C285.9080725 392.71088557 278.84055018 392.71512294 271.77302742 392.71962738 C252.20475443 392.73182079 232.63648254 392.74211964 213.06820583 392.74550247 C211.81563301 392.74572204 210.56306019 392.7459416 209.27253062 392.74616782 C208.01695868 392.7463861 206.76138675 392.74660438 205.46776718 392.74682927 C202.92349843 392.74727274 200.37922968 392.7477193 197.83496094 392.74816895 C196.57291551 392.74839038 195.31087008 392.7486118 194.01058085 392.74883994 C173.56536585 392.75278713 153.12018651 392.77023842 132.67498528 392.79352847 C111.68365727 392.81724756 90.69234715 392.82970459 69.70100552 392.83087039 C57.91542657 392.83178689 46.12989407 392.83753281 34.34432793 392.85569 C24.30746199 392.87109856 14.27065685 392.876207 4.23378133 392.8679519 C-0.88563449 392.86404797 -6.00492789 392.86496252 -11.12432861 392.87900925 C-15.81565062 392.89176345 -20.5067584 392.89053725 -25.19808017 392.87841853 C-26.89059806 392.87646417 -28.5831312 392.87952789 -30.27562768 392.8882629 C-48.2273698 392.97500796 -62.6358681 389.67514594 -76.00561523 376.98449707 C-85.21373348 367.02213023 -89.57575115 355.69782402 -89.79467773 342.25793457 C-89.81328857 341.51342041 -89.83189941 340.76890625 -89.85107422 340.00183105 C-89.77548373 333.39757096 -87.67002441 328.381748 -83.47045898 323.30090332 C-82.85557617 322.77109863 -82.24069336 322.24129395 -81.60717773 321.69543457 C-81.00518555 321.15273926 -80.40319336 320.61004395 -79.78295898 320.05090332 C-72.40733829 315.47732377 -64.72910679 315.00806392 -56.23217773 314.82043457 C-55.17579102 314.78627441 -54.1194043 314.75211426 -53.03100586 314.71691895 C-50.45233616 314.63524162 -47.87397212 314.56583514 -45.29467773 314.50793457 C-46.03717773 313.45605957 -46.77967773 312.40418457 -47.54467773 311.32043457 C-55.67117637 297.92957229 -54.86191426 283.92737186 -54.79638672 268.78259277 C-54.80017435 266.28461402 -54.80567804 263.78663736 -54.8127594 261.28866577 C-54.82522989 255.23435783 -54.81918971 249.18033287 -54.80408382 243.12605254 C-54.78714116 236.06438268 -54.7904442 229.00276392 -54.7941779 221.94108 C-54.80004305 209.33693918 -54.78593617 196.73289859 -54.76123047 184.12878418 C-54.73729832 171.9178085 -54.73023389 159.7069666 -54.74072266 147.49597168 C-54.75214723 134.17179655 -54.75404412 120.84768313 -54.73962456 107.52350873 C-54.73809884 106.10131181 -54.73657848 104.67911488 -54.73506355 103.25691795 C-54.73430574 102.5573118 -54.73354792 101.85770564 -54.73276715 101.1368993 C-54.7280374 96.22220584 -54.72986632 91.30754008 -54.73412895 86.39284706 C-54.73958676 79.77302597 -54.72875492 73.15336245 -54.7071743 66.53356552 C-54.70162075 64.10763738 -54.70112794 61.68169145 -54.70612717 59.2557621 C-54.71210536 55.93823385 -54.69952583 52.62126518 -54.68235779 49.30378723 C-54.68836783 48.34959139 -54.69437788 47.39539554 -54.70057005 46.41228467 C-54.57663287 33.19380387 -49.48310963 22.18383924 -40.51342773 12.57824707 C-29.21458325 2.03531119 -14.89117942 -0.10084941 0 0 Z M-71.29467773 334.50793457 C-74.30330284 339.02087223 -73.8501303 343.21724892 -73.29467773 348.50793457 C-70.60450152 358.93236741 -64.3748415 366.87682526 -55.29467773 372.50793457 C-48.99509568 375.83994491 -43.20980092 376.63242332 -36.14807606 376.63936234 C-35.43618585 376.64141497 -34.72429565 376.6434676 -33.99083301 376.64558244 C-31.59916203 376.65124861 -29.20754871 376.64979566 -26.81587219 376.64837646 C-25.08626702 376.65096032 -23.35666244 376.65397354 -21.62705868 376.65737987 C-16.86899758 376.66545072 -12.11095155 376.66723949 -7.35288441 376.66797733 C-2.22321297 376.66982773 2.90645064 376.677375 8.03611755 376.68411255 C19.25514231 376.69769693 30.47416349 376.70372073 41.6931951 376.70812321 C48.69771955 376.71088541 55.70224262 376.71512272 62.70676613 376.71962738 C82.09832898 376.7318201 101.48989073 376.74211946 120.88145733 376.74550247 C122.74326558 376.74583182 122.74326558 376.74583182 124.64268612 376.74616782 C126.50896071 376.74649524 126.50896071 376.74649524 128.41293782 376.74682927 C130.93414605 376.74727274 133.45535427 376.7477193 135.9765625 376.74816895 C137.22717009 376.74839038 138.47777768 376.7486118 139.76628248 376.74883994 C160.031786 376.75278818 180.29725357 376.77024297 200.56274321 376.79352847 C221.36647952 376.81723958 242.17019778 376.82970421 262.97394782 376.83087039 C274.65550527 376.83178728 286.33701587 376.83754305 298.01856041 376.85569 C307.96545309 376.87108771 317.91228445 376.87621337 327.85918679 376.8679519 C332.93379934 376.86404427 338.00828838 376.86498059 343.08288574 376.87900925 C347.73092731 376.89174114 352.37875246 376.89055683 357.0267937 376.87841853 C358.70581715 376.87646032 360.3848559 376.87954574 362.06385788 376.8882629 C375.72966009 376.95470626 387.13155188 375.64251404 397.45922852 365.84387207 C404.37794126 358.24889417 407.07578111 350.30563019 406.99438477 340.14465332 C406.6020932 336.56631807 405.41681623 334.83207225 402.70532227 332.50793457 C399.74489054 331.52112399 397.83703385 331.38448202 394.75093079 331.38768005 C393.72869415 331.38630539 392.70645752 331.38493073 391.65324402 331.3835144 C390.53259048 331.38710968 389.41193695 331.39070496 388.25732422 331.39440918 C387.0767041 331.39426315 385.89608398 331.39411713 384.6796875 331.39396667 C381.44234785 331.39454433 378.20505132 331.39956275 374.96772027 331.40654063 C371.58445437 331.41278809 368.20118765 331.41337907 364.81791687 331.41456604 C358.41126011 331.41767524 352.00462039 331.4258831 345.59797114 331.43591553 C338.30420958 331.44708941 331.01044721 331.45259034 323.71667922 331.45761096 C308.71288406 331.46806604 293.70910487 331.48565755 278.70532227 331.50793457 C278.59140137 332.38256348 278.47748047 333.25719238 278.36010742 334.1583252 C278.11719971 335.89372559 278.11719971 335.89372559 277.86938477 337.66418457 C277.71421387 338.80693848 277.55904297 339.94969238 277.39916992 341.1270752 C276.00967636 347.89755616 272.66340663 353.5330742 266.95532227 357.50793457 C257.56293885 362.32476432 247.10293471 361.80597653 236.81079102 361.77355957 C235.29006386 361.77490968 233.76933714 361.77685308 232.24861145 361.77935791 C229.08090047 361.78228845 225.91330313 361.77807577 222.74560547 361.76867676 C218.69274798 361.75723436 214.64015406 361.76388485 210.58730602 361.77582169 C207.45514443 361.78305486 204.32304521 361.78074651 201.19088173 361.7755661 C199.69620037 361.77423617 198.20151326 361.77585424 196.70683861 361.78052521 C194.62048718 361.78561997 192.53456196 361.77784147 190.44824219 361.76672363 C189.26372971 361.76513245 188.07921722 361.76354126 186.85881042 361.76190186 C183.49045337 361.49063003 180.18762874 360.99024104 177.70532227 358.50793457 C177.50219727 356.51184082 177.50219727 356.51184082 177.45532227 354.07043457 C177.41665039 352.86580566 177.41665039 352.86580566 177.37719727 351.63684082 C177.53961914 350.58303223 177.53961914 350.58303223 177.70532227 349.50793457 C181.37810427 347.05941323 183.19425022 347.24623457 187.57592773 347.2208252 C188.27059143 347.21399216 188.96525513 347.20715912 189.68096924 347.20011902 C191.18854412 347.18653623 192.69616503 347.17747958 194.20379257 347.17240906 C196.59151993 347.16411856 198.97886506 347.14361166 201.3664856 347.11987305 C206.43770774 347.07163857 211.50896812 347.03872014 216.58032227 347.00793457 C222.45055164 346.97224549 228.32059476 346.93026474 234.19064713 346.87199402 C236.53987366 346.85196285 238.8889567 346.8436128 241.23825073 346.83569336 C242.68414832 346.82271601 244.13004116 346.80919497 245.57592773 346.79504395 C246.83484833 346.78775269 248.09376892 346.78046143 249.39083862 346.77294922 C253.63201878 346.43383912 256.48392654 345.35612605 259.95532227 342.94543457 C262.53028819 339.77900023 262.53028819 339.77900023 262.70532227 331.50793457 C199.34532227 331.50793457 135.98532227 331.50793457 70.70532227 331.50793457 C70.85364094 339.94005212 70.85364094 339.94005212 74.01782227 343.50793457 C78.46859419 346.82013693 82.2414643 346.64018896 87.72119141 346.68151855 C88.76822487 346.69154907 88.76822487 346.69154907 89.83641052 346.70178223 C91.34780723 346.71579989 92.8592247 346.72770431 94.37065315 346.73773003 C96.7620263 346.75417651 99.15324459 346.77741332 101.54454041 346.80262756 C108.34195217 346.87332027 115.13942495 346.93362308 121.93701172 346.98474121 C126.0978978 347.0165062 130.25860154 347.05776765 134.41934013 347.1049366 C136.00495573 347.12096261 137.59061324 347.13328142 139.1762867 347.1418438 C141.39066266 347.15397868 143.60460814 347.17811776 145.81884766 347.20495605 C147.70936607 347.22041725 147.70936607 347.22041725 149.63807678 347.2361908 C152.70532227 347.50793457 152.70532227 347.50793457 155.70532227 349.50793457 C156.06860352 351.60168457 156.06860352 351.60168457 156.01782227 354.00793457 C156.01395508 354.80199707 156.01008789 355.59605957 156.00610352 356.41418457 C155.70532227 358.50793457 155.70532227 358.50793457 153.70532227 360.50793457 C150.21825988 361.76344499 146.75063105 361.64139506 143.07592773 361.65319824 C142.41841019 361.65655685 141.76089264 361.65991547 141.08345032 361.66337585 C138.91311746 361.67286054 136.74286206 361.67482818 134.57250977 361.67590332 C133.05518564 361.67911928 131.53786182 361.6824836 130.02053833 361.68598938 C126.83798505 361.69197563 123.6554589 361.69382996 120.47290039 361.6932373 C116.41813944 361.69313609 112.36355521 361.70674824 108.30883598 361.72400951 C105.17218243 361.7351981 102.03557054 361.73715436 98.89889908 361.73662758 C97.40555339 361.73779892 95.91220631 361.74217258 94.41888046 361.74995995 C70.78740429 361.8615886 70.78740429 361.8615886 62.70532227 354.50793457 C58.35740423 349.32908108 56.44754778 344.33852993 55.54125977 337.66418457 C55.37932129 336.50725098 55.21738281 335.35031738 55.05053711 334.1583252 C54.87965576 332.84638184 54.87965576 332.84638184 54.70532227 331.50793457 C39.01526009 331.43783847 23.32524022 331.3849435 7.63506031 331.35249805 C0.34975257 331.33703232 -6.93545785 331.3159485 -14.22070312 331.28161621 C-20.57088531 331.25170476 -26.92099701 331.23235743 -33.27124768 331.22566909 C-36.63336082 331.22175975 -39.99527231 331.21257865 -43.35732079 331.1907444 C-47.11154594 331.1690189 -50.86535117 331.16596568 -54.61962891 331.1673584 C-56.28982338 331.15117966 -56.28982338 331.15117966 -57.99375916 331.13467407 C-59.5312381 331.14086006 -59.5312381 331.14086006 -61.09977722 331.14717102 C-61.98746387 331.14440564 -62.87515051 331.14164026 -63.78973675 331.13879108 C-66.90306645 331.59759047 -68.7565674 332.67087062 -71.29467773 334.50793457 Z " fill="#000000" transform="translate(89.294677734375,59.4920654296875)"/>
<path d="M0 0 C1.48512833 -0.0064789 2.9702485 -0.01513353 4.45535284 -0.0257743 C8.53303268 -0.04859284 12.61014209 -0.04020218 16.6878413 -0.02663505 C21.08673225 -0.01738641 25.48550941 -0.03686659 29.8843689 -0.0526123 C38.50067835 -0.07871444 47.11677926 -0.07760714 55.73311322 -0.06657412 C62.73569565 -0.05801913 69.7382177 -0.05884377 76.74080086 -0.06637001 C78.23524493 -0.06795234 78.23524493 -0.06795234 79.75987979 -0.06956664 C81.78379048 -0.07173755 83.80770116 -0.07392432 85.83161182 -0.07612679 C104.81509555 -0.09556214 123.79846225 -0.08355357 142.78193641 -0.06134085 C159.07187584 -0.04309094 175.36158861 -0.05399124 191.65150452 -0.08564758 C210.56507937 -0.12240039 229.47851264 -0.13943531 248.39212328 -0.12623531 C250.40893302 -0.1248942 252.42574278 -0.12358522 254.44255257 -0.12230873 C255.43487735 -0.12167807 256.42720214 -0.1210474 257.44959737 -0.12039762 C264.44355251 -0.11736902 271.43740095 -0.12863669 278.43133354 -0.14555931 C286.95509424 -0.16587262 295.47853505 -0.16503254 304.00227898 -0.13692691 C308.35162822 -0.1231427 312.70041885 -0.11899472 317.04974747 -0.14087677 C321.03174241 -0.16064615 325.01268595 -0.15269557 328.99460799 -0.12268243 C330.4346457 -0.1166765 331.87476869 -0.12078198 333.31473803 -0.13604566 C345.39565077 -0.25476478 345.39565077 -0.25476478 349.93785954 3.31384563 C355.16087127 8.9418433 354.94930138 15.19220718 354.91928101 22.45863342 C354.92310655 23.44225156 354.9269321 24.42586971 354.93087357 25.43929446 C354.9411856 28.73254861 354.93721479 32.02562782 354.9332428 35.31889343 C354.93759027 37.68115398 354.94277353 40.04341312 354.94873047 42.40567017 C354.96212811 48.82095255 354.96269826 55.23617605 354.96016717 61.65146971 C354.95888357 65.65940437 354.96150587 69.66733337 354.96515465 73.67526627 C354.96574984 74.3410056 354.96634503 75.00674494 354.96695825 75.69265819 C354.96817003 77.04520014 354.96938416 78.39774209 354.97060063 79.75028403 C354.98147281 92.42971561 354.97931526 105.10912059 354.97321578 117.78855367 C354.96804753 129.38051646 354.97930019 140.97239519 354.998314 152.56434135 C355.01770023 164.47490859 355.02594699 176.38543608 355.02219075 188.2960192 C355.02027981 194.97969742 355.023021 201.66331462 355.03690529 208.34698105 C355.04947401 214.63264376 355.04754839 220.91813818 355.0344944 227.20379829 C355.03212698 229.50962569 355.0348692 231.8154649 355.04311752 234.12127876 C355.05357239 237.27127926 355.04549396 240.42071376 355.0328064 243.57069397 C355.04018068 244.48101706 355.04755497 245.39134015 355.05515271 246.32924879 C355.00637411 252.09429132 354.12770061 256.40225099 351.65858459 261.64164734 C346.41734108 265.9907643 342.32832786 266.76529572 335.69142532 266.7730751 C334.46223948 266.77691625 333.23305363 266.78075739 331.96661973 266.78471494 C330.60045252 266.7839347 329.23428537 266.78305592 327.86811829 266.78208923 C326.41843707 266.78467294 324.96875657 266.78768612 323.51907706 266.79109263 C319.53020181 266.79916522 315.54134455 266.80095235 311.5524621 266.8016901 C307.25240248 266.8035402 302.9523522 266.81108731 298.65229797 266.81782532 C289.24734024 266.8314109 279.84238676 266.83743368 270.43742085 266.84183598 C264.56578544 266.84459796 258.69415169 266.84883523 252.8225174 266.85334015 C236.56809721 266.86553301 220.31367835 266.87583236 204.05925369 266.87921524 C203.01880751 266.87943481 201.97836133 266.87965437 200.90638648 266.87988059 C199.86344086 266.88009887 198.82049525 266.88031715 197.74594522 266.88054204 C195.63251511 266.88098551 193.51908501 266.88143207 191.40565491 266.88188171 C190.357319 266.88210314 189.30898309 266.88232457 188.22887942 266.88255271 C171.2404869 266.88650108 154.25213727 266.90395622 137.26376131 266.92724124 C119.82524297 266.95095047 102.38674615 266.96341689 84.94821143 266.96458316 C75.15582682 266.96550015 65.36349808 266.97125852 55.57112885 266.98940277 C47.23299079 267.00479795 38.89492588 267.00992765 30.55677631 267.00166467 C26.30264254 266.99775613 22.04865609 266.99869768 17.79454041 267.01272202 C13.89843814 267.02544864 10.0025941 267.0242744 6.10649225 267.0121313 C4.69867014 267.01017216 3.29082982 267.01326284 1.88303331 267.02197567 C-5.4904458 267.06471282 -11.69336934 267.02948172 -18.34141541 263.64164734 C-22.13174351 259.07381603 -23.4628468 255.23374151 -23.47284317 249.40522289 C-23.47668432 248.56207726 -23.48052546 247.71893162 -23.484483 246.85023612 C-23.48361652 245.92894378 -23.48275004 245.00765145 -23.4818573 244.05844116 C-23.48482842 243.0758263 -23.48779954 242.09321145 -23.4908607 241.08082038 C-23.49955161 237.77906598 -23.50105628 234.47734782 -23.50254822 231.17558289 C-23.50717608 228.81199567 -23.51220069 226.4484092 -23.51759338 224.08482361 C-23.53209102 216.9866559 -23.5381017 209.88849595 -23.5429889 202.79031608 C-23.54556748 199.44649131 -23.54935756 196.102668 -23.55310822 192.75884438 C-23.5652992 181.64200206 -23.5755991 170.52516166 -23.57898331 159.4083128 C-23.57920287 158.6970199 -23.57942244 157.98572701 -23.57964866 157.25287979 C-23.57986694 156.53989794 -23.58008521 155.82691609 -23.58031011 155.09232873 C-23.58075357 153.64758662 -23.58120013 152.20284452 -23.58164978 150.75810242 C-23.58187121 150.04146244 -23.58209264 149.32482246 -23.58232078 148.58646611 C-23.58626882 136.97430559 -23.60372376 125.36220783 -23.6270093 113.75007155 C-23.65072938 101.82488775 -23.66318544 89.89973543 -23.66435122 77.97452766 C-23.66526758 71.28021808 -23.67132882 64.5860027 -23.68917084 57.8917141 C-23.7056256 51.59542071 -23.70781955 45.29928266 -23.69903183 39.00297546 C-23.69826009 36.6918884 -23.70262208 34.38079307 -23.71249008 32.06972694 C-23.72517104 28.91490033 -23.7193534 25.76062705 -23.70890808 22.60580444 C-23.71696449 21.69120427 -23.72502089 20.7766041 -23.73332143 19.83428878 C-23.68020834 12.97561586 -22.40145665 8.24677025 -18.05025387 2.7442503 C-12.95210358 -1.05360594 -6.05140734 -0.04788864 0 0 Z M-7.34141541 16.64164734 C-7.34141541 93.86164734 -7.34141541 171.08164734 -7.34141541 250.64164734 C106.83858459 250.64164734 221.01858459 250.64164734 338.65858459 250.64164734 C338.65858459 173.42164734 338.65858459 96.20164734 338.65858459 16.64164734 C224.47858459 16.64164734 110.29858459 16.64164734 -7.34141541 16.64164734 Z " fill="#000000" transform="translate(90.34141540527344,92.35835266113281)"/>
<path d="M0 0 C1.11963764 -0.00779995 2.23927528 -0.01559991 3.39284134 -0.02363622 C7.15252632 -0.04361355 10.91120556 -0.02776793 14.67089844 -0.01205444 C17.3630266 -0.01882801 20.05508497 -0.02754836 22.74719238 -0.03860474 C29.30490308 -0.06084455 35.86232774 -0.05603281 42.42004967 -0.04154153 C47.74933597 -0.03025214 53.07854208 -0.02871707 58.40783691 -0.03416061 C59.54532879 -0.03530986 59.54532879 -0.03530986 60.70580029 -0.03648233 C62.24630199 -0.03808094 63.78680367 -0.03970201 65.32730532 -0.04134528 C79.77453711 -0.05560495 94.22161031 -0.0392067 108.66881609 -0.01234345 C121.06672505 0.00999557 133.46439995 0.00611551 145.86230469 -0.01693726 C160.25762664 -0.04369147 174.65280958 -0.05423164 189.04815292 -0.03887594 C190.58300525 -0.03728318 192.11785759 -0.03571133 193.65270996 -0.03416061 C194.78549153 -0.03300355 194.78549153 -0.03300355 195.94115758 -0.03182311 C201.26439452 -0.02750495 206.58754331 -0.0347951 211.9107666 -0.04655838 C218.39757525 -0.06057777 224.88408137 -0.05679559 231.37085533 -0.03015466 C234.68099381 -0.01700836 237.99052317 -0.01456578 241.30067444 -0.02840042 C244.88780584 -0.04201303 248.47350722 -0.0249891 252.06054688 0 C253.63276442 -0.01673041 253.63276442 -0.01673041 255.23674393 -0.03379881 C259.99059713 0.0306793 262.28051891 0.07444342 266.17681885 2.9871006 C268.03027344 5.63491821 268.03027344 5.63491821 268.65527344 8.63491821 C267.78006207 12.83593275 266.47410019 14.06050483 263.03027344 16.63491821 C259.37809365 17.38153816 255.77757789 17.30939041 252.06054688 17.26983643 C250.94090923 17.27763638 249.82127159 17.28543633 248.66770554 17.29347265 C244.90802056 17.31344998 241.14934131 17.29760436 237.38964844 17.28189087 C234.69752028 17.28866443 232.00546191 17.29738478 229.31335449 17.30844116 C222.7556438 17.33068098 216.19821914 17.32586923 209.64049721 17.31137796 C204.3112109 17.30008857 198.98200479 17.29855349 193.65270996 17.30399704 C192.51521809 17.30514629 192.51521809 17.30514629 191.35474658 17.30631875 C189.81424488 17.30791737 188.27374321 17.30953844 186.73324156 17.31118171 C172.28600976 17.32544138 157.83893657 17.30904312 143.39173079 17.28217988 C130.99382182 17.25984085 118.59614693 17.26372092 106.19824219 17.28677368 C91.80292023 17.3135279 77.4077373 17.32406806 63.01239395 17.30871236 C61.47754163 17.30711961 59.94268928 17.30554775 58.40783691 17.30399704 C57.6526492 17.30322566 56.89746149 17.30245428 56.1193893 17.30165953 C50.79615236 17.29734138 45.47300356 17.30463153 40.14978027 17.31639481 C33.66297162 17.3304142 27.17646551 17.32663201 20.68969154 17.29999109 C17.37955307 17.28684479 14.0700237 17.2844022 10.75987244 17.29823685 C7.17274103 17.31184946 3.58703966 17.29482553 0 17.26983643 C-1.57221754 17.28656684 -1.57221754 17.28656684 -3.17619705 17.30363524 C-7.93005025 17.23915712 -10.21997204 17.19539301 -14.11627197 14.28273582 C-15.96972656 11.63491821 -15.96972656 11.63491821 -16.59472656 8.63491821 C-14.71809334 -0.37292125 -7.59830745 -0.08085575 0 0 Z " fill="#000000" transform="translate(129.9697265625,143.36508178710938)"/>
<path d="M0 0 C1.66826415 -0.00596161 1.66826415 -0.00596161 3.37023062 -0.01204365 C7.10440714 -0.02168349 10.83820642 -0.00983798 14.57237244 0.00190735 C17.24639915 -0.00052004 19.92040074 -0.00412231 22.59442139 -0.00915527 C29.10762822 -0.01864338 35.62072427 -0.01204353 42.13392288 0.00010767 C49.71695707 0.01372793 57.29996486 0.01208981 64.88300817 0.00997434 C78.41132162 0.00678449 91.93958241 0.01845233 105.46788025 0.03804016 C118.59908146 0.05704807 131.73022096 0.06412672 144.86143494 0.05854797 C159.1574684 0.05249233 173.45347473 0.05266302 187.74950594 0.06403381 C189.27338723 0.06524111 190.79726853 0.0664471 192.32114983 0.06765175 C193.07095003 0.06825529 193.82075024 0.06885883 194.59327166 0.06948065 C199.88087993 0.07336228 205.16847811 0.07296524 210.45608711 0.0710659 C216.89781976 0.06894541 223.33949833 0.07415703 229.78121573 0.08867946 C233.06878239 0.09593073 236.35625402 0.09892631 239.64382935 0.0954361 C243.20461691 0.09222854 246.76516482 0.10126025 250.32592773 0.11352539 C251.36920371 0.10974607 252.41247968 0.10596674 253.48737007 0.10207289 C254.43973437 0.10790509 255.39209867 0.11373728 256.37332249 0.11974621 C257.19536468 0.12061299 258.01740687 0.12147976 258.86435944 0.12237281 C261.36203792 0.40380731 262.96182015 1.07060182 265.09947205 2.3742218 C267.19626607 5.07009984 267.09458026 6.4671658 266.91197205 9.9367218 C266.09089588 13.41050557 265.8389222 14.31435198 263.09947205 16.3742218 C260.96175915 16.75257063 260.96175915 16.75257063 258.43110752 16.75733185 C257.46618399 16.76638849 256.50126046 16.77544513 255.50709683 16.78477621 C253.91344474 16.77678432 253.91344474 16.77678432 252.28759766 16.76863098 C250.59739546 16.77776764 250.59739546 16.77776764 248.87304777 16.78708887 C245.07740925 16.80380798 241.28210293 16.79893027 237.48643494 16.79414368 C234.77329438 16.79983918 232.06017416 16.80996994 229.3470459 16.81980896 C222.7306471 16.84088893 216.11433587 16.84540236 209.49790747 16.84362108 C204.12138097 16.84231476 198.74488186 16.84611088 193.36836052 16.85354614 C191.82117111 16.85564528 190.27398169 16.85774288 188.72679228 16.85983896 C187.95677523 16.86088249 187.18675818 16.86192602 186.39340728 16.86300117 C171.8222696 16.8819138 157.25118224 16.88085018 142.68003737 16.87403184 C129.34240731 16.86845528 116.00496927 16.88928473 102.6673841 16.92239231 C88.98054303 16.95610382 75.29379402 16.97130085 61.60691065 16.96667528 C53.91945986 16.96442805 46.23218658 16.96971061 38.54477119 16.99456787 C32.00045144 17.0155483 25.4564065 17.01920568 18.91207559 17.00026828 C15.57159305 16.99108973 12.23204434 16.99272406 8.8915329 17.01062393 C5.27332401 17.02867888 1.65649549 17.01616794 -1.96166992 16.99568176 C-3.02187393 17.00819961 -4.08207793 17.02071746 -5.17440933 17.03361464 C-12.26660904 16.94707912 -12.26660904 16.94707912 -15.56247807 13.96868134 C-16.91905945 11.3382895 -17.3766478 10.13889468 -16.96302795 7.2492218 C-16.89212952 6.58664368 -16.82123108 5.92406555 -16.7481842 5.2414093 C-13.82733817 -1.19252805 -5.90092581 -0.04179944 0 0 Z " fill="#000000" transform="translate(130.90052795410156,292.6257781982422)"/>
<path d="M0 0 C4.54249178 3.6765009 6.1985691 7.42904072 7.67578125 12.92578125 C7.89066696 13.67337204 8.10555267 14.42096283 8.32695007 15.19120789 C9.00429037 17.56089977 9.65864721 19.93623279 10.3125 22.3125 C10.76997672 23.92816203 11.22894612 25.54340219 11.68945312 27.15820312 C12.81029657 31.10079802 13.91058498 35.04861085 15 39 C15.76265638 36.6120367 16.52468879 34.2238773 17.28588867 31.83544922 C17.930438 29.81447942 18.57644252 27.79397316 19.22387695 25.77392578 C20.60318924 21.45744053 21.98060988 17.14568173 23.21484375 12.78515625 C23.53582031 11.65980469 23.85679687 10.53445312 24.1875 9.375 C24.44917969 8.41335937 24.71085937 7.45171875 24.98046875 6.4609375 C26.19330985 3.53339001 27.53904971 1.98154439 30 0 C33.67410206 -0.52487172 35.91513761 -0.73843902 39.0390625 1.38793945 C41.99247005 5.32201657 42.76140594 9.55302861 43.875 14.29296875 C44.12620605 15.31240067 44.37741211 16.33183258 44.63623047 17.38215637 C45.43746546 20.64752198 46.21890446 23.91726512 47 27.1875 C47.52475944 29.33820389 48.0507886 31.48859839 48.578125 33.63867188 C49.84333127 38.81092588 51.08417454 43.98866588 52.31835938 49.168396 C52.9526332 51.80323354 53.60511066 54.43267297 54.265625 57.06103516 C54.45495605 57.82740799 54.64428711 58.59378082 54.83935547 59.38337708 C55.3330352 61.38097707 55.83414289 63.37673745 56.3359375 65.37231445 C58.1326844 75.18770496 58.1326844 75.18770496 55.4375 79.5 C52.00863886 81.61006839 49.95779649 81.62491523 46 81 C41.36278865 77.33765943 39.92758304 73.68458894 38.76171875 68.07421875 C38.59122513 67.32662796 38.42073151 66.57903717 38.24507141 65.80879211 C37.70862556 63.43850439 37.19777052 61.06354493 36.6875 58.6875 C36.32655019 57.07188928 35.96393683 55.45664927 35.59960938 53.84179688 C34.71376764 49.89855988 33.85081939 45.95093506 33 42 C31.2334807 46.59981466 29.59621854 51.12803814 28.31640625 55.890625 C28.02830078 56.92960937 27.74019531 57.96859375 27.44335938 59.0390625 C26.85240308 61.19323578 26.26915797 63.34953823 25.69335938 65.5078125 C25.40396484 66.54164063 25.11457031 67.57546875 24.81640625 68.640625 C24.56318604 69.57422852 24.30996582 70.50783203 24.04907227 71.46972656 C22.83408069 74.40018333 21.40976872 75.96285482 19 78 C17 78.56640625 17 78.56640625 15 78.5625 C14.01 78.59537109 14.01 78.59537109 13 78.62890625 C9.87208565 77.64532381 8.84606822 75.66079847 7 73 C6.08194208 70.55237076 5.31838214 68.23921209 4.640625 65.73046875 C4.44652039 65.04946609 4.25241577 64.36846344 4.0524292 63.66682434 C3.44042403 61.51002164 2.84500928 59.34904587 2.25 57.1875 C1.83572655 55.71648915 1.42037268 54.24578211 1.00390625 52.77539062 C-0.00991546 49.18702254 -1.00892066 45.5947247 -2 42 C-2.75286593 44.6658859 -3.5025835 47.33258479 -4.25 50 C-4.47743896 50.80783936 -4.70487793 51.61567871 -4.93920898 52.44799805 C-6.06291257 56.47751964 -7.14091904 60.50565569 -8.08203125 64.58203125 C-8.24864258 65.29552734 -8.41525391 66.00902344 -8.58691406 66.74414062 C-9.03859388 68.70853048 -9.47481251 70.67645656 -9.91015625 72.64453125 C-11.08220297 76.25309085 -12.29861054 78.34817732 -15 81 C-17.77444723 81.92120318 -20.1760042 81.6930051 -23 81 C-25.5625 79.125 -25.5625 79.125 -27 76 C-27.14167129 67.78091849 -24.68746615 59.53269667 -22.796875 51.6015625 C-22.47395847 50.23538686 -22.15106253 48.86920635 -21.82818604 47.50302124 C-21.15402018 44.65947431 -20.47389555 41.81742259 -19.79052734 38.97607422 C-18.91788358 35.34201726 -18.06932485 31.70277418 -17.22611618 28.06179237 C-16.56975349 25.24651069 -15.89633261 22.43551186 -15.2181778 19.62540817 C-14.89773308 18.28492264 -14.58359068 16.94291359 -14.27602386 15.59941483 C-13.8449987 13.72430093 -13.38738888 11.85535844 -12.92871094 9.98681641 C-12.67635681 8.92443756 -12.42400269 7.86205872 -12.16400146 6.76748657 C-9.85392263 1.2751291 -5.8464311 -1.09620583 0 0 Z " fill="#000000" transform="translate(256,186)"/>
<path d="M0 0 C8.16668383 7.38814782 13.28068676 17.59944894 14.21875 28.5546875 C14.62496312 40.50412357 11.11805227 51.4400884 2.890625 60.26171875 C-7.04758273 69.53166768 -17.43044262 72.65924792 -30.9921875 72.30859375 C-41.2952273 71.72380039 -50.76099606 66.52067081 -57.81640625 59.0859375 C-66.43902091 48.23743485 -68.15602118 36.48166389 -67 23 C-64.69477298 11.93491032 -57.93816805 3.62773593 -49 -3 C-33.36633029 -12.76343965 -14.51215983 -10.77417927 0 0 Z M-47.625 17.9375 C-51.81594167 24.22391251 -51.70217069 30.66720484 -51 38 C-49.14118427 44.77855558 -44.14458903 50.52378367 -38.15625 54.1015625 C-31.8586211 56.86322763 -24.81805967 57.23606248 -18.28515625 55.12109375 C-11.0876749 51.84163984 -6.23478986 47.37122272 -3.125 40.0625 C-0.7437904 32.69208934 -1.71223159 25.89811033 -5 19 C-9.17352519 12.39516886 -14.7499773 9.41667423 -22 7 C-32.87792009 5.60283595 -40.70901102 9.69151314 -47.625 17.9375 Z " fill="#000000" transform="translate(384,195)"/>
<path d="M0 0 C0.78012451 -0.00499512 1.56024902 -0.00999023 2.36401367 -0.01513672 C3.1810376 0.01177246 3.99806152 0.03868164 4.83984375 0.06640625 C6.1069519 0.09130127 6.1069519 0.09130127 7.3996582 0.11669922 C20.74785331 0.60857543 29.90728176 5.3732534 39.02734375 14.87890625 C46.31680804 23.35702582 48.18243717 33.17092677 48.046875 44.08984375 C47.16751035 55.63628395 42.38692104 65.81828885 33.64453125 73.50390625 C31.42444487 75.09536602 29.20739132 76.38385716 26.77734375 77.62890625 C26.02582031 78.04011719 25.27429688 78.45132813 24.5 78.875 C18.11214343 81.79141477 11.75636744 82.0701257 4.83984375 82.19140625 C3.91526367 82.21831543 2.99068359 82.24522461 2.03808594 82.27294922 C1.15926758 82.2679541 0.28044922 82.26295898 -0.625 82.2578125 C-1.41382568 82.2585376 -2.20265137 82.2592627 -3.01538086 82.26000977 C-6.35684492 81.30461937 -7.34540988 79.49958978 -9.22265625 76.62890625 C-9.73731995 73.36584473 -9.73731995 73.36584473 -9.75610352 69.62304688 C-9.76471909 68.9378447 -9.77333466 68.25264252 -9.7822113 67.54667664 C-9.8048263 65.29244704 -9.79814217 63.03946506 -9.7890625 60.78515625 C-9.79429982 59.21243929 -9.80057669 57.63972548 -9.80784607 56.0670166 C-9.8182417 52.7751586 -9.81370076 49.4837331 -9.79907227 46.19189453 C-9.78187757 41.97817601 -9.80539084 37.76582022 -9.84056187 33.55225372 C-9.86254526 30.30591843 -9.8610924 27.05990883 -9.85279655 23.81352234 C-9.85197768 22.26021326 -9.85882893 20.70688012 -9.87356758 19.15364075 C-9.89103481 16.97983532 -9.87645897 14.80847372 -9.85375977 12.63476562 C-9.852798 11.39964233 -9.85183624 10.16451904 -9.85084534 8.89196777 C-8.84542405 3.66941361 -5.49205998 -0.00574283 0 0 Z M6.77734375 16.62890625 C6.77734375 32.79890625 6.77734375 48.96890625 6.77734375 65.62890625 C14.81522803 65.62890625 18.51458842 64.37258687 24.52734375 59.31640625 C29.71043441 53.1254924 32.20212264 47.20205993 32.04296875 39.125 C31.1575066 30.80426008 27.41794404 25.38870615 21.015625 20.19140625 C16.0707865 16.73951201 12.83345025 16.62890625 6.77734375 16.62890625 Z " fill="#000000" transform="translate(123.22265625,185.37109375)"/>
<path d="M0 0 C0.66914429 -0.0038269 1.33828857 -0.00765381 2.02770996 -0.01159668 C3.43629469 -0.01430723 4.84493048 -0.00700592 6.25341797 0.00976562 C8.40056339 0.03119325 10.54436397 0.00994088 12.69140625 -0.015625 C14.0651115 -0.01298156 15.43881467 -0.00785625 16.8125 0 C18.67358398 0.00676758 18.67358398 0.00676758 20.57226562 0.01367188 C24.47111597 0.61894155 26.13847628 1.77184981 28.90625 4.53125 C29.5703125 6.53125 29.5703125 6.53125 29.53125 8.53125 C29.54414063 9.19125 29.55703125 9.85125 29.5703125 10.53125 C28.46531306 13.85924831 26.94152704 14.80553274 23.90625 16.53125 C20.45230423 17.00653655 17.07167307 16.9090606 13.59375 16.78125 C12.66240234 16.76320312 11.73105469 16.74515625 10.77148438 16.7265625 C8.48262851 16.67961161 6.19430473 16.60787323 3.90625 16.53125 C3.90625 22.14125 3.90625 27.75125 3.90625 33.53125 C5.30359375 33.47324219 6.7009375 33.41523438 8.140625 33.35546875 C9.97913327 33.30856803 11.81767766 33.2630682 13.65625 33.21875 C14.57664063 33.17685547 15.49703125 33.13496094 16.4453125 33.09179688 C23.25709694 32.96839498 23.25709694 32.96839498 26.55078125 35.82421875 C28.39434051 39.50602442 27.99478806 41.61251298 26.90625 45.53125 C25.01091125 48.11580285 24.01798483 48.49400506 20.90625 49.53125 C19.57099283 49.61098476 18.23212917 49.63896338 16.89453125 49.62890625 C15.75854492 49.62407227 15.75854492 49.62407227 14.59960938 49.61914062 C13.42108398 49.60657227 13.42108398 49.60657227 12.21875 49.59375 C11.02282227 49.58698242 11.02282227 49.58698242 9.80273438 49.58007812 C7.83720743 49.5683085 5.87171915 49.55037348 3.90625 49.53125 C3.90625 54.81125 3.90625 60.09125 3.90625 65.53125 C5.21980469 65.49644531 6.53335938 65.46164063 7.88671875 65.42578125 C9.62238301 65.39763534 11.35806115 65.37033604 13.09375 65.34375 C13.95806641 65.31861328 14.82238281 65.29347656 15.71289062 65.26757812 C20.59460222 65.2114665 23.973572 65.27634817 27.90625 68.53125 C29.45211876 71.62298752 29.19984521 74.12554552 28.90625 77.53125 C27.35351562 79.72460938 27.35351562 79.72460938 24.90625 81.53125 C22.2736106 81.92967915 20.06612832 82.09340695 17.4375 82.0625 C16.720177 82.0663269 16.002854 82.07015381 15.26379395 82.07409668 C13.75088086 82.07681227 12.23792055 82.06947555 10.72509766 82.05273438 C8.41332024 82.03131551 6.10464987 82.05254351 3.79296875 82.078125 C2.32030566 82.07548166 0.8476445 82.07035653 -0.625 82.0625 C-1.65796204 82.07464539 -1.65796204 82.07464539 -2.71179199 82.08703613 C-5.8193247 82.02652112 -7.7363545 81.79172515 -10.27415466 79.94213867 C-12.74565301 76.66750544 -12.60736885 74.5208535 -12.62719727 70.43945312 C-12.63581284 69.73328354 -12.64442841 69.02711395 -12.65330505 68.29954529 C-12.67596944 65.97015514 -12.66922662 63.64196752 -12.66015625 61.3125 C-12.66539142 59.69111778 -12.6716675 58.06973862 -12.67893982 56.44836426 C-12.68934462 53.05218156 -12.68478133 49.65641785 -12.67016602 46.26025391 C-12.6529712 41.90854074 -12.67648018 37.55814705 -12.71165562 33.20658112 C-12.73361757 29.85906225 -12.73219131 26.51185977 -12.7238903 23.16429138 C-12.72307024 21.55991671 -12.72994435 19.95551893 -12.74466133 18.35121155 C-12.76208832 16.107665 -12.74758541 13.86649773 -12.72485352 11.62304688 C-12.72389175 10.34715698 -12.72292999 9.07126709 -12.72193909 7.75671387 C-12.09375 4.53125 -12.09375 4.53125 -9.76268005 2.12036133 C-6.33145484 0.07737079 -3.98059875 0.0144749 0 0 Z " fill="#000000" transform="translate(192.09375,185.46875)"/>
</svg>
