<?xml version="1.0" encoding="UTF-8"?>
<svg version="1.1" xmlns="http://www.w3.org/2000/svg" width="512" height="512">
<path d="M0 0 C1.0999568 -0.00525911 1.0999568 -0.00525911 2.22213495 -0.01062447 C4.68068859 -0.01993241 7.13900505 -0.01501674 9.59756851 -0.01015663 C11.37753564 -0.0138932 13.15750112 -0.01849475 14.937464 -0.02388728 C19.83010045 -0.03613193 24.72266859 -0.03585508 29.61531687 -0.03349853 C34.89153633 -0.03309073 40.16773379 -0.04412598 45.44394302 -0.05361366 C55.78173933 -0.07023279 66.11951283 -0.07572363 76.45732138 -0.07683842 C84.8600333 -0.07778848 93.26273769 -0.08189669 101.66544724 -0.08823967 C125.48515781 -0.10585475 149.30485035 -0.11507815 173.12456748 -0.11357872 C175.05111113 -0.11345885 175.05111113 -0.11345885 177.01657486 -0.11333656 C178.30250433 -0.1132548 179.5884338 -0.11317304 180.91333082 -0.1130888 C201.75430607 -0.11227588 222.59520905 -0.13141449 243.4361634 -0.1596133 C264.83206158 -0.18833468 286.22792452 -0.20215399 307.62384248 -0.20042574 C319.63739081 -0.19976157 331.6508634 -0.20526569 343.66439438 -0.22678185 C353.89308231 -0.24498382 364.12166015 -0.24934904 374.35035726 -0.235763 C379.56880156 -0.22922837 384.78703457 -0.22913416 390.00545883 -0.2464695 C394.78489775 -0.26218319 399.56395758 -0.25935386 404.34338716 -0.24190123 C406.0701593 -0.2388276 407.79695962 -0.24247742 409.52369854 -0.25362138 C420.92593574 -0.32232076 431.15941422 0.25586391 439.94137955 8.41351891 C445.49954623 14.81218885 448.66938407 21.16373861 448.66598988 29.62207985 C448.66798092 30.71686346 448.66997197 31.81164708 448.67202336 32.93960595 C448.66911051 34.14193045 448.66619767 35.34425496 448.66319656 36.58301353 C448.6644782 38.49924259 448.6644782 38.49924259 448.66578573 40.45418334 C448.66802456 44.00244827 448.66401774 47.55068309 448.65900767 51.09894419 C448.65469461 54.92440382 448.6561502 58.74986172 448.65690994 62.5753231 C448.65743463 69.20399186 448.65429355 75.83265078 448.6486721 82.46131706 C448.64054969 92.04528967 448.63794112 101.62925752 448.63668411 111.2132332 C448.63449476 126.76209415 448.62783783 142.31094986 448.6183815 157.85980797 C448.60920437 172.96527645 448.602125 188.07074351 448.59787369 203.17621422 C448.5974796 204.57255181 448.5974796 204.57255181 448.59707756 205.99709824 C448.59577253 210.66704592 448.59450882 215.33699362 448.59326565 220.00694132 C448.58289668 258.75705418 448.56528153 297.5071612 448.54294205 336.25726891 C449.67924985 336.22900709 449.67924985 336.22900709 450.83851337 336.20017433 C451.83104335 336.18552006 452.82357332 336.17086578 453.84617996 336.15576744 C455.32280027 336.12750563 455.32280027 336.12750563 456.82925129 336.09867287 C459.54294205 336.25726891 459.54294205 336.25726891 462.69113541 337.88129234 C465.02479751 340.87551774 465.17443233 342.49791057 465.1718483 346.27289391 C465.17474869 348.02666344 465.17474869 348.02666344 465.17770767 349.81586266 C465.15386002 351.03402672 465.13001236 352.25219078 465.10544205 353.50726891 C465.12187759 355.31131187 465.12187759 355.31131187 465.13864517 357.15180016 C465.06744623 365.80009845 463.85152981 371.21343942 458.29294205 378.00726891 C452.27618816 382.93006754 446.83550381 384.85785633 439.11580276 384.76063347 C437.89498786 384.76935411 437.89498786 384.76935411 436.64951003 384.77825093 C433.92870575 384.79282161 431.20880775 384.77897958 428.48801041 384.76520348 C426.51514825 384.76981354 424.54228953 384.77616717 422.56943798 384.78411245 C417.15291184 384.80081422 411.73666753 384.79255542 406.32014036 384.78016758 C400.47683646 384.77112295 394.63358126 384.78508392 388.79028702 384.79608727 C377.34514955 384.81388329 365.90011696 384.81002763 354.45497537 384.7984367 C345.15411915 384.78940694 335.85329235 384.78817641 326.55243301 384.79253197 C325.89147017 384.79283751 325.23050732 384.79314305 324.5495153 384.79345785 C321.86641491 384.79470321 319.18331454 384.79597681 316.50021419 384.7972969 C291.33345995 384.80953142 266.16676292 384.79844143 241.00001751 384.77690931 C218.64352681 384.75792704 196.28712726 384.75962556 173.93063736 384.77875328 C148.80975731 384.80017434 123.68892781 384.80866373 98.56803989 384.79630423 C95.88984363 384.79502137 93.21164736 384.79377001 90.53345108 384.79253197 C88.55681242 384.79160631 88.55681242 384.79160631 86.54024166 384.79066196 C77.24945251 384.78720678 67.95869567 384.79304105 58.66791153 384.80245018 C47.34712889 384.81366303 36.0264572 384.81064504 24.70568728 384.7893272 C18.92851831 384.7788073 13.15153441 384.77471117 7.37436676 384.78792381 C2.08686257 384.79983378 -3.20028483 384.79330788 -8.48775661 384.7720136 C-10.40150629 384.76754167 -12.31528605 384.76982704 -14.22901642 384.77951676 C-16.8297461 384.79167584 -19.42925279 384.7792108 -22.02991867 384.76063347 C-22.7734929 384.76999813 -23.51706713 384.7793628 -24.28317392 384.78901124 C-30.71932241 384.69708158 -35.85409768 382.53826022 -40.69924545 378.29242516 C-41.23807358 377.64144859 -41.7769017 376.99047203 -42.33205795 376.31976891 C-42.88635483 375.67137047 -43.4406517 375.02297203 -44.01174545 374.35492516 C-48.43002343 367.94245145 -47.85909235 361.20165584 -47.89455795 353.69476891 C-47.94386459 351.84722008 -47.94386459 351.84722008 -47.99416733 349.96234703 C-48.00125717 348.77963219 -48.00834702 347.59691734 -48.0156517 346.37836266 C-48.02910629 345.29998131 -48.04256088 344.22159996 -48.05642319 343.11054039 C-47.45705795 340.25726891 -47.45705795 340.25726891 -45.60964584 337.87470055 C-42.18176712 336.11603126 -40.54051723 336.08411248 -36.76002121 336.15617943 C-35.76753089 336.17077422 -34.77504057 336.18536901 -33.75247478 336.20040607 C-32.61624345 336.22855318 -32.61624345 336.22855318 -31.45705795 336.25726891 C-31.45933627 335.27269091 -31.45933627 335.27269091 -31.46166062 334.26822245 C-31.55119764 295.35452255 -31.61981667 256.44083595 -31.66131927 217.52705387 C-31.66632202 212.85330376 -31.67149932 208.17955386 -31.67678452 203.50580406 C-31.67783376 202.57535536 -31.678883 201.64490665 -31.67996404 200.68626253 C-31.69736323 185.62597907 -31.72889826 170.56575677 -31.76566914 155.50550957 C-31.80309205 140.04915548 -31.82529666 124.5928334 -31.83341193 109.13643587 C-31.8388969 99.60110056 -31.85621279 90.06593812 -31.88872382 80.53065602 C-31.90988837 73.9895208 -31.9162536 67.44847478 -31.91106346 60.90730782 C-31.90850469 57.13490406 -31.91239189 53.36280211 -31.93387985 49.59045219 C-31.95703742 45.49495214 -31.94898918 41.4000915 -31.93807602 37.30454063 C-31.95555307 35.52726945 -31.95555307 35.52726945 -31.97338319 33.7140938 C-31.90430343 24.11454957 -29.84239915 15.94321503 -23.16018295 8.78851891 C-16.32448306 2.64266028 -9.1931089 0.00992762 0 0 Z M-13.86449432 23.22148037 C-16.45082209 28.43859079 -15.99417314 34.13939997 -15.93807602 39.82988548 C-15.94149372 41.09768414 -15.94491142 42.36548279 -15.94843268 43.67169958 C-15.95735368 47.1791549 -15.94140925 50.68611929 -15.92132044 54.19351208 C-15.90401802 57.98006331 -15.90989411 61.7665877 -15.91292953 65.55316734 C-15.91502514 72.1098179 -15.90249405 78.66630901 -15.87997818 85.22291946 C-15.84744548 94.70260531 -15.83704987 104.1822142 -15.83202621 113.66194982 C-15.82327555 129.04280625 -15.79666618 144.42357773 -15.75881577 159.80438805 C-15.72208976 174.74383685 -15.69378088 189.68326257 -15.67678452 204.62274742 C-15.67520817 206.00446127 -15.67520817 206.00446127 -15.67359999 207.41408854 C-15.66837977 212.03527197 -15.66332496 216.65645557 -15.65835238 221.27763927 C-15.61689747 259.60424195 -15.54645526 297.93074982 -15.45705795 336.25726891 C-14.44804428 336.27185143 -13.43903061 336.28643394 -12.39944077 336.30145836 C-8.64940905 336.35951005 -4.8999735 336.43674182 -1.15041733 336.51972008 C0.4712289 336.55293725 2.09298985 336.58097925 3.71481705 336.60370445 C6.04864682 336.63731046 8.3814284 336.68962651 10.71481705 336.74555016 C11.4378804 336.75194008 12.16094376 336.75833 12.90591812 336.76491356 C17.01779963 336.88453558 19.65313185 337.20836591 22.54294205 340.25726891 C23.49722172 343.46092209 23.84578275 345.39533766 22.73044205 348.56976891 C21.54294205 350.25726891 21.54294205 350.25726891 19.54294205 351.25726891 C17.87894922 351.37614847 16.21044929 351.43438835 14.54245377 351.46259117 C13.50152573 351.48253639 12.46059769 351.50248161 11.38812637 351.52303123 C9.69745544 351.54809998 9.69745544 351.54809998 7.97262955 351.57367516 C6.82126511 351.59445625 5.66990067 351.61523735 4.48364639 351.63664818 C0.79514065 351.70218556 -2.89343798 351.76104818 -6.58205795 351.81976891 C-9.07815933 351.86295013 -11.57425325 351.90656429 -14.0703392 351.95062828 C-20.19916776 352.05787122 -26.32806928 352.1596298 -32.45705795 352.25726891 C-32.47381577 353.51926109 -32.49057358 354.78125328 -32.5078392 356.08148766 C-32.51726547 356.79135826 -32.52669174 357.50122887 -32.53640366 358.2326107 C-32.40271979 361.64381159 -31.25016116 364.08487766 -29.36592478 366.87021786 C-26.39542316 369.02869079 -23.2623014 368.66941421 -19.72768879 368.63758564 C-18.5289255 368.64457552 -18.5289255 368.64457552 -17.30594477 368.65170661 C-14.60522152 368.66373827 -11.9049938 368.65422995 -9.20426559 368.64494896 C-7.25761829 368.64911831 -5.31097342 368.65459362 -3.36433309 368.66126877 C2.00275723 368.67579449 7.36969494 368.67145651 12.73679388 368.66410196 C18.51807265 368.65939013 24.29931744 368.67186247 30.08058548 368.68211937 C41.41341989 368.69935178 52.74619897 368.7001382 64.07904308 368.69490647 C73.28661009 368.69087181 82.49416069 368.69229992 91.70172691 368.69765472 C93.01013606 368.69840315 94.3185452 368.69915157 95.66660311 368.69992267 C98.32427959 368.70145408 100.98195606 368.70299243 103.63963253 368.70453764 C121.49494369 368.71460162 139.35024897 368.71852343 157.20556164 368.71091175 C157.90417276 368.71061458 158.60278388 368.7103174 159.32256503 368.71001123 C164.99624723 368.70756214 170.66992936 368.70495063 176.34361148 368.70232709 C198.47771076 368.69222362 220.6117342 368.70058009 242.74582291 368.72382164 C267.59890733 368.74987584 292.45194564 368.76269758 317.30504423 368.75563389 C330.46980078 368.7521343 343.63449501 368.7544224 356.79924202 368.77188492 C368.00606999 368.78656539 379.21279179 368.78729693 390.41961759 368.76981401 C396.14157841 368.76126732 401.86334924 368.7592435 407.58530045 368.77446556 C412.81789438 368.78821388 418.05013378 368.78367755 423.28270669 368.76422632 C425.18105947 368.76043551 427.07944 368.76347587 428.97776829 368.77383798 C431.54819046 368.78687684 434.11736493 368.77554303 436.68773174 368.75784016 C437.43361719 368.76749067 438.17950265 368.77714118 438.94799069 368.78708413 C442.42220647 368.73757888 444.21733638 368.5133105 446.98701769 366.3353582 C449.5407439 362.92460685 449.57536566 360.26590012 449.55856705 356.11664391 C449.5534108 354.84305016 449.54825455 353.56945641 449.54294205 352.25726891 C448.25919922 352.25580369 448.25919922 352.25580369 446.9495222 352.25430888 C396.27042226 352.19608661 345.59136535 352.1223277 294.91231857 352.02828262 C288.83256892 352.01701393 282.75281904 352.00587556 276.673069 351.99481773 C274.85745092 351.99151221 274.85745092 351.99151221 273.00515369 351.98813991 C253.38451256 351.95272954 233.76387147 351.92788654 214.1432102 351.90692189 C194.02329926 351.88518958 173.90342994 351.85216373 153.78355438 351.80856735 C141.36004059 351.78200624 128.93657869 351.76434375 116.5130379 351.75792287 C108.00355205 351.75268259 99.49413159 351.73651164 90.98468073 351.71160325 C86.06895533 351.69754144 81.15334711 351.6884348 76.23760033 351.69226074 C71.74266534 351.69565325 67.24798128 351.68540935 62.75309775 351.66403339 C61.121839 351.65873412 59.4905544 351.65856314 57.85929569 351.66387328 C55.65159975 351.67033112 53.44474601 351.65857253 51.23712063 351.64202976 C49.39338856 351.63918186 49.39338856 351.63918186 47.51240939 351.63627642 C44.54294205 351.25726891 44.54294205 351.25726891 42.64408714 349.95197135 C40.80408136 347.12013537 41.25119697 344.5248138 41.54294205 341.25726891 C43.54294205 338.25726891 43.54294205 338.25726891 46.54294205 337.25726891 C48.67368571 337.15953967 50.80741236 337.12344353 52.94039059 337.11860371 C53.59556436 337.11576149 54.25073814 337.11291927 54.92576566 337.10999092 C57.13644242 337.10162296 59.34706693 337.10037407 61.55775833 337.09905052 C63.15252171 337.0944866 64.74728389 337.08948683 66.34204465 337.08408695 C70.73627147 337.07047709 75.13049054 337.06307926 79.52473295 337.05666029 C84.25888505 337.04866884 88.99302094 337.03496676 93.72716141 337.02194786 C101.93335527 337.00016727 110.13955075 336.98202858 118.34575844 336.96634293 C130.21065017 336.9436587 142.07552398 336.91551387 153.94040052 336.88602365 C173.18900997 336.83832998 192.43762674 336.79507061 211.68625259 336.75458336 C230.38775579 336.71523746 249.08925247 336.67381341 267.79074478 336.62958336 C268.9429369 336.62685909 270.09512903 336.62413481 271.28223606 336.62132799 C277.06227574 336.60764866 282.84231533 336.59392836 288.62235487 336.58018768 C336.59587035 336.46619502 384.56939993 336.35939184 432.54294205 336.25726891 C432.63448312 297.01167134 432.70497343 257.76608768 432.74720336 218.52040469 C432.75220623 213.88785209 432.75738352 209.25529971 432.76266861 204.62274742 C432.76371785 203.70048363 432.76476709 202.77821984 432.76584813 201.82800866 C432.78325678 186.89179556 432.81479701 171.95564399 432.85155323 157.01946741 C432.88894985 141.69533928 432.91117519 126.3712434 432.91929603 111.04707152 C432.92478645 101.59003617 432.94213196 92.13317476 432.97460791 82.67619295 C432.99574001 76.19254696 433.00214505 69.70899099 432.99694756 63.22531306 C432.99438373 59.4836592 432.9983337 55.74230943 433.01976395 52.00070953 C433.04283173 47.94356899 433.03489739 43.88707664 433.02396011 39.82988548 C433.03561148 38.64797235 433.04726285 37.46605922 433.05926728 36.24833053 C433.01160793 29.7237152 432.72347657 25.4046483 428.54294205 20.25726891 C423.49717697 16.84198172 420.26057448 15.75703753 414.04816055 15.75390434 C412.96032017 15.7451837 412.96032017 15.7451837 411.85050321 15.73628688 C409.42521316 15.72171208 407.00093921 15.73555958 404.57565689 15.74933434 C402.81743414 15.74472441 401.05921525 15.73837088 399.30100441 15.73042536 C394.47315875 15.71372151 389.64562922 15.72198324 384.8177824 15.73437023 C379.60979377 15.74341404 374.40185979 15.72945431 369.19388199 15.71845055 C358.99288654 15.70065362 348.79200874 15.70451056 338.59100866 15.71610111 C330.30127464 15.72513053 322.01157362 15.72636156 313.72183609 15.72200584 C311.95283449 15.72108645 311.95283449 15.72108645 310.14809549 15.72014847 C307.75238434 15.71886959 305.35667319 15.71757273 302.96096206 15.71625811 C280.49044915 15.70484887 258.02000148 15.71797143 235.54949927 15.73945957 C216.26407773 15.75733085 196.97875248 15.75422684 177.69333267 15.73578453 C155.30384167 15.71438391 132.91440787 15.70594754 110.52490807 15.71823359 C108.13795472 15.7195078 105.75100137 15.72076528 103.364048 15.72200584 C102.18958693 15.72262295 101.01512585 15.72324005 99.80507505 15.72387585 C91.52422233 15.72733117 83.24340585 15.72149647 74.96255875 15.71208763 C64.87250232 15.70087527 54.78257039 15.7038917 44.69252825 15.72521061 C39.54331516 15.73573123 34.39430972 15.73982552 29.24509811 15.726614 C24.53245522 15.71470536 19.82021269 15.7212275 15.10760617 15.74252421 C13.40178424 15.74699674 11.69592856 15.7447094 9.99012828 15.73502105 C7.6721785 15.7228646 5.35560164 15.73532313 3.03772354 15.75390434 C1.10627204 15.75487846 1.10627204 15.75487846 -0.86419868 15.75587225 C-6.51904656 16.54502696 -10.21373028 18.72639308 -13.86449432 23.22148037 Z " fill="#000000" transform="translate(47.45705795288086,63.74273109436035)"/>
<path d="M0 0 C1.14805115 -0.01043099 2.29610229 -0.02086198 3.47894287 -0.03160906 C5.37171967 -0.01822473 5.37171967 -0.01822473 7.30273438 -0.00457001 C8.65627718 -0.00917791 10.00981498 -0.01553008 11.36334229 -0.02347898 C15.08643439 -0.0402111 18.80911753 -0.03190862 22.5322113 -0.01953411 C26.54591677 -0.01050169 30.55955081 -0.02444433 34.57324219 -0.0354538 C42.4374916 -0.05326301 50.30158852 -0.04938838 58.16584396 -0.03780323 C64.5558879 -0.02877861 70.94588902 -0.0275407 77.3359375 -0.0318985 C78.24455914 -0.03251143 79.15318077 -0.03312436 80.0893364 -0.03375587 C81.93504335 -0.03503474 83.78075029 -0.03633159 85.62645721 -0.03764623 C102.94356769 -0.04905907 120.26059353 -0.03592731 137.57769012 -0.01444477 C152.44441393 0.00342685 167.31101282 0.00032294 182.17773438 -0.01811981 C199.43184467 -0.03951412 216.68588074 -0.04796037 233.94000244 -0.03567076 C235.77901203 -0.03439653 237.61802164 -0.03313905 239.45703125 -0.0318985 C240.36191662 -0.0312814 241.26680199 -0.03066429 242.19910812 -0.03002849 C248.58327767 -0.02657127 254.96740023 -0.03241195 261.3515625 -0.04181671 C269.12917609 -0.0530221 276.90662815 -0.05002751 284.68422318 -0.02869374 C288.65435936 -0.01816353 292.62422601 -0.01409475 296.59436035 -0.02729034 C300.22636263 -0.03917973 303.85784466 -0.03270964 307.4897995 -0.01138014 C309.43120875 -0.00477095 311.37265391 -0.0178811 313.31402588 -0.03160906 C315.0361026 -0.01596257 315.0361026 -0.01596257 316.79296875 0 C317.78566772 0.00064941 318.7783667 0.00129882 319.80114746 0.00196791 C323.15094428 0.64911969 324.34154944 1.82333734 326.39648438 4.50336456 C326.8656712 8.25685918 326.92784819 10.5418491 325.08398438 13.87836456 C322.08076517 16.77035343 319.0826545 16.62799038 315.12348652 16.62641239 C314.02372716 16.62840344 312.92396781 16.63039449 311.79088241 16.63244587 C309.97135355 16.62807661 309.97135355 16.62807661 308.11506653 16.62361908 C306.83026781 16.6244735 305.5454691 16.62532793 304.22173709 16.62620825 C300.64840976 16.62844997 297.07511226 16.6244363 293.50178874 16.61943018 C289.65108974 16.61512127 285.8003925 16.61657242 281.94969177 16.61733246 C275.27571525 16.61785741 268.60174849 16.61471358 261.92777443 16.60909462 C252.27826764 16.60097577 242.62876559 16.598364 232.97925576 16.59710663 C217.32446535 16.59491672 201.66968016 16.58825827 186.01489258 16.57880402 C170.80558294 16.56962833 155.59627473 16.56255972 140.38696289 16.5582962 C138.96692495 16.55789421 138.96692495 16.55789421 137.51819938 16.55748409 C130.11470781 16.55540473 122.71121621 16.55344778 115.3077246 16.55152953 C79.00397308 16.5420918 42.70023459 16.52197445 6.39648438 16.50336456 C6.39648438 100.98336456 6.39648438 185.46336456 6.39648438 272.50336456 C133.11648437 272.50336456 259.83648437 272.50336456 390.39648438 272.50336456 C390.39648438 188.02336456 390.39648438 103.54336456 390.39648438 16.50336456 C376.53648437 16.50336456 362.67648437 16.50336456 348.39648438 16.50336456 C343.39648438 12.50336456 343.39648438 12.50336456 342.39648438 9.56586456 C342.39648438 5.93095162 343.19687023 4.35471623 345.39648438 1.50336456 C347.94100417 0.23110467 349.76011205 0.35555791 352.60888672 0.32636261 C353.69696625 0.31352737 354.78504578 0.30069214 355.90609741 0.28746796 C357.67637802 0.27638756 357.67637802 0.27638756 359.48242188 0.26508331 C361.2951207 0.25297569 361.2951207 0.25297569 363.1444397 0.24062347 C365.70500245 0.22677461 368.26558373 0.21605606 370.82617188 0.20819855 C374.74840066 0.19096598 378.66979112 0.14708295 382.59179688 0.10297394 C385.07616566 0.09284915 387.56054163 0.08433238 390.04492188 0.07758331 C391.22106049 0.06007523 392.3971991 0.04256714 393.60897827 0.0245285 C395.25055405 0.02891685 395.25055405 0.02891685 396.92529297 0.03339386 C397.8874472 0.02752762 398.84960144 0.02166138 399.84091187 0.01561737 C403.41534325 0.69782023 404.28389392 1.49898034 406.39648438 4.50336456 C407.01283147 8.19067712 406.93538332 11.85656598 406.90441895 15.58734894 C406.91377889 17.30333408 406.91377889 17.30333408 406.92332792 19.0539856 C406.93653621 22.22987472 406.93176409 25.40515392 406.91938305 28.58102798 C406.91034498 32.0057757 406.92429606 35.43043998 406.93530273 38.8551712 C406.95310595 45.56438258 406.94924003 52.27341515 406.93765217 58.98263359 C406.92862517 64.43446446 406.92739066 69.88624516 406.93174744 75.33808136 C406.93236037 76.11348566 406.9329733 76.88888995 406.93360481 77.68779135 C406.93488368 79.2629223 406.93618054 80.83805324 406.93749517 82.41318417 C406.94890624 97.18941437 406.93577903 111.96554537 406.91429371 126.7417593 C406.89642223 139.42536491 406.89952619 152.1088241 406.91796875 164.79242706 C406.93936619 179.51513074 406.94780756 194.23774743 406.9355197 208.96046448 C406.93424547 210.52985889 406.93298799 212.09925332 406.93174744 213.66864777 C406.93082178 214.82695988 406.93082178 214.82695988 406.92987743 216.00867224 C406.92642114 221.45508503 406.93225887 226.90144273 406.94166565 232.34784698 C406.95287453 238.98361947 406.94986918 245.61920264 406.92854267 252.25495338 C406.91801706 255.64182837 406.91393567 259.02838754 406.92713928 262.41526031 C406.93801366 266.0836188 406.92442791 269.75107945 406.90441895 273.41938019 C406.91780328 275.03200871 406.91780328 275.03200871 406.931458 276.67721558 C406.92102701 277.65806374 406.91059602 278.6389119 406.89984894 279.64948273 C406.89919953 280.49636909 406.89855012 281.34325546 406.89788103 282.21580505 C406.19012171 285.44486841 405.0671546 286.57784866 402.39648438 288.50336456 C399.28818512 289.00476122 399.28818512 289.00476122 395.5435791 289.00672913 C394.85130565 289.01254289 394.15903219 289.01835665 393.44578075 289.02434659 C391.11454531 289.03900225 388.78435363 289.02503643 386.453125 289.01129913 C384.7695995 289.01590587 383.08607803 289.02225726 381.402565 289.03020811 C376.76737388 289.04695582 372.13251081 289.03863046 367.49731827 289.02626324 C362.50201406 289.01723726 357.50676748 289.03117026 352.51147461 289.04218292 C342.72215738 289.059999 332.93296261 289.05611442 323.14364052 289.04453236 C315.189907 289.03551044 307.23620787 289.03426865 299.2824707 289.03862762 C298.15182017 289.03924056 297.02116963 289.03985349 295.85625696 289.04048499 C293.55959001 289.04176386 291.26292307 289.04306071 288.96625614 289.04437536 C267.41434225 289.05579021 245.86249635 289.04265327 224.31059361 289.02117389 C205.80533564 289.00330211 187.30017803 289.00640596 168.79492188 289.02484894 C147.32179867 289.04623968 125.84873509 289.05469149 104.37560272 289.04239988 C102.08723451 289.04112564 99.79886628 289.03986816 97.51049805 289.03862762 C95.82147676 289.03770197 95.82147676 289.03770197 94.09833384 289.03675762 C86.15123473 289.03329932 78.20417334 289.03914337 70.25708008 289.04854584 C60.57639257 289.05974725 50.89583485 289.05676495 41.21516228 289.03542286 C36.27291594 289.0248874 31.33088624 289.02083299 26.38864136 289.03401947 C21.86847312 289.04589768 17.34872328 289.03945681 12.82859325 289.01810926 C11.18935658 289.01362371 9.5500849 289.01595297 7.91087055 289.02561241 C5.68986775 289.03770096 3.4703155 289.02538062 1.24938965 289.00672913 C0.01366966 289.00607972 -1.22205032 289.00543031 -2.49521637 289.00476122 C-5.60351562 288.50336456 -5.60351562 288.50336456 -8.00036192 286.77527189 C-9.86444325 284.13359129 -10.10442321 282.85359761 -10.10688019 279.64948273 C-10.11731118 278.66863457 -10.12774217 277.68778641 -10.13848925 276.67721558 C-10.12956636 275.6021299 -10.12064347 274.52704422 -10.1114502 273.41938019 C-10.11769016 272.27539009 -10.12393012 271.13139999 -10.13035917 269.95274353 C-10.14356746 266.7768544 -10.13879534 263.6015752 -10.1264143 260.42570114 C-10.11737623 257.00095343 -10.13132731 253.57628914 -10.14233398 250.15155792 C-10.1601372 243.44234654 -10.15627128 236.73331397 -10.14468342 230.02409554 C-10.13565642 224.57226466 -10.13442191 219.12048396 -10.13877869 213.66864777 C-10.13939162 212.89324347 -10.14000455 212.11783917 -10.14063606 211.31893778 C-10.14191493 209.74380682 -10.14321179 208.16867588 -10.14452642 206.59354496 C-10.15593749 191.81731476 -10.14281028 177.04118376 -10.12132496 162.26496983 C-10.10345348 149.58136422 -10.10655744 136.89790503 -10.125 124.21430206 C-10.14639744 109.49159839 -10.15483881 94.7689817 -10.14255095 80.04626465 C-10.14127672 78.47687023 -10.14001924 76.9074758 -10.13877869 75.33808136 C-10.13816158 74.56587328 -10.13754448 73.79366521 -10.13690868 72.99805689 C-10.13345239 67.5516441 -10.13929012 62.1052864 -10.1486969 56.65888214 C-10.15990578 50.02310966 -10.15690043 43.38752648 -10.13557392 36.75177574 C-10.12504831 33.36490075 -10.12096692 29.97834159 -10.13417053 26.59146881 C-10.14504491 22.92311032 -10.13145916 19.25564968 -10.1114502 15.58734894 C-10.12037308 14.51226326 -10.12929597 13.43717758 -10.13848925 12.32951355 C-10.12805826 11.34866539 -10.11762727 10.36781723 -10.10688019 9.3572464 C-10.10623078 8.51036003 -10.10558137 7.66347366 -10.10491228 6.79092407 C-8.88829352 1.24025321 -5.21472069 0.00341139 0 0 Z " fill="#000000" transform="translate(57.603515625,95.49663543701172)"/>
<path d="M0 0 C4.64203194 4.40155613 5.78869055 10.01951883 7.453125 15.98828125 C7.75820984 17.04661667 8.06329468 18.10495209 8.37762451 19.19535828 C9.34615702 22.56468279 10.29826226 25.93839743 11.25 29.3125 C11.90517078 31.60252258 12.56140873 33.89224013 13.21875 36.18164062 C14.82488389 41.78428452 16.41756854 47.39061833 18 53 C18.16873123 52.4097554 18.33746246 51.8195108 18.51130676 51.21138 C20.27111215 45.0606947 22.04096791 38.91296568 23.81665039 32.7668457 C24.47775572 30.47364165 25.13630708 28.1796997 25.79223633 25.88500977 C26.73626694 22.58411846 27.68949305 19.28600216 28.64453125 15.98828125 C28.9352803 14.96414627 29.22602936 13.94001129 29.52558899 12.88484192 C32.92185715 1.2356525 32.92185715 1.2356525 37.3125 -1.375 C40.69328403 -2.16122884 42.67798703 -2.03812905 46 -1 C52.08047033 3.34918429 52.5286876 9.1254993 53.7890625 16.17578125 C54.01902924 17.37373825 54.24899597 18.57169525 54.4859314 19.80595398 C55.21721169 23.63827534 55.92144665 27.47500196 56.625 31.3125 C57.10499413 33.85254993 57.58674714 36.39226815 58.0703125 38.93164062 C58.99375647 43.79667469 59.90428757 48.66380012 60.80175781 53.53369141 C61.51626 57.40979185 62.24350096 61.28235516 63.00292969 65.14990234 C63.14669037 65.88806686 63.29045105 66.62623138 63.43856812 67.38676453 C63.79970264 69.23274967 64.16592566 71.07773751 64.53271484 72.92260742 C65.75191514 80.95187586 65.75191514 80.95187586 62.9375 84.875 C60 87 60 87 56.4375 87.5625 C52.3032009 86.88597833 51.49507234 86.31055516 49 83 C47.98141841 79.97112694 47.44293769 76.88971966 46.89453125 73.74609375 C46.72499435 72.84883072 46.55545746 71.95156769 46.38078308 71.02711487 C45.84331651 68.16641772 45.32736836 65.30234205 44.8125 62.4375 C44.28226731 59.57011115 43.74772313 56.70355637 43.21208191 53.83717346 C42.88069247 52.05501532 42.55333513 50.2721017 42.23042297 48.48838806 C42.08324326 47.68067459 41.93606354 46.87296112 41.78442383 46.04077148 C41.65659012 45.33113754 41.52875641 44.6215036 41.39704895 43.8903656 C40.99346901 41.78962316 40.99346901 41.78962316 40 39 C39.47829224 40.86918091 39.47829224 40.86918091 38.94604492 42.77612305 C37.650742 47.40941443 36.34574665 52.03992941 35.0378418 56.66967773 C34.4736787 58.67186551 33.91212859 60.67479151 33.35327148 62.6784668 C32.54840913 65.56237803 31.73411273 68.44348278 30.91796875 71.32421875 C30.67096725 72.21711105 30.42396576 73.11000336 30.16947937 74.029953 C27.12137142 84.70360635 27.12137142 84.70360635 22.75 87.375 C19.09353255 88.20601533 16.61903706 87.98701011 13 87 C9.8819001 83.70614537 8.31327012 80.74375962 7.03515625 76.421875 C6.71224609 75.35050293 6.38933594 74.27913086 6.05664062 73.17529297 C5.72857422 72.04494629 5.40050781 70.91459961 5.0625 69.75 C4.71767578 68.59516113 4.37285156 67.44032227 4.01757812 66.25048828 C3.00082557 62.83676535 1.99917545 59.41890222 1 56 C0.45791026 54.16901036 -0.08497027 52.33825452 -0.62890625 50.5078125 C-1.7651563 46.67544841 -2.88775162 42.83939585 -4 39 C-4.77430828 42.81180246 -5.54411115 46.62450005 -6.3125 50.4375 C-6.54179199 51.57155273 -6.77108398 52.70560547 -7.00732422 53.87402344 C-8.03453078 58.99628282 -9.04493204 64.1144898 -9.89453125 69.26953125 C-10.02110107 70.036604 -10.1476709 70.80367676 -10.27807617 71.59399414 C-10.60382972 73.61843436 -10.91568229 75.6450975 -11.2265625 77.671875 C-12.00485007 81.02086998 -12.98188621 83.23405724 -15 86 C-18.09173752 87.54586876 -20.59429552 87.29359521 -24 87 C-26.4375 85.625 -26.4375 85.625 -28 83 C-29.06383197 74.57738553 -27.00404593 66.04908964 -25.48046875 57.796875 C-25.21811323 56.34589507 -24.95626641 54.89482307 -24.69490051 53.44366455 C-24.14827897 50.42035036 -23.59534574 47.39827888 -23.0378418 44.37695312 C-22.32616082 40.51704037 -21.63083043 36.65439047 -20.9402113 32.79066086 C-20.40381495 29.80049538 -19.85862265 26.81198479 -19.31081581 23.82389069 C-19.05094485 22.40031791 -18.79380864 20.97624294 -18.53954124 19.55165863 C-18.18270219 17.55983097 -17.81267117 15.57038051 -17.44213867 13.58105469 C-17.13236336 11.8875589 -17.13236336 11.8875589 -16.81632996 10.15985107 C-15.69156248 5.80609963 -14.20031472 2.20031472 -11 -1 C-7.06726244 -2.74788336 -3.85800928 -1.5156465 0 0 Z " fill="#000000" transform="translate(260,199)"/>
<path d="M0 0 C8.38811985 9.38670555 12.35260318 20.93786237 12.18359375 33.42578125 C11.17030119 46.52489059 5.53870004 57.31913292 -4.03125 66.203125 C-14.64503007 74.06074605 -26.45954354 77.27473996 -39.625 75.80078125 C-47.46190836 74.36117526 -53.60531125 71.89544718 -60.03125 67.203125 C-60.66546875 66.76226562 -61.2996875 66.32140625 -61.953125 65.8671875 C-69.77992621 59.87587507 -74.74414168 50.6735113 -77.03125 41.203125 C-77.44035731 37.89789832 -77.50983859 34.65598003 -77.46875 31.328125 C-77.45972656 30.44970947 -77.45070313 29.57129395 -77.44140625 28.66625977 C-77.12569039 16.81704899 -72.99204583 8.01877139 -65.03125 -0.796875 C-45.9502747 -18.02757391 -18.80003471 -17.84640976 0 0 Z M-53.03125 10.203125 C-59.37366438 17.9549648 -61.55405177 24.63078769 -61.41796875 34.6171875 C-60.84537247 39.92671665 -58.93762248 43.78880854 -56.03125 48.203125 C-55.433125 49.13125 -54.835 50.059375 -54.21875 51.015625 C-48.39574792 56.83862708 -41.66838358 60.05901783 -33.43359375 60.26953125 C-24.61658296 59.8603029 -17.33425576 56.97959054 -11.15625 50.578125 C-6.70880175 45.01618617 -4.4563253 38.66445248 -3.59375 31.640625 C-4.79405735 22.2096387 -7.73710794 14.68968606 -15.10546875 8.4453125 C-26.86828439 -0.05347576 -41.93288228 0.53373166 -53.03125 10.203125 Z " fill="#000000" transform="translate(406.03125,210.796875)"/>
<path d="M0 0 C0.70309296 -0.0038269 1.40618591 -0.00765381 2.13058472 -0.01159668 C3.61832104 -0.01431419 5.10610526 -0.00696394 6.59375 0.00976562 C8.83966653 0.03098992 11.08231397 0.010064 13.328125 -0.015625 C24.50243255 -0.03815259 33.56392993 1.56563828 41.92578125 9.48828125 C51.1892309 19.90717193 54.18939586 32.82348574 53.7421875 46.53125 C52.757711 58.92683772 49.01564179 70.3934567 39.671875 79.03125 C32.16086179 84.86977039 25.54723374 86.62633841 16.1796875 87.09375 C15.3762793 87.1340332 14.57287109 87.17431641 13.74511719 87.21582031 C11.41105196 87.32750257 9.07672746 87.43006412 6.7421875 87.53125 C5.61425781 87.58667969 4.48632812 87.64210938 3.32421875 87.69921875 C-1.9773912 87.85278262 -5.7171189 87.63804036 -10.2578125 84.53125 C-11.75065813 81.54555875 -11.42251232 78.48278906 -11.43481445 75.20751953 C-11.44138565 74.45287415 -11.44795685 73.69822876 -11.45472717 72.92071533 C-11.47446992 70.41849676 -11.48612406 67.9163382 -11.49609375 65.4140625 C-11.50016928 64.56034939 -11.5042448 63.70663628 -11.50844383 62.82705307 C-11.5293074 58.30967195 -11.54360862 53.79232124 -11.55297852 49.27490234 C-11.56405176 44.60504123 -11.59846109 39.93565548 -11.63815022 35.2659626 C-11.66427084 31.67832542 -11.67266621 28.09080237 -11.67625999 24.50307846 C-11.68113672 22.78146016 -11.69278155 21.05984732 -11.71129799 19.33832169 C-11.73559652 16.92975202 -11.73474213 14.52242374 -11.7277832 12.11376953 C-11.74059326 11.40193512 -11.75340332 10.69010071 -11.76660156 9.95669556 C-11.73121298 6.59860417 -11.46797652 4.81294397 -9.43623352 2.08969116 C-6.2807936 -0.16770877 -3.8495952 0.01338158 0 0 Z M4.7421875 15.53125 C4.7421875 34.01125 4.7421875 52.49125 4.7421875 71.53125 C19.25110477 71.87564395 19.25110477 71.87564395 31.05078125 64.640625 C36.93957759 57.29662957 38.30223781 47.83827805 37.48828125 38.671875 C36.3933128 31.52991864 34.57402562 25.22149621 29.2421875 20.15625 C21.0031065 14.80084735 15.0331051 15.53125 4.7421875 15.53125 Z " fill="#000000" transform="translate(114.2578125,198.46875)"/>
<path d="M0 0 C1.24245483 -0.00574036 1.24245483 -0.00574036 2.51000977 -0.01159668 C4.25831317 -0.01431425 6.00665734 -0.00696381 7.75488281 0.00976562 C10.42865777 0.03117918 13.09974596 0.00996056 15.7734375 -0.015625 C17.47396425 -0.01298169 19.17448934 -0.00785665 20.875 0 C22.07201538 -0.01214539 22.07201538 -0.01214539 23.29321289 -0.02453613 C26.91839252 0.0366063 29.0036707 0.19682569 31.91796875 2.44335938 C33.51711723 4.64064693 34.27339681 5.82354743 34.4375 8.53125 C33.36151117 12.5417538 31.98170731 14.4117716 28.4375 16.53125 C25.68847656 16.87182617 25.68847656 16.87182617 22.578125 16.82421875 C21.46308594 16.81455078 20.34804687 16.80488281 19.19921875 16.79492188 C17.46091797 16.7572168 17.46091797 16.7572168 15.6875 16.71875 C13.92599609 16.69844727 13.92599609 16.69844727 12.12890625 16.67773438 C9.23157483 16.64240106 6.33447935 16.5885949 3.4375 16.53125 C3.4375 23.13125 3.4375 29.73125 3.4375 36.53125 C5.84095703 36.46164063 5.84095703 36.46164063 8.29296875 36.390625 C10.40362718 36.35310218 12.51430578 36.31670257 14.625 36.28125 C16.20764648 36.23097656 16.20764648 36.23097656 17.82226562 36.1796875 C25.62215326 36.0812662 25.62215326 36.0812662 29.63671875 38.296875 C31.51525179 40.62772294 32.12014873 41.57963505 32.0625 44.53125 C32.07539063 45.19125 32.08828125 45.85125 32.1015625 46.53125 C30.97525436 49.9234251 29.5742838 50.80008239 26.4375 52.53125 C22.48733185 53.01525082 18.59693888 52.90742032 14.625 52.78125 C13.55056641 52.76320312 12.47613281 52.74515625 11.36914062 52.7265625 C8.72487679 52.67955337 6.08107317 52.60781366 3.4375 52.53125 C3.4375 59.13125 3.4375 65.73125 3.4375 72.53125 C5.94923828 72.47904297 5.94923828 72.47904297 8.51171875 72.42578125 C10.71613579 72.39763976 12.9205637 72.37033998 15.125 72.34375 C16.22779297 72.31861328 17.33058594 72.29347656 18.46679688 72.26757812 C19.53349609 72.25791016 20.60019531 72.24824219 21.69921875 72.23828125 C22.67850342 72.2225708 23.65778809 72.20686035 24.66674805 72.19067383 C27.95417253 72.59475852 29.78978378 73.56780429 32.4375 75.53125 C33.9375 78.34375 33.9375 78.34375 34.4375 81.53125 C32.34447674 87.07776163 32.34447674 87.07776163 29.4375 88.53125 C26.64023901 88.66683057 23.86908669 88.74395471 21.0703125 88.76953125 C20.23917938 88.777603 19.40804626 88.78567474 18.55172729 88.79399109 C16.79150478 88.80783071 15.03125545 88.81855342 13.27099609 88.82641602 C10.5798867 88.84363873 7.89000281 88.88752537 5.19921875 88.93164062 C3.48959237 88.94176677 1.77995555 88.95028312 0.0703125 88.95703125 C-0.73397186 88.97453934 -1.53825623 88.99204742 -2.36691284 89.01008606 C-5.69692606 88.99716593 -8.00251346 88.92261481 -10.77456665 86.98527527 C-13.19779049 83.65928298 -13.12418458 80.7592143 -13.08007812 76.796875 C-13.0870874 76.02243042 -13.09409668 75.24798584 -13.10131836 74.45007324 C-13.11890499 71.89343268 -13.10727389 69.33790156 -13.09375 66.78125 C-13.09644474 65.00292753 -13.10032701 63.22460649 -13.10534668 61.44628906 C-13.11124261 57.72056032 -13.10267587 53.99521536 -13.08398438 50.26953125 C-13.06119459 45.49425713 -13.07431719 40.71988224 -13.09827423 35.94464111 C-13.11272975 32.27288032 -13.10812739 28.60133265 -13.09776306 24.92956543 C-13.09509508 23.16890354 -13.09836804 21.40822229 -13.10768127 19.64758301 C-13.11784308 17.18640913 -13.10235253 14.7266905 -13.08007812 12.265625 C-13.08817505 11.5382312 -13.09627197 10.8108374 -13.10461426 10.06140137 C-13.04824952 6.6990432 -12.77785552 4.82615033 -10.77258301 2.0802002 C-7.39817694 -0.28477294 -3.97226439 -0.04030415 0 0 Z " fill="#000000" transform="translate(189.5625,197.46875)"/>
</svg>
