<?xml version="1.0" standalone="no"?>
<!DOCTYPE svg PUBLIC "-//W3C//DTD SVG 20010904//EN"
 "http://www.w3.org/TR/2001/REC-SVG-20010904/DTD/svg10.dtd">
<svg version="1.0" xmlns="http://www.w3.org/2000/svg"
 width="512.000000pt" height="512.000000pt" viewBox="0 0 512.000000 512.000000"
 preserveAspectRatio="xMidYMid meet">

<g transform="translate(0.000000,512.000000) scale(0.100000,-0.100000)"
fill="#000000" stroke="none">
<path d="M1266 4949 c-62 -15 -153 -68 -197 -116 -22 -24 -55 -74 -72 -111
l-32 -67 -3 -767 -3 -768 -375 0 -375 0 -24 -25 -25 -24 0 -511 0 -511 25 -24
24 -25 375 0 375 0 3 -768 3 -768 37 -76 c45 -91 103 -147 196 -191 l67 -32
208 -3 207 -4 0 81 0 81 -176 0 c-214 0 -241 7 -309 75 -66 65 -75 99 -75 269
l0 136 1070 0 1070 0 0 -60 c0 -128 45 -274 115 -371 l35 -49 -625 0 -625 0 0
-80 0 -80 815 0 816 0 24 25 c30 29 33 73 7 105 -14 17 -35 25 -82 32 -123 16
-217 87 -272 203 -96 206 -38 445 138 566 46 31 63 73 45 107 -6 11 -169 174
-363 363 -194 189 -364 358 -377 375 -48 67 -37 175 25 237 67 67 172 85 251
43 15 -8 142 -125 282 -260 239 -231 257 -246 291 -246 25 0 43 7 56 21 18 20
19 47 24 506 l5 484 355 -453 c195 -249 367 -476 382 -503 57 -106 58 -117 58
-868 l0 -688 25 -24 c32 -33 78 -33 111 0 l25 25 -3 722 -3 723 -28 81 c-15
45 -49 115 -76 155 -27 41 -229 304 -450 584 l-400 510 -1 68 0 67 535 0 536
0 24 25 25 24 0 511 0 511 -25 24 -24 25 -535 0 -534 0 -4 208 -3 208 -37 76
c-45 91 -103 147 -196 191 l-67 32 -1115 2 c-652 1 -1131 -3 -1154 -8z m2248
-161 c55 -16 138 -99 154 -154 7 -23 12 -67 12 -98 l0 -56 -1280 0 -1280 0 0
56 c0 31 5 75 12 98 15 51 99 137 148 153 53 17 2178 17 2234 1z m166 -508 l0
-40 -255 0 -256 0 -24 -25 c-24 -23 -25 -28 -25 -179 l0 -155 -115 -75 c-83
-55 -116 -82 -121 -100 -13 -53 2 -72 121 -153 l114 -78 1 -153 c0 -149 1
-154 25 -177 l24 -25 256 0 255 0 0 -572 0 -572 -67 65 c-268 257 -312 297
-355 318 -188 90 -410 17 -500 -167 -29 -59 -33 -76 -33 -152 0 -76 4 -93 32
-150 34 -69 41 -76 501 -523 l192 -187 -49 -61 c-27 -33 -59 -83 -72 -110
l-24 -49 -1092 0 -1093 0 0 520 0 520 255 0 256 0 24 25 c24 23 25 28 25 177
l1 153 114 78 c80 54 117 85 121 102 13 53 -2 72 -121 152 l-115 76 0 154 c0
150 -1 155 -25 178 l-24 25 -256 0 -255 0 0 600 0 600 1280 0 1280 0 0 -40z
m1120 -600 l0 -400 -760 0 -760 0 0 126 c0 69 -5 134 -10 144 -6 11 -44 43
-85 71 -41 29 -75 55 -75 58 0 3 34 28 76 55 41 27 79 57 84 67 6 10 10 76 10
148 l0 131 760 0 760 0 0 -400z m-3280 -851 c0 -72 4 -138 10 -148 5 -10 43
-40 84 -67 42 -27 76 -52 76 -55 0 -3 -34 -29 -75 -58 -41 -28 -79 -60 -85
-71 -5 -10 -10 -75 -10 -144 l0 -126 -600 0 -600 0 0 400 0 400 600 0 600 0 0
-131z"/>
<path d="M1500 3984 c-142 -52 -229 -183 -218 -327 26 -318 443 -407 597 -127
33 60 36 71 36 150 0 78 -3 91 -34 148 -58 106 -144 161 -265 168 -50 3 -84
-1 -116 -12z m163 -158 c103 -43 128 -177 48 -257 -65 -65 -157 -65 -222 0
-124 123 13 325 174 257z"/>
<path d="M2300 3984 c-142 -52 -229 -183 -218 -327 26 -318 443 -407 597 -127
33 60 36 71 36 150 0 78 -3 91 -34 148 -58 106 -144 161 -265 168 -50 3 -84
-1 -116 -12z m163 -158 c103 -43 128 -177 48 -257 -112 -113 -296 -12 -267
146 18 94 128 150 219 111z"/>
<path d="M2300 2864 c-142 -52 -229 -183 -218 -327 26 -318 443 -407 597 -127
33 60 36 71 36 150 0 78 -3 91 -34 148 -58 106 -144 161 -265 168 -50 3 -84
-1 -116 -12z m163 -158 c103 -43 128 -177 48 -257 -65 -65 -157 -65 -222 0
-124 123 13 325 174 257z"/>
<path d="M1500 1744 c-142 -52 -229 -183 -218 -327 26 -318 443 -407 597 -127
33 60 36 71 36 150 0 78 -3 91 -34 148 -58 106 -144 161 -265 168 -50 3 -84
-1 -116 -12z m163 -158 c103 -43 128 -177 48 -257 -65 -65 -157 -65 -222 0
-124 123 13 325 174 257z"/>
<path d="M2300 1744 c-142 -52 -229 -183 -218 -327 26 -318 443 -407 597 -127
33 60 36 71 36 150 0 78 -3 91 -34 148 -58 106 -144 161 -265 168 -50 3 -84
-1 -116 -12z m163 -158 c103 -43 128 -177 48 -257 -65 -65 -157 -65 -222 0
-124 123 13 325 174 257z"/>
<path d="M3440 3840 l0 -80 160 0 160 0 0 80 0 80 -160 0 -160 0 0 -80z"/>
<path d="M3920 3840 l0 -80 360 0 360 0 0 80 0 80 -360 0 -360 0 0 -80z"/>
<path d="M3440 3520 l0 -80 440 0 440 0 0 80 0 80 -440 0 -440 0 0 -80z"/>
<path d="M4480 3520 l0 -80 80 0 80 0 0 80 0 80 -80 0 -80 0 0 -80z"/>
<path d="M665 2855 l-25 -24 0 -271 0 -271 25 -24 c13 -14 35 -25 48 -25 36 0
609 247 630 272 9 11 17 33 17 48 0 15 -8 37 -17 48 -21 25 -594 272 -630 272
-13 0 -35 -11 -48 -25z m352 -268 c29 -12 53 -24 53 -27 0 -3 -24 -15 -53 -27
-28 -11 -89 -37 -134 -57 l-83 -35 0 119 0 119 83 -35 c45 -20 106 -46 134
-57z"/>
<path d="M2320 560 l0 -80 80 0 80 0 0 80 0 80 -80 0 -80 0 0 -80z"/>
<path d="M1840 240 l0 -80 80 0 80 0 0 80 0 80 -80 0 -80 0 0 -80z"/>
</g>
</svg>
