<?xml version="1.0" encoding="UTF-8"?>
<svg version="1.1" xmlns="http://www.w3.org/2000/svg" width="512" height="512">
<path d="M0 0 C12.8545501 11.02097239 19.64378331 24.89681101 20.98046875 41.6484375 C21.83658527 57.97738399 15.72360276 71.37776674 5.58984375 83.7890625 C-4.60820938 94.97158115 -18.92288606 100.66936466 -33.8515625 101.36279297 C-47.45613619 101.57742823 -57.84592326 97.44945379 -69.86328125 90.89453125 C-97.91328125 118.94453125 -125.96328125 146.99453125 -154.86328125 175.89453125 C-151.02915334 181.65293407 -151.02915334 181.65293407 -147.17578125 187.3984375 C-139.41594783 199.56936671 -134.86328125 213.50636409 -134.86328125 227.89453125 C-120.67328125 227.89453125 -106.48328125 227.89453125 -91.86328125 227.89453125 C-90.37828125 222.94453125 -90.37828125 222.94453125 -88.86328125 217.89453125 C-83.91094764 209.0290843 -75.40398461 202.19708241 -65.86328125 198.89453125 C-54.39606871 196.14005601 -42.46137051 197.27011637 -32.328125 203.4375 C-23.28249809 210.03673032 -17.33752113 218.75930974 -15.328125 229.84765625 C-14.04053848 241.39153542 -16.48925895 251.12979193 -22.86328125 260.89453125 C-29.94641468 268.96377154 -38.54382174 274.39677536 -49.3671875 275.1328125 C-61.64936042 275.46926887 -71.52449247 273.45337723 -80.86328125 264.89453125 C-86.74657328 259.09314119 -90.24199363 253.00096935 -91.86328125 244.89453125 C-106.05328125 244.89453125 -120.24328125 244.89453125 -134.86328125 244.89453125 C-134.86328125 247.53453125 -134.86328125 250.17453125 -134.86328125 252.89453125 C-137.68414749 268.06083561 -143.93261071 281.40366097 -152.86328125 293.89453125 C-153.52328125 294.88453125 -154.18328125 295.87453125 -154.86328125 296.89453125 C-136.38328125 315.37453125 -117.90328125 333.85453125 -98.86328125 352.89453125 C-94.57328125 350.91453125 -90.28328125 348.93453125 -85.86328125 346.89453125 C-73.22886452 343.89229361 -59.34201813 344.12788285 -47.86328125 350.89453125 C-46.74566406 351.52681641 -46.74566406 351.52681641 -45.60546875 352.171875 C-34.26366233 359.11152266 -27.56688924 369.18895235 -24.015625 381.9375 C-21.40306663 395.0348953 -23.34240959 407.75391454 -30.28125 419.2421875 C-31.71516498 421.23736679 -33.22168618 423.06739964 -34.86328125 424.89453125 C-35.39824219 425.50941406 -35.93320312 426.12429688 -36.484375 426.7578125 C-44.60211675 435.51297508 -55.78884577 440.05309008 -67.57421875 441.28125 C-81.94127153 441.71078044 -94.38897007 437.54495106 -105.11328125 427.86328125 C-115.61926424 416.87975357 -119.33807604 404.46660169 -119.1171875 389.65234375 C-118.6433593 382.63968643 -116.89244838 376.619292 -113.55078125 370.45703125 C-111.53070052 367.22532415 -111.53070052 367.22532415 -112.43954468 365.0043335 C-114.31853052 362.2199079 -116.57334619 359.92234278 -118.95556641 357.57519531 C-119.73141335 356.79891029 -119.73141335 356.79891029 -120.52293396 356.00694275 C-122.22803796 354.30322836 -123.94010893 352.60670147 -125.65234375 350.91015625 C-126.83819425 349.72803718 -128.02360299 348.5454748 -129.20858765 347.36248779 C-132.32445763 344.25424397 -135.44628759 341.15205388 -138.56939697 338.05108643 C-141.75691744 334.88404623 -144.93876445 331.71131738 -148.12109375 328.5390625 C-154.36295101 322.31863722 -160.6111161 316.10459588 -166.86328125 309.89453125 C-170.02246446 311.43730108 -172.87502415 313.19109343 -175.80078125 315.14453125 C-188.95908616 323.53862231 -203.22171696 328.94655766 -218.86328125 329.89453125 C-218.86328125 333.52453125 -218.86328125 337.15453125 -218.86328125 340.89453125 C-217.56390625 341.26578125 -216.26453125 341.63703125 -214.92578125 342.01953125 C-205.64696218 345.1658812 -199.00831213 350.55557211 -193.86328125 358.89453125 C-188.06788762 370.73193101 -187.40485095 381.33392768 -191.60546875 393.84765625 C-195.38536723 403.00393207 -203.43499071 411.01230554 -212.48046875 415.109375 C-224.11468213 418.94294367 -235.6415365 418.79313315 -246.61328125 413.26953125 C-256.19552133 407.55332463 -262.23179158 400.20232324 -265.609375 389.5390625 C-268.44385929 378.18157718 -266.70840598 367.16613984 -260.73828125 357.08203125 C-254.97159459 348.69192529 -247.55365444 343.84377527 -237.86328125 340.89453125 C-237.20328125 340.89453125 -236.54328125 340.89453125 -235.86328125 340.89453125 C-235.86328125 337.26453125 -235.86328125 333.63453125 -235.86328125 329.89453125 C-238.05984375 329.80171875 -238.05984375 329.80171875 -240.30078125 329.70703125 C-257.18128294 328.08598435 -274.1319153 321.14090117 -286.86328125 309.89453125 C-290.35300128 311.38983449 -292.5979352 313.38644787 -295.26464844 316.06884766 C-296.12523865 316.92958893 -296.98582886 317.7903302 -297.87249756 318.67715454 C-298.79242493 319.60740448 -299.71235229 320.53765442 -300.66015625 321.49609375 C-301.61807222 322.45774211 -302.57643239 323.41894819 -303.53521729 324.37973022 C-306.0516325 326.90376407 -308.56198232 329.43374716 -311.07110596 331.96502686 C-313.63490566 334.54932315 -316.20441043 337.12793324 -318.7734375 339.70703125 C-323.80897582 344.76398822 -328.83812685 349.82725381 -333.86328125 354.89453125 C-332.52384443 358.29905116 -331.06144112 361.52853101 -329.36328125 364.76953125 C-326.08303078 371.291441 -324.4379211 377.61575979 -323.86328125 384.89453125 C-323.80914062 385.5596875 -323.755 386.22484375 -323.69921875 386.91015625 C-323.09571951 401.72331939 -328.65604476 416.2672705 -338.30078125 427.39453125 C-349.80403834 439.26698072 -363.52029179 445.71363436 -380.17578125 446.33203125 C-395.4828366 445.90632113 -409.59122168 440.63493374 -420.80078125 430.0859375 C-432.98612856 417.13900598 -437.54175504 402.1147724 -437.17578125 384.734375 C-436.44511102 369.2411216 -429.06097653 356.35391695 -417.86328125 345.89453125 C-404.04082449 335.46286474 -390.00650628 331.58776466 -372.86328125 332.89453125 C-364.9448381 334.01764774 -358.34895115 336.87247238 -351.359375 340.6875 C-348.87525112 342.11220123 -348.87525112 342.11220123 -345.86328125 341.89453125 C-343.67057028 340.14167971 -343.67057028 340.14167971 -341.3918457 337.76367188 C-340.49113846 336.86273804 -339.59043121 335.9618042 -338.66242981 335.03356934 C-337.68364646 334.03946504 -336.70502791 333.04519848 -335.7265625 332.05078125 C-334.72259413 331.04121828 -333.71796179 330.0323152 -332.71269226 329.02404785 C-330.06744767 326.36734383 -327.43133481 323.70175426 -324.79699707 321.03424072 C-322.10773224 318.31429871 -319.40996454 315.60281982 -316.71289062 312.890625 C-311.42130905 307.56685991 -306.13934197 302.23368324 -300.86328125 296.89453125 C-301.82804634 295.44664355 -302.79290869 293.99882065 -303.7578125 292.55102539 C-304.29510986 291.74476212 -304.83240723 290.93849884 -305.38598633 290.10780334 C-306.43718174 288.53291032 -307.49256186 286.96080701 -308.55078125 285.390625 C-316.31061467 273.21969579 -320.86328125 259.28269841 -320.86328125 244.89453125 C-326.47328125 244.89453125 -332.08328125 244.89453125 -337.86328125 244.89453125 C-338.21390625 246.35890625 -338.56453125 247.82328125 -338.92578125 249.33203125 C-341.49132672 257.84771502 -347.52111943 264.92911047 -354.86328125 269.89453125 C-364.98839318 275.25791821 -375.79868637 276.53915379 -387.04296875 274.24609375 C-396.75560401 271.0268917 -404.67245068 264.72527351 -409.86328125 255.89453125 C-415.46752527 244.1471736 -416.24407731 234.43301274 -412.125 222.046875 C-408.16365118 212.14963506 -401.48644911 205.12278274 -391.80859375 200.70703125 C-381.3678071 196.34622076 -370.16210072 196.56858112 -359.6171875 200.5703125 C-347.98925391 206.16161674 -342.1235116 215.09697029 -337.86328125 226.89453125 C-329.44828125 227.38953125 -329.44828125 227.38953125 -320.86328125 227.89453125 C-320.86328125 225.58453125 -320.86328125 223.27453125 -320.86328125 220.89453125 C-318.15626932 204.54560395 -311.2890227 189.73261181 -300.86328125 176.89453125 C-304.74120569 172.25598568 -308.76364457 167.85206147 -313.05224609 163.59204102 C-313.93138168 162.71268639 -313.93138168 162.71268639 -314.82827759 161.81556702 C-316.74122729 159.90330681 -318.65768038 157.99460039 -320.57421875 156.0859375 C-321.9110772 154.75094666 -323.24771317 153.41573298 -324.58413696 152.08030701 C-328.08354104 148.58470108 -331.58593895 145.09211011 -335.08898926 141.60015869 C-338.6705299 138.02889055 -342.24920281 134.45475123 -345.828125 130.88085938 C-352.83705515 123.88261884 -359.84915449 116.8875631 -366.86328125 109.89453125 C-367.73210937 110.310979 -368.6009375 110.72742676 -369.49609375 111.15649414 C-370.64851563 111.70039795 -371.8009375 112.24430176 -372.98828125 112.8046875 C-374.12523437 113.34488525 -375.2621875 113.88508301 -376.43359375 114.44165039 C-387.2761161 119.03474909 -399.45093139 118.94345958 -410.55078125 115.20703125 C-424.44850245 109.53902014 -433.80477315 101.18506158 -439.70703125 87.18359375 C-444.25991512 74.23248491 -443.6901741 61.52745399 -438.37109375 48.8984375 C-432.33881799 36.88076895 -422.36378834 28.51672474 -409.86328125 23.89453125 C-409.2084375 23.64832031 -408.55359375 23.40210938 -407.87890625 23.1484375 C-396.83480214 19.72665311 -383.49254398 21.23514651 -373.17578125 26.18359375 C-360.0960404 33.64064112 -351.56223697 43.76136007 -347.51953125 58.43359375 C-345.28695296 70.2077864 -346.44894453 81.77135608 -352.17578125 92.33203125 C-354.17815598 95.54929881 -354.17815598 95.54929881 -353.34439087 97.72735596 C-351.19504241 100.8723054 -348.55228167 103.46593602 -345.85302734 106.13183594 C-345.23826035 106.74689499 -344.62349335 107.36195404 -343.99009705 107.99565125 C-341.96034301 110.02401383 -339.9236005 112.04520351 -337.88671875 114.06640625 C-336.476666 115.47272822 -335.06705467 116.87949289 -333.65786743 118.28668213 C-329.95016083 121.98675743 -326.23648701 125.68078692 -322.52154541 129.37359619 C-318.73079866 133.14387378 -314.94571668 136.91982886 -311.16015625 140.6953125 C-303.73340284 148.10062485 -296.30033411 155.49956357 -288.86328125 162.89453125 C-285.28092135 161.52164417 -282.58286528 160.06053164 -279.55078125 157.70703125 C-267.26913417 148.99921648 -251.0217965 142.89453125 -235.86328125 142.89453125 C-235.86328125 128.70453125 -235.86328125 114.51453125 -235.86328125 99.89453125 C-238.83328125 99.39953125 -238.83328125 99.39953125 -241.86328125 98.89453125 C-252.06449396 94.56203651 -259.1151669 87.87995961 -263.86328125 77.89453125 C-267.89885774 67.12287972 -267.88018541 57.66713785 -263.86328125 46.89453125 C-259.25559292 36.91120653 -252.11925979 29.73439139 -241.90625 25.5859375 C-232.22899598 22.31084388 -220.64950561 22.61987017 -211.2578125 26.6328125 C-201.16241027 31.95224956 -193.61623751 40.11948316 -190.17578125 51.0859375 C-187.34278764 62.39823835 -188.8606187 72.92704591 -194.55078125 83.14453125 C-199.25365693 90.46011564 -205.67572869 95.85484108 -213.86328125 98.89453125 C-216.33828125 99.38953125 -216.33828125 99.38953125 -218.86328125 99.89453125 C-218.86328125 114.08453125 -218.86328125 128.27453125 -218.86328125 142.89453125 C-214.24328125 143.55453125 -209.62328125 144.21453125 -204.86328125 144.89453125 C-191.60783452 148.19295089 -179.40566627 154.19945237 -168.86328125 162.89453125 C-165.76752585 161.51628708 -163.65641836 159.93550007 -161.26922607 157.54098511 C-160.57376678 156.84827515 -159.8783075 156.15556519 -159.16177368 155.44186401 C-158.40939423 154.68229401 -157.65701477 153.922724 -156.88183594 153.14013672 C-156.08145905 152.34005188 -155.28108215 151.53996704 -154.45645142 150.71563721 C-151.81125178 148.06904388 -149.1732074 145.41543597 -146.53515625 142.76171875 C-144.70284906 140.92568159 -142.87009991 139.09008539 -141.03692627 137.25491333 C-136.70552691 132.91665706 -132.37861021 128.57397621 -128.05383229 124.22912037 C-123.12912976 119.28205281 -118.19873795 114.34067208 -113.26786184 109.39975905 C-103.12666235 99.23766197 -92.99262141 89.0684488 -82.86328125 78.89453125 C-84.61264069 74.46981687 -86.59003361 70.19689294 -88.64453125 65.90625 C-93.84572216 53.05330708 -93.91358595 36.64444046 -89.1171875 23.67578125 C-82.03208405 7.96053622 -71.04881574 -2.59217511 -55.05078125 -8.98046875 C-36.25035313 -16.03354862 -15.93920294 -11.72064173 0 0 Z M-61.86328125 14.89453125 C-62.47816406 15.40757813 -63.09304688 15.920625 -63.7265625 16.44921875 C-70.15815352 22.20597474 -74.53892233 30.91216548 -75.1015625 39.5546875 C-75.317974 48.10196692 -75.20549451 55.27874911 -70.86328125 62.89453125 C-70.22712891 64.06048828 -70.22712891 64.06048828 -69.578125 65.25 C-64.33431791 73.97020288 -56.44825492 79.64123727 -46.86328125 82.89453125 C-35.45355048 85.66837179 -24.83100513 83.82839952 -14.67578125 78.20703125 C-5.6631538 72.4575965 0.22827552 64.11935205 2.95703125 53.7890625 C5.33055781 41.21538067 2.97615907 31.58339479 -3.86328125 20.89453125 C-4.72953125 19.53328125 -4.72953125 19.53328125 -5.61328125 18.14453125 C-13.86378208 9.89403042 -24.11803531 4.98560694 -35.86328125 4.39453125 C-45.71057857 4.87566956 -54.61226591 8.26777551 -61.86328125 14.89453125 Z M-417.86328125 48.89453125 C-423.50292842 56.18510078 -426.26076983 63.61788493 -425.80078125 72.83203125 C-424.74274605 80.82330885 -420.99893293 87.67922732 -414.86328125 92.89453125 C-414.07953125 93.59578125 -413.29578125 94.29703125 -412.48828125 95.01953125 C-405.8344135 99.77229393 -398.92176736 101.42295657 -390.86328125 100.89453125 C-381.1731529 99.14291601 -374.0504428 94.40811915 -368.42578125 86.33203125 C-363.60273965 78.36933654 -362.31703899 70.33875048 -364.515625 61.17578125 C-367.84067904 51.92842065 -374.07607367 45.21811745 -382.86328125 40.89453125 C-395.68415286 35.90863673 -408.31362373 39.32692325 -417.86328125 48.89453125 Z M-246.36328125 49.83203125 C-249.54529956 56.32865197 -250.72491231 61.87110498 -248.86328125 68.89453125 C-245.96928747 75.34234939 -241.69351067 79.66023075 -235.61328125 83.20703125 C-229.01447598 84.85673257 -222.72366132 84.7181622 -216.75 81.2890625 C-212.07235554 77.83167311 -208.72271809 73.82826414 -206.36328125 68.51953125 C-205.23860795 60.36564981 -206.25044271 54.50989571 -211.17578125 47.80859375 C-214.80736268 43.68943889 -218.89200801 41.25180764 -224.4296875 40.5859375 C-233.80629627 40.18251105 -240.21456759 42.6072927 -246.36328125 49.83203125 Z M-250.86328125 199.89453125 C-250.86328125 224.31453125 -250.86328125 248.73453125 -250.86328125 273.89453125 C-246.24328125 271.25453125 -241.62328125 268.61453125 -236.86328125 265.89453125 C-234.07476493 264.34644076 -231.28424756 262.80386907 -228.48828125 261.26953125 C-221.01300736 257.1404666 -213.61572855 252.88319458 -206.23828125 248.58203125 C-204.72741943 247.70200439 -204.72741943 247.70200439 -203.18603516 246.80419922 C-197.686996 243.58778009 -192.24611152 240.30195231 -186.86328125 236.89453125 C-189.12541599 234.41962819 -191.41582128 232.86957269 -194.34375 231.25 C-195.24891357 230.74484863 -196.15407715 230.23969727 -197.08666992 229.71923828 C-198.06482666 229.17895996 -199.0429834 228.63868164 -200.05078125 228.08203125 C-202.13492553 226.91811759 -204.21823194 225.75270259 -206.30078125 224.5859375 C-207.37972656 223.98152832 -208.45867187 223.37711914 -209.5703125 222.75439453 C-214.92775554 219.7285196 -220.24063963 216.62746522 -225.55078125 213.51953125 C-226.50428467 212.96160889 -227.45778809 212.40368652 -228.44018555 211.82885742 C-229.36742432 211.28592041 -230.29466309 210.7429834 -231.25 210.18359375 C-232.1579834 209.65282227 -233.0659668 209.12205078 -234.00146484 208.57519531 C-236.06083412 207.36578582 -238.11527141 206.14796387 -240.16650391 204.92480469 C-241.24851074 204.28317383 -242.33051758 203.64154297 -243.4453125 202.98046875 C-244.43378174 202.39056152 -245.42225098 201.8006543 -246.44067383 201.19287109 C-248.69898463 199.73707564 -248.69898463 199.73707564 -250.86328125 199.89453125 Z M-394.44921875 224.82421875 C-397.95394501 229.9554478 -398.21421762 234.81175513 -397.3359375 240.7578125 C-395.75777332 247.89215802 -391.45127438 251.94033235 -385.80078125 256.20703125 C-380.74394778 258.8783585 -375.40256158 258.81069721 -369.86328125 257.89453125 C-363.68208633 255.54875922 -358.8490174 251.97130698 -355.703125 246.09375 C-353.24358409 239.65318474 -353.22232933 233.42129413 -355.72265625 227 C-358.4480099 221.96929584 -362.29604033 218.81121934 -367.17578125 215.95703125 C-378.61349891 212.66141769 -387.05004962 215.66816928 -394.44921875 224.82421875 Z M-72.453125 224.8828125 C-75.80099573 229.65886077 -76.35708817 234.16637095 -75.86328125 239.89453125 C-73.78849561 247.83020771 -69.96025015 252.66654978 -62.86328125 256.89453125 C-57.02352357 258.84111714 -50.29748945 258.91961004 -44.61328125 256.39453125 C-38.97451619 253.11105283 -34.95672893 248.40034884 -32.36328125 242.45703125 C-31.34647324 235.21227415 -32.20815574 229.75691744 -36.40625 223.68359375 C-40.33872021 218.85498422 -44.79631855 215.35268129 -51.1171875 214.640625 C-60.70304215 214.18694333 -66.47511767 217.51583763 -72.453125 224.8828125 Z M-411.2265625 363.765625 C-419.12101601 374.03406692 -420.75665685 384.33694183 -419.86328125 396.89453125 C-417.45793095 407.97288748 -410.84211978 416.23663778 -401.86328125 422.89453125 C-392.88955733 428.49874405 -383.0694524 430.37476567 -372.6875 428.2421875 C-359.84394961 424.72568075 -351.70371474 418.30621597 -344.86328125 406.89453125 C-339.58721476 396.23248022 -339.96263875 386.09577517 -343.60546875 375.078125 C-347.6613496 364.81246384 -354.65226367 357.66181641 -364.61328125 353.01953125 C-381.5868068 345.69666737 -398.70734855 350.72112934 -411.2265625 363.765625 Z M-245.640625 365.984375 C-249.27205852 371.65776475 -250.5202685 376.63831139 -249.56640625 383.3671875 C-247.94069197 389.21072716 -244.5355808 393.50687843 -239.92578125 397.33203125 C-233.81102271 400.45180601 -228.58891476 401.63059344 -221.86328125 399.89453125 C-215.1643703 397.68679224 -211.43557894 393.89130639 -207.86328125 387.89453125 C-205.21412744 382.59622363 -205.63824106 377.56034213 -206.86328125 371.89453125 C-208.91915696 366.20735334 -212.93817538 362.26774381 -217.86328125 358.89453125 C-228.05473953 354.12406142 -238.91430793 357.15959689 -245.640625 365.984375 Z M-91.86328125 369.89453125 C-98.60081221 376.63206221 -101.87393906 383.84813128 -102.30078125 393.33203125 C-101.92257644 404.61514156 -96.26088309 411.63897157 -88.48828125 419.20703125 C-81.18490487 423.90205892 -73.41508076 424.87826766 -64.86328125 423.89453125 C-56.44003354 421.85253181 -49.78852488 417.41304483 -45.0703125 410.125 C-40.51339377 401.69307674 -38.7799335 394.66731024 -40.92578125 385.26953125 C-43.46641924 377.11879672 -48.81120643 370.66549096 -55.86328125 365.89453125 C-68.21731719 359.53108417 -81.07604941 361.42402034 -91.86328125 369.89453125 Z " fill="#000000" transform="translate(466.86328125,39.10546875)"/>
</svg>
