<?xml version="1.0" encoding="UTF-8"?>
<svg version="1.1" xmlns="http://www.w3.org/2000/svg" width="512" height="512">
<path d="M0 0 C1.56655751 -0.01654643 3.13303993 -0.04381982 4.69921875 -0.08203125 C6.95686018 -0.13684573 9.21272973 -0.15867946 11.47094727 -0.17333984 C12.51802605 -0.2073439 12.51802605 -0.2073439 13.58625793 -0.24203491 C17.26456797 -0.22608233 18.74151683 0.05531232 21.42041016 2.65600586 C23.03048396 5.32575258 24.24042318 8.02182517 25.37695312 10.92236328 C28.43874099 18.61839961 28.43874099 18.61839961 34.98266602 23.35009766 C41.96588372 25.20107102 47.12288223 23.75276928 53.67016602 21.28759766 C61.33141521 18.4422919 61.33141521 18.4422919 65.04516602 19.35009766 C68.04415152 21.34477174 70.48612045 23.82808008 73.04516602 26.35009766 C74.16620861 27.38931976 75.2887132 28.42696609 76.41235352 29.46337891 C77.60396079 30.59069845 78.79405958 31.71961458 79.98266602 32.85009766 C80.56282471 33.3833667 81.1429834 33.91663574 81.74072266 34.46606445 C84.52022845 37.17541197 85.91803576 38.95493827 87.12719727 42.71337891 C87.02187528 47.38265361 85.56321175 50.77292343 83.79516602 55.03759766 C81.76133769 60.62905491 80.28335691 65.08175344 82.10766602 70.97509766 C85.97832422 78.261637 93.84852683 80.76861154 101.22338867 83.46557617 C103.04516602 84.35009766 103.04516602 84.35009766 106.04516602 87.35009766 C106.04516602 90.32009766 106.04516602 93.29009766 106.04516602 96.35009766 C114.95516602 96.35009766 123.86516602 96.35009766 133.04516602 96.35009766 C132.88774312 87.82417834 132.88774312 87.82417834 132.68481445 79.29931641 C132.60310239 70.49550061 133.53870768 65.01594046 139.79516602 58.47509766 C147.01498892 53.75444422 154.76943819 54.0608286 163.11743164 54.09130859 C164.89944221 54.08605164 164.89944221 54.08605164 166.717453 54.08068848 C169.95507242 54.07342611 173.19252661 54.07508365 176.43014336 54.08144665 C179.8309957 54.086538 183.23183762 54.08180653 186.63269043 54.07867432 C192.34197956 54.07504376 198.05121681 54.07980979 203.76049805 54.08935547 C210.34523568 54.10023828 216.92984943 54.09671206 223.51458406 54.08570266 C229.18532252 54.07660375 234.85602385 54.0753572 240.52676725 54.08058 C243.90611518 54.08368542 247.28540503 54.08414856 250.66474915 54.07750702 C254.43421753 54.07241593 258.20344956 54.08018866 261.97290039 54.09130859 C263.08171066 54.08726013 264.19052094 54.08321167 265.33293152 54.07904053 C280.36649107 54.16100677 280.36649107 54.16100677 285.85766602 59.03759766 C286.40036133 59.49521484 286.94305664 59.95283203 287.50219727 60.42431641 C293.09932214 67.41009504 292.40810962 74.70885533 292.23266602 83.28759766 C292.21913086 84.54378906 292.2055957 85.79998047 292.19165039 87.09423828 C292.15645192 90.17997044 292.10720907 93.26480789 292.04516602 96.35009766 C293.00293945 96.30369141 293.96071289 96.25728516 294.94750977 96.20947266 C319.62514397 95.38176392 340.71707513 104.81469751 358.68798828 121.5456543 C375.86921776 138.14032687 384.67423656 161.05729351 385.29516602 184.78759766 C385.08708401 206.4050065 377.98848442 226.76081904 364.04516602 243.35009766 C363.4509082 244.09001953 362.85665039 244.82994141 362.24438477 245.59228516 C347.84223373 262.82715741 325.20526939 273.2862522 303.04516602 275.35009766 C295.78283757 275.78143919 288.5053473 275.85703265 281.23266602 275.97509766 C279.26845769 276.01336672 277.30426454 276.0524233 275.34008789 276.09228516 C270.57524016 276.18729518 265.81031438 276.27167212 261.04516602 276.35009766 C261.70516602 277.10033203 262.36516602 277.85056641 263.04516602 278.62353516 C265.04516602 281.35009766 265.04516602 281.35009766 265.04516602 284.97509766 C264.04516602 288.35009766 264.04516602 288.35009766 262.42016602 290.35009766 C258.98465277 291.79662955 256.45057085 291.68850095 253.04516602 290.35009766 C249.40197531 287.62906121 246.28301447 284.4704728 243.10766602 281.22509766 C242.23303711 280.38205078 241.3584082 279.53900391 240.45727539 278.67041016 C234.25177762 272.43100256 234.25177762 272.43100256 233.30297852 267.46728516 C234.05907817 264.29166662 234.60470509 262.90054488 236.85766602 260.60009766 C237.48672852 259.94396484 238.11579102 259.28783203 238.76391602 258.61181641 C239.51672852 257.86544922 240.26954102 257.11908203 241.04516602 256.35009766 C241.99420804 255.37853941 242.9420574 254.40581518 243.88891602 253.43212891 C252.64082034 244.50613606 252.64082034 244.50613606 257.42016602 243.97509766 C261.04516602 244.35009766 261.04516602 244.35009766 263.54516602 246.41259766 C265.50156925 250.24388733 265.1840764 252.25002026 264.04516602 256.35009766 C262.48657227 258.06103516 262.48657227 258.06103516 261.04516602 259.35009766 C266.60950901 259.4252342 272.17354547 259.47915705 277.73828125 259.51489258 C279.6244014 259.52981721 281.51048787 259.55016429 283.39648438 259.57641602 C306.86745833 259.89451851 326.80790406 255.92191364 345.04516602 240.35009766 C345.69743164 239.80998047 346.34969727 239.26986328 347.02172852 238.71337891 C361.15624149 225.90195962 367.66258124 206.67216726 369.33032227 188.18994141 C369.89557065 169.92996112 363.53406027 152.34936053 352.04516602 138.35009766 C351.51407227 137.64498047 350.98297852 136.93986328 350.43579102 136.21337891 C340.24891757 123.37892697 322.93994217 114.94121688 307.04516602 112.35009766 C302.05667456 111.81219533 297.05798221 111.54869283 292.04516602 111.35009766 C292.06611328 112.09582031 292.08706055 112.84154297 292.10864258 113.60986328 C292.19233235 117.0231349 292.24399395 120.43618989 292.29516602 123.85009766 C292.32868164 125.02314453 292.36219727 126.19619141 292.39672852 127.40478516 C292.48340396 135.1188997 292.02203186 140.86608556 286.703125 146.86328125 C279.8846061 153.17802447 271.6291498 152.64386053 262.91870117 152.62475586 C261.7129393 152.62986679 260.50717743 152.63497772 259.26487732 152.64024353 C255.97342279 152.65172646 252.68212519 152.65421874 249.39065599 152.65168023 C246.63491477 152.65060641 243.87919646 152.65550443 241.12346017 152.66028565 C234.61752678 152.6713608 228.11165114 152.67182966 221.60571289 152.66577148 C214.91248113 152.65973436 208.21945972 152.67204052 201.52626383 152.69334155 C195.76295885 152.7110032 189.99972054 152.7169517 184.23638952 152.71370381 C180.80162478 152.71189788 177.36701008 152.71445752 173.93227005 152.72841835 C170.09815634 152.7407883 166.2645262 152.73398693 162.43041992 152.72241211 C161.3049324 152.73005585 160.17944489 152.73769958 159.01985168 152.74557495 C151.86633969 152.69796985 144.76361575 152.23994257 138.92407227 147.70166016 C138.27245117 146.84701172 138.27245117 146.84701172 137.60766602 145.97509766 C137.15520508 145.41048828 136.70274414 144.84587891 136.23657227 144.26416016 C133.5268101 139.91077176 132.79956172 136.27893323 132.84985352 131.17431641 C132.85484863 130.13106201 132.85984375 129.08780762 132.86499023 128.01293945 C132.88319824 126.70107666 132.90140625 125.38921387 132.92016602 124.03759766 C132.96141602 119.85072266 133.00266602 115.66384766 133.04516602 111.35009766 C124.13516602 111.35009766 115.22516602 111.35009766 106.04516602 111.35009766 C106.04516602 113.99009766 106.04516602 116.63009766 106.04516602 119.35009766 C103.59655514 123.1215944 100.41456453 124.09960161 96.25463867 125.52734375 C89.8824153 127.78378036 85.22981433 129.85943974 82.17016602 136.22509766 C80.20841471 143.00491015 81.96748104 148.1196473 84.7409668 154.34960938 C86.85663785 159.10902116 87.88442502 162.21573114 86.04516602 167.35009766 C83.17891551 170.94182751 79.93777695 174.06644276 76.60766602 177.22509766 C75.72272461 178.09134766 74.8377832 178.95759766 73.92602539 179.85009766 C65.81496342 187.732592 65.81496342 187.732592 60.36547852 187.72119141 C57.21895386 187.21795935 54.54354804 186.01712597 51.60766602 184.78759766 C44.39020449 181.86919683 40.99088797 182.17439721 33.58422852 184.38134766 C28.86107381 186.44655301 27.62449589 190.28439517 25.79516602 194.85009766 C25.1499337 196.38380463 24.49908394 197.91516312 23.84204102 199.44384766 C23.56714844 200.12125 23.29225586 200.79865234 23.0090332 201.49658203 C21.25935949 204.86120281 19.64488123 206.15019258 16.04516602 207.35009766 C11.7573483 207.58532277 7.46374666 207.5352768 3.17016602 207.53759766 C1.98551758 207.54984375 0.80086914 207.56208984 -0.41967773 207.57470703 C-1.56307617 207.57664063 -2.70647461 207.57857422 -3.88452148 207.58056641 C-4.92850098 207.58467529 -5.97248047 207.58878418 -7.0480957 207.59301758 C-10.12722507 207.33569071 -12.23425031 206.80935467 -14.95483398 205.35009766 C-16.19335938 203.71777344 -16.19335938 203.71777344 -17.05249023 201.79541016 C-17.37926758 201.09802734 -17.70604492 200.40064453 -18.04272461 199.68212891 C-18.3643457 198.95380859 -18.6859668 198.22548828 -19.01733398 197.47509766 C-21.83060279 191.24691047 -24.02162663 186.98592484 -30.20483398 183.53759766 C-37.58196117 181.20150738 -43.28861351 183.64696548 -50.14624023 186.51025391 C-53.65211171 187.55860212 -56.3013993 187.67204316 -59.95483398 187.35009766 C-63.56281893 184.96354067 -66.44118923 181.91261614 -69.45507812 178.81738281 C-70.88769213 177.35483649 -72.35582647 175.93670102 -73.83178711 174.51806641 C-81.57593597 166.72486945 -81.57593597 166.72486945 -81.74389648 162.07275391 C-80.96059051 158.37725592 -79.94210628 155.22919009 -78.39233398 151.78759766 C-75.66194741 145.05471259 -75.68066871 141.06171098 -78.48608398 134.41650391 C-80.99789866 129.46272605 -84.50837807 128.04450248 -89.51733398 126.10009766 C-91.04356231 125.47986717 -92.56589984 124.84995631 -94.08374023 124.20947266 C-95.09029663 123.81453613 -95.09029663 123.81453613 -96.1171875 123.41162109 C-98.54503332 122.00916678 -99.58355382 120.80789565 -100.95483398 118.35009766 C-101.52826107 114.07773245 -101.47001678 109.81365435 -101.45581055 105.50561523 C-101.45483826 103.42177062 -101.49647186 101.34161385 -101.54077148 99.25830078 C-101.54334961 97.93894531 -101.54592773 96.61958984 -101.54858398 95.26025391 C-101.55567383 94.05506104 -101.56276367 92.84986816 -101.57006836 91.6081543 C-100.77832558 87.41537357 -99.23172481 85.99990172 -95.95483398 83.35009766 C-93.98193359 82.20678711 -93.98193359 82.20678711 -92.10717773 81.46337891 C-91.07741821 81.02324463 -91.07741821 81.02324463 -90.02685547 80.57421875 C-89.32246338 80.27338379 -88.61807129 79.97254883 -87.89233398 79.66259766 C-82.83297121 77.32453729 -79.15855987 75.60738414 -76.89233398 70.22509766 C-75.58718089 65.13577286 -76.0450871 61.7139781 -77.92749023 56.82275391 C-78.46696289 55.41316406 -78.46696289 55.41316406 -79.01733398 53.97509766 C-79.37956055 53.10111328 -79.74178711 52.22712891 -80.11499023 51.32666016 C-82.12716399 44.19514201 -82.12716399 44.19514201 -80.95483398 40.35009766 C-78.42314329 36.80845044 -75.50250381 33.7879553 -72.3671875 30.77441406 C-70.89345753 29.3511827 -69.46412281 27.8921013 -68.03491211 26.42431641 C-60.94981488 19.44290353 -60.94981488 19.44290353 -56.33227539 19.01220703 C-52.60288258 19.38530806 -49.82484321 20.36309005 -46.39233398 21.85009766 C-42.00132712 23.74777169 -38.75734808 24.77462929 -33.95483398 24.35009766 C-31.60334878 23.3935613 -29.2673741 22.39728563 -26.95483398 21.35009766 C-25.96483398 21.35009766 -24.97483398 21.35009766 -23.95483398 21.35009766 C-23.39795898 19.46291016 -23.39795898 19.46291016 -22.82983398 17.53759766 C-17.99932832 2.92996275 -14.45832539 0.11202137 0 0 Z M-4.95483398 14.35009766 C-5.41631836 15.51927734 -5.87780273 16.68845703 -6.35327148 17.89306641 C-12.18595341 31.89423851 -12.18595341 31.89423851 -17.82983398 34.66259766 C-19.52402271 35.26636384 -21.23335169 35.82922556 -22.95483398 36.35009766 C-24.68613905 37.11611604 -26.4153464 37.88689458 -28.14233398 38.66259766 C-35.09534531 41.65938107 -41.08336327 40.32244227 -47.89233398 37.85009766 C-48.57618164 37.61162109 -49.2600293 37.37314453 -49.96459961 37.12744141 C-51.63141495 36.54463884 -53.29363714 35.94872715 -54.95483398 35.35009766 C-58.25483398 38.65009766 -61.55483398 41.95009766 -64.95483398 45.35009766 C-64.50108398 46.87634766 -64.04733398 48.40259766 -63.57983398 49.97509766 C-63.3078418 50.89033203 -63.03584961 51.80556641 -62.75561523 52.74853516 C-62.1495776 54.71741841 -61.4743267 56.66517022 -60.76733398 58.60009766 C-58.71777528 65.53706557 -60.92826162 70.66902929 -63.64233398 77.03759766 C-63.98200195 77.89160156 -64.32166992 78.74560547 -64.67163086 79.62548828 C-66.67038299 84.38139755 -67.99601525 87.26447684 -72.95483398 89.35009766 C-74.0544043 89.87990234 -75.15397461 90.40970703 -76.28686523 90.95556641 C-81.12084961 93.15283203 -81.12084961 93.15283203 -85.95483398 95.35009766 C-85.95483398 100.63009766 -85.95483398 105.91009766 -85.95483398 111.35009766 C-84.79725586 111.77677734 -83.63967773 112.20345703 -82.44702148 112.64306641 C-68.54106829 118.18721037 -68.54106829 118.18721037 -65.07983398 125.85009766 C-64.32779091 128.00198329 -63.61461785 130.16815682 -62.95483398 132.35009766 C-62.31546608 133.79048497 -61.6707305 135.22851958 -61.01733398 136.66259766 C-58.84846573 144.18984631 -61.34957858 149.90301143 -64.31030273 156.83447266 C-65.17026604 159.28423367 -65.17026604 159.28423367 -64.32592773 161.41259766 C-62.68695824 163.72863432 -60.86862634 165.6270728 -58.82983398 167.60009766 C-58.10538086 168.30650391 -57.38092773 169.01291016 -56.63452148 169.74072266 C-55.80307617 170.53736328 -55.80307617 170.53736328 -54.95483398 171.35009766 C-53.95323242 170.98916016 -52.95163086 170.62822266 -51.91967773 170.25634766 C-50.57742828 169.78702967 -49.23496897 169.31831155 -47.89233398 168.85009766 C-47.23555664 168.61162109 -46.5787793 168.37314453 -45.90209961 168.12744141 C-35.87143663 164.6685921 -27.80141494 167.23924863 -18.46655273 171.51416016 C-11.03768223 175.56848334 -8.59589029 182.70677576 -5.95483398 190.35009766 C-5.62483398 191.01009766 -5.29483398 191.67009766 -4.95483398 192.35009766 C-0.00483398 192.35009766 4.94516602 192.35009766 10.04516602 192.35009766 C11.383361 189.72747445 12.71588111 187.10223167 14.04516602 184.47509766 C14.61750977 183.35554688 14.61750977 183.35554688 15.20141602 182.21337891 C15.56235352 181.49794922 15.92329102 180.78251953 16.29516602 180.04541016 C16.63032227 179.38557129 16.96547852 178.72573242 17.31079102 178.04589844 C18.17763015 176.35221216 18.17763015 176.35221216 18.04516602 174.35009766 C19.28266602 173.95822266 20.52016602 173.56634766 21.79516602 173.16259766 C26.70456052 171.55194457 31.36062575 169.49380924 36.05297852 167.33837891 C42.42835304 165.23267427 47.35285562 166.51493179 53.48266602 168.85009766 C54.11881836 169.08857422 54.7549707 169.32705078 55.41040039 169.57275391 C56.95919334 170.15500689 58.50276855 170.75110835 60.04516602 171.35009766 C61.75318297 169.8311933 63.43608657 168.28401219 65.10766602 166.72509766 C66.51725586 165.43732422 66.51725586 165.43732422 67.95532227 164.12353516 C70.37351087 161.51609858 70.37351087 161.51609858 69.95141602 158.25244141 C69.22658611 155.93111115 68.48038661 153.74993464 67.48266602 151.53759766 C64.47703872 143.76516463 66.01237504 136.95826817 69.23266602 129.53759766 C69.52463867 128.80089844 69.81661133 128.06419922 70.11743164 127.30517578 C74.13491267 117.740979 81.94922174 115.39273956 91.04516602 111.35009766 C91.04516602 106.07009766 91.04516602 100.79009766 91.04516602 95.35009766 C89.91079102 94.99302734 88.77641602 94.63595703 87.60766602 94.26806641 C80.7664374 91.79385364 74.81437729 89.46472163 71.13500977 82.86962891 C67.32752029 74.61006857 64.21816472 66.39566846 66.95532227 57.33837891 C67.52573242 56.01386719 67.52573242 56.01386719 68.10766602 54.66259766 C69.78668831 50.75618551 70.54076561 48.42431724 69.04516602 44.35009766 C66.9997508 41.82253591 66.9997508 41.82253591 64.48266602 39.53759766 C63.24323242 38.35230469 63.24323242 38.35230469 61.97875977 37.14306641 C61.34067383 36.55138672 60.70258789 35.95970703 60.04516602 35.35009766 C58.66844727 35.89150391 58.66844727 35.89150391 57.26391602 36.44384766 C56.03672852 36.90791016 54.80954102 37.37197266 53.54516602 37.85009766 C52.33860352 38.31416016 51.13204102 38.77822266 49.88891602 39.25634766 C41.43584275 41.66169371 36.30547629 40.07341206 28.67016602 36.35009766 C27.08039722 35.59718316 25.48931279 34.84703835 23.89672852 34.10009766 C23.20401855 33.76494141 22.51130859 33.42978516 21.79760742 33.08447266 C20.05441773 32.22126632 20.05441773 32.22126632 18.04516602 32.35009766 C17.6468457 31.06232422 17.6468457 31.06232422 17.24047852 29.74853516 C16.034928 26.32098958 14.57272216 23.20835968 12.92016602 19.97509766 C11.97141602 18.11884766 11.02266602 16.26259766 10.04516602 14.35009766 C5.09516602 14.35009766 0.14516602 14.35009766 -4.95483398 14.35009766 Z M148.04516602 72.35009766 C147.44374761 75.12676586 147.44374761 75.12676586 147.54345703 78.33447266 C147.53407608 79.56584961 147.52469513 80.79722656 147.51502991 82.06591797 C147.52550795 83.41065159 147.53687693 84.75537852 147.54907227 86.10009766 C147.5489173 87.47867916 147.54742871 88.85726111 147.54466248 90.23583984 C147.54327801 93.12438224 147.55584332 96.01242837 147.57861328 98.90087891 C147.60699892 102.60342428 147.60426166 106.30514507 147.59152317 110.00775146 C147.58456804 112.85423831 147.5923532 115.70053456 147.6047802 118.54699707 C147.60929637 119.91214263 147.60963003 121.27730864 147.6057148 122.64245605 C147.60280458 124.55024586 147.62146253 126.45803184 147.64111328 128.36572266 C147.64651627 129.45143555 147.65191925 130.53714844 147.65748596 131.65576172 C148.10878145 134.79221831 148.56376063 135.46999026 151.04516602 137.35009766 C153.39005237 137.80136744 153.39005237 137.80136744 156.05529785 137.73104858 C157.09002731 137.73950806 158.12475677 137.74796753 159.19084167 137.75668335 C160.32548355 137.75061066 161.46012543 137.74453796 162.62915039 137.73828125 C163.82445877 137.74353821 165.01976715 137.74879517 166.251297 137.75421143 C169.53026444 137.76516325 172.80886941 137.7625816 176.0878315 137.75307417 C179.51774997 137.74548382 182.94764406 137.75252144 186.37756348 137.75723267 C192.1377396 137.76269206 197.89780037 137.75549386 203.65795898 137.74121094 C210.31942855 137.72488396 216.98062267 137.73017235 223.64208555 137.74669015 C229.35936705 137.76029986 235.07656559 137.76222724 240.79385805 137.75437415 C244.20947568 137.74969475 247.62496379 137.74907997 251.04057312 137.75898361 C254.84763391 137.76657571 258.65416077 137.7550245 262.46118164 137.73828125 C264.16314445 137.74739029 264.16314445 137.74739029 265.89949036 137.75668335 C266.93421982 137.74822388 267.96894928 137.7397644 269.03503418 137.73104858 C270.38560787 137.72935197 270.38560787 137.72935197 271.76346588 137.72762108 C274.51584477 137.27222053 275.40612684 136.57580074 277.04516602 134.35009766 C277.50868408 131.56667985 277.50868408 131.56667985 277.44921875 128.36572266 C277.46190292 127.1343457 277.4745871 125.90296875 277.48765564 124.63427734 C277.48560434 123.28954908 277.48261642 121.94482196 277.47875977 120.60009766 C277.4833204 119.2215143 277.48862561 117.84293323 277.49464417 116.46435547 C277.50357851 113.57591512 277.50114834 110.68775121 277.49121094 107.79931641 C277.47971392 104.09666628 277.49994068 100.3949688 277.52912807 96.69244385 C277.54746766 93.84596695 277.54720235 90.99971938 277.54149055 88.15319824 C277.5413371 86.78803164 277.54740176 85.42284973 277.55978203 84.05773926 C277.57464668 82.15003678 277.56140839 80.24217768 277.546875 78.33447266 C277.54670883 77.24875977 277.54654266 76.16304688 277.54637146 75.04443359 C277.30247407 72.27671726 277.30247407 72.27671726 275.32932377 70.70551109 C272.64205095 69.11089019 271.10440474 68.97312473 267.99743652 68.96914673 C266.97960587 68.96068726 265.96177521 68.95222778 264.9131012 68.94351196 C263.80232712 68.94958466 262.69155304 68.95565735 261.54711914 68.96191406 C260.37277817 68.9566571 259.19843719 68.95140015 257.98851013 68.94598389 C254.77151353 68.93504435 251.55488737 68.93760586 248.33789635 68.94712114 C244.96984458 68.95472133 241.6018174 68.94767114 238.23376465 68.94296265 C232.5779171 68.93750612 226.92218712 68.94469392 221.26635742 68.95898438 C214.72928525 68.9753108 208.19249378 68.97002221 201.65542841 68.95350516 C196.04086992 68.93988727 190.4263959 68.93797208 184.81182623 68.94582117 C181.45934797 68.95049606 178.10700162 68.95112771 174.75453186 68.9412117 C171.01723128 68.93361017 167.28047299 68.94518415 163.54321289 68.96191406 C162.43243881 68.95584137 161.32166473 68.94976868 160.17723083 68.94351196 C158.65048485 68.95620117 158.65048485 68.95620117 157.09289551 68.96914673 C156.20948235 68.97027781 155.32606918 68.97140888 154.41588593 68.97257423 C151.52604999 69.43276388 150.14548043 70.33700533 148.04516602 72.35009766 Z " fill="#000000" transform="translate(113.954833984375,7.64990234375)"/>
<path d="M0 0 C1.10612137 -0.00571014 2.21224274 -0.01142029 3.35188293 -0.01730347 C4.56596832 -0.01842133 5.78005371 -0.01953918 7.03092957 -0.02069092 C8.3092012 -0.02565582 9.58747284 -0.03062073 10.90447998 -0.03573608 C14.41285725 -0.04885255 17.92121539 -0.05530362 21.42961335 -0.05974674 C23.62221359 -0.06267883 25.81480862 -0.06678391 28.00740623 -0.07125092 C34.86955326 -0.08492418 41.73168835 -0.09459154 48.59384805 -0.09845281 C56.51141409 -0.10293258 64.4288074 -0.12047731 72.34632093 -0.1494534 C78.4687211 -0.17108091 84.59107273 -0.18115766 90.71351069 -0.18249393 C94.36901947 -0.18354124 98.02436585 -0.18943315 101.67983437 -0.20731354 C105.75921202 -0.22687929 109.83822891 -0.22250102 113.91764832 -0.21600342 C115.12566101 -0.2252182 116.33367371 -0.23443298 117.57829285 -0.243927 C124.34841426 -0.21009918 129.3368827 0.06736194 134.53166199 4.85919189 C135.00990417 5.44700439 135.48814636 6.03481689 135.98088074 6.64044189 C136.47201355 7.22825439 136.96314636 7.81606689 137.46916199 8.42169189 C140.0233059 12.08235418 139.81090468 15.5672319 139.84538269 19.88751221 C139.85195389 20.56920975 139.85852509 21.25090729 139.86529541 21.95326233 C139.88499824 24.20836503 139.89668513 26.46340118 139.90666199 28.71856689 C139.91073751 29.49039055 139.91481304 30.2622142 139.91901207 31.05742645 C139.93986145 35.14385204 139.9541672 39.23024418 139.96354675 43.31671143 C139.97459997 47.52778243 140.00899002 51.73832339 140.04871845 55.94920731 C140.07492345 59.19554597 140.08324207 62.44175916 140.08682823 65.68819427 C140.09168536 67.23987146 140.10327443 68.79154336 140.12186623 70.34311676 C140.29109953 85.40438426 140.29109953 85.40438426 135.66838074 91.14044189 C130.98382411 95.58476485 126.61553374 97.38502988 120.18563843 97.40786743 C118.55191032 97.42066238 118.55191032 97.42066238 116.88517761 97.43371582 C115.10760071 97.43235626 115.10760071 97.43235626 113.29411316 97.43096924 C112.0382692 97.43768646 110.78242523 97.44440369 109.48852539 97.45132446 C106.05035786 97.46896002 102.61228995 97.47367884 99.17408156 97.47495604 C97.02332451 97.47637974 94.87259261 97.48065352 92.72184181 97.48595047 C85.21075972 97.50444365 77.69974851 97.5126221 70.18864441 97.51104736 C63.20000808 97.5098466 56.21168091 97.53093767 49.22312278 97.56253469 C43.21274088 97.58873548 37.20245972 97.59941305 31.19202119 97.59813654 C27.60685843 97.59762796 24.02197045 97.60325296 20.43686485 97.62449265 C16.43464095 97.64755689 12.43310418 97.63833105 8.43083191 97.62628174 C7.25185333 97.63752075 6.07287476 97.64875977 4.85816956 97.66033936 C-2.43570978 97.60459269 -8.43731956 96.86218947 -13.8830843 91.65772057 C-17.91484633 87.06238797 -18.45616734 83.66556626 -18.42927551 77.72247314 C-18.42605286 76.46885986 -18.4228302 75.21524658 -18.41950989 73.92364502 C-18.41113098 72.61331299 -18.40275208 71.30298096 -18.39411926 69.95294189 C-18.38910244 68.61765708 -18.38453985 67.28237048 -18.38044739 65.94708252 C-18.36864621 62.67815716 -18.35218224 59.40932198 -18.33161926 56.14044189 C-29.00773301 56.1787189 -39.68350207 56.23839611 -50.35934448 56.32434464 C-55.31821388 56.36361727 -60.27691106 56.39590381 -65.23591614 56.41143799 C-70.03427138 56.42673911 -74.83215249 56.46141809 -79.6302948 56.50875092 C-81.44798121 56.52342748 -83.26573537 56.53147489 -85.08348083 56.53232574 C-106.0596687 56.55199328 -125.21682446 60.6885246 -141.33161926 75.14044189 C-142.09087708 75.81848877 -142.85013489 76.49653564 -143.63240051 77.19512939 C-157.25705088 90.06412689 -165.41902042 108.24786699 -166.49177551 126.92950439 C-167.07360754 147.72367502 -159.79823339 166.71790355 -145.60896301 181.82794189 C-129.69081885 197.9918207 -111.49120247 203.75397175 -89.33161926 205.14044189 C-89.34732971 204.38948242 -89.36304016 203.63852295 -89.37922668 202.86480713 C-89.44189684 199.43592979 -89.48071187 196.00717335 -89.51911926 192.57794189 C-89.54425598 191.39651611 -89.5693927 190.21509033 -89.59529114 188.99786377 C-89.66261136 180.98675707 -89.27366517 175.73627579 -84.08161926 169.39044189 C-77.01411029 163.60793455 -70.46009135 163.70293962 -61.63850403 163.73638916 C-60.37261444 163.72952591 -59.10672485 163.72266266 -57.80247498 163.71559143 C-54.34577691 163.69771447 -50.88933345 163.69881798 -47.43260312 163.70453382 C-44.54006545 163.70763363 -41.64757613 163.70152444 -38.75504535 163.69549507 C-31.92790829 163.6814694 -25.10089641 163.68299475 -18.27375793 163.69439697 C-11.2453024 163.70587648 -4.21722853 163.69180117 2.81117672 163.6650005 C8.8598277 163.64280477 14.90835921 163.6362148 20.957048 163.64207691 C24.5634021 163.64543846 28.16951161 163.64308527 31.77583122 163.62582588 C35.79942161 163.60740821 39.82227497 163.62158341 43.84587097 163.63873291 C45.62365181 163.62423096 45.62365181 163.62423096 47.43734741 163.60943604 C54.31850725 163.67077961 58.82155071 164.42852807 64.66838074 168.14044189 C69.50149799 173.22793374 70.91697755 177.03501833 70.94303894 184.01690674 C70.94814987 184.7003566 70.9532608 185.38380646 70.95852661 186.08796692 C70.97240219 188.34252737 70.97146721 190.59678137 70.96916199 192.85137939 C70.97305048 194.42312737 70.97738547 195.9948743 70.98214722 197.56661987 C70.98960536 200.86014207 70.98932143 204.15355708 70.98405457 207.44708252 C70.9782651 211.65927638 70.99517996 215.87102979 71.01839924 220.08315086 C71.03316196 223.32946318 71.03400476 226.5756701 71.03088951 229.82201004 C71.0314016 231.37448625 71.03661827 232.92696853 71.04670143 234.47941208 C71.05909612 236.65495797 71.05225657 238.82965477 71.04069519 241.00518799 C71.04132462 242.24110687 71.04195404 243.47702576 71.04260254 244.75039673 C70.44734439 250.14279234 68.36115948 254.04171182 64.16838074 257.45294189 C63.58056824 257.94407471 62.99275574 258.43520752 62.38713074 258.94122314 C59.09901386 261.23543196 56.15313473 261.2721739 52.27429199 261.29434204 C51.15423264 261.3029425 50.03417328 261.31154297 48.88017273 261.32040405 C47.65052795 261.324664 46.42088318 261.32892395 45.15397644 261.33331299 C43.85941025 261.34149048 42.56484406 261.34966797 41.23104858 261.35809326 C36.93544083 261.3842889 32.63982347 261.39962019 28.34416199 261.41387939 C26.86373069 261.41924042 25.38329945 261.42461793 23.90286827 261.43001175 C17.74265162 261.45163844 11.58243757 261.47037341 5.42219257 261.48163414 C-3.39658862 261.49786218 -12.21492846 261.53101396 -21.03354329 261.58803499 C-27.23919762 261.62678762 -33.44473419 261.64627319 -39.65050632 261.6515547 C-43.35427865 261.65520144 -47.05757998 261.6671491 -50.76122093 261.69965744 C-54.89782643 261.73544553 -59.03348854 261.73135379 -63.17024231 261.72393799 C-64.38976593 261.74034332 -65.60928955 261.75674866 -66.86576843 261.77365112 C-73.91207794 261.72196999 -78.98198776 260.97479625 -84.33161926 256.14044189 C-88.33924735 251.00245716 -89.45945939 247.37038995 -89.42927551 240.94122314 C-89.42444153 239.128479 -89.42444153 239.128479 -89.41950989 237.27911377 C-89.40694153 235.38515869 -89.40694153 235.38515869 -89.39411926 233.45294189 C-89.38960754 232.17870361 -89.38509583 230.90446533 -89.38044739 229.59161377 C-89.368648 226.44117626 -89.35218523 223.29083241 -89.33161926 220.14044189 C-90.22107239 220.18193359 -91.11052551 220.22342529 -92.02693176 220.26617432 C-115.53742762 221.18500435 -136.58185699 211.91942018 -154.10896301 196.73419189 C-169.64651596 181.98668401 -181.39764824 159.89418371 -182.33161926 138.14044189 C-182.38318176 137.07954346 -182.43474426 136.01864502 -182.48786926 134.92559814 C-183.09235668 110.92241022 -175.44199985 88.22290297 -159.33161926 70.14044189 C-158.67806458 69.39278564 -158.02450989 68.64512939 -157.35115051 67.87481689 C-143.34221491 52.84083722 -121.9824647 41.98359308 -101.33812141 41.05032158 C-99.13618752 41.01834725 -96.93634988 41.01662955 -94.73420715 41.0269165 C-93.48909363 41.02669746 -93.48909363 41.02669746 -92.21882629 41.026474 C-89.49728203 41.02716616 -86.7758077 41.03492569 -84.05427551 41.04278564 C-82.15855954 41.0446523 -80.26284309 41.04607504 -78.36712646 41.04707336 C-73.39413607 41.05087902 -68.4211752 41.06069255 -63.44819641 41.07177734 C-58.36702371 41.08203352 -53.28584622 41.08657998 -48.20466614 41.09161377 C-38.24697092 41.10231666 -28.28929756 41.11936952 -18.33161926 41.14044189 C-18.35518494 39.91526855 -18.35518494 39.91526855 -18.37922668 38.66534424 C-18.44175866 34.94878112 -18.48066871 31.23232893 -18.51911926 27.51544189 C-18.54425598 26.23024658 -18.5693927 24.94505127 -18.59529114 23.62091064 C-18.60979309 21.75499268 -18.60979309 21.75499268 -18.62458801 19.85137939 C-18.64815369 18.13894043 -18.64815369 18.13894043 -18.67219543 16.39190674 C-18.1144558 11.06719239 -15.96141354 7.18792803 -11.83161926 3.82794189 C-11.24380676 3.33680908 -10.65599426 2.84567627 -10.05036926 2.33966064 C-6.77715955 0.05585296 -3.86052399 0.01192678 0 0 Z M-3.33161926 16.14044189 C-3.43617747 18.12387389 -3.47017531 20.11105431 -3.47688293 22.097229 C-3.48326279 23.37202621 -3.48964264 24.64682343 -3.49621582 25.96025085 C-3.49774438 27.36276207 -3.4988584 28.76527379 -3.49958801 30.16778564 C-3.50279891 31.59646133 -3.50616285 33.02513667 -3.50967407 34.45381165 C-3.51567165 37.45247154 -3.51751334 40.45110259 -3.516922 43.44976807 C-3.51682035 47.29802139 -3.53047223 51.1460903 -3.54769421 54.99429989 C-3.55879632 57.94620112 -3.56084176 60.89805752 -3.56031227 63.84997749 C-3.56149511 65.26899412 -3.5659338 66.68801181 -3.57364464 68.10700798 C-3.58340781 70.08940139 -3.57931179 72.07184855 -3.57453918 74.05426025 C-3.5759642 75.18375595 -3.57738922 76.31325165 -3.57885742 77.47697449 C-3.60329022 80.29458641 -3.60329022 80.29458641 -1.33161926 82.14044189 C0.93672742 82.44460089 0.93672742 82.44460089 3.60295105 82.39440918 C5.16777222 82.40286865 5.16777222 82.40286865 6.76420593 82.41149902 C8.48794434 82.40542633 8.48794434 82.40542633 10.24650574 82.39923096 C11.45302795 82.4027356 12.65955017 82.40624023 13.90263367 82.40985107 C17.21668094 82.41716 20.53047945 82.41542616 23.84451294 82.4090929 C27.30826662 82.40403889 30.77200947 82.40872268 34.23576355 82.41186523 C40.05316584 82.41550664 45.87051739 82.41070124 51.68791199 82.40118408 C58.41919648 82.39029917 65.15035983 82.39382463 71.88164139 82.40483689 C77.65492415 82.41390484 83.42817039 82.41519747 89.20145798 82.40995955 C92.65224443 82.40683713 96.10297389 82.40643794 99.55375671 82.41303253 C103.39930452 82.41986783 107.24471598 82.41040127 111.09025574 82.39923096 C112.23941467 82.40327942 113.38857361 82.40732788 114.57255554 82.41149902 C115.61576965 82.40585937 116.65898376 82.40021973 117.73381042 82.39440918 C118.64378784 82.39365513 119.55376526 82.39290108 120.49131775 82.39212418 C122.87838822 82.34458325 122.87838822 82.34458325 124.66838074 80.14044189 C124.96890736 77.35478286 124.96890736 77.35478286 124.91130066 74.05426025 C124.91437729 72.77631088 124.91745392 71.49836151 124.92062378 70.1816864 C124.91372655 68.78121766 124.90645963 67.38075069 124.89884949 65.98028564 C124.89765779 64.55064434 124.8972045 63.12100225 124.89746094 61.69136047 C124.89589582 58.69443871 124.88760334 55.69763636 124.87419128 52.70074463 C124.85718602 48.85134388 124.85337736 45.00207426 124.85413647 41.15264034 C124.85386511 38.20077758 124.84838972 35.24894371 124.84113503 32.29709053 C124.837944 30.87725608 124.83597994 29.45741834 124.83524132 28.03758049 C124.83308323 26.05745142 124.82355405 24.07733446 124.81364441 22.097229 C124.80983261 20.9685289 124.80602081 19.8398288 124.80209351 18.67692566 C124.95531528 16.204409 124.95531528 16.204409 123.66838074 15.14044189 C122.03846519 15.04221096 120.40428088 15.01412241 118.77140808 15.01345825 C117.18123871 15.00922852 117.18123871 15.00922852 115.5589447 15.00491333 C114.38591797 15.00693756 113.21289124 15.00896179 112.00431824 15.01104736 C110.1630838 15.00841888 110.1630838 15.00841888 108.28465271 15.0057373 C104.90869795 15.00207906 101.53280412 15.00295225 98.15685272 15.00611639 C94.6312349 15.00864033 91.10561975 15.00630236 87.58000183 15.00473022 C81.65828481 15.00290863 75.73658024 15.00531458 69.81486511 15.0100708 C62.95921264 15.0155134 56.10358991 15.01375074 49.24793816 15.0082444 C43.37193992 15.00371298 37.49595066 15.00306285 31.61995125 15.00568306 C28.10603981 15.00724568 24.59214236 15.00744002 21.07823181 15.00414658 C17.16295711 15.00073358 13.24771597 15.00545806 9.33244324 15.01104736 C7.57290314 15.00801102 7.57290314 15.00801102 5.77781677 15.00491333 C4.71770386 15.00773315 3.65759094 15.01055298 2.56535339 15.01345825 C1.63840668 15.01383528 0.71145996 15.0142123 -0.24357605 15.01460075 C-2.32036988 14.90809661 -2.32036988 14.90809661 -3.33161926 16.14044189 Z M-74.33161926 181.14044189 C-74.639008 183.87804937 -74.639008 183.87804937 -74.59040833 187.11895752 C-74.59671265 188.37365845 -74.60301697 189.62835938 -74.60951233 190.92108154 C-74.60593265 192.29628641 -74.60183071 193.67149001 -74.59724426 195.04669189 C-74.59859099 196.45151842 -74.60053159 197.8563445 -74.6030426 199.26116943 C-74.60599352 202.20681186 -74.60169735 205.15233308 -74.59236145 208.09796143 C-74.58096681 211.87782692 -74.58752647 215.65740842 -74.59950638 219.43726349 C-74.60672591 222.33856352 -74.60443665 225.23979598 -74.59925079 228.14109802 C-74.59791455 229.53498874 -74.59956114 230.92888556 -74.6042099 232.32276917 C-74.60927637 234.26915371 -74.60018796 236.2155597 -74.59040833 238.16192627 C-74.58881714 239.27064087 -74.58722595 240.37935547 -74.58558655 241.52166748 C-74.59618963 244.29957171 -74.59618963 244.29957171 -72.33161926 246.14044189 C-70.02972417 246.4447081 -70.02972417 246.4447081 -67.32112122 246.39440918 C-66.2610788 246.40004883 -65.20103638 246.40568848 -64.10887146 246.41149902 C-62.94101105 246.40745056 -61.77315063 246.4034021 -60.56990051 246.39923096 C-59.34387115 246.4027356 -58.1178418 246.40624023 -56.85466003 246.40985107 C-53.48689687 246.41716024 -50.11937848 246.415426 -46.75162888 246.4090929 C-43.23182082 246.40403909 -39.71202342 246.40872263 -36.19221497 246.41186523 C-30.28065608 246.41550669 -24.36914713 246.4107011 -18.45759583 246.40118408 C-11.61724884 246.39029916 -4.77702107 246.39382461 2.06332302 246.40483689 C7.9300231 246.41390468 13.79668724 246.41519755 19.66339207 246.40995955 C23.17006955 246.40683704 26.67669096 246.40643818 30.18336487 246.41303253 C34.09117794 246.41986754 37.99885683 246.41040153 41.90666199 246.39923096 C43.65845261 246.40530365 43.65845261 246.40530365 45.44563293 246.41149902 C46.50567535 246.40585937 47.56571777 246.40021973 48.65788269 246.39440918 C49.5826088 246.39365513 50.5073349 246.39290108 51.46008301 246.39212418 C53.87481795 246.34899613 53.87481795 246.34899613 55.66838074 244.14044189 C55.97576947 241.40283442 55.97576947 241.40283442 55.9271698 238.16192627 C55.93662628 236.27987488 55.93662628 236.27987488 55.9462738 234.35980225 C55.94269412 232.98459737 55.93859219 231.60939378 55.93400574 230.23419189 C55.93535247 228.82936536 55.93729306 227.42453929 55.93980408 226.01971436 C55.942755 223.07407193 55.93845882 220.12855071 55.92912292 217.18292236 C55.91772829 213.40305687 55.92428795 209.62347537 55.93626785 205.8436203 C55.94348739 202.94232027 55.94119812 200.04108781 55.93601227 197.13978577 C55.93467602 195.74589505 55.93632262 194.35199823 55.94097137 192.95811462 C55.94603784 191.01173008 55.93694944 189.06532409 55.9271698 187.11895752 C55.92557861 186.01024292 55.92398743 184.90152832 55.92234802 183.75921631 C55.93295111 180.98131208 55.93295111 180.98131208 53.66838074 179.14044189 C51.36648564 178.83617569 51.36648564 178.83617569 48.65788269 178.88647461 C47.59784027 178.88083496 46.53779785 178.87519531 45.44563293 178.86938477 C43.69384232 178.87545746 43.69384232 178.87545746 41.90666199 178.88165283 C40.68063263 178.87814819 39.45460327 178.87464355 38.19142151 178.87103271 C34.82365834 178.86372355 31.45613996 178.86545779 28.08839035 178.87179089 C24.56858229 178.8768447 21.0487849 178.87216116 17.52897644 178.86901855 C11.61741756 178.8653771 5.70590861 178.87018269 -0.2056427 178.87969971 C-7.04598968 178.89058463 -13.88621745 178.88705918 -20.72656155 178.8760469 C-26.59326163 178.86697911 -32.45992577 178.86568624 -38.32663059 178.87092423 C-41.83330808 178.87404675 -45.33992948 178.87444561 -48.84660339 178.86785126 C-52.75441646 178.86101625 -56.66209535 178.87048226 -60.56990051 178.88165283 C-61.73776093 178.87760437 -62.90562134 178.87355591 -64.10887146 178.86938477 C-65.69893509 178.87784424 -65.69893509 178.87784424 -67.32112122 178.88647461 C-68.24584732 178.88722866 -69.17057343 178.88798271 -70.12332153 178.88875961 C-72.53805647 178.93188766 -72.53805647 178.93188766 -74.33161926 181.14044189 Z " fill="#000000" transform="translate(195.3316192626953,226.85955810546875)"/>
<path d="M0 0 C14.04980704 12.21093524 21.88776528 28.64892821 23.46875 47.09375 C24.03573013 66.56006772 16.95299038 83.12372571 3.91015625 97.28515625 C-9.89536848 110.67720437 -26.23272414 115.36223906 -45.09277344 115.30297852 C-63.44061502 114.81189164 -78.11826929 107.01281299 -90.8125 93.8125 C-102.37585102 80.13934459 -107.5880164 64.59009979 -107.16015625 46.67578125 C-105.48411667 28.05102676 -97.43059952 11.77746182 -83.125 -0.4375 C-57.99098602 -19.41465475 -24.9672735 -19.21364204 0 0 Z M-80.8125 18.8125 C-89.37091229 29.68623156 -92.79671143 42.08722423 -91.8125 55.8125 C-89.39897437 70.54070756 -82.58484657 81.77363962 -70.9375 91.125 C-58.80226948 99.70251233 -46.26546023 101.13573866 -31.8125 99.8125 C-18.54208886 96.72140022 -6.72065431 88.31625115 0.9375 77.0625 C8.45616492 64.23504803 9.8173016 50.24116186 6.21875 36.046875 C2.16783163 23.34172192 -6.41082053 13.01331195 -17.87890625 6.28515625 C-39.47038786 -4.55371002 -65.13036027 -0.02182862 -80.8125 18.8125 Z " fill="#000000" transform="translate(475.8125,389.1875)"/>
<path d="M0 0 C9.89055219 7.25190664 15.94122888 17.54225927 18.8984375 29.37109375 C20.28893161 43.83223249 18.21190013 56.51291068 9.23828125 68.1875 C1.58998395 77.23865959 -8.07359876 83.2902685 -19.7890625 85.62109375 C-34.8470106 86.66607081 -47.59726409 84.12756035 -59.7890625 74.62109375 C-67.30209232 68.06560694 -74.12348983 56.57583464 -74.96606445 46.50561523 C-75.37394935 31.43987485 -73.94763256 21.00025988 -64.7890625 8.62109375 C-63.9228125 7.32171875 -63.9228125 7.32171875 -63.0390625 5.99609375 C-46.30551006 -11.66710049 -19.91679704 -12.9233586 0 0 Z M-53.7890625 18.62109375 C-59.78777533 27.36084522 -60.57512195 35.10612457 -59.7890625 45.62109375 C-58.10483895 53.37710409 -53.74922193 59.4732218 -47.7890625 64.62109375 C-39.24479935 69.92486599 -31.80068959 71.44302893 -21.7890625 70.62109375 C-12.27307865 68.20600268 -5.22161029 63.32815636 -0.078125 55.0078125 C4.14344012 47.19152072 5.60308355 39.55428763 3.5546875 30.82421875 C1.41245885 24.13898797 -1.75232064 19.46234563 -6.7890625 14.62109375 C-7.5521875 13.87859375 -8.3153125 13.13609375 -9.1015625 12.37109375 C-24.24419232 2.51077666 -41.87664245 5.01031663 -53.7890625 18.62109375 Z " fill="#000000" transform="translate(144.7890625,72.37890625)"/>
<path d="M0 0 C5.04423929 1.06705062 7.64826143 4.13338772 11.25 7.6875 C12.29687613 8.66415677 13.34514472 9.63932232 14.39453125 10.61328125 C15.49362704 11.65734083 16.59128415 12.70291701 17.6875 13.75 C18.48631592 14.4910498 18.48631592 14.4910498 19.30126953 15.24707031 C21.73481108 17.62937111 23.18804989 19.50445495 24.28515625 22.74609375 C24.20130044 29.76202986 17.60315941 34.80635113 13 39.5 C11.89205078 40.68239258 11.89205078 40.68239258 10.76171875 41.88867188 C5.20683709 47.54642171 5.20683709 47.54642171 0.35546875 48.26171875 C-4.68590627 47.32953997 -4.68590627 47.32953997 -6.75 44.6875 C-7.36751891 39.12982981 -7.20066544 37.07504427 -3.75 32.6875 C-5.06194336 32.6781543 -6.37388672 32.66880859 -7.72558594 32.65917969 C-12.59376971 32.61930339 -17.46131995 32.55355087 -22.32910156 32.47998047 C-24.4357896 32.45175721 -26.5425838 32.43054944 -28.64941406 32.41650391 C-31.6782878 32.39509339 -34.70588331 32.3484524 -37.734375 32.296875 C-38.67617615 32.29564636 -39.61797729 32.29441772 -40.58831787 32.29315186 C-47.09500343 32.14745425 -47.09500343 32.14745425 -50.34082031 29.86816406 C-52.44283141 26.6153638 -52.35745102 24.46719525 -51.75 20.6875 C-48.85640864 17.39549159 -46.48201819 16.43028893 -42.23510742 16.14160156 C-40.44224035 16.10051815 -38.64880485 16.08053366 -36.85546875 16.078125 C-35.43443596 16.05332062 -35.43443596 16.05332062 -33.98469543 16.02801514 C-30.9688975 15.97956109 -27.95360374 15.95816977 -24.9375 15.9375 C-22.88864655 15.90933818 -20.83981655 15.87941045 -18.79101562 15.84765625 C-13.77738526 15.77380263 -8.76403435 15.72421199 -3.75 15.6875 C-4.23597656 15.0996875 -4.72195313 14.511875 -5.22265625 13.90625 C-7.42905788 10.70104252 -7.22534827 8.49028615 -6.75 4.6875 C-4.74773871 1.68410807 -3.49146627 0.87286657 0 0 Z " fill="#000000" transform="translate(330.75,415.3125)"/>
<path d="M0 0 C1.26364128 -0.00744736 1.26364128 -0.00744736 2.55281067 -0.01504517 C5.34722706 -0.02968268 8.14158669 -0.03647132 10.93603516 -0.04199219 C12.8741557 -0.0477422 14.81227623 -0.05349995 16.75039673 -0.05926514 C20.81748724 -0.06977956 24.88455796 -0.07561938 28.95166016 -0.07910156 C34.16622842 -0.08458812 39.3805358 -0.10861776 44.5950222 -0.13707352 C48.59956632 -0.15568568 52.60404741 -0.16090473 56.60863113 -0.16243744 C58.53118949 -0.16546756 60.45374665 -0.17350817 62.37626266 -0.18662262 C65.0648465 -0.20365393 67.75279055 -0.2018101 70.44140625 -0.1953125 C71.23739731 -0.20452728 72.03338837 -0.21374207 72.85350037 -0.22323608 C76.07295927 -0.19883003 78.44151927 -0.05674253 81.30923462 1.47247314 C83.836214 4.24183555 83.91339757 6.48973801 83.85009766 10.16113281 C81.10809651 13.89649156 79.59228047 15.04217186 74.97288513 15.78259277 C73.4353081 15.80610093 71.89715879 15.80220522 70.35961914 15.77636719 C69.51675354 15.7819162 68.67388794 15.78746521 67.80548096 15.79318237 C65.02680132 15.80496789 62.24975631 15.78071733 59.47119141 15.75488281 C57.53735936 15.7531715 55.60352499 15.7532376 53.66969299 15.75500488 C49.62030798 15.75335232 45.57147703 15.73466438 41.5222168 15.703125 C36.33118951 15.66342112 31.14088693 15.65908321 25.9497366 15.66658783 C21.95800637 15.66965668 17.96643915 15.65754045 13.97474861 15.64045715 C12.06058843 15.63342551 10.14640977 15.63030282 8.23223686 15.63114929 C5.55821172 15.6293522 2.88505643 15.60797912 0.21118164 15.58105469 C-0.97573524 15.58545059 -0.97573524 15.58545059 -2.18663025 15.5899353 C-5.41105789 15.53982388 -7.75725917 15.37571164 -10.61387634 13.8145752 C-12.90420659 11.34916829 -13.08343096 9.48470194 -13.14990234 6.16113281 C-10.07814648 -0.42120117 -6.68183314 0.00933622 0 0 Z " fill="#000000" transform="translate(291.14990234375,115.8388671875)"/>
<path d="M0 0 C0.85247314 -0.00700928 1.70494629 -0.01401855 2.58325195 -0.02124023 C5.3995832 -0.03883756 8.21490864 -0.02719147 11.03125 -0.01367188 C12.98893425 -0.01636629 14.9466172 -0.02024829 16.90429688 -0.02526855 C21.00664007 -0.03116595 25.10863482 -0.02259281 29.2109375 -0.00390625 C34.47045628 0.01888337 39.72915864 0.00576159 44.98864746 -0.01819611 C49.0309871 -0.03264751 53.07313305 -0.0280511 57.11547852 -0.01768494 C59.05476986 -0.01501583 60.99407877 -0.01829385 62.93334961 -0.02760315 C65.6435405 -0.03775789 68.35240775 -0.02228315 71.0625 0 C71.86469971 -0.00809692 72.66689941 -0.01619385 73.4934082 -0.02453613 C77.0293442 0.02934773 79.12796791 0.22433409 82.02539062 2.33117676 C84.25489474 5.56825914 84.14682193 7.6873528 83.53125 11.51757812 C80.65074102 14.64754852 78.94606676 15.46187296 74.69873047 16.03224182 C73.1821879 16.05892248 71.66516143 16.06374227 70.1484375 16.05102539 C69.31693176 16.05964096 68.48542603 16.06825653 67.62872314 16.07713318 C64.88757969 16.09978595 62.14745907 16.09305621 59.40625 16.08398438 C57.49722998 16.08922 55.58821256 16.09549625 53.67919922 16.10276794 C49.68119114 16.11317065 45.68353902 16.10861211 41.68554688 16.09399414 C36.56390546 16.07679991 31.44338522 16.10031006 26.3218689 16.13548374 C22.38070247 16.1574501 18.4398047 16.15601823 14.49859619 16.14771843 C12.61035939 16.14689862 10.72210293 16.15376772 8.83392334 16.16848946 C6.19326951 16.18592314 3.55463529 16.1714044 0.9140625 16.14868164 C0.13573059 16.16037384 -0.64260132 16.17206604 -1.44451904 16.18411255 C-5.44353116 16.11414738 -7.27465793 15.67006078 -10.45751953 13.16954041 C-12.46875 10.51757812 -12.46875 10.51757812 -13.03125 7.45507812 C-11.63277066 0.15190821 -6.47075202 -0.0653119 0 0 Z " fill="#000000" transform="translate(150.46875,444.482421875)"/>
<path d="M0 0 C0.79234543 -0.00335861 1.58469086 -0.00671722 2.40104675 -0.01017761 C5.01746187 -0.01966815 7.63381288 -0.02162969 10.25024414 -0.02270508 C12.07100959 -0.02591868 13.89177477 -0.02928283 15.71253967 -0.03279114 C19.52809244 -0.03877744 23.34362256 -0.04063152 27.15917969 -0.04003906 C32.04620466 -0.0399374 36.93308448 -0.0535961 41.82007504 -0.07081127 C45.58017137 -0.08193347 49.34023261 -0.08395821 53.1003437 -0.08342934 C54.90204939 -0.08460887 56.703756 -0.08902915 58.50544548 -0.0967617 C61.02586906 -0.10656718 63.54597751 -0.10368151 66.06640625 -0.09765625 C66.80890625 -0.10327576 67.55140625 -0.10889526 68.31640625 -0.11468506 C72.33425982 -0.09029788 75.55044482 0.18639305 79.09790039 2.14526367 C81.4236914 5.63395019 81.51655496 7.04244886 81.09790039 11.14526367 C80.11303711 13.30432129 80.11303711 13.30432129 78.09790039 15.14526367 C75.12472249 15.54719328 72.51896189 15.6920094 69.54321289 15.6628418 C68.66977234 15.66985107 67.79633179 15.67686035 66.89642334 15.68408203 C64.00492704 15.70170885 61.1144069 15.69002276 58.22290039 15.67651367 C56.21655082 15.67920724 54.21020252 15.68308853 52.20385742 15.68811035 C47.99718813 15.69401175 43.79085837 15.68542171 39.58422852 15.66674805 C34.1867063 15.64395824 28.78997959 15.65707787 23.39248657 15.6810379 C19.24896224 15.69547849 15.10562713 15.69089787 10.96209717 15.68052673 C8.97173977 15.67785464 6.9813653 15.68114611 4.99102783 15.69044495 C2.21108366 15.70058189 -0.56756469 15.68514981 -3.34741211 15.6628418 C-4.58651337 15.67498718 -4.58651337 15.67498718 -5.85064697 15.68737793 C-11.40124891 15.6046808 -11.40124891 15.6046808 -13.91333008 13.30041504 C-15.25967888 10.3658733 -15.30142749 8.33988672 -14.90209961 5.14526367 C-13.63113622 2.79398139 -12.82503118 1.48598114 -10.28660583 0.5488739 C-6.86253242 -0.03069727 -3.46203012 -0.00210731 0 0 Z " fill="#000000" transform="translate(222.902099609375,279.854736328125)"/>
<path d="M0 0 C2.42096383 2.17886745 2.92488102 3.62440512 3.5625 6.8125 C2.50010968 12.83271182 -2.20527435 16.37983644 -6.703125 20.203125 C-11.86734888 24.68675077 -16.59222444 29.57321274 -21.3515625 34.47851562 C-22.02445312 35.16236328 -22.69734375 35.84621094 -23.390625 36.55078125 C-23.98907227 37.16606689 -24.58751953 37.78135254 -25.20410156 38.4152832 C-28.18540536 41.04601226 -30.23600956 41.97132724 -34.2265625 42.12109375 C-39.67991953 40.50089347 -42.54730834 37.1404367 -46.375 33.0625 C-47.09816406 32.32064453 -47.82132812 31.57878906 -48.56640625 30.81445312 C-54.85823475 24.30424034 -54.85823475 24.30424034 -55.3125 20.125 C-55 17 -55 17 -53.4375 14.625 C-49.91751657 12.27834438 -48.16889057 12.2357034 -44 13 C-41.76822544 14.60604338 -39.84784996 16.34001002 -37.89453125 18.2734375 C-36.01604473 19.98537779 -34.31503525 20.98364306 -32 22 C-31.443125 21.43152344 -30.88625 20.86304688 -30.3125 20.27734375 C-25.96446923 15.87790046 -21.55353745 11.65494037 -16.8515625 7.63671875 C-15.04152506 6.03670675 -13.36392546 4.36336236 -11.6875 2.625 C-7.72392078 -1.24640296 -5.22641649 -1.4154878 0 0 Z " fill="#000000" transform="translate(460,419)"/>
<path d="M0 0 C1.62693787 -0.01902626 1.62693787 -0.01902626 3.28674316 -0.03843689 C5.02909241 -0.03403343 5.02909241 -0.03403343 6.80664062 -0.02954102 C8.00848999 -0.03478287 9.21033936 -0.04002472 10.4486084 -0.04542542 C12.98705269 -0.0518426 15.52552674 -0.05051259 18.06396484 -0.04199219 C21.94877995 -0.03347819 25.83212683 -0.06225744 29.71679688 -0.09399414 C32.18424435 -0.09560613 34.65169443 -0.09502866 37.11914062 -0.09204102 C38.28070679 -0.10327499 39.44227295 -0.11450897 40.63903809 -0.12608337 C48.63974754 -0.05688504 48.63974754 -0.05688504 52.69921875 2.21630859 C54.46289062 4.40405273 54.46289062 4.40405273 55.02539062 7.90405273 C54.37063399 11.978094 53.65662259 12.90824657 50.46289062 15.40405273 C47.80688477 15.91871643 47.80688477 15.91871643 44.74804688 15.9375 C43.60005615 15.95333633 42.45206543 15.96917267 41.26928711 15.98548889 C39.41605835 15.97804909 39.41605835 15.97804909 37.52539062 15.97045898 C36.2531665 15.97665756 34.98094238 15.98285614 33.67016602 15.98924255 C30.97974802 15.99634811 28.29082389 15.99509748 25.60058594 15.98046875 C22.1567563 15.963273 18.71459392 15.98678543 15.27095032 16.02195835 C11.98074361 16.04922283 8.69067845 16.0391969 5.40039062 16.03295898 C3.54716187 16.0528463 3.54716187 16.0528463 1.65649414 16.07313538 C0.50850342 16.06060226 -0.6394873 16.04806915 -1.82226562 16.03515625 C-2.83168213 16.03419449 -3.84109863 16.03323273 -4.88110352 16.03224182 C-7.53710938 15.40405273 -7.53710938 15.40405273 -9.89038086 13.09117126 C-11.53710938 10.40405273 -11.53710938 10.40405273 -11.59960938 6.77905273 C-10.53710938 3.40405273 -10.53710938 3.40405273 -8.31677246 1.71836853 C-5.27823965 0.28165065 -3.34167513 0.01898759 0 0 Z " fill="#000000" transform="translate(249.537109375,254.595947265625)"/>
<path d="M0 0 C1.12474228 -0.01583633 2.24948456 -0.03167267 3.40830994 -0.04798889 C4.61878494 -0.04302902 5.82925995 -0.03806915 7.07641602 -0.03295898 C8.94790062 -0.04225685 8.94790062 -0.04225685 10.85719299 -0.05174255 C13.49634714 -0.05884828 16.13397859 -0.05759797 18.77294922 -0.04296875 C22.14719192 -0.02579057 25.51973015 -0.04926316 28.89378262 -0.08445835 C32.12134706 -0.11175983 35.34876869 -0.10169386 38.57641602 -0.09545898 C39.78486679 -0.10871719 40.99331757 -0.1219754 42.23838806 -0.13563538 C51.56178603 -0.0320342 51.56178603 -0.0320342 54.68994141 2.84619141 C56.39282227 5.53344727 56.39282227 5.53344727 56.45532227 9.15844727 C55.27164218 12.91837224 54.71033265 13.61963142 51.39282227 15.53344727 C48.81947327 15.92112732 48.81947327 15.92112732 45.87744141 15.9375 C44.22035912 15.95652626 44.22035912 15.95652626 42.52980042 15.97593689 C41.34119919 15.97300125 40.15259796 15.97006561 38.92797852 15.96704102 C37.70251816 15.97228287 36.4770578 15.97752472 35.21446228 15.98292542 C32.62296303 15.98934872 30.03143464 15.98800468 27.43994141 15.97949219 C23.47383708 15.97098697 19.50917473 15.99973493 15.54321289 16.03149414 C13.0256352 16.03310632 10.50805495 16.0325283 7.99047852 16.02954102 C6.21061302 16.04639198 6.21061302 16.04639198 4.39479065 16.06358337 C-3.78003835 15.99436278 -3.78003835 15.99436278 -7.859375 13.72119141 C-9.60717773 11.53344727 -9.60717773 11.53344727 -10.16967773 8.03344727 C-9.1750993 1.84495924 -6.02600989 0.03778207 0 0 Z " fill="#000000" transform="translate(318.607177734375,90.466552734375)"/>
<path d="M0 0 C1.75697205 -0.01418472 1.75697205 -0.01418472 3.54943848 -0.02865601 C5.44792542 -0.01954697 5.44792542 -0.01954697 7.38476562 -0.01025391 C8.68297241 -0.01312408 9.9811792 -0.01599426 11.31872559 -0.01895142 C14.06594553 -0.02337316 16.8128727 -0.016949 19.56005859 -0.00292969 C23.08098403 0.01416268 26.60122345 0.00432061 30.12212372 -0.01364708 C33.48055934 -0.02709598 36.83881051 -0.01767904 40.19726562 -0.01025391 C41.46292358 -0.0163266 42.72858154 -0.02239929 44.03259277 -0.02865601 C45.20390747 -0.01919952 46.37522217 -0.00974304 47.58203125 0 C49.13065857 0.00358017 49.13065857 0.00358017 50.71057129 0.00723267 C53.29101562 0.38818359 53.29101562 0.38818359 55.1229248 1.79135132 C57.25240058 4.70243972 56.82259957 7.94725506 56.29101562 11.38818359 C54.86331423 13.60112076 53.9820552 14.17342621 51.49766541 14.94551086 C49.02680601 15.44118629 46.75506339 15.52255506 44.23461914 15.53344727 C42.72769249 15.54301704 42.72769249 15.54301704 41.19032288 15.55278015 C39.57147438 15.55444939 39.57147438 15.55444939 37.91992188 15.55615234 C36.80544174 15.55948074 35.69096161 15.56280914 34.54270935 15.5662384 C32.18659884 15.57129919 29.83048117 15.57364699 27.47436523 15.57348633 C23.87081094 15.5756731 20.26756265 15.59383884 16.6640625 15.61279297 C14.37435001 15.615727 12.08463606 15.61771173 9.79492188 15.61865234 C8.71771378 15.62583786 7.64050568 15.63302338 6.53065491 15.64042664 C5.52288498 15.63735001 4.51511505 15.63427338 3.47680664 15.63110352 C2.593965 15.63252853 1.71112335 15.63395355 0.80152893 15.63542175 C-3.15473178 15.24580477 -5.8938098 14.20335816 -8.70898438 11.38818359 C-9.28157836 4.17349944 -9.28157836 4.17349944 -7.54309082 1.78915405 C-4.98159432 -0.16742864 -3.20402374 0.00740717 0 0 Z " fill="#000000" transform="translate(177.708984375,419.61181640625)"/>
<path d="M0 0 C1.04929687 -0.02578125 2.09859375 -0.0515625 3.1796875 -0.078125 C6.46851471 0.28826954 7.78100889 0.96077503 10.125 3.25 C11.23722716 6.26890228 11.2415079 7.83251335 10.375 10.9375 C9.125 13.25 9.125 13.25 6.125 15.25 C3.34765625 15.55078125 3.34765625 15.55078125 0.1875 15.5625 C-1.37291016 15.58763672 -1.37291016 15.58763672 -2.96484375 15.61328125 C-6.22163957 15.20672821 -7.55986357 14.53821624 -9.875 12.25 C-11.06808162 8.59121638 -11.20167744 6.95002308 -9.5625 3.4375 C-6.7472279 -0.2119268 -4.43405071 0.0650472 0 0 Z " fill="#000000" transform="translate(288.875,90.75)"/>
<path d="M0 0 C3.1875 2.125 3.1875 2.125 5 5 C5.5625 8.0625 5.5625 8.0625 5 11 C2.76882958 13.94814126 1.59114516 14.89849022 -2.09375 15.53125 C-3.2178125 15.5209375 -4.341875 15.510625 -5.5 15.5 C-6.6240625 15.5103125 -7.748125 15.520625 -8.90625 15.53125 C-12.60148722 14.89671432 -13.78293953 13.97734739 -16 11 C-16.5625 7.5 -16.5625 7.5 -16 4 C-12.08734575 -1.26184537 -6.00363956 -1.03511027 0 0 Z " fill="#000000" transform="translate(224,255)"/>
<path d="M0 0 C1.22847656 -0.0103125 2.45695313 -0.020625 3.72265625 -0.03125 C6.9375 0.5 6.9375 0.5 8.84765625 2.30859375 C10.4407506 5.5119125 10.32140369 7.98088282 9.9375 11.5 C8.52839331 13.61366004 7.52585165 14.26886185 5.1875 15.1875 C0.0596482 15.89970164 -4.43391201 16.01266205 -9.0625 13.5 C-11.38999345 10.00875983 -11.56549316 8.60777749 -11.0625 4.5 C-7.8874258 0.16465177 -5.21720756 -0.04388818 0 0 Z " fill="#000000" transform="translate(149.0625,419.5)"/>
</svg>
