<?xml version="1.0" standalone="no"?>
<!DOCTYPE svg PUBLIC "-//W3C//DTD SVG 20010904//EN"
 "http://www.w3.org/TR/2001/REC-SVG-20010904/DTD/svg10.dtd">
<svg version="1.0" xmlns="http://www.w3.org/2000/svg"
 width="512.000000pt" height="512.000000pt" viewBox="0 0 512.000000 512.000000"
 preserveAspectRatio="xMidYMid meet">

<g transform="translate(0.000000,512.000000) scale(0.100000,-0.100000)"
fill="#000000" stroke="none">
<path d="M510 4994 c-179 -38 -356 -177 -437 -344 -201 -410 49 -877 504 -940
318 -43 630 175 713 498 l11 43 1307 -3 1307 -3 88 -28 c192 -60 341 -167 444
-317 218 -321 148 -760 -160 -999 -70 -54 -111 -78 -197 -114 -155 -65 -54
-60 -1615 -67 l-1420 -6 -90 -26 c-189 -55 -340 -144 -466 -275 -136 -140
-203 -260 -255 -453 -28 -103 -26 -339 4 -450 111 -406 455 -695 882 -740 55
-6 466 -10 985 -10 l889 0 -247 -248 -247 -248 0 -46 c0 -36 6 -51 26 -71 29
-29 79 -43 116 -32 35 11 685 662 708 710 12 25 17 51 13 70 -4 23 -88 113
-342 368 -185 186 -348 345 -363 353 -46 24 -86 18 -124 -20 -36 -36 -44 -77
-23 -119 6 -12 118 -129 248 -260 l236 -238 -955 3 -955 3 -75 23 c-270 83
-460 260 -548 512 -24 67 -26 90 -27 220 0 126 3 154 23 214 92 275 298 461
592 534 58 14 225 16 1485 22 l1420 5 90 28 c359 111 607 358 707 702 20 70
23 101 22 245 0 149 -3 173 -27 253 -51 166 -135 307 -254 425 -144 143 -328
239 -545 284 -36 8 -463 13 -1357 17 l-1304 6 -17 60 c-91 330 -431 532 -770
459z m332 -247 c174 -85 270 -269 240 -454 -40 -238 -259 -399 -492 -362 -214
33 -370 216 -370 431 0 150 95 309 225 375 93 48 115 53 221 50 94 -2 106 -5
176 -40z"/>
<path d="M4378 1519 c-140 -18 -269 -83 -371 -186 -128 -129 -189 -276 -190
-453 0 -126 18 -203 74 -311 106 -203 308 -332 544 -346 320 -18 607 207 671
527 86 433 -286 827 -728 769z m156 -219 c168 -27 309 -154 351 -316 75 -288
-152 -562 -449 -542 -214 15 -372 170 -401 393 -22 163 87 354 242 427 91 43
162 54 257 38z"/>
</g>
</svg>
