<?xml version="1.0" encoding="UTF-8"?>
<svg version="1.1" xmlns="http://www.w3.org/2000/svg" width="512" height="512">
<path d="M0 0 C1.31821045 -0.00382555 2.63642089 -0.00765109 3.99457711 -0.01159257 C7.6338142 -0.02183807 11.2729524 -0.01969959 14.91219747 -0.01541197 C18.84483159 -0.01293844 22.77744229 -0.02196672 26.71006775 -0.02944946 C34.40716357 -0.04218137 42.10422448 -0.04399201 49.80132905 -0.0416492 C56.06007361 -0.03986409 62.31880759 -0.04161983 68.57755089 -0.04587364 C69.46930848 -0.04646883 70.36106608 -0.04706402 71.27984663 -0.04767724 C73.09163505 -0.04888904 74.90342347 -0.05010317 76.71521189 -0.05131962 C93.69635071 -0.06218948 110.67746966 -0.06003537 127.65860959 -0.05393478 C143.17931899 -0.04876689 158.69996559 -0.06001866 174.22066257 -0.07903299 C190.17226643 -0.09842481 206.1238406 -0.10666499 222.07545632 -0.10290974 C231.02504969 -0.10099964 239.97458963 -0.1034666 248.92417336 -0.11762428 C256.54366879 -0.12955623 264.16307791 -0.13092271 271.78257457 -0.11883412 C275.66661592 -0.11295796 279.55049955 -0.11181079 283.43453026 -0.12383652 C286.99696383 -0.13473789 290.55910881 -0.13154199 294.12152912 -0.11757483 C296.00609092 -0.11370058 297.89066574 -0.12444022 299.77519685 -0.13587171 C314.59960992 -0.04244387 327.87609707 3.97287911 338.89237976 14.22163391 C348.58017293 24.93567635 353.31698747 38.43010662 354.11112976 52.69819641 C353.73612976 56.26069641 353.73612976 56.26069641 351.86112976 58.69819641 C347.99044799 61.54428595 344.91208617 61.39710008 340.25712585 61.3742218 C339.48630173 61.37436783 338.7154776 61.37451385 337.92129517 61.37466431 C335.36735747 61.37396631 332.81349225 61.36617916 330.25956726 61.35835266 C328.4912266 61.35648808 326.72288543 61.35506437 324.95454407 61.35406494 C320.29548217 61.35024291 315.63645134 61.34041529 310.97740173 61.32936096 C306.22510702 61.3191401 301.47280729 61.31456587 296.72050476 61.30952454 C287.39236609 61.29879276 278.06425051 61.28172008 268.73612976 61.26069641 C268.74723282 61.98874985 268.75833588 62.71680328 268.76977539 63.46691895 C268.87007839 70.33765768 268.94614583 77.2082866 268.99519062 84.07956982 C269.02125364 87.61202486 269.05658842 91.14387354 269.11332703 94.67597961 C269.1781904 98.73943303 269.20233708 102.80225239 269.22441101 106.86616516 C269.25021744 108.13091171 269.27602386 109.39565826 269.3026123 110.69873047 C269.30573746 120.47042304 269.30573746 120.47042304 266.43217468 123.59785461 C263.73612976 125.26069641 263.73612976 125.26069641 260.11112976 125.26069641 C255.57483944 123.91661039 255.57483944 123.91661039 253.73612976 121.26069641 C252.58140141 117.79651137 252.5949497 115.08080873 252.57499695 111.42524719 C252.57003204 110.73368027 252.56506714 110.04211334 252.55995178 109.32958984 C252.54533541 107.03838603 252.53852491 104.74725173 252.53300476 102.45600891 C252.52724773 100.85476176 252.52149007 99.25351461 252.51573181 97.65226746 C252.50521977 94.28801656 252.49938013 90.92378954 252.49589539 87.55952454 C252.49044577 83.28188215 252.46649533 79.00456376 252.43792343 74.72702217 C252.41913655 71.41352984 252.41408275 68.10011255 252.41255951 64.7865715 C252.40956253 63.21196113 252.40163603 61.63735111 252.38837433 60.06279373 C252.29747817 48.42900138 252.62986662 36.48661374 258.73612976 26.19819641 C259.47862976 24.91235657 259.47862976 24.91235657 260.23612976 23.60054016 C261.64546647 21.4021217 263.15878239 19.34000172 264.73612976 17.26069641 C229.74559186 17.19199745 194.75506763 17.13915095 159.76447646 17.10750042 C155.63149229 17.1037484 151.49850826 17.09986542 147.36552429 17.09590149 C146.54273772 17.09511456 145.71995115 17.09432763 144.87223165 17.09351685 C131.55792213 17.08047062 118.24365155 17.05682109 104.92936511 17.02923802 C91.26294928 17.00116204 77.59655382 16.98451552 63.93011034 16.97843093 C55.50034315 16.97431903 47.07068605 16.96134202 38.64095275 16.93694701 C32.85671671 16.92106274 27.07253741 16.91630213 21.28828116 16.92019228 C17.95333532 16.92210968 14.61873607 16.91756396 11.28379822 16.90307999 C7.66128055 16.88811992 4.03923113 16.89175613 0.41670227 16.89993286 C-0.62807104 16.89119434 -1.67284436 16.88245581 -2.74927747 16.87345248 C-13.20899313 16.93711868 -22.20369669 19.40491661 -30.26387024 26.26069641 C-36.99801918 33.49476034 -40.37350373 41.64571646 -40.40253544 51.54552937 C-40.40800988 52.59701989 -40.41348433 53.6485104 -40.41912466 54.73186427 C-40.42010277 55.88069361 -40.42108088 57.02952294 -40.42208862 58.21316528 C-40.4270266 59.43841956 -40.43196458 60.66367384 -40.43705219 61.92605704 C-40.44975564 65.32383974 -40.45804595 68.72158151 -40.46447885 72.11937845 C-40.47249142 75.78464004 -40.48618625 79.4498809 -40.49919128 83.11512756 C-40.52094187 89.46438764 -40.53909155 95.81364983 -40.55479622 102.16292763 C-40.57750775 111.34291966 -40.6056488 120.52288873 -40.6351155 129.70286127 C-40.68277566 144.59672261 -40.72604412 159.49059334 -40.76655579 174.38447571 C-40.80591872 188.8525821 -40.84734687 203.32068015 -40.89155579 217.78877258 C-40.89428006 218.68057064 -40.89700433 219.5723687 -40.89981116 220.49119095 C-40.91349077 224.96507518 -40.92721101 229.4389593 -40.94095147 233.91284335 C-41.0548915 271.02877704 -41.16170633 308.14472853 -41.26387024 345.26069641 C-39.57639994 345.25793103 -39.57639994 345.25793103 -37.85483932 345.25510979 C-10.5062195 345.2107491 16.84239567 345.17786316 44.19104385 345.15707207 C57.4165347 345.14675092 70.64200181 345.13267458 83.86747742 345.1098175 C95.3921713 345.08990928 106.916848 345.07698608 118.4415586 345.07251942 C124.54616151 345.06990769 130.65071525 345.06375158 136.75530243 345.0492363 C142.49748097 345.03569296 148.23958992 345.03146719 153.98178291 345.03448105 C156.09255666 345.03392943 158.20333267 345.02993272 160.31409264 345.02228546 C163.18982302 345.01237508 166.06528862 345.01471326 168.94102478 345.02018738 C170.20172425 345.01144885 170.20172425 345.01144885 171.48789239 345.00253379 C178.73060449 345.03994965 178.73060449 345.03994965 181.73612976 347.26069641 C183.56118545 350.72591652 184.10681549 354.09379445 184.61112976 357.94819641 C186.27302675 368.22174146 189.60818638 376.4154019 197.73612976 383.26069641 C206.34312212 388.31157848 215.35980451 390.71084085 225.25956726 388.76460266 C235.55465526 385.96117101 243.52011639 380.58448826 248.91079712 371.22013855 C252.81365732 362.12535187 252.29062858 352.62830736 252.25255013 342.91609573 C252.23983277 339.65387391 252.25128744 336.39248719 252.26858521 333.1302948 C252.2951744 327.38820891 252.30088456 321.64633086 252.29948425 315.90419006 C252.29724739 306.6936007 252.31134848 297.48326649 252.35507011 288.27277756 C252.36490457 285.06142947 252.35619729 281.85048463 252.34637451 278.6391449 C252.35251715 276.67331171 252.35942836 274.70748073 252.36723328 272.74165344 C252.35565437 271.40595558 252.35565437 271.40595558 252.34384155 270.04327393 C252.38270215 265.3048009 252.62023599 262.09236872 255.73612976 258.26069641 C258.82786728 256.71482765 261.33042528 256.9671012 264.73612976 257.26069641 C266.93034363 258.67379761 266.93034363 258.67379761 268.73612976 261.26069641 C269.33493988 264.49186282 269.2823021 267.68521834 269.25370789 270.96357727 C269.2642218 272.44005737 269.2642218 272.44005737 269.27494812 273.94636536 C269.29257537 277.20637609 269.28088006 280.46552026 269.26737976 283.72554016 C269.27007524 285.99796718 269.27395813 288.27039308 269.27897644 290.54281616 C269.28487953 295.31355229 269.27628937 300.08398919 269.25761414 304.85469055 C269.23494107 310.94058597 269.24786875 317.02577123 269.27190399 323.11163998 C269.28643979 327.81057973 269.28171843 332.50935459 269.27139282 337.20829964 C269.26874091 339.44996285 269.27194069 341.69164147 269.28131104 343.93328667 C269.34337528 362.97228753 267.55365603 378.03450172 253.92362976 392.57319641 C242.04549685 403.67913713 227.70678668 406.88762835 211.7950592 406.76190186 C210.45096267 406.76580631 209.10687029 406.77145583 207.76278746 406.77867275 C204.11192344 406.79328114 200.46149716 406.78333471 196.81064796 406.76893604 C192.85696024 406.75774604 188.90332995 406.76979507 184.949646 406.77877808 C177.22177067 406.79265754 169.49405958 406.78519406 161.76619218 406.77010249 C152.75522869 406.75317974 143.7443054 406.75646047 134.73333092 406.76019657 C118.65024644 406.76606529 102.56724044 406.75194159 86.48417664 406.72724915 C70.89853475 406.7033233 55.31299765 406.69624928 39.7273407 406.70674133 C22.72871663 406.71816418 5.73014093 406.72006434 -11.26848257 406.70564324 C-13.08276518 406.70411749 -14.89704779 406.70259714 -16.71133041 406.70108223 C-17.60384788 406.70032442 -18.49636534 406.6995666 -19.41592879 406.69878582 C-25.68874264 406.69405418 -31.96153479 406.69588641 -38.2343483 406.70014763 C-45.88301287 406.70508661 -53.53157861 406.69903494 -61.18022062 406.67925333 C-65.07846488 406.66941787 -68.97655903 406.6642355 -72.87481117 406.67214584 C-76.45001129 406.67925197 -80.02490978 406.67228428 -83.6000704 406.65454222 C-85.49134252 406.64864292 -87.38264321 406.6572723 -89.27390158 406.66658872 C-104.02851249 406.55805454 -116.71219197 402.7101338 -127.63887024 392.44819641 C-136.71494098 382.67541485 -142.29854721 370.05947335 -142.63887024 356.76069641 C-142.68785461 355.45100891 -142.73683899 354.14132141 -142.78730774 352.79194641 C-142.26387024 349.26069641 -142.26387024 349.26069641 -140.22561646 347.06837463 C-136.53123536 344.81353855 -133.54808225 344.72395051 -129.35249329 344.80659485 C-128.18096962 344.80571869 -128.18096962 344.80571869 -126.98577881 344.80482483 C-124.41525666 344.80760207 -121.84590747 344.83867566 -119.27558899 344.87007141 C-117.48912184 344.87753511 -115.70264649 344.88322744 -113.91616821 344.88722229 C-109.2224096 344.90246849 -104.52914892 344.94174143 -99.83558655 344.98603821 C-95.04286942 345.02701287 -90.25007155 345.04523799 -85.45722961 345.06538391 C-76.05922482 345.10823676 -66.66158899 345.17647574 -57.26387024 345.26069641 C-57.2650094 344.62834619 -57.26614856 343.99599597 -57.26732224 343.34448361 C-57.33449923 305.8418744 -57.38595152 268.3392741 -57.41706623 230.83661701 C-57.42081822 226.33067853 -57.4247012 221.82474018 -57.42866516 217.31880188 C-57.42945209 216.42177456 -57.43023902 215.52474724 -57.4310498 214.60053727 C-57.44409328 200.08803992 -57.46774129 185.57557832 -57.49532863 171.06310216 C-57.52341227 156.16496295 -57.54005275 141.26684244 -57.54613572 126.36867785 C-57.55024603 117.1803966 -57.5632144 107.99221644 -57.58761964 98.80396631 C-57.60351337 92.49783498 -57.60826238 86.19175568 -57.60437437 79.88560578 C-57.60245847 76.25072161 -57.60533452 72.61601371 -57.62148666 68.98116112 C-57.63891074 65.03100148 -57.6328034 61.08106838 -57.62463379 57.13087463 C-57.63337231 55.99465329 -57.64211084 54.85843195 -57.65111417 53.68777966 C-57.56583024 38.37624353 -52.93891795 25.48436888 -42.39668274 14.26069641 C-30.26863376 2.88787392 -16.14011405 -0.04990179 0 0 Z M275.91581726 29.53804016 C272.42168292 34.61044291 269.73612976 38.97440896 269.73612976 45.26069641 C291.84612976 45.26069641 313.95612976 45.26069641 336.73612976 45.26069641 C334.2995985 35.51457135 330.5628819 27.19502587 321.95878601 21.47554016 C305.9240572 12.71139137 287.73397706 14.75265998 275.91581726 29.53804016 Z M-125.26387024 361.26069641 C-123.79479064 371.54425362 -119.5072027 377.99888292 -111.57246399 384.63569641 C-108.22791744 386.989895 -105.19337279 388.12846686 -101.26387024 389.26069641 C-100.6275131 389.44507261 -99.99115595 389.62944881 -99.33551526 389.81941217 C-96.98001091 390.32116172 -94.83877269 390.38482925 -92.4300499 390.38374424 C-91.45370173 390.38573529 -90.47735357 390.38772634 -89.4714191 390.38977772 C-88.40138684 390.38686488 -87.33135458 390.38395204 -86.22889709 390.38095093 C-85.09025184 390.38180535 -83.95160658 390.38265978 -82.77845693 390.38354009 C-78.94903461 390.38519203 -75.11965574 390.37967814 -71.29023743 390.3742218 C-68.55076571 390.37338351 -65.81129485 390.37405376 -63.07182312 390.37466431 C-57.16670529 390.37518887 -51.26159851 390.37204911 -45.35648346 390.36642647 C-36.81865984 390.35830235 -28.28084156 390.35569531 -19.74301448 390.35443848 C-5.89123942 390.3522494 7.96052976 390.3455932 21.81230164 390.33613586 C35.26868154 390.32695804 48.72505985 390.31987901 62.18144226 390.31562805 C63.01077614 390.31536533 63.84011001 390.3151026 64.69457522 390.31483192 C68.85506448 390.31352689 73.01555375 390.31226318 77.17604303 390.31102002 C111.69607618 390.30065188 146.21610234 390.28303746 180.73612976 390.26069641 C180.25764587 389.5333429 179.77916199 388.80598938 179.28617859 388.05659485 C178.65735779 387.08754211 178.02853699 386.11848938 177.38066101 385.12007141 C176.75780212 384.1658429 176.13494324 383.21161438 175.49320984 382.22846985 C171.62762901 375.69936041 169.80848613 368.51394371 167.73612976 361.26069641 C71.04612976 361.26069641 -25.64387024 361.26069641 -125.26387024 361.26069641 Z " fill="#000000" transform="translate(142.2638702392578,52.73930358886719)"/>
<path d="M0 0 C1.48447068 -0.01168356 2.96889438 -0.03238299 4.453125 -0.06152344 C6.63154725 -0.10403271 8.80876466 -0.12032167 10.98754883 -0.13061523 C12.90579468 -0.15248901 12.90579468 -0.15248901 14.86279297 -0.17480469 C18.13989258 0.29516602 18.13989258 0.29516602 20.54394531 2.08349609 C22.4741182 4.75833717 22.89667013 6.93427747 22.70239258 10.22485352 C21.57206543 14.38508537 18.3759605 16.65359237 15.13989258 19.29516602 C14.28266602 19.99512695 13.42543945 20.69508789 12.54223633 21.41625977 C10.66796011 22.93729686 8.79026754 24.45413253 6.90942383 25.96704102 C3.48119965 28.84887685 0.37944031 31.96837501 -2.74291992 35.17407227 C-4.7344147 37.16924139 -6.78390006 39.02270503 -8.92260742 40.85766602 C-14.38937211 45.56515783 -19.41328798 50.60729028 -24.13354492 56.06079102 C-33.82289589 67.18455221 -44.37135335 77.24434814 -56.20288086 86.0480957 C-57.83205726 87.27405815 -59.4308355 88.53088887 -61.02416992 89.80297852 C-80.65396565 105.40857459 -103.45509078 119.68845752 -127.53198242 127.12329102 C-128.35030045 127.37884262 -129.16861847 127.63439423 -130.01173401 127.89768982 C-140.45303312 131.13445482 -150.96699375 134.1316433 -161.48144531 137.12060547 C-170.7697437 139.76557272 -179.84649566 142.38674502 -188.64746094 146.41015625 C-190.86010742 147.29516602 -190.86010742 147.29516602 -193.86010742 147.29516602 C-194.05604492 148.20911133 -194.25198242 149.12305664 -194.45385742 150.06469727 C-196.58133578 159.67405407 -199.13668118 169.15083366 -201.86010742 178.60766602 C-202.19204102 179.79400635 -202.52397461 180.98034668 -202.8659668 182.20263672 C-203.1940332 183.3224292 -203.52209961 184.44222168 -203.86010742 185.59594727 C-204.14885742 186.59795166 -204.43760742 187.59995605 -204.73510742 188.63232422 C-206.00472625 191.63747451 -207.33902825 193.24379929 -209.86010742 195.29516602 C-213.56542835 195.92585894 -215.37375441 195.53834252 -218.73510742 193.85766602 C-221.4452282 190.5895792 -221.20470068 188.96335823 -221.1005249 184.86193848 C-220.67568064 180.32616778 -219.43094723 176.07560587 -218.14916992 171.71704102 C-217.72365845 170.22156487 -217.72365845 170.22156487 -217.28955078 168.69587708 C-216.36806037 165.47495863 -215.42792725 162.25990023 -214.48510742 159.04516602 C-214.16709167 157.94824432 -213.84907593 156.85132263 -213.52142334 155.72116089 C-206.67674021 132.1128924 -199.73403303 108.42198484 -188.86010742 86.29516602 C-188.36124023 85.26907227 -187.86237305 84.24297852 -187.34838867 83.18579102 C-168.77423514 47.15702197 -132.50215377 26.57336113 -95.28344727 14.45629883 C-64.48789543 4.74741407 -32.25644692 0.17681686 0 0 Z M-156.40356445 67.74047852 C-166.32365736 78.32900544 -174.98446142 91.24594925 -178.86010742 105.29516602 C-174.60825994 102.23661633 -170.54595939 99.07422003 -166.67260742 95.54516602 C-140.6021671 72.09063722 -109.36281601 52.72311928 -79.11010742 35.23266602 C-78.03970215 34.61359375 -76.96929687 33.99452148 -75.86645508 33.35668945 C-69.63014064 29.78554183 -63.32958414 26.42471694 -56.86010742 23.29516602 C-56.86010742 22.96516602 -56.86010742 22.63516602 -56.86010742 22.29516602 C-90.52097324 21.26853029 -133.39797094 44.26568708 -156.40356445 67.74047852 Z M-25.23510742 25.60766602 C-26.49726074 26.1535437 -26.49726074 26.1535437 -27.78491211 26.71044922 C-30.48424186 27.88897718 -33.17351802 29.08789503 -35.86010742 30.29516602 C-37.1357959 30.86702637 -37.1357959 30.86702637 -38.43725586 31.45043945 C-60.68139118 41.51631691 -81.44308787 53.95901696 -101.86010742 67.29516602 C-102.46886719 67.6904248 -103.07762695 68.08568359 -103.70483398 68.49291992 C-122.87467256 80.9550694 -141.36177509 94.5778626 -158.86010742 109.29516602 C-159.45549316 109.795 -160.05087891 110.29483398 -160.66430664 110.80981445 C-162.60882516 112.44581117 -164.54791655 114.0880015 -166.48510742 115.73266602 C-167.10216553 116.25352783 -167.71922363 116.77438965 -168.35498047 117.31103516 C-171.55143661 119.9329991 -171.55143661 119.9329991 -173.86010742 123.29516602 C-135.83076354 114.20928969 -135.83076354 114.20928969 -100.86010742 97.29516602 C-99.8759082 96.67416016 -98.89170898 96.0531543 -97.87768555 95.41333008 C-86.14276469 87.92025291 -74.64421408 80.11180191 -63.86010742 71.29516602 C-62.84819336 70.48563477 -61.8362793 69.67610352 -60.79370117 68.84204102 C-49.0909961 59.32896748 -38.260248 48.56321714 -28.45361328 37.11303711 C-23.99840061 32.03053159 -19.11888127 27.52783765 -13.86010742 23.29516602 C-18.23541841 21.83672902 -21.2097631 23.83857339 -25.23510742 25.60766602 Z " fill="#000000" transform="translate(489.860107421875,183.704833984375)"/>
<path d="M0 0 C0.66888689 -0.00297112 1.33777378 -0.00594224 2.02692997 -0.0090034 C4.26691826 -0.01767088 6.50685297 -0.01919698 8.74685669 -0.02069092 C10.35345575 -0.02532041 11.96005371 -0.03034525 13.56665039 -0.03573608 C17.93031317 -0.04884796 22.29396058 -0.05530248 26.65763998 -0.05974674 C29.38409857 -0.06267894 32.11055296 -0.06678399 34.83700943 -0.07125092 C43.36823694 -0.08492159 51.89945485 -0.0945908 60.43069255 -0.09845281 C70.27768113 -0.10293505 80.12453099 -0.12049242 89.97147739 -0.1494534 C97.58433055 -0.17106644 105.19714468 -0.18115686 112.8100282 -0.18249393 C117.356417 -0.18354207 121.90267533 -0.18945201 126.44903183 -0.20731354 C130.72541502 -0.22378807 135.00156957 -0.22595277 139.27797318 -0.21717453 C140.84609337 -0.21640387 142.41422582 -0.22075073 143.98231506 -0.23063278 C146.12601447 -0.2433485 148.26890355 -0.23747834 150.41259766 -0.22705078 C152.2105972 -0.22925062 152.2105972 -0.22925062 154.04491997 -0.2314949 C157.76374446 0.18913016 160.16267857 1.1741409 163.33328247 3.14044189 C164.89578247 5.95294189 164.89578247 5.95294189 165.33328247 9.14044189 C163.24025921 14.68695352 163.24025921 14.68695352 160.33328247 16.14044189 C158.10003765 16.24575507 155.86357315 16.28440721 153.62786865 16.29434204 C152.58210759 16.30091542 152.58210759 16.30091542 151.51522005 16.3076216 C149.1676249 16.32102865 146.8200673 16.32719266 144.47244263 16.33331299 C142.79392832 16.34121233 141.11541571 16.34948118 139.43690491 16.35809326 C133.91540147 16.38432849 128.39389037 16.39962043 122.87234497 16.41387939 C120.97361623 16.41923809 119.07488754 16.42461559 117.17615891 16.43001175 C109.28057068 16.45164092 101.38498452 16.47037938 93.48937416 16.48163414 C82.16215936 16.49788524 70.83528695 16.53109062 59.50820124 16.58803499 C51.54977775 16.62668494 43.59144603 16.64626084 35.63293111 16.6515547 C30.87632361 16.65521441 26.12008116 16.66730133 21.36357498 16.69965744 C16.89013822 16.72965198 12.41728904 16.73608097 7.94377327 16.72427368 C6.30062105 16.72405223 4.65744224 16.732416 3.01438332 16.74992752 C0.77309664 16.77251756 -1.46604082 16.76437473 -3.70733643 16.7484436 C-5.58942842 16.75340882 -5.58942842 16.75340882 -7.50954247 16.75847435 C-10.66671753 16.14044189 -10.66671753 16.14044189 -13.1055851 13.82900429 C-14.66671753 11.14044189 -14.66671753 11.14044189 -14.60421753 7.51544189 C-13.32580844 2.91316917 -13.32580844 2.91316917 -10.66671753 1.14044189 C-7.11918674 -0.03913152 -3.71731474 0.00923086 0 0 Z " fill="#000000" transform="translate(146.66671752929688,205.85955810546875)"/>
<path d="M0 0 C0.67775956 -0.0060911 1.35551912 -0.01218221 2.05381685 -0.01845789 C4.323936 -0.03510151 6.59349508 -0.03031037 8.86366272 -0.0255127 C10.49159326 -0.03285224 12.11951858 -0.04143814 13.74743652 -0.05117798 C18.16892797 -0.07341428 22.59023318 -0.07632363 27.01177287 -0.07443047 C30.70223161 -0.07431087 34.39265074 -0.08287059 38.08309847 -0.09120798 C46.78895139 -0.11044949 55.49470842 -0.11332307 64.20057678 -0.10656738 C73.18366611 -0.0999249 82.16634499 -0.12279746 91.14935106 -0.15988111 C98.86072279 -0.19056085 106.57196237 -0.20194005 114.28339392 -0.1980443 C118.88962605 -0.19597509 123.4955388 -0.20148239 128.10171318 -0.22593689 C132.43323759 -0.24817327 136.76409385 -0.24635252 141.09562111 -0.22600937 C142.68512362 -0.22259382 144.27467083 -0.22771193 145.86411285 -0.24199295 C148.0349458 -0.26015162 150.20350376 -0.24746624 152.37426758 -0.22705078 C153.58860442 -0.22776329 154.80294127 -0.2284758 156.05407619 -0.2292099 C160.17755335 0.57524475 161.67145771 2.14492551 164.25062561 5.39440918 C164.81312561 8.45690918 164.81312561 8.45690918 164.25062561 11.39440918 C162.38352651 13.69716474 160.8941482 15.07264789 158.25062561 16.39440918 C156.10587566 16.49307579 153.95797504 16.52512943 151.81095886 16.52812195 C151.14236969 16.5303875 150.47378052 16.53265306 149.78493106 16.53498727 C147.53405801 16.54134115 145.28324495 16.54049702 143.03236389 16.53967285 C141.42281516 16.5426635 139.81326715 16.5460658 138.20372009 16.54985046 C133.82354053 16.55870472 129.44338049 16.56102919 125.06319284 16.56166625 C121.41003489 16.56261433 117.75688151 16.5662915 114.10372531 16.56983835 C105.48618583 16.57798847 96.86865679 16.58042209 88.25111389 16.57971191 C79.3545273 16.5791111 70.45800134 16.58966242 61.5614301 16.60545558 C53.92996501 16.61852138 46.29851976 16.62389621 38.66704357 16.6232565 C34.10618961 16.62300122 29.5453895 16.62586929 24.98454666 16.63643456 C20.69509927 16.64609931 16.40575737 16.6462059 12.1163063 16.63891792 C10.54090217 16.63787003 8.96549151 16.64024708 7.39009857 16.64627838 C5.24136067 16.65397256 3.09298941 16.64937081 0.94425964 16.64164734 C-0.86040174 16.64246449 -0.86040174 16.64246449 -2.70152092 16.64329815 C-5.65652757 16.40199109 -7.31410312 16.04142182 -9.74937439 14.39440918 C-11.46108517 11.46004785 -11.76055899 9.67402416 -11.62437439 6.26940918 C-9.79502712 0.25869674 -5.75119005 0.01766495 0 0 Z " fill="#000000" transform="translate(203.74937438964844,129.6055908203125)"/>
<path d="M0 0 C1.43427338 -0.00639748 1.43427338 -0.00639748 2.89752197 -0.01292419 C4.47628616 -0.01224442 4.47628616 -0.01224442 6.08694458 -0.0115509 C7.19271851 -0.01490952 8.29849243 -0.01826813 9.43777466 -0.02172852 C13.10876577 -0.03126067 16.77971138 -0.03318279 20.45071411 -0.03425598 C22.99418151 -0.03746708 25.53764872 -0.04083103 28.08111572 -0.04434204 C33.41932681 -0.05033905 38.75752083 -0.05222408 44.09573364 -0.05158997 C50.26575273 -0.05098935 56.43568435 -0.06153728 62.6056813 -0.07733363 C68.53983866 -0.091985 74.47396929 -0.09557802 80.4081459 -0.09498024 C82.93356814 -0.09616268 85.45899097 -0.10059917 87.9844017 -0.10831261 C91.51344867 -0.11808159 95.04226917 -0.11524654 98.57131958 -0.10920715 C100.14401108 -0.11763641 100.14401108 -0.11763641 101.74847412 -0.12623596 C103.19120697 -0.11994423 103.19120697 -0.11994423 104.66308594 -0.11352539 C105.49747633 -0.11407016 106.33186672 -0.11461493 107.19154167 -0.1151762 C109.74365152 0.16501622 111.3021056 0.74903686 113.45852661 2.13371277 C115.80402335 5.65195788 116.03844064 6.99146971 115.45852661 11.13371277 C113.4137165 14.09812177 111.77550096 15.86826108 108.16009521 16.59698868 C105.20358818 16.78683563 102.28438253 16.80900347 99.32180786 16.78068542 C98.19769501 16.78944702 97.07358215 16.79820862 95.91540527 16.80723572 C92.20021957 16.8292393 88.48622439 16.81467202 84.77102661 16.79777527 C82.18939994 16.80114308 79.60777481 16.80599541 77.02615356 16.81227112 C71.6157475 16.81964384 66.20578873 16.80940066 60.79544067 16.78556824 C54.54617977 16.75835779 48.29773453 16.76717255 42.04849339 16.79470026 C36.02932557 16.82015017 30.01055585 16.81742383 23.99133301 16.8027916 C21.43324672 16.79945449 18.87513964 16.80355527 16.31707764 16.81518936 C12.74257141 16.82787825 9.16963459 16.80854504 5.59524536 16.78068542 C4.5363913 16.79080658 3.47753723 16.80092773 2.38659668 16.81135559 C-2.40448496 16.74212245 -4.77013766 16.70693461 -8.70236206 13.78468323 C-10.54147339 11.13371277 -10.54147339 11.13371277 -11.10397339 8.07121277 C-10.42325823 4.51636696 -9.34074879 3.35666677 -6.54147339 1.13371277 C-4.14831926 -0.0628643 -2.67197336 0.00537142 0 0 Z " fill="#000000" transform="translate(142.54147338867188,282.8662872314453)"/>
<path d="M0 0 C1.23503769 -0.01073296 1.23503769 -0.01073296 2.49502563 -0.02168274 C5.20876026 -0.03855207 7.92083889 -0.01918012 10.63452148 0.00219727 C12.52351518 0.00136848 14.41250881 -0.00109126 16.30149841 -0.00511169 C20.25672156 -0.00796837 24.211378 0.00672018 28.16650391 0.03417969 C33.23658335 0.06828564 38.30565107 0.06223531 43.37577915 0.04351711 C47.27488135 0.03295044 51.173748 0.04188151 55.07282829 0.05690193 C56.94233437 0.06208508 58.81186503 0.06160033 60.68136787 0.05535698 C63.29332551 0.04990782 65.90383265 0.07026833 68.515625 0.09765625 C69.28820145 0.09113037 70.06077789 0.08460449 70.85676575 0.07788086 C74.392934 0.1409465 76.3302945 0.35224709 79.17320251 2.5372467 C81.73157928 6.0617087 81.16780127 8.35892915 80.69311523 12.63110352 C78.88148256 15.30541841 77.81550447 15.59030711 74.69311523 16.63110352 C72.08827556 16.73744425 69.50979573 16.78834349 66.90454102 16.79223633 C65.71624191 16.79968369 65.71624191 16.79968369 64.50393677 16.80728149 C61.8820916 16.82189167 59.26030693 16.82870297 56.63842773 16.83422852 C54.8162333 16.83998062 52.99403888 16.84573834 51.17184448 16.85150146 C47.35031858 16.86200799 43.5288137 16.86785303 39.70727539 16.87133789 C34.81231279 16.87682392 29.91762816 16.90085571 25.02275276 16.92930984 C21.25836374 16.94793956 17.49404167 16.95314199 13.72961044 16.95467377 C11.92510329 16.95769973 10.12059731 16.96572638 8.31613541 16.97885895 C5.79070157 16.99592761 3.26594675 16.99403742 0.74047852 16.98754883 C-0.37562805 17.001371 -0.37562805 17.001371 -1.51428223 17.01547241 C-5.94806015 16.97981546 -8.78411308 16.37250443 -12.30688477 13.63110352 C-13.75119331 10.74248642 -13.68376982 8.8346265 -13.30688477 5.63110352 C-9.46337907 0.53053084 -6.07843579 -0.09223293 0 0 Z " fill="#000000" transform="translate(145.306884765625,359.368896484375)"/>
<path d="M0 0 C0.717323 -0.00241196 1.434646 -0.00482391 2.17370605 -0.00730896 C3.68666119 -0.00633173 5.19965262 0.00703284 6.71240234 0.03198242 C9.02435107 0.06630383 11.33247758 0.05263835 13.64453125 0.03320312 C15.11720372 0.0401019 16.58986635 0.04977458 18.0625 0.0625 C19.09546204 0.0550602 19.09546204 0.0550602 20.14929199 0.04747009 C23.47407313 0.12878998 25.27550613 0.43845488 27.97070312 2.44555664 C30.23884067 5.61889113 30.00695796 7.82324255 29.53125 11.62890625 C27.77109869 14.81394195 27.03234084 15.46187597 23.53125 16.62890625 C19.40061246 16.83305355 15.26983787 16.81470884 11.13452148 16.81420898 C9.10444146 16.81639474 7.07490577 16.83456222 5.04492188 16.85351562 C3.76294922 16.85544922 2.48097656 16.85738281 1.16015625 16.859375 C-0.01474365 16.86348389 -1.18964355 16.86759277 -2.40014648 16.87182617 C-5.39364246 16.63485199 -7.01534686 16.31130986 -9.46875 14.62890625 C-11.81043764 11.11637479 -11.96498677 9.76421269 -11.46875 5.62890625 C-8.46227186 0.4991265 -5.62843261 -0.10836256 0 0 Z " fill="#000000" transform="translate(143.46875,129.37109375)"/>
</svg>
