<?xml version="1.0" standalone="no"?>
<!DOCTYPE svg PUBLIC "-//W3C//DTD SVG 20010904//EN"
 "http://www.w3.org/TR/2001/REC-SVG-20010904/DTD/svg10.dtd">
<svg version="1.0" xmlns="http://www.w3.org/2000/svg"
 width="512.000000pt" height="512.000000pt" viewBox="0 0 512.000000 512.000000"
 preserveAspectRatio="xMidYMid meet">

<g transform="translate(0.000000,512.000000) scale(0.100000,-0.100000)"
fill="#000000" stroke="none">
<path d="M4060 4389 c-162 -149 -299 -278 -303 -286 -26 -45 30 -116 78 -97
13 5 126 102 250 217 l225 207 0 -37 c0 -21 -7 -97 -15 -168 -78 -671 -317
-1276 -692 -1753 -40 -52 -73 -102 -73 -111 0 -31 39 -71 68 -71 35 1 47 10
121 105 373 471 637 1140 711 1805 7 58 15 131 18 162 l7 58 205 -225 c113
-123 215 -228 227 -234 41 -19 93 15 93 61 0 31 -16 49 -361 423 -175 189
-198 210 -229 213 -33 2 -52 -14 -330 -269z"/>
<path d="M817 4032 c-10 -10 -17 -32 -17 -48 0 -24 19 -48 105 -134 l105 -104
-105 -107 c-89 -89 -105 -111 -105 -138 0 -38 31 -71 66 -71 21 0 53 25 135
107 l109 107 109 -107 c117 -115 135 -124 176 -82 42 41 33 59 -82 176 l-107
109 107 109 c59 59 107 116 107 125 0 21 -19 58 -34 68 -6 4 -24 8 -40 8 -23
0 -49 -20 -135 -105 l-107 -105 -104 105 c-88 88 -110 105 -136 105 -17 0 -38
-8 -47 -18z"/>
<path d="M2242 3494 c-16 -11 -22 -25 -22 -51 0 -32 11 -47 102 -139 l102
-104 -102 -104 c-95 -96 -108 -116 -102 -156 3 -27 33 -50 63 -50 25 0 49 19
136 105 l106 104 106 -104 c88 -88 111 -105 137 -105 40 0 76 43 67 80 -3 14
-52 71 -108 128 l-102 102 104 104 c89 90 104 109 104 137 0 21 -7 38 -22 51
-45 36 -67 25 -180 -87 l-106 -104 -106 104 c-111 110 -132 121 -177 89z"/>
<path d="M3159 2023 c-115 -88 -129 -103 -129 -138 0 -39 26 -65 66 -65 21 0
54 20 119 70 112 88 130 123 87 173 -27 31 -65 21 -143 -40z"/>
<path d="M4087 2016 c-238 -100 -311 -382 -152 -590 66 -87 197 -142 320 -134
318 21 465 418 236 641 -75 74 -139 100 -251 104 -83 3 -103 1 -153 -21z m251
-138 c113 -53 161 -203 102 -318 -75 -145 -265 -175 -380 -60 -92 92 -95 236
-7 328 77 81 181 99 285 50z"/>
<path d="M2550 1647 c-121 -60 -146 -88 -120 -134 30 -54 55 -52 186 13 96 48
121 64 128 87 8 21 6 33 -11 55 -31 42 -64 38 -183 -21z"/>
<path d="M504 1665 c-261 -57 -423 -332 -344 -587 93 -302 444 -426 707 -251
29 19 69 54 88 76 44 51 93 148 102 200 4 27 12 41 27 47 12 4 86 13 166 20
262 21 747 114 796 152 30 24 32 70 4 98 -26 26 -35 25 -183 -10 -68 -16 -203
-43 -298 -59 -173 -30 -486 -64 -500 -55 -4 2 -11 19 -14 37 -4 17 -23 62 -42
100 -61 117 -178 204 -310 232 -82 18 -119 18 -199 0z m231 -154 c62 -27 129
-91 163 -156 24 -44 27 -61 27 -145 0 -84 -3 -101 -27 -146 -57 -109 -171
-178 -293 -178 -122 0 -236 69 -293 178 -24 45 -27 62 -27 146 0 83 3 101 27
145 64 122 177 188 308 181 39 -2 86 -12 115 -25z"/>
<path d="M2621 1062 c-14 -11 -23 -29 -23 -50 -1 -30 11 -46 105 -140 l107
-107 -105 -105 c-88 -88 -105 -110 -105 -136 0 -38 27 -64 66 -64 23 0 49 20
134 105 l105 105 105 -105 c87 -87 110 -105 135 -105 16 0 35 4 41 8 20 13 35
53 28 75 -4 12 -52 68 -107 125 l-101 102 107 109 c115 117 124 135 82 176
-41 42 -59 33 -177 -82 l-108 -107 -98 96 c-125 124 -148 136 -191 100z"/>
</g>
</svg>
