<svg xmlns="http://www.w3.org/2000/svg" xmlns:xlink="http://www.w3.org/1999/xlink" width="1920" zoomAndPan="magnify" viewBox="0 0 1440 809.999993" height="1080" preserveAspectRatio="xMidYMid meet" version="1.2"><defs><filter x="0%" y="0%" width="100%" filterUnits="objectBoundingBox" id="36d53a6ada" height="100%"><feColorMatrix values="0 0 0 0 1 0 0 0 0 1 0 0 0 0 1 0 0 0 1 0" type="matrix" in="SourceGraphic"/></filter><clipPath id="1ba71f4a69"><path d="M 0.886719 0.914062 L 450.75 0.914062 L 450.75 662 L 0.886719 662 Z M 0.886719 0.914062 "/></clipPath><clipPath id="e14e582e94"><path d="M 52.636719 0.914062 L 399 0.914062 C 427.582031 0.914062 450.75 24.082031 450.75 52.664062 L 450.75 660.722656 C 450.75 689.300781 427.582031 712.472656 399 712.472656 L 52.636719 712.472656 C 24.054688 712.472656 0.886719 689.300781 0.886719 660.722656 L 0.886719 52.664062 C 0.886719 24.082031 24.054688 0.914062 52.636719 0.914062 Z M 52.636719 0.914062 "/></clipPath><clipPath id="29631f4097"><rect x="0" width="451" y="0" height="662"/></clipPath><clipPath id="3ac44c73b2"><path d="M 1.121094 0.605469 L 122 0.605469 L 122 49.207031 L 1.121094 49.207031 Z M 1.121094 0.605469 "/></clipPath><clipPath id="55b3af2334"><path d="M 20.621094 0.605469 L 102.496094 0.605469 C 113.265625 0.605469 121.996094 9.335938 121.996094 20.105469 L 121.996094 29.707031 C 121.996094 40.476562 113.265625 49.207031 102.496094 49.207031 L 20.621094 49.207031 C 9.851562 49.207031 1.121094 40.476562 1.121094 29.707031 L 1.121094 20.105469 C 1.121094 9.335938 9.851562 0.605469 20.621094 0.605469 Z M 20.621094 0.605469 "/></clipPath><clipPath id="a73962b02e"><rect x="0" width="123" y="0" height="50"/></clipPath><clipPath id="e298a8293e"><path d="M 1.121094 0.546875 L 122 0.546875 L 122 15.777344 L 1.121094 15.777344 Z M 1.121094 0.546875 "/></clipPath><clipPath id="8f595b0679"><path d="M 8.738281 0.546875 L 114.382812 0.546875 C 118.589844 0.546875 121.996094 3.953125 121.996094 8.160156 C 121.996094 12.367188 118.589844 15.777344 114.382812 15.777344 L 8.738281 15.777344 C 4.53125 15.777344 1.121094 12.367188 1.121094 8.160156 C 1.121094 3.953125 4.53125 0.546875 8.738281 0.546875 Z M 8.738281 0.546875 "/></clipPath><clipPath id="11eaaedda8"><rect x="0" width="123" y="0" height="16"/></clipPath><clipPath id="0dc5bd6fcc"><path d="M 1.121094 0.464844 L 218.402344 0.464844 L 218.402344 15.695312 L 1.121094 15.695312 Z M 1.121094 0.464844 "/></clipPath><clipPath id="a2d0d56668"><path d="M 8.738281 0.464844 L 210.734375 0.464844 C 214.941406 0.464844 218.351562 3.875 218.351562 8.082031 C 218.351562 12.285156 214.941406 15.695312 210.734375 15.695312 L 8.738281 15.695312 C 4.53125 15.695312 1.121094 12.285156 1.121094 8.082031 C 1.121094 3.875 4.53125 0.464844 8.738281 0.464844 Z M 8.738281 0.464844 "/></clipPath><clipPath id="90d82b495f"><rect x="0" width="219" y="0" height="16"/></clipPath><clipPath id="216db9ec4f"><path d="M 1.121094 0.945312 L 247.910156 0.945312 L 247.910156 16.175781 L 1.121094 16.175781 Z M 1.121094 0.945312 "/></clipPath><clipPath id="75b21d2a2e"><path d="M 8.738281 0.945312 L 240.289062 0.945312 C 244.496094 0.945312 247.902344 4.355469 247.902344 8.5625 C 247.902344 12.765625 244.496094 16.175781 240.289062 16.175781 L 8.738281 16.175781 C 4.53125 16.175781 1.121094 12.765625 1.121094 8.5625 C 1.121094 4.355469 4.53125 0.945312 8.738281 0.945312 Z M 8.738281 0.945312 "/></clipPath><clipPath id="781b561698"><rect x="0" width="248" y="0" height="17"/></clipPath><clipPath id="50e42bedb0"><path d="M 1.121094 0.425781 L 218.402344 0.425781 L 218.402344 15.65625 L 1.121094 15.65625 Z M 1.121094 0.425781 "/></clipPath><clipPath id="32567eecda"><path d="M 8.738281 0.425781 L 210.734375 0.425781 C 214.941406 0.425781 218.351562 3.835938 218.351562 8.042969 C 218.351562 12.25 214.941406 15.65625 210.734375 15.65625 L 8.738281 15.65625 C 4.53125 15.65625 1.121094 12.25 1.121094 8.042969 C 1.121094 3.835938 4.53125 0.425781 8.738281 0.425781 Z M 8.738281 0.425781 "/></clipPath><clipPath id="ad5d766088"><rect x="0" width="219" y="0" height="16"/></clipPath><clipPath id="23ff7c844d"><path d="M 1.121094 0.90625 L 247.910156 0.90625 L 247.910156 16.140625 L 1.121094 16.140625 Z M 1.121094 0.90625 "/></clipPath><clipPath id="de7c7e7731"><path d="M 8.738281 0.90625 L 240.289062 0.90625 C 244.496094 0.90625 247.902344 4.316406 247.902344 8.523438 C 247.902344 12.730469 244.496094 16.140625 240.289062 16.140625 L 8.738281 16.140625 C 4.53125 16.140625 1.121094 12.730469 1.121094 8.523438 C 1.121094 4.316406 4.53125 0.90625 8.738281 0.90625 Z M 8.738281 0.90625 "/></clipPath><clipPath id="282c3dcb56"><rect x="0" width="248" y="0" height="17"/></clipPath><clipPath id="0bf321c8a2"><path d="M 1.121094 0.640625 L 231.96875 0.640625 L 231.96875 15.871094 L 1.121094 15.871094 Z M 1.121094 0.640625 "/></clipPath><clipPath id="40d0498656"><path d="M 8.738281 0.640625 L 224.300781 0.640625 C 228.507812 0.640625 231.917969 4.046875 231.917969 8.253906 C 231.917969 12.460938 228.507812 15.871094 224.300781 15.871094 L 8.738281 15.871094 C 4.53125 15.871094 1.121094 12.460938 1.121094 8.253906 C 1.121094 4.046875 4.53125 0.640625 8.738281 0.640625 Z M 8.738281 0.640625 "/></clipPath><clipPath id="f67b365298"><rect x="0" width="233" y="0" height="16"/></clipPath><clipPath id="b8579aad5d"><path d="M 1.121094 1.121094 L 218.402344 1.121094 L 218.402344 16.351562 L 1.121094 16.351562 Z M 1.121094 1.121094 "/></clipPath><clipPath id="86717d963e"><path d="M 8.738281 1.121094 L 210.734375 1.121094 C 214.941406 1.121094 218.351562 4.53125 218.351562 8.734375 C 218.351562 12.941406 214.941406 16.351562 210.734375 16.351562 L 8.738281 16.351562 C 4.53125 16.351562 1.121094 12.941406 1.121094 8.734375 C 1.121094 4.53125 4.53125 1.121094 8.738281 1.121094 Z M 8.738281 1.121094 "/></clipPath><clipPath id="f1db251efe"><rect x="0" width="219" y="0" height="17"/></clipPath><clipPath id="d22fd4cd94"><path d="M 1.121094 0.601562 L 218.402344 0.601562 L 218.402344 15.832031 L 1.121094 15.832031 Z M 1.121094 0.601562 "/></clipPath><clipPath id="4e81ff72e9"><path d="M 8.738281 0.601562 L 210.734375 0.601562 C 214.941406 0.601562 218.351562 4.011719 218.351562 8.214844 C 218.351562 12.421875 214.941406 15.832031 210.734375 15.832031 L 8.738281 15.832031 C 4.53125 15.832031 1.121094 12.421875 1.121094 8.214844 C 1.121094 4.011719 4.53125 0.601562 8.738281 0.601562 Z M 8.738281 0.601562 "/></clipPath><clipPath id="16378acaf8"><rect x="0" width="219" y="0" height="16"/></clipPath><clipPath id="a8dc9c60bb"><path d="M 1.121094 0.0820312 L 247.910156 0.0820312 L 247.910156 15.3125 L 1.121094 15.3125 Z M 1.121094 0.0820312 "/></clipPath><clipPath id="1e62f2b874"><path d="M 8.738281 0.0820312 L 240.289062 0.0820312 C 244.496094 0.0820312 247.902344 3.492188 247.902344 7.699219 C 247.902344 11.902344 244.496094 15.3125 240.289062 15.3125 L 8.738281 15.3125 C 4.53125 15.3125 1.121094 11.902344 1.121094 7.699219 C 1.121094 3.492188 4.53125 0.0820312 8.738281 0.0820312 Z M 8.738281 0.0820312 "/></clipPath><clipPath id="b51ba2f47b"><rect x="0" width="248" y="0" height="16"/></clipPath><clipPath id="4b33d410fa"><path d="M 1.121094 0.179688 L 61.605469 0.179688 L 61.605469 13.8125 L 1.121094 13.8125 Z M 1.121094 0.179688 "/></clipPath><clipPath id="9b762c71f0"><path d="M 7.9375 0.179688 L 54.746094 0.179688 C 58.507812 0.179688 61.558594 3.230469 61.558594 6.996094 C 61.558594 10.761719 58.507812 13.8125 54.746094 13.8125 L 7.9375 13.8125 C 4.171875 13.8125 1.121094 10.761719 1.121094 6.996094 C 1.121094 3.230469 4.171875 0.179688 7.9375 0.179688 Z M 7.9375 0.179688 "/></clipPath><clipPath id="4d12191e99"><rect x="0" width="62" y="0" height="14"/></clipPath><clipPath id="3d4e3f7e56"><path d="M 0.722656 0.640625 L 61.207031 0.640625 L 61.207031 14.269531 L 0.722656 14.269531 Z M 0.722656 0.640625 "/></clipPath><clipPath id="30e281ddcb"><path d="M 7.539062 0.640625 L 54.347656 0.640625 C 58.109375 0.640625 61.164062 3.691406 61.164062 7.453125 C 61.164062 11.21875 58.109375 14.269531 54.347656 14.269531 L 7.539062 14.269531 C 3.777344 14.269531 0.722656 11.21875 0.722656 7.453125 C 0.722656 3.691406 3.777344 0.640625 7.539062 0.640625 Z M 7.539062 0.640625 "/></clipPath><clipPath id="8c6719c602"><rect x="0" width="62" y="0" height="15"/></clipPath><clipPath id="3a062bcf36"><path d="M 0.722656 0.464844 L 61.207031 0.464844 L 61.207031 14.09375 L 0.722656 14.09375 Z M 0.722656 0.464844 "/></clipPath><clipPath id="cc85dc4a81"><path d="M 7.539062 0.464844 L 54.347656 0.464844 C 58.109375 0.464844 61.164062 3.515625 61.164062 7.28125 C 61.164062 11.042969 58.109375 14.09375 54.347656 14.09375 L 7.539062 14.09375 C 3.777344 14.09375 0.722656 11.042969 0.722656 7.28125 C 0.722656 3.515625 3.777344 0.464844 7.539062 0.464844 Z M 7.539062 0.464844 "/></clipPath><clipPath id="c85153ce7e"><rect x="0" width="62" y="0" height="15"/></clipPath><clipPath id="27fd380fd1"><path d="M 0.722656 1.121094 L 61.207031 1.121094 L 61.207031 14.75 L 0.722656 14.75 Z M 0.722656 1.121094 "/></clipPath><clipPath id="516a167a6a"><path d="M 7.539062 1.121094 L 54.347656 1.121094 C 58.109375 1.121094 61.164062 4.171875 61.164062 7.933594 C 61.164062 11.699219 58.109375 14.75 54.347656 14.75 L 7.539062 14.75 C 3.777344 14.75 0.722656 11.699219 0.722656 7.933594 C 0.722656 4.171875 3.777344 1.121094 7.539062 1.121094 Z M 7.539062 1.121094 "/></clipPath><clipPath id="b94430b517"><rect x="0" width="62" y="0" height="15"/></clipPath><clipPath id="774d012a9b"><path d="M 0.722656 0.945312 L 61.207031 0.945312 L 61.207031 14.578125 L 0.722656 14.578125 Z M 0.722656 0.945312 "/></clipPath><clipPath id="b35a5e3216"><path d="M 7.539062 0.945312 L 54.347656 0.945312 C 58.109375 0.945312 61.164062 3.996094 61.164062 7.761719 C 61.164062 11.523438 58.109375 14.578125 54.347656 14.578125 L 7.539062 14.578125 C 3.777344 14.578125 0.722656 11.523438 0.722656 7.761719 C 0.722656 3.996094 3.777344 0.945312 7.539062 0.945312 Z M 7.539062 0.945312 "/></clipPath><clipPath id="4b4b78e5bb"><rect x="0" width="62" y="0" height="15"/></clipPath><clipPath id="4f524882b9"><path d="M 0.722656 0.601562 L 61.207031 0.601562 L 61.207031 14.230469 L 0.722656 14.230469 Z M 0.722656 0.601562 "/></clipPath><clipPath id="03d264db3e"><path d="M 7.539062 0.601562 L 54.347656 0.601562 C 58.109375 0.601562 61.164062 3.652344 61.164062 7.417969 C 61.164062 11.179688 58.109375 14.230469 54.347656 14.230469 L 7.539062 14.230469 C 3.777344 14.230469 0.722656 11.179688 0.722656 7.417969 C 0.722656 3.652344 3.777344 0.601562 7.539062 0.601562 Z M 7.539062 0.601562 "/></clipPath><clipPath id="baf2c12cca"><rect x="0" width="62" y="0" height="15"/></clipPath><clipPath id="ae9b044993"><path d="M 0.722656 0.425781 L 61.207031 0.425781 L 61.207031 14.058594 L 0.722656 14.058594 Z M 0.722656 0.425781 "/></clipPath><clipPath id="c289893607"><path d="M 7.539062 0.425781 L 54.347656 0.425781 C 58.109375 0.425781 61.164062 3.476562 61.164062 7.242188 C 61.164062 11.007812 58.109375 14.058594 54.347656 14.058594 L 7.539062 14.058594 C 3.777344 14.058594 0.722656 11.007812 0.722656 7.242188 C 0.722656 3.476562 3.777344 0.425781 7.539062 0.425781 Z M 7.539062 0.425781 "/></clipPath><clipPath id="dcec353cdd"><rect x="0" width="62" y="0" height="15"/></clipPath><clipPath id="19033e813f"><path d="M 0.722656 0.882812 L 61.207031 0.882812 L 61.207031 14.511719 L 0.722656 14.511719 Z M 0.722656 0.882812 "/></clipPath><clipPath id="495d3ef436"><path d="M 7.539062 0.882812 L 54.347656 0.882812 C 58.109375 0.882812 61.164062 3.933594 61.164062 7.699219 C 61.164062 11.460938 58.109375 14.511719 54.347656 14.511719 L 7.539062 14.511719 C 3.777344 14.511719 0.722656 11.460938 0.722656 7.699219 C 0.722656 3.933594 3.777344 0.882812 7.539062 0.882812 Z M 7.539062 0.882812 "/></clipPath><clipPath id="76a9a73fad"><rect x="0" width="62" y="0" height="15"/></clipPath><clipPath id="b48308b93e"><path d="M 0.722656 0.707031 L 61.207031 0.707031 L 61.207031 14.339844 L 0.722656 14.339844 Z M 0.722656 0.707031 "/></clipPath><clipPath id="97fb5d35b2"><path d="M 7.539062 0.707031 L 54.347656 0.707031 C 58.109375 0.707031 61.164062 3.761719 61.164062 7.523438 C 61.164062 11.289062 58.109375 14.339844 54.347656 14.339844 L 7.539062 14.339844 C 3.777344 14.339844 0.722656 11.289062 0.722656 7.523438 C 0.722656 3.761719 3.777344 0.707031 7.539062 0.707031 Z M 7.539062 0.707031 "/></clipPath><clipPath id="eca78b6831"><rect x="0" width="62" y="0" height="15"/></clipPath><clipPath id="cf332730be"><path d="M 1.121094 0.8125 L 345.289062 0.8125 L 345.289062 47.355469 L 1.121094 47.355469 Z M 1.121094 0.8125 "/></clipPath><clipPath id="83463918f1"><path d="M 20.621094 0.8125 L 325.664062 0.8125 C 336.433594 0.8125 345.164062 9.542969 345.164062 20.3125 L 345.164062 27.855469 C 345.164062 38.625 336.433594 47.355469 325.664062 47.355469 L 20.621094 47.355469 C 9.851562 47.355469 1.121094 38.625 1.121094 27.855469 L 1.121094 20.3125 C 1.121094 9.542969 9.851562 0.8125 20.621094 0.8125 Z M 20.621094 0.8125 "/></clipPath><clipPath id="bef5cdc069"><rect x="0" width="346" y="0" height="48"/></clipPath></defs><g id="e7e55a2a59"><g mask="url(#bc2efae3a2)" transform="matrix(1,0,0,1,878,148)"><g clip-path="url(#29631f4097)"><g clip-rule="nonzero" clip-path="url(#1ba71f4a69)"><g clip-rule="nonzero" clip-path="url(#e14e582e94)"><path style=" stroke:none;fill-rule:nonzero;fill:#ffffff;fill-opacity:1;" d="M 0.886719 0.914062 L 450.75 0.914062 L 450.75 712.613281 L 0.886719 712.613281 Z M 0.886719 0.914062 "/></g></g></g><mask id="bc2efae3a2"><g filter="url(#36d53a6ada)"><rect x="0" width="1440" y="0" height="809.999993" style="fill:#000000;fill-opacity:0.3;stroke:none;"/></g></mask></g><g mask="url(#74c6d82fe2)" transform="matrix(1,0,0,1,936,214)"><g clip-path="url(#a73962b02e)"><g clip-rule="nonzero" clip-path="url(#3ac44c73b2)"><g clip-rule="nonzero" clip-path="url(#55b3af2334)"><path style=" stroke:none;fill-rule:nonzero;fill:#ffffff;fill-opacity:1;" d="M 1.121094 0.605469 L 122.046875 0.605469 L 122.046875 49.207031 L 1.121094 49.207031 Z M 1.121094 0.605469 "/></g></g></g><mask id="74c6d82fe2"><g filter="url(#36d53a6ada)"><rect x="0" width="1440" y="0" height="809.999993" style="fill:#000000;fill-opacity:0.48;stroke:none;"/></g></mask></g><g mask="url(#3e314cc9de)" transform="matrix(1,0,0,1,936,274)"><g clip-path="url(#11eaaedda8)"><g clip-rule="nonzero" clip-path="url(#e298a8293e)"><g clip-rule="nonzero" clip-path="url(#8f595b0679)"><path style=" stroke:none;fill-rule:nonzero;fill:#ffffff;fill-opacity:1;" d="M 1.121094 0.546875 L 122.019531 0.546875 L 122.019531 15.777344 L 1.121094 15.777344 Z M 1.121094 0.546875 "/></g></g></g><mask id="3e314cc9de"><g filter="url(#36d53a6ada)"><rect x="0" width="1440" y="0" height="809.999993" style="fill:#000000;fill-opacity:0.48;stroke:none;"/></g></mask></g><g mask="url(#31e32dc313)" transform="matrix(1,0,0,1,936,361)"><g clip-path="url(#90d82b495f)"><g clip-rule="nonzero" clip-path="url(#0dc5bd6fcc)"><g clip-rule="nonzero" clip-path="url(#a2d0d56668)"><path style=" stroke:none;fill-rule:nonzero;fill:#ffffff;fill-opacity:1;" d="M 1.121094 0.464844 L 218.34375 0.464844 L 218.34375 15.695312 L 1.121094 15.695312 Z M 1.121094 0.464844 "/></g></g></g><mask id="31e32dc313"><g filter="url(#36d53a6ada)"><rect x="0" width="1440" y="0" height="809.999993" style="fill:#000000;fill-opacity:0.48;stroke:none;"/></g></mask></g><g mask="url(#5d3b6c3692)" transform="matrix(1,0,0,1,936,387)"><g clip-path="url(#781b561698)"><g clip-rule="nonzero" clip-path="url(#216db9ec4f)"><g clip-rule="nonzero" clip-path="url(#75b21d2a2e)"><path style=" stroke:none;fill-rule:nonzero;fill:#ffffff;fill-opacity:1;" d="M 1.121094 0.945312 L 247.910156 0.945312 L 247.910156 16.175781 L 1.121094 16.175781 Z M 1.121094 0.945312 "/></g></g></g><mask id="5d3b6c3692"><g filter="url(#36d53a6ada)"><rect x="0" width="1440" y="0" height="809.999993" style="fill:#000000;fill-opacity:0.48;stroke:none;"/></g></mask></g><g mask="url(#a77b396e09)" transform="matrix(1,0,0,1,936,414)"><g clip-path="url(#ad5d766088)"><g clip-rule="nonzero" clip-path="url(#50e42bedb0)"><g clip-rule="nonzero" clip-path="url(#32567eecda)"><path style=" stroke:none;fill-rule:nonzero;fill:#ffffff;fill-opacity:1;" d="M 1.121094 0.425781 L 218.34375 0.425781 L 218.34375 15.65625 L 1.121094 15.65625 Z M 1.121094 0.425781 "/></g></g></g><mask id="a77b396e09"><g filter="url(#36d53a6ada)"><rect x="0" width="1440" y="0" height="809.999993" style="fill:#000000;fill-opacity:0.48;stroke:none;"/></g></mask></g><g mask="url(#2e75cad18a)" transform="matrix(1,0,0,1,936,440)"><g clip-path="url(#282c3dcb56)"><g clip-rule="nonzero" clip-path="url(#23ff7c844d)"><g clip-rule="nonzero" clip-path="url(#de7c7e7731)"><path style=" stroke:none;fill-rule:nonzero;fill:#ffffff;fill-opacity:1;" d="M 1.121094 0.90625 L 247.910156 0.90625 L 247.910156 16.140625 L 1.121094 16.140625 Z M 1.121094 0.90625 "/></g></g></g><mask id="2e75cad18a"><g filter="url(#36d53a6ada)"><rect x="0" width="1440" y="0" height="809.999993" style="fill:#000000;fill-opacity:0.48;stroke:none;"/></g></mask></g><g mask="url(#d33d58942e)" transform="matrix(1,0,0,1,936,520)"><g clip-path="url(#f67b365298)"><g clip-rule="nonzero" clip-path="url(#0bf321c8a2)"><g clip-rule="nonzero" clip-path="url(#40d0498656)"><path style=" stroke:none;fill-rule:nonzero;fill:#ffffff;fill-opacity:1;" d="M 1.121094 0.640625 L 231.90625 0.640625 L 231.90625 15.871094 L 1.121094 15.871094 Z M 1.121094 0.640625 "/></g></g></g><mask id="d33d58942e"><g filter="url(#36d53a6ada)"><rect x="0" width="1440" y="0" height="809.999993" style="fill:#000000;fill-opacity:0.48;stroke:none;"/></g></mask></g><g mask="url(#45ad21fd5d)" transform="matrix(1,0,0,1,936,546)"><g clip-path="url(#f1db251efe)"><g clip-rule="nonzero" clip-path="url(#b8579aad5d)"><g clip-rule="nonzero" clip-path="url(#86717d963e)"><path style=" stroke:none;fill-rule:nonzero;fill:#ffffff;fill-opacity:1;" d="M 1.121094 1.121094 L 218.34375 1.121094 L 218.34375 16.351562 L 1.121094 16.351562 Z M 1.121094 1.121094 "/></g></g></g><mask id="45ad21fd5d"><g filter="url(#36d53a6ada)"><rect x="0" width="1440" y="0" height="809.999993" style="fill:#000000;fill-opacity:0.48;stroke:none;"/></g></mask></g><g mask="url(#2359014b46)" transform="matrix(1,0,0,1,936,573)"><g clip-path="url(#16378acaf8)"><g clip-rule="nonzero" clip-path="url(#d22fd4cd94)"><g clip-rule="nonzero" clip-path="url(#4e81ff72e9)"><path style=" stroke:none;fill-rule:nonzero;fill:#ffffff;fill-opacity:1;" d="M 1.121094 0.601562 L 218.34375 0.601562 L 218.34375 15.832031 L 1.121094 15.832031 Z M 1.121094 0.601562 "/></g></g></g><mask id="2359014b46"><g filter="url(#36d53a6ada)"><rect x="0" width="1440" y="0" height="809.999993" style="fill:#000000;fill-opacity:0.48;stroke:none;"/></g></mask></g><g mask="url(#4ff707ccf3)" transform="matrix(1,0,0,1,936,600)"><g clip-path="url(#b51ba2f47b)"><g clip-rule="nonzero" clip-path="url(#a8dc9c60bb)"><g clip-rule="nonzero" clip-path="url(#1e62f2b874)"><path style=" stroke:none;fill-rule:nonzero;fill:#ffffff;fill-opacity:1;" d="M 1.121094 0.0820312 L 247.910156 0.0820312 L 247.910156 15.3125 L 1.121094 15.3125 Z M 1.121094 0.0820312 "/></g></g></g><mask id="4ff707ccf3"><g filter="url(#36d53a6ada)"><rect x="0" width="1440" y="0" height="809.999993" style="fill:#000000;fill-opacity:0.48;stroke:none;"/></g></mask></g><g mask="url(#d5bf5f6d71)" transform="matrix(1,0,0,1,936,299)"><g clip-path="url(#4d12191e99)"><g clip-rule="nonzero" clip-path="url(#4b33d410fa)"><g clip-rule="nonzero" clip-path="url(#9b762c71f0)"><path style=" stroke:none;fill-rule:nonzero;fill:#ffffff;fill-opacity:1;" d="M 1.121094 0.179688 L 61.550781 0.179688 L 61.550781 13.8125 L 1.121094 13.8125 Z M 1.121094 0.179688 "/></g></g></g><mask id="d5bf5f6d71"><g filter="url(#36d53a6ada)"><rect x="0" width="1440" y="0" height="809.999993" style="fill:#000000;fill-opacity:0.48;stroke:none;"/></g></mask></g><g mask="url(#319a43d72e)" transform="matrix(1,0,0,1,1220,520)"><g clip-path="url(#8c6719c602)"><g clip-rule="nonzero" clip-path="url(#3d4e3f7e56)"><g clip-rule="nonzero" clip-path="url(#30e281ddcb)"><path style=" stroke:none;fill-rule:nonzero;fill:#ffffff;fill-opacity:1;" d="M 0.722656 0.640625 L 61.15625 0.640625 L 61.15625 14.269531 L 0.722656 14.269531 Z M 0.722656 0.640625 "/></g></g></g><mask id="319a43d72e"><g filter="url(#36d53a6ada)"><rect x="0" width="1440" y="0" height="809.999993" style="fill:#000000;fill-opacity:0.48;stroke:none;"/></g></mask></g><g mask="url(#ee6bcf9b8a)" transform="matrix(1,0,0,1,1220,361)"><g clip-path="url(#c85153ce7e)"><g clip-rule="nonzero" clip-path="url(#3a062bcf36)"><g clip-rule="nonzero" clip-path="url(#cc85dc4a81)"><path style=" stroke:none;fill-rule:nonzero;fill:#ffffff;fill-opacity:1;" d="M 0.722656 0.464844 L 61.15625 0.464844 L 61.15625 14.09375 L 0.722656 14.09375 Z M 0.722656 0.464844 "/></g></g></g><mask id="ee6bcf9b8a"><g filter="url(#36d53a6ada)"><rect x="0" width="1440" y="0" height="809.999993" style="fill:#000000;fill-opacity:0.48;stroke:none;"/></g></mask></g><g mask="url(#8277ff6c15)" transform="matrix(1,0,0,1,1220,546)"><g clip-path="url(#b94430b517)"><g clip-rule="nonzero" clip-path="url(#27fd380fd1)"><g clip-rule="nonzero" clip-path="url(#516a167a6a)"><path style=" stroke:none;fill-rule:nonzero;fill:#ffffff;fill-opacity:1;" d="M 0.722656 1.121094 L 61.15625 1.121094 L 61.15625 14.75 L 0.722656 14.75 Z M 0.722656 1.121094 "/></g></g></g><mask id="8277ff6c15"><g filter="url(#36d53a6ada)"><rect x="0" width="1440" y="0" height="809.999993" style="fill:#000000;fill-opacity:0.48;stroke:none;"/></g></mask></g><g mask="url(#40fa8f05f0)" transform="matrix(1,0,0,1,1220,387)"><g clip-path="url(#4b4b78e5bb)"><g clip-rule="nonzero" clip-path="url(#774d012a9b)"><g clip-rule="nonzero" clip-path="url(#b35a5e3216)"><path style=" stroke:none;fill-rule:nonzero;fill:#ffffff;fill-opacity:1;" d="M 0.722656 0.945312 L 61.15625 0.945312 L 61.15625 14.578125 L 0.722656 14.578125 Z M 0.722656 0.945312 "/></g></g></g><mask id="40fa8f05f0"><g filter="url(#36d53a6ada)"><rect x="0" width="1440" y="0" height="809.999993" style="fill:#000000;fill-opacity:0.48;stroke:none;"/></g></mask></g><g mask="url(#f067d186be)" transform="matrix(1,0,0,1,1220,573)"><g clip-path="url(#baf2c12cca)"><g clip-rule="nonzero" clip-path="url(#4f524882b9)"><g clip-rule="nonzero" clip-path="url(#03d264db3e)"><path style=" stroke:none;fill-rule:nonzero;fill:#ffffff;fill-opacity:1;" d="M 0.722656 0.601562 L 61.15625 0.601562 L 61.15625 14.230469 L 0.722656 14.230469 Z M 0.722656 0.601562 "/></g></g></g><mask id="f067d186be"><g filter="url(#36d53a6ada)"><rect x="0" width="1440" y="0" height="809.999993" style="fill:#000000;fill-opacity:0.48;stroke:none;"/></g></mask></g><g mask="url(#b08fc1a05a)" transform="matrix(1,0,0,1,1220,414)"><g clip-path="url(#dcec353cdd)"><g clip-rule="nonzero" clip-path="url(#ae9b044993)"><g clip-rule="nonzero" clip-path="url(#c289893607)"><path style=" stroke:none;fill-rule:nonzero;fill:#ffffff;fill-opacity:1;" d="M 0.722656 0.425781 L 61.15625 0.425781 L 61.15625 14.058594 L 0.722656 14.058594 Z M 0.722656 0.425781 "/></g></g></g><mask id="b08fc1a05a"><g filter="url(#36d53a6ada)"><rect x="0" width="1440" y="0" height="809.999993" style="fill:#000000;fill-opacity:0.48;stroke:none;"/></g></mask></g><g mask="url(#b17b2f3738)" transform="matrix(1,0,0,1,1220,600)"><g clip-path="url(#76a9a73fad)"><g clip-rule="nonzero" clip-path="url(#19033e813f)"><g clip-rule="nonzero" clip-path="url(#495d3ef436)"><path style=" stroke:none;fill-rule:nonzero;fill:#ffffff;fill-opacity:1;" d="M 0.722656 0.882812 L 61.15625 0.882812 L 61.15625 14.511719 L 0.722656 14.511719 Z M 0.722656 0.882812 "/></g></g></g><mask id="b17b2f3738"><g filter="url(#36d53a6ada)"><rect x="0" width="1440" y="0" height="809.999993" style="fill:#000000;fill-opacity:0.48;stroke:none;"/></g></mask></g><g mask="url(#bbbe3138af)" transform="matrix(1,0,0,1,1220,441)"><g clip-path="url(#eca78b6831)"><g clip-rule="nonzero" clip-path="url(#b48308b93e)"><g clip-rule="nonzero" clip-path="url(#97fb5d35b2)"><path style=" stroke:none;fill-rule:nonzero;fill:#ffffff;fill-opacity:1;" d="M 0.722656 0.707031 L 61.15625 0.707031 L 61.15625 14.339844 L 0.722656 14.339844 Z M 0.722656 0.707031 "/></g></g></g><mask id="bbbe3138af"><g filter="url(#36d53a6ada)"><rect x="0" width="1440" y="0" height="809.999993" style="fill:#000000;fill-opacity:0.48;stroke:none;"/></g></mask></g><g mask="url(#1360574ab9)" transform="matrix(1,0,0,1,936,679)"><g clip-path="url(#bef5cdc069)"><g clip-rule="nonzero" clip-path="url(#cf332730be)"><g clip-rule="nonzero" clip-path="url(#83463918f1)"><path style=" stroke:none;fill-rule:nonzero;fill:#ffffff;fill-opacity:1;" d="M 1.121094 0.8125 L 345.109375 0.8125 L 345.109375 47.355469 L 1.121094 47.355469 Z M 1.121094 0.8125 "/></g></g></g><mask id="1360574ab9"><g filter="url(#36d53a6ada)"><rect x="0" width="1440" y="0" height="809.999993" style="fill:#000000;fill-opacity:0.48;stroke:none;"/></g></mask></g></g></svg>