<?xml version="1.0" standalone="no"?>
<!DOCTYPE svg PUBLIC "-//W3C//DTD SVG 20010904//EN"
 "http://www.w3.org/TR/2001/REC-SVG-20010904/DTD/svg10.dtd">
<svg version="1.0" xmlns="http://www.w3.org/2000/svg"
 width="512.000000pt" height="512.000000pt" viewBox="0 0 512.000000 512.000000"
 preserveAspectRatio="xMidYMid meet">

<g transform="translate(0.000000,512.000000) scale(0.100000,-0.100000)"
fill="#000000" stroke="none">
<path d="M2952 4340 c-13 -6 -30 -29 -42 -57 -30 -72 -30 -72 -103 -103 l-68
-28 -59 24 c-32 13 -67 21 -77 18 -24 -9 -173 -155 -173 -170 0 -6 7 -18 17
-25 9 -8 48 -50 86 -93 67 -76 69 -78 65 -45 -3 19 -12 49 -19 67 -13 31 -12
33 22 67 l35 36 45 -20 c58 -27 69 -26 137 8 31 16 77 35 102 42 57 16 84 40
100 89 13 40 13 40 66 40 l53 0 24 -54 c23 -50 29 -55 78 -71 30 -10 80 -30
112 -46 68 -34 81 -35 140 -10 l45 19 35 -36 36 -37 -19 -44 c-25 -55 -25 -74
0 -120 11 -20 33 -70 48 -111 28 -76 32 -80 107 -112 26 -12 30 -19 33 -60 l3
-47 -58 -28 c-56 -27 -59 -30 -84 -98 -14 -38 -35 -89 -47 -112 -27 -52 -27
-59 -2 -119 l21 -48 -35 -35 c-35 -34 -37 -35 -68 -22 -52 21 -86 24 -118 11
-17 -7 -30 -14 -30 -17 0 -3 37 -45 82 -94 66 -72 87 -89 110 -89 37 0 96 -25
126 -53 35 -32 51 -68 58 -133 7 -56 10 -61 112 -173 57 -64 113 -125 122
-135 18 -18 29 -13 460 208 243 124 446 226 451 226 5 0 9 -307 9 -724 l0
-724 73 -79 72 -79 3 825 c2 785 1 826 -16 860 -10 20 -36 46 -58 59 -74 43
-83 40 -596 -226 -256 -133 -468 -242 -472 -242 -3 0 -6 47 -6 104 0 122 -12
192 -42 253 -21 43 -92 117 -133 141 -19 10 -18 12 16 49 20 21 39 46 42 56 4
10 -4 45 -18 78 l-24 60 24 52 c14 28 25 58 25 65 0 7 29 26 65 42 47 21 68
37 75 55 6 15 10 77 10 139 0 133 -10 153 -88 181 -47 17 -50 21 -79 91 l-30
72 24 56 c14 34 21 65 17 80 -7 29 -170 190 -202 200 -15 5 -41 -1 -77 -18
l-56 -25 -57 23 c-31 14 -64 26 -73 29 -8 3 -21 24 -28 48 -7 23 -26 55 -41
71 -28 28 -30 28 -147 27 -65 0 -128 -4 -141 -9z"/>
<path d="M2950 3920 c-30 -11 -78 -36 -107 -55 -52 -34 -133 -126 -133 -148 1
-7 25 -37 54 -68 l53 -57 11 32 c45 124 215 197 353 151 70 -24 149 -101 172
-169 49 -145 -8 -287 -143 -355 l-60 -30 53 -57 53 -57 39 19 c63 29 151 124
187 201 28 58 33 82 36 163 5 112 -15 181 -76 269 -103 150 -322 222 -492 161z"/>
</g>
</svg>
