<?xml version="1.0" standalone="no"?>
<!DOCTYPE svg PUBLIC "-//W3C//DTD SVG 20010904//EN"
 "http://www.w3.org/TR/2001/REC-SVG-20010904/DTD/svg10.dtd">
<svg version="1.0" xmlns="http://www.w3.org/2000/svg"
 width="2400.000000pt" height="2398.000000pt" viewBox="0 0 2400.000000 2398.000000"
 preserveAspectRatio="xMidYMid meet">

<g transform="translate(0.000000,2398.000000) scale(0.100000,-0.100000)"
fill="#000000" stroke="none">
<path d="M11510 22980 c-2006 -98 -3891 -719 -5560 -1831 -650 -434 -1129
-828 -1706 -1404 -573 -573 -966 -1050 -1403 -1705 -1539 -2308 -2141 -5070
-1700 -7805 298 -1851 1084 -3621 2263 -5095 454 -569 1005 -1132 1551 -1588
1151 -961 2488 -1682 3891 -2101 1553 -462 3178 -578 4789 -341 1394 206 2739
679 3950 1392 2705 1593 4598 4258 5204 7328 147 747 206 1365 205 2170 0 504
-11 721 -55 1145 -164 1577 -673 3100 -1495 4476 -917 1535 -2223 2848 -3756
3777 -948 574 -1954 995 -3017 1262 -658 165 -1278 261 -2001 310 -208 15
-942 21 -1160 10z m1110 -1130 c517 -36 928 -91 1394 -186 1539 -315 3021
-1022 4239 -2020 379 -312 866 -780 1159 -1116 892 -1022 1542 -2150 1959
-3398 741 -2221 669 -4654 -203 -6830 -361 -902 -866 -1759 -1491 -2533 -399
-494 -917 -1015 -1423 -1429 -802 -659 -1754 -1211 -2724 -1580 -1709 -650
-3573 -814 -5390 -472 -2187 412 -4191 1574 -5649 3278 -1314 1534 -2122 3429
-2320 5436 -37 377 -45 558 -45 995 0 614 35 1055 129 1625 288 1742 1051
3395 2189 4740 264 312 679 739 956 986 1739 1546 3856 2407 6180 2514 222 10
838 4 1040 -10z"/>
<path d="M9868 13675 c-747 -575 -1361 -1045 -1365 -1045 -4 0 -30 68 -57 151
-142 436 -435 860 -789 1142 -324 259 -666 412 -1092 489 -118 22 -142 22
-1232 26 l-1113 3 0 -2416 0 -2415 1058 0 c1146 0 1186 2 1431 56 349 77 721
255 996 477 101 81 255 234 336 333 203 249 368 577 435 867 11 45 23 76 29
75 7 -2 620 -471 1364 -1043 743 -572 1356 -1040 1361 -1040 5 0 618 468 1361
1040 744 572 1356 1042 1360 1043 5 2 9 -404 9 -902 l0 -906 1540 0 1540 0 0
490 0 490 -1015 0 -1015 0 0 1925 0 1925 -560 0 -560 0 -1 -912 0 -913 -1186
-960 c-652 -528 -1234 -1000 -1294 -1048 l-109 -89 -192 168 c-106 93 -232
203 -280 246 l-87 78 607 472 c672 523 1925 1509 1959 1542 l21 21 -300 245
c-165 135 -338 276 -384 313 l-83 68 -903 -707 c-497 -389 -1080 -847 -1296
-1016 l-393 -308 -279 242 c-153 134 -279 245 -279 248 0 4 1019 776 2400
1818 l190 143 -94 77 c-334 274 -669 547 -675 549 -4 1 -618 -468 -1364 -1042z
m-3565 -230 c449 -78 825 -387 1020 -839 124 -289 155 -644 83 -966 -112 -499
-459 -908 -896 -1054 -183 -61 -238 -66 -767 -66 l-473 0 0 1470 0 1470 474 0
c375 0 491 -3 559 -15z"/>
<path d="M17470 12025 l0 -2415 1540 0 1540 0 0 490 0 490 -980 0 -980 0 0
1925 0 1925 -560 0 -560 0 0 -2415z"/>
</g>
</svg>
