<?xml version="1.0" standalone="no"?>
<!DOCTYPE svg PUBLIC "-//W3C//DTD SVG 20010904//EN"
 "http://www.w3.org/TR/2001/REC-SVG-20010904/DTD/svg10.dtd">
<svg version="1.0" xmlns="http://www.w3.org/2000/svg"
 width="394.000000pt" height="91.000000pt" viewBox="0 0 394.000000 91.000000"
 preserveAspectRatio="xMidYMid meet">

<g transform="translate(0.000000,91.000000) scale(0.100000,-0.100000)"
fill="#000000" stroke="none">
<path d="M340 886 c-126 -34 -233 -123 -291 -241 -33 -68 -34 -73 -34 -190 0
-114 2 -123 32 -188 44 -93 119 -169 212 -215 74 -37 77 -37 195 -37 117 0
123 1 189 33 222 109 318 380 211 600 -34 69 -119 161 -181 195 -99 53 -233
71 -333 43z m173 -27 c67 -34 96 -99 77 -169 -12 -43 -31 -51 -65 -27 -12 10
-14 16 -7 21 22 14 14 75 -14 103 -24 24 -30 25 -90 20 -82 -8 -162 -47 -217
-106 -24 -26 -48 -53 -53 -62 -10 -16 -84 -62 -90 -56 -8 8 50 108 87 150 45
52 87 80 168 113 62 26 166 32 204 13z m141 -36 c40 -21 124 -100 152 -145 35
-55 64 -151 64 -210 0 -113 -96 -186 -195 -148 -23 9 -26 14 -20 38 9 35 6 34
42 20 59 -22 113 21 113 92 0 46 -35 144 -69 193 -17 26 -51 60 -75 76 -24 17
-53 49 -65 71 l-21 41 22 -7 c13 -3 36 -13 52 -21z m-281 -82 c-5 -33 -1 -44
20 -65 17 -17 37 -26 59 -26 40 0 106 -30 131 -58 18 -19 18 -22 1 -47 -15
-23 -19 -24 -26 -11 -13 22 -55 42 -108 51 -84 13 -140 67 -140 135 0 25 6 33
33 45 17 8 33 14 34 15 0 0 -1 -18 -4 -39z m123 14 c15 -23 15 -27 0 -50 -11
-17 -26 -25 -44 -25 -35 0 -52 16 -52 50 0 34 17 50 52 50 18 0 33 -8 44 -25z
m-204 -78 c15 -47 15 -54 1 -69 -12 -13 -20 -15 -28 -8 -7 6 -32 14 -56 18
l-44 8 49 52 c27 28 51 52 55 52 3 0 13 -24 23 -53z m393 8 c51 -51 56 -65 20
-65 -15 0 -39 -7 -54 -15 -26 -13 -30 -13 -45 4 -15 16 -15 21 -1 47 8 16 15
39 15 52 0 33 15 27 65 -23z m-460 -99 c33 -14 34 -16 24 -45 -9 -26 -14 -29
-29 -21 -24 13 -66 13 -90 0 -82 -44 -5 -286 115 -360 18 -11 45 -41 58 -65
l25 -44 -27 10 c-90 34 -186 124 -227 213 -31 68 -48 155 -40 200 12 61 81
124 139 126 10 0 33 -6 52 -14z m139 -1 c19 -15 19 -16 -8 -44 -20 -21 -29
-44 -35 -84 -4 -30 -15 -67 -25 -81 -23 -36 -74 -66 -113 -66 -26 0 -33 5 -42
31 -6 18 -11 33 -11 35 0 1 16 0 35 -3 47 -8 95 38 95 92 0 52 46 135 74 135
6 0 20 -7 30 -15z m396 -11 c17 -43 13 -50 -26 -46 -44 5 -84 -28 -84 -68 0
-39 -19 -90 -47 -128 -24 -32 -24 -32 -53 -15 l-29 17 30 33 c17 20 29 45 29
61 0 71 37 132 95 158 48 21 74 18 85 -12z m-260 -29 c66 -34 76 -121 19 -169
-69 -59 -169 -15 -169 74 0 34 6 48 34 76 38 38 70 43 116 19z m-292 -51 c26
-18 28 -50 5 -76 -20 -22 -51 -23 -75 -1 -24 21 -23 48 2 73 24 24 38 25 68 4z
m550 0 c41 -29 19 -94 -33 -94 -21 0 -55 32 -55 51 0 13 42 59 54 59 6 0 22
-7 34 -16z m-355 -163 c16 -6 40 -11 54 -11 63 0 125 -57 139 -128 5 -27 2
-32 -24 -46 -44 -23 -49 -20 -44 19 3 21 -2 45 -12 59 -15 23 -25 27 -109 41
-21 3 -53 19 -72 36 -33 30 -34 31 -18 55 16 25 16 25 37 5 12 -11 34 -24 49
-30z m421 -72 c-80 -159 -312 -272 -434 -211 -77 38 -106 148 -55 210 1 1 14
-3 29 -9 19 -9 25 -17 20 -28 -18 -41 -15 -68 8 -96 22 -25 31 -28 81 -26 107
2 222 67 277 156 12 19 28 35 35 35 7 0 23 9 36 19 34 27 35 11 3 -50z m-527
35 c12 -12 13 -20 5 -37 -6 -12 -15 -38 -20 -57 l-8 -35 -54 54 -53 53 49 18
c64 23 63 23 81 4z m382 -3 l53 -19 -42 -46 c-47 -50 -70 -58 -70 -23 -1 12
-7 33 -15 47 -12 22 -11 27 2 43 9 9 17 17 17 17 1 -1 25 -9 55 -19z m-189
-81 c11 -11 20 -27 20 -35 0 -20 -36 -55 -57 -55 -44 0 -69 63 -37 94 21 22
50 20 74 -4z"/>
<path d="M2647 586 c-20 -8 -43 -19 -51 -25 -26 -21 -46 -78 -46 -128 0 -90
55 -143 149 -143 59 0 81 7 75 24 -3 9 -21 11 -58 8 -48 -4 -56 -1 -87 26 -32
28 -34 35 -34 92 0 57 2 64 34 92 30 27 39 29 87 26 45 -2 54 0 54 13 0 30
-61 37 -123 15z"/>
<path d="M1356 468 c-4 -68 -9 -135 -12 -150 -5 -23 -2 -28 14 -28 21 0 23 13
35 205 2 36 6 29 42 -79 35 -105 55 -139 71 -124 2 3 24 61 48 128 l43 124 8
-127 c6 -118 8 -127 27 -127 19 0 20 5 14 98 -13 197 -14 204 -43 200 -23 -3
-30 -15 -66 -117 l-40 -114 -41 117 c-38 109 -43 116 -67 116 l-27 0 -6 -122z"/>
<path d="M1850 440 l0 -150 80 0 c63 0 80 3 80 15 0 10 -16 15 -62 17 l-63 3
-3 53 -3 52 60 0 c47 0 61 3 61 15 0 10 -15 15 -57 17 l-58 3 0 45 0 45 63 3
c46 2 62 7 62 17 0 12 -17 15 -80 15 l-80 0 0 -150z"/>
<path d="M2200 440 c0 -143 1 -150 20 -150 18 0 20 7 20 65 l0 65 29 0 c16 0
36 -7 45 -15 14 -15 36 -75 36 -102 0 -7 11 -13 24 -13 l24 0 -18 61 c-10 33
-24 66 -30 74 -8 10 -8 15 3 22 24 14 39 53 32 84 -10 44 -39 59 -117 59 l-68
0 0 -150z m134 98 c9 -12 16 -28 16 -35 0 -25 -39 -53 -75 -53 l-35 0 0 55 0
55 39 0 c30 0 44 -6 55 -22z"/>
<path d="M2960 480 c0 -154 21 -190 110 -190 89 0 110 36 110 190 0 103 -1
110 -20 110 -19 0 -20 -7 -20 -109 0 -94 -3 -112 -21 -135 -28 -35 -70 -35
-98 0 -18 23 -21 41 -21 135 0 102 -1 109 -20 109 -19 0 -20 -7 -20 -110z"/>
<path d="M3360 440 c0 -143 1 -150 20 -150 18 0 20 7 20 65 0 64 0 65 28 65
41 0 56 -14 72 -72 12 -40 21 -54 37 -56 21 -3 21 -3 6 55 -8 32 -21 65 -30
75 -12 14 -12 17 0 25 41 24 47 84 12 118 -21 22 -33 25 -95 25 l-70 0 0 -150z
m132 103 c40 -36 5 -93 -57 -93 l-35 0 0 55 0 55 37 0 c20 0 45 -7 55 -17z"/>
<path d="M3744 506 c42 -75 46 -90 46 -150 0 -59 2 -66 20 -66 18 0 20 7 20
61 0 55 5 69 50 146 28 47 50 87 50 90 0 2 -10 3 -22 1 -15 -2 -33 -23 -58
-70 l-36 -68 -34 70 c-28 57 -38 70 -57 70 -23 0 -23 -2 21 -84z"/>
</g>
</svg>
